%TF.GenerationSoftware,KiCad,Pcbnew,9.0.3*%
%TF.CreationDate,2026-02-16T14:50:12+01:00*%
%TF.ProjectId,Channel,4368616e-6e65-46c2-9e6b-696361645f70,rev?*%
%TF.SameCoordinates,Original*%
%TF.FileFunction,Copper,L1,Top*%
%TF.FilePolarity,Positive*%
%FSLAX46Y46*%
G04 Gerber Fmt 4.6, Leading zero omitted, Abs format (unit mm)*
G04 Created by KiCad (PCBNEW 9.0.3) date 2026-02-16 14:50:12*
%MOMM*%
%LPD*%
G01*
G04 APERTURE LIST*
G04 Aperture macros list*
%AMRoundRect*
0 Rectangle with rounded corners*
0 $1 Rounding radius*
0 $2 $3 $4 $5 $6 $7 $8 $9 X,Y pos of 4 corners*
0 Add a 4 corners polygon primitive as box body*
4,1,4,$2,$3,$4,$5,$6,$7,$8,$9,$2,$3,0*
0 Add four circle primitives for the rounded corners*
1,1,$1+$1,$2,$3*
1,1,$1+$1,$4,$5*
1,1,$1+$1,$6,$7*
1,1,$1+$1,$8,$9*
0 Add four rect primitives between the rounded corners*
20,1,$1+$1,$2,$3,$4,$5,0*
20,1,$1+$1,$4,$5,$6,$7,0*
20,1,$1+$1,$6,$7,$8,$9,0*
20,1,$1+$1,$8,$9,$2,$3,0*%
G04 Aperture macros list end*
%TA.AperFunction,NonConductor*%
%ADD10C,0.200000*%
%TD*%
%TA.AperFunction,ComponentPad*%
%ADD11R,1.350000X1.350000*%
%TD*%
%TA.AperFunction,ComponentPad*%
%ADD12C,1.350000*%
%TD*%
%TA.AperFunction,ComponentPad*%
%ADD13C,1.600000*%
%TD*%
%TA.AperFunction,ComponentPad*%
%ADD14RoundRect,0.255000X-0.595000X-0.595000X0.595000X-0.595000X0.595000X0.595000X-0.595000X0.595000X0*%
%TD*%
%TA.AperFunction,ComponentPad*%
%ADD15C,1.700000*%
%TD*%
%TA.AperFunction,ComponentPad*%
%ADD16R,2.000000X2.000000*%
%TD*%
%TA.AperFunction,ComponentPad*%
%ADD17C,2.000000*%
%TD*%
%TA.AperFunction,ComponentPad*%
%ADD18R,3.200000X2.000000*%
%TD*%
G04 APERTURE END LIST*
D10*
X58750000Y-128500000D02*
X78250000Y-128500000D01*
X78250000Y-228500000D01*
X58750000Y-228500000D01*
X58750000Y-128500000D01*
D11*
%TO.P,J2,1,Pin_1*%
%TO.N,GND*%
X87000000Y-49000000D03*
D12*
%TO.P,J2,2,Pin_2*%
%TO.N,E_VCC*%
X87000000Y-51000000D03*
%TO.P,J2,3,Pin_3*%
%TO.N,SPI_SCK*%
X87000000Y-53000000D03*
%TO.P,J2,4,Pin_4*%
%TO.N,SPI_MOSI*%
X87000000Y-55000000D03*
%TO.P,J2,5,Pin_5*%
%TO.N,SCR_BL_PWM*%
X87000000Y-57000000D03*
%TD*%
D13*
%TO.P,R3,1*%
%TO.N,E_VCC*%
X80500000Y-72500000D03*
%TO.P,R3,2*%
%TO.N,ENC_SW*%
X80500000Y-62340000D03*
%TD*%
D14*
%TO.P,U1,1,GND*%
%TO.N,GND*%
X58900000Y-83000000D03*
D15*
%TO.P,U1,2,VCC*%
%TO.N,E_VCC*%
X61450000Y-83000000D03*
%TO.P,U1,3,SCL*%
%TO.N,SPI_SCK*%
X64000000Y-83000000D03*
%TO.P,U1,4,SDA*%
%TO.N,SPI_MOSI*%
X66550000Y-83000000D03*
%TO.P,U1,5,RST*%
%TO.N,SCREEN_RST*%
X69100000Y-83000000D03*
%TO.P,U1,6,DC*%
%TO.N,SCREEN_DC*%
X71650000Y-83000000D03*
%TO.P,U1,7,CS*%
%TO.N,SCREEN_CS*%
X74200000Y-83000000D03*
%TO.P,U1,8,BL*%
%TO.N,SCR_BL_PWM*%
X76750000Y-83000000D03*
%TD*%
D11*
%TO.P,J1,1,Pin_1*%
%TO.N,GND*%
X80000000Y-46500000D03*
D12*
%TO.P,J1,2,Pin_2*%
%TO.N,E_VCC*%
X78000000Y-46500000D03*
%TO.P,J1,3,Pin_3*%
%TO.N,SCREEN_CS*%
X76000000Y-46500000D03*
%TO.P,J1,4,Pin_4*%
%TO.N,SCREEN_DC*%
X74000000Y-46500000D03*
%TO.P,J1,5,Pin_5*%
%TO.N,ENC_CLK*%
X72000000Y-46500000D03*
%TO.P,J1,6,Pin_6*%
%TO.N,ENC_DT*%
X70000000Y-46500000D03*
%TO.P,J1,7,Pin_7*%
%TO.N,ENC_SW*%
X68000000Y-46500000D03*
%TO.P,J1,8,Pin_8*%
%TO.N,FADER_OUT*%
X66000000Y-46500000D03*
%TO.P,J1,9,Pin_9*%
%TO.N,SCREEN_RST*%
X64000000Y-46500000D03*
%TD*%
D11*
%TO.P,J4,1,Pin_1*%
%TO.N,MOTOR+*%
X82500000Y-233000000D03*
D12*
%TO.P,J4,2,Pin_2*%
%TO.N,MOTOR-*%
X82500000Y-235000000D03*
%TD*%
D16*
%TO.P,SW1,A,A*%
%TO.N,ENC_CLK*%
X75500000Y-69500000D03*
D17*
%TO.P,SW1,B,B*%
%TO.N,ENC_DT*%
X75500000Y-64500000D03*
%TO.P,SW1,C,C*%
%TO.N,GND*%
X75500000Y-67000000D03*
D18*
%TO.P,SW1,MP*%
%TO.N,N/C*%
X68000000Y-72600000D03*
X68000000Y-61400000D03*
D17*
%TO.P,SW1,S1,S1*%
%TO.N,ENC_SW*%
X61000000Y-64500000D03*
%TO.P,SW1,S2,S2*%
%TO.N,GND*%
X61000000Y-69500000D03*
%TD*%
D11*
%TO.P,J6,1,Pin_1*%
%TO.N,MOTOR+*%
X56000000Y-52000000D03*
D12*
%TO.P,J6,2,Pin_2*%
%TO.N,MOTOR-*%
X58000000Y-52000000D03*
%TD*%
D13*
%TO.P,C1,1*%
%TO.N,GND*%
X60000000Y-46500000D03*
%TO.P,C1,2*%
%TO.N,E_VCC*%
X55000000Y-46500000D03*
%TD*%
D11*
%TO.P,J3,1,Pin_1*%
%TO.N,GND*%
X47000000Y-49000000D03*
D12*
%TO.P,J3,2,Pin_2*%
%TO.N,E_VCC*%
X47000000Y-51000000D03*
%TO.P,J3,3,Pin_3*%
%TO.N,SPI_SCK*%
X47000000Y-53000000D03*
%TO.P,J3,4,Pin_4*%
%TO.N,SPI_MOSI*%
X47000000Y-55000000D03*
%TO.P,J3,5,Pin_5*%
%TO.N,SCR_BL_PWM*%
X47000000Y-57000000D03*
%TD*%
D13*
%TO.P,R2,1*%
%TO.N,E_VCC*%
X62500000Y-77500000D03*
%TO.P,R2,2*%
%TO.N,ENC_DT*%
X72660000Y-77500000D03*
%TD*%
%TO.P,R1,1*%
%TO.N,E_VCC*%
X56000000Y-73000000D03*
%TO.P,R1,2*%
%TO.N,ENC_CLK*%
X56000000Y-62840000D03*
%TD*%
M02*
