%TF.GenerationSoftware,KiCad,Pcbnew,9.0.3*%
%TF.CreationDate,2026-02-16T14:50:12+01:00*%
%TF.ProjectId,Channel,4368616e-6e65-46c2-9e6b-696361645f70,rev?*%
%TF.SameCoordinates,Original*%
%TF.FileFunction,Soldermask,Top*%
%TF.FilePolarity,Negative*%
%FSLAX46Y46*%
G04 Gerber Fmt 4.6, Leading zero omitted, Abs format (unit mm)*
G04 Created by KiCad (PCBNEW 9.0.3) date 2026-02-16 14:50:12*
%MOMM*%
%LPD*%
G01*
G04 APERTURE LIST*
G04 Aperture macros list*
%AMRoundRect*
0 Rectangle with rounded corners*
0 $1 Rounding radius*
0 $2 $3 $4 $5 $6 $7 $8 $9 X,Y pos of 4 corners*
0 Add a 4 corners polygon primitive as box body*
4,1,4,$2,$3,$4,$5,$6,$7,$8,$9,$2,$3,0*
0 Add four circle primitives for the rounded corners*
1,1,$1+$1,$2,$3*
1,1,$1+$1,$4,$5*
1,1,$1+$1,$6,$7*
1,1,$1+$1,$8,$9*
0 Add four rect primitives between the rounded corners*
20,1,$1+$1,$2,$3,$4,$5,0*
20,1,$1+$1,$4,$5,$6,$7,0*
20,1,$1+$1,$6,$7,$8,$9,0*
20,1,$1+$1,$8,$9,$2,$3,0*%
G04 Aperture macros list end*
%ADD10R,1.350000X1.350000*%
%ADD11C,1.350000*%
%ADD12C,1.600000*%
%ADD13C,3.540000*%
%ADD14RoundRect,0.255000X-0.595000X-0.595000X0.595000X-0.595000X0.595000X0.595000X-0.595000X0.595000X0*%
%ADD15C,1.700000*%
%ADD16R,2.000000X2.000000*%
%ADD17C,2.000000*%
%ADD18R,3.200000X2.000000*%
G04 APERTURE END LIST*
D10*
%TO.C,J2*%
X87000000Y-49000000D03*
D11*
X87000000Y-51000000D03*
X87000000Y-53000000D03*
X87000000Y-55000000D03*
X87000000Y-57000000D03*
%TD*%
D12*
%TO.C,R3*%
X80500000Y-72500000D03*
X80500000Y-62340000D03*
%TD*%
D13*
%TO.C,U1*%
X54350000Y-84275000D03*
X54350000Y-122925000D03*
X81300000Y-84275000D03*
X81300000Y-122925000D03*
D14*
X58900000Y-83000000D03*
D15*
X61450000Y-83000000D03*
X64000000Y-83000000D03*
X66550000Y-83000000D03*
X69100000Y-83000000D03*
X71650000Y-83000000D03*
X74200000Y-83000000D03*
X76750000Y-83000000D03*
%TD*%
D10*
%TO.C,J1*%
X80000000Y-46500000D03*
D11*
X78000000Y-46500000D03*
X76000000Y-46500000D03*
X74000000Y-46500000D03*
X72000000Y-46500000D03*
X70000000Y-46500000D03*
X68000000Y-46500000D03*
X66000000Y-46500000D03*
X64000000Y-46500000D03*
%TD*%
D10*
%TO.C,J4*%
X82500000Y-233000000D03*
D11*
X82500000Y-235000000D03*
%TD*%
D16*
%TO.C,SW1*%
X75500000Y-69500000D03*
D17*
X75500000Y-64500000D03*
X75500000Y-67000000D03*
D18*
X68000000Y-72600000D03*
X68000000Y-61400000D03*
D17*
X61000000Y-64500000D03*
X61000000Y-69500000D03*
%TD*%
D10*
%TO.C,J6*%
X56000000Y-52000000D03*
D11*
X58000000Y-52000000D03*
%TD*%
D12*
%TO.C,C1*%
X60000000Y-46500000D03*
X55000000Y-46500000D03*
%TD*%
D10*
%TO.C,J3*%
X47000000Y-49000000D03*
D11*
X47000000Y-51000000D03*
X47000000Y-53000000D03*
X47000000Y-55000000D03*
X47000000Y-57000000D03*
%TD*%
D12*
%TO.C,R2*%
X62500000Y-77500000D03*
X72660000Y-77500000D03*
%TD*%
%TO.C,R1*%
X56000000Y-73000000D03*
X56000000Y-62840000D03*
%TD*%
M02*
