%TF.GenerationSoftware,KiCad,Pcbnew,9.0.3*%
%TF.CreationDate,2026-02-21T11:27:50+01:00*%
%TF.ProjectId,Channel,4368616e-6e65-46c2-9e6b-696361645f70,rev?*%
%TF.SameCoordinates,Original*%
%TF.FileFunction,Legend,Top*%
%TF.FilePolarity,Positive*%
%FSLAX46Y46*%
G04 Gerber Fmt 4.6, Leading zero omitted, Abs format (unit mm)*
G04 Created by KiCad (PCBNEW 9.0.3) date 2026-02-21 11:27:50*
%MOMM*%
%LPD*%
G01*
G04 APERTURE LIST*
%ADD10C,0.100000*%
%ADD11C,0.150000*%
%ADD12C,0.120000*%
%ADD13C,0.050000*%
G04 APERTURE END LIST*
D10*
X58166666Y-257533609D02*
X57833333Y-257533609D01*
X57833333Y-258057419D02*
X57833333Y-257057419D01*
X57833333Y-257057419D02*
X58309523Y-257057419D01*
X59214285Y-258057419D02*
X58642857Y-258057419D01*
X58928571Y-258057419D02*
X58928571Y-257057419D01*
X58928571Y-257057419D02*
X58833333Y-257200276D01*
X58833333Y-257200276D02*
X58738095Y-257295514D01*
X58738095Y-257295514D02*
X58642857Y-257343133D01*
D11*
X76334819Y-47166666D02*
X75858628Y-47499999D01*
X76334819Y-47738094D02*
X75334819Y-47738094D01*
X75334819Y-47738094D02*
X75334819Y-47357142D01*
X75334819Y-47357142D02*
X75382438Y-47261904D01*
X75382438Y-47261904D02*
X75430057Y-47214285D01*
X75430057Y-47214285D02*
X75525295Y-47166666D01*
X75525295Y-47166666D02*
X75668152Y-47166666D01*
X75668152Y-47166666D02*
X75763390Y-47214285D01*
X75763390Y-47214285D02*
X75811009Y-47261904D01*
X75811009Y-47261904D02*
X75858628Y-47357142D01*
X75858628Y-47357142D02*
X75858628Y-47738094D01*
X75334819Y-46833332D02*
X75334819Y-46214285D01*
X75334819Y-46214285D02*
X75715771Y-46547618D01*
X75715771Y-46547618D02*
X75715771Y-46404761D01*
X75715771Y-46404761D02*
X75763390Y-46309523D01*
X75763390Y-46309523D02*
X75811009Y-46261904D01*
X75811009Y-46261904D02*
X75906247Y-46214285D01*
X75906247Y-46214285D02*
X76144342Y-46214285D01*
X76144342Y-46214285D02*
X76239580Y-46261904D01*
X76239580Y-46261904D02*
X76287200Y-46309523D01*
X76287200Y-46309523D02*
X76334819Y-46404761D01*
X76334819Y-46404761D02*
X76334819Y-46690475D01*
X76334819Y-46690475D02*
X76287200Y-46785713D01*
X76287200Y-46785713D02*
X76239580Y-46833332D01*
D10*
X66313095Y-73207419D02*
X66313095Y-74016942D01*
X66313095Y-74016942D02*
X66360714Y-74112180D01*
X66360714Y-74112180D02*
X66408333Y-74159800D01*
X66408333Y-74159800D02*
X66503571Y-74207419D01*
X66503571Y-74207419D02*
X66694047Y-74207419D01*
X66694047Y-74207419D02*
X66789285Y-74159800D01*
X66789285Y-74159800D02*
X66836904Y-74112180D01*
X66836904Y-74112180D02*
X66884523Y-74016942D01*
X66884523Y-74016942D02*
X66884523Y-73207419D01*
X67884523Y-74207419D02*
X67313095Y-74207419D01*
X67598809Y-74207419D02*
X67598809Y-73207419D01*
X67598809Y-73207419D02*
X67503571Y-73350276D01*
X67503571Y-73350276D02*
X67408333Y-73445514D01*
X67408333Y-73445514D02*
X67313095Y-73493133D01*
X76148333Y-56921704D02*
X76219761Y-56945514D01*
X76219761Y-56945514D02*
X76243571Y-56969323D01*
X76243571Y-56969323D02*
X76267380Y-57016942D01*
X76267380Y-57016942D02*
X76267380Y-57088371D01*
X76267380Y-57088371D02*
X76243571Y-57135990D01*
X76243571Y-57135990D02*
X76219761Y-57159800D01*
X76219761Y-57159800D02*
X76172142Y-57183609D01*
X76172142Y-57183609D02*
X75981666Y-57183609D01*
X75981666Y-57183609D02*
X75981666Y-56683609D01*
X75981666Y-56683609D02*
X76148333Y-56683609D01*
X76148333Y-56683609D02*
X76195952Y-56707419D01*
X76195952Y-56707419D02*
X76219761Y-56731228D01*
X76219761Y-56731228D02*
X76243571Y-56778847D01*
X76243571Y-56778847D02*
X76243571Y-56826466D01*
X76243571Y-56826466D02*
X76219761Y-56874085D01*
X76219761Y-56874085D02*
X76195952Y-56897895D01*
X76195952Y-56897895D02*
X76148333Y-56921704D01*
X76148333Y-56921704D02*
X75981666Y-56921704D01*
X76719761Y-57183609D02*
X76481666Y-57183609D01*
X76481666Y-57183609D02*
X76481666Y-56683609D01*
X58154047Y-56707419D02*
X58106428Y-56683609D01*
X58106428Y-56683609D02*
X58034999Y-56683609D01*
X58034999Y-56683609D02*
X57963571Y-56707419D01*
X57963571Y-56707419D02*
X57915952Y-56755038D01*
X57915952Y-56755038D02*
X57892142Y-56802657D01*
X57892142Y-56802657D02*
X57868333Y-56897895D01*
X57868333Y-56897895D02*
X57868333Y-56969323D01*
X57868333Y-56969323D02*
X57892142Y-57064561D01*
X57892142Y-57064561D02*
X57915952Y-57112180D01*
X57915952Y-57112180D02*
X57963571Y-57159800D01*
X57963571Y-57159800D02*
X58034999Y-57183609D01*
X58034999Y-57183609D02*
X58082618Y-57183609D01*
X58082618Y-57183609D02*
X58154047Y-57159800D01*
X58154047Y-57159800D02*
X58177856Y-57135990D01*
X58177856Y-57135990D02*
X58177856Y-56969323D01*
X58177856Y-56969323D02*
X58082618Y-56969323D01*
X58392142Y-57183609D02*
X58392142Y-56683609D01*
X58392142Y-56683609D02*
X58677856Y-57183609D01*
X58677856Y-57183609D02*
X58677856Y-56683609D01*
X58915952Y-57183609D02*
X58915952Y-56683609D01*
X58915952Y-56683609D02*
X59035000Y-56683609D01*
X59035000Y-56683609D02*
X59106428Y-56707419D01*
X59106428Y-56707419D02*
X59154047Y-56755038D01*
X59154047Y-56755038D02*
X59177857Y-56802657D01*
X59177857Y-56802657D02*
X59201666Y-56897895D01*
X59201666Y-56897895D02*
X59201666Y-56969323D01*
X59201666Y-56969323D02*
X59177857Y-57064561D01*
X59177857Y-57064561D02*
X59154047Y-57112180D01*
X59154047Y-57112180D02*
X59106428Y-57159800D01*
X59106428Y-57159800D02*
X59035000Y-57183609D01*
X59035000Y-57183609D02*
X58915952Y-57183609D01*
X65547858Y-57159800D02*
X65619286Y-57183609D01*
X65619286Y-57183609D02*
X65738334Y-57183609D01*
X65738334Y-57183609D02*
X65785953Y-57159800D01*
X65785953Y-57159800D02*
X65809762Y-57135990D01*
X65809762Y-57135990D02*
X65833572Y-57088371D01*
X65833572Y-57088371D02*
X65833572Y-57040752D01*
X65833572Y-57040752D02*
X65809762Y-56993133D01*
X65809762Y-56993133D02*
X65785953Y-56969323D01*
X65785953Y-56969323D02*
X65738334Y-56945514D01*
X65738334Y-56945514D02*
X65643096Y-56921704D01*
X65643096Y-56921704D02*
X65595477Y-56897895D01*
X65595477Y-56897895D02*
X65571667Y-56874085D01*
X65571667Y-56874085D02*
X65547858Y-56826466D01*
X65547858Y-56826466D02*
X65547858Y-56778847D01*
X65547858Y-56778847D02*
X65571667Y-56731228D01*
X65571667Y-56731228D02*
X65595477Y-56707419D01*
X65595477Y-56707419D02*
X65643096Y-56683609D01*
X65643096Y-56683609D02*
X65762143Y-56683609D01*
X65762143Y-56683609D02*
X65833572Y-56707419D01*
X66047857Y-57183609D02*
X66047857Y-56683609D01*
X66047857Y-56683609D02*
X66166905Y-56683609D01*
X66166905Y-56683609D02*
X66238333Y-56707419D01*
X66238333Y-56707419D02*
X66285952Y-56755038D01*
X66285952Y-56755038D02*
X66309762Y-56802657D01*
X66309762Y-56802657D02*
X66333571Y-56897895D01*
X66333571Y-56897895D02*
X66333571Y-56969323D01*
X66333571Y-56969323D02*
X66309762Y-57064561D01*
X66309762Y-57064561D02*
X66285952Y-57112180D01*
X66285952Y-57112180D02*
X66238333Y-57159800D01*
X66238333Y-57159800D02*
X66166905Y-57183609D01*
X66166905Y-57183609D02*
X66047857Y-57183609D01*
X66524048Y-57040752D02*
X66762143Y-57040752D01*
X66476429Y-57183609D02*
X66643095Y-56683609D01*
X66643095Y-56683609D02*
X66809762Y-57183609D01*
X60408334Y-56683609D02*
X60575000Y-57183609D01*
X60575000Y-57183609D02*
X60741667Y-56683609D01*
X61194047Y-57135990D02*
X61170238Y-57159800D01*
X61170238Y-57159800D02*
X61098809Y-57183609D01*
X61098809Y-57183609D02*
X61051190Y-57183609D01*
X61051190Y-57183609D02*
X60979762Y-57159800D01*
X60979762Y-57159800D02*
X60932143Y-57112180D01*
X60932143Y-57112180D02*
X60908333Y-57064561D01*
X60908333Y-57064561D02*
X60884524Y-56969323D01*
X60884524Y-56969323D02*
X60884524Y-56897895D01*
X60884524Y-56897895D02*
X60908333Y-56802657D01*
X60908333Y-56802657D02*
X60932143Y-56755038D01*
X60932143Y-56755038D02*
X60979762Y-56707419D01*
X60979762Y-56707419D02*
X61051190Y-56683609D01*
X61051190Y-56683609D02*
X61098809Y-56683609D01*
X61098809Y-56683609D02*
X61170238Y-56707419D01*
X61170238Y-56707419D02*
X61194047Y-56731228D01*
X61694047Y-57135990D02*
X61670238Y-57159800D01*
X61670238Y-57159800D02*
X61598809Y-57183609D01*
X61598809Y-57183609D02*
X61551190Y-57183609D01*
X61551190Y-57183609D02*
X61479762Y-57159800D01*
X61479762Y-57159800D02*
X61432143Y-57112180D01*
X61432143Y-57112180D02*
X61408333Y-57064561D01*
X61408333Y-57064561D02*
X61384524Y-56969323D01*
X61384524Y-56969323D02*
X61384524Y-56897895D01*
X61384524Y-56897895D02*
X61408333Y-56802657D01*
X61408333Y-56802657D02*
X61432143Y-56755038D01*
X61432143Y-56755038D02*
X61479762Y-56707419D01*
X61479762Y-56707419D02*
X61551190Y-56683609D01*
X61551190Y-56683609D02*
X61598809Y-56683609D01*
X61598809Y-56683609D02*
X61670238Y-56707419D01*
X61670238Y-56707419D02*
X61694047Y-56731228D01*
X70854047Y-57183609D02*
X70854047Y-56683609D01*
X70854047Y-56683609D02*
X70973095Y-56683609D01*
X70973095Y-56683609D02*
X71044523Y-56707419D01*
X71044523Y-56707419D02*
X71092142Y-56755038D01*
X71092142Y-56755038D02*
X71115952Y-56802657D01*
X71115952Y-56802657D02*
X71139761Y-56897895D01*
X71139761Y-56897895D02*
X71139761Y-56969323D01*
X71139761Y-56969323D02*
X71115952Y-57064561D01*
X71115952Y-57064561D02*
X71092142Y-57112180D01*
X71092142Y-57112180D02*
X71044523Y-57159800D01*
X71044523Y-57159800D02*
X70973095Y-57183609D01*
X70973095Y-57183609D02*
X70854047Y-57183609D01*
X71639761Y-57135990D02*
X71615952Y-57159800D01*
X71615952Y-57159800D02*
X71544523Y-57183609D01*
X71544523Y-57183609D02*
X71496904Y-57183609D01*
X71496904Y-57183609D02*
X71425476Y-57159800D01*
X71425476Y-57159800D02*
X71377857Y-57112180D01*
X71377857Y-57112180D02*
X71354047Y-57064561D01*
X71354047Y-57064561D02*
X71330238Y-56969323D01*
X71330238Y-56969323D02*
X71330238Y-56897895D01*
X71330238Y-56897895D02*
X71354047Y-56802657D01*
X71354047Y-56802657D02*
X71377857Y-56755038D01*
X71377857Y-56755038D02*
X71425476Y-56707419D01*
X71425476Y-56707419D02*
X71496904Y-56683609D01*
X71496904Y-56683609D02*
X71544523Y-56683609D01*
X71544523Y-56683609D02*
X71615952Y-56707419D01*
X71615952Y-56707419D02*
X71639761Y-56731228D01*
X63019762Y-57159800D02*
X63091190Y-57183609D01*
X63091190Y-57183609D02*
X63210238Y-57183609D01*
X63210238Y-57183609D02*
X63257857Y-57159800D01*
X63257857Y-57159800D02*
X63281666Y-57135990D01*
X63281666Y-57135990D02*
X63305476Y-57088371D01*
X63305476Y-57088371D02*
X63305476Y-57040752D01*
X63305476Y-57040752D02*
X63281666Y-56993133D01*
X63281666Y-56993133D02*
X63257857Y-56969323D01*
X63257857Y-56969323D02*
X63210238Y-56945514D01*
X63210238Y-56945514D02*
X63115000Y-56921704D01*
X63115000Y-56921704D02*
X63067381Y-56897895D01*
X63067381Y-56897895D02*
X63043571Y-56874085D01*
X63043571Y-56874085D02*
X63019762Y-56826466D01*
X63019762Y-56826466D02*
X63019762Y-56778847D01*
X63019762Y-56778847D02*
X63043571Y-56731228D01*
X63043571Y-56731228D02*
X63067381Y-56707419D01*
X63067381Y-56707419D02*
X63115000Y-56683609D01*
X63115000Y-56683609D02*
X63234047Y-56683609D01*
X63234047Y-56683609D02*
X63305476Y-56707419D01*
X63805475Y-57135990D02*
X63781666Y-57159800D01*
X63781666Y-57159800D02*
X63710237Y-57183609D01*
X63710237Y-57183609D02*
X63662618Y-57183609D01*
X63662618Y-57183609D02*
X63591190Y-57159800D01*
X63591190Y-57159800D02*
X63543571Y-57112180D01*
X63543571Y-57112180D02*
X63519761Y-57064561D01*
X63519761Y-57064561D02*
X63495952Y-56969323D01*
X63495952Y-56969323D02*
X63495952Y-56897895D01*
X63495952Y-56897895D02*
X63519761Y-56802657D01*
X63519761Y-56802657D02*
X63543571Y-56755038D01*
X63543571Y-56755038D02*
X63591190Y-56707419D01*
X63591190Y-56707419D02*
X63662618Y-56683609D01*
X63662618Y-56683609D02*
X63710237Y-56683609D01*
X63710237Y-56683609D02*
X63781666Y-56707419D01*
X63781666Y-56707419D02*
X63805475Y-56731228D01*
X64257856Y-57183609D02*
X64019761Y-57183609D01*
X64019761Y-57183609D02*
X64019761Y-56683609D01*
X73691666Y-57135990D02*
X73667857Y-57159800D01*
X73667857Y-57159800D02*
X73596428Y-57183609D01*
X73596428Y-57183609D02*
X73548809Y-57183609D01*
X73548809Y-57183609D02*
X73477381Y-57159800D01*
X73477381Y-57159800D02*
X73429762Y-57112180D01*
X73429762Y-57112180D02*
X73405952Y-57064561D01*
X73405952Y-57064561D02*
X73382143Y-56969323D01*
X73382143Y-56969323D02*
X73382143Y-56897895D01*
X73382143Y-56897895D02*
X73405952Y-56802657D01*
X73405952Y-56802657D02*
X73429762Y-56755038D01*
X73429762Y-56755038D02*
X73477381Y-56707419D01*
X73477381Y-56707419D02*
X73548809Y-56683609D01*
X73548809Y-56683609D02*
X73596428Y-56683609D01*
X73596428Y-56683609D02*
X73667857Y-56707419D01*
X73667857Y-56707419D02*
X73691666Y-56731228D01*
X73882143Y-57159800D02*
X73953571Y-57183609D01*
X73953571Y-57183609D02*
X74072619Y-57183609D01*
X74072619Y-57183609D02*
X74120238Y-57159800D01*
X74120238Y-57159800D02*
X74144047Y-57135990D01*
X74144047Y-57135990D02*
X74167857Y-57088371D01*
X74167857Y-57088371D02*
X74167857Y-57040752D01*
X74167857Y-57040752D02*
X74144047Y-56993133D01*
X74144047Y-56993133D02*
X74120238Y-56969323D01*
X74120238Y-56969323D02*
X74072619Y-56945514D01*
X74072619Y-56945514D02*
X73977381Y-56921704D01*
X73977381Y-56921704D02*
X73929762Y-56897895D01*
X73929762Y-56897895D02*
X73905952Y-56874085D01*
X73905952Y-56874085D02*
X73882143Y-56826466D01*
X73882143Y-56826466D02*
X73882143Y-56778847D01*
X73882143Y-56778847D02*
X73905952Y-56731228D01*
X73905952Y-56731228D02*
X73929762Y-56707419D01*
X73929762Y-56707419D02*
X73977381Y-56683609D01*
X73977381Y-56683609D02*
X74096428Y-56683609D01*
X74096428Y-56683609D02*
X74167857Y-56707419D01*
X68421190Y-57183609D02*
X68254524Y-56945514D01*
X68135476Y-57183609D02*
X68135476Y-56683609D01*
X68135476Y-56683609D02*
X68325952Y-56683609D01*
X68325952Y-56683609D02*
X68373571Y-56707419D01*
X68373571Y-56707419D02*
X68397381Y-56731228D01*
X68397381Y-56731228D02*
X68421190Y-56778847D01*
X68421190Y-56778847D02*
X68421190Y-56850276D01*
X68421190Y-56850276D02*
X68397381Y-56897895D01*
X68397381Y-56897895D02*
X68373571Y-56921704D01*
X68373571Y-56921704D02*
X68325952Y-56945514D01*
X68325952Y-56945514D02*
X68135476Y-56945514D01*
X68611667Y-57159800D02*
X68683095Y-57183609D01*
X68683095Y-57183609D02*
X68802143Y-57183609D01*
X68802143Y-57183609D02*
X68849762Y-57159800D01*
X68849762Y-57159800D02*
X68873571Y-57135990D01*
X68873571Y-57135990D02*
X68897381Y-57088371D01*
X68897381Y-57088371D02*
X68897381Y-57040752D01*
X68897381Y-57040752D02*
X68873571Y-56993133D01*
X68873571Y-56993133D02*
X68849762Y-56969323D01*
X68849762Y-56969323D02*
X68802143Y-56945514D01*
X68802143Y-56945514D02*
X68706905Y-56921704D01*
X68706905Y-56921704D02*
X68659286Y-56897895D01*
X68659286Y-56897895D02*
X68635476Y-56874085D01*
X68635476Y-56874085D02*
X68611667Y-56826466D01*
X68611667Y-56826466D02*
X68611667Y-56778847D01*
X68611667Y-56778847D02*
X68635476Y-56731228D01*
X68635476Y-56731228D02*
X68659286Y-56707419D01*
X68659286Y-56707419D02*
X68706905Y-56683609D01*
X68706905Y-56683609D02*
X68825952Y-56683609D01*
X68825952Y-56683609D02*
X68897381Y-56707419D01*
X69040238Y-56683609D02*
X69325952Y-56683609D01*
X69183095Y-57183609D02*
X69183095Y-56683609D01*
D11*
X80666666Y-214454819D02*
X80666666Y-215169104D01*
X80666666Y-215169104D02*
X80619047Y-215311961D01*
X80619047Y-215311961D02*
X80523809Y-215407200D01*
X80523809Y-215407200D02*
X80380952Y-215454819D01*
X80380952Y-215454819D02*
X80285714Y-215454819D01*
X81571428Y-214788152D02*
X81571428Y-215454819D01*
X81333333Y-214407200D02*
X81095238Y-215121485D01*
X81095238Y-215121485D02*
X81714285Y-215121485D01*
X77523809Y-222454819D02*
X77523809Y-221454819D01*
X77523809Y-221454819D02*
X77857142Y-222169104D01*
X77857142Y-222169104D02*
X78190475Y-221454819D01*
X78190475Y-221454819D02*
X78190475Y-222454819D01*
X78809523Y-222454819D02*
X78714285Y-222407200D01*
X78714285Y-222407200D02*
X78666666Y-222359580D01*
X78666666Y-222359580D02*
X78619047Y-222264342D01*
X78619047Y-222264342D02*
X78619047Y-221978628D01*
X78619047Y-221978628D02*
X78666666Y-221883390D01*
X78666666Y-221883390D02*
X78714285Y-221835771D01*
X78714285Y-221835771D02*
X78809523Y-221788152D01*
X78809523Y-221788152D02*
X78952380Y-221788152D01*
X78952380Y-221788152D02*
X79047618Y-221835771D01*
X79047618Y-221835771D02*
X79095237Y-221883390D01*
X79095237Y-221883390D02*
X79142856Y-221978628D01*
X79142856Y-221978628D02*
X79142856Y-222264342D01*
X79142856Y-222264342D02*
X79095237Y-222359580D01*
X79095237Y-222359580D02*
X79047618Y-222407200D01*
X79047618Y-222407200D02*
X78952380Y-222454819D01*
X78952380Y-222454819D02*
X78809523Y-222454819D01*
X79428571Y-221788152D02*
X79809523Y-221788152D01*
X79571428Y-221454819D02*
X79571428Y-222311961D01*
X79571428Y-222311961D02*
X79619047Y-222407200D01*
X79619047Y-222407200D02*
X79714285Y-222454819D01*
X79714285Y-222454819D02*
X79809523Y-222454819D01*
X80285714Y-222454819D02*
X80190476Y-222407200D01*
X80190476Y-222407200D02*
X80142857Y-222359580D01*
X80142857Y-222359580D02*
X80095238Y-222264342D01*
X80095238Y-222264342D02*
X80095238Y-221978628D01*
X80095238Y-221978628D02*
X80142857Y-221883390D01*
X80142857Y-221883390D02*
X80190476Y-221835771D01*
X80190476Y-221835771D02*
X80285714Y-221788152D01*
X80285714Y-221788152D02*
X80428571Y-221788152D01*
X80428571Y-221788152D02*
X80523809Y-221835771D01*
X80523809Y-221835771D02*
X80571428Y-221883390D01*
X80571428Y-221883390D02*
X80619047Y-221978628D01*
X80619047Y-221978628D02*
X80619047Y-222264342D01*
X80619047Y-222264342D02*
X80571428Y-222359580D01*
X80571428Y-222359580D02*
X80523809Y-222407200D01*
X80523809Y-222407200D02*
X80428571Y-222454819D01*
X80428571Y-222454819D02*
X80285714Y-222454819D01*
X81047619Y-222454819D02*
X81047619Y-221788152D01*
X81047619Y-221978628D02*
X81095238Y-221883390D01*
X81095238Y-221883390D02*
X81142857Y-221835771D01*
X81142857Y-221835771D02*
X81238095Y-221788152D01*
X81238095Y-221788152D02*
X81333333Y-221788152D01*
X81428572Y-222550057D02*
X82190476Y-222550057D01*
X82619048Y-221454819D02*
X82809524Y-221454819D01*
X82809524Y-221454819D02*
X82904762Y-221502438D01*
X82904762Y-221502438D02*
X83000000Y-221597676D01*
X83000000Y-221597676D02*
X83047619Y-221788152D01*
X83047619Y-221788152D02*
X83047619Y-222121485D01*
X83047619Y-222121485D02*
X83000000Y-222311961D01*
X83000000Y-222311961D02*
X82904762Y-222407200D01*
X82904762Y-222407200D02*
X82809524Y-222454819D01*
X82809524Y-222454819D02*
X82619048Y-222454819D01*
X82619048Y-222454819D02*
X82523810Y-222407200D01*
X82523810Y-222407200D02*
X82428572Y-222311961D01*
X82428572Y-222311961D02*
X82380953Y-222121485D01*
X82380953Y-222121485D02*
X82380953Y-221788152D01*
X82380953Y-221788152D02*
X82428572Y-221597676D01*
X82428572Y-221597676D02*
X82523810Y-221502438D01*
X82523810Y-221502438D02*
X82619048Y-221454819D01*
X83904762Y-221788152D02*
X83904762Y-222454819D01*
X83476191Y-221788152D02*
X83476191Y-222311961D01*
X83476191Y-222311961D02*
X83523810Y-222407200D01*
X83523810Y-222407200D02*
X83619048Y-222454819D01*
X83619048Y-222454819D02*
X83761905Y-222454819D01*
X83761905Y-222454819D02*
X83857143Y-222407200D01*
X83857143Y-222407200D02*
X83904762Y-222359580D01*
X84238096Y-221788152D02*
X84619048Y-221788152D01*
X84380953Y-221454819D02*
X84380953Y-222311961D01*
X84380953Y-222311961D02*
X84428572Y-222407200D01*
X84428572Y-222407200D02*
X84523810Y-222454819D01*
X84523810Y-222454819D02*
X84619048Y-222454819D01*
X68916667Y-44657200D02*
X69059524Y-44704819D01*
X69059524Y-44704819D02*
X69297619Y-44704819D01*
X69297619Y-44704819D02*
X69392857Y-44657200D01*
X69392857Y-44657200D02*
X69440476Y-44609580D01*
X69440476Y-44609580D02*
X69488095Y-44514342D01*
X69488095Y-44514342D02*
X69488095Y-44419104D01*
X69488095Y-44419104D02*
X69440476Y-44323866D01*
X69440476Y-44323866D02*
X69392857Y-44276247D01*
X69392857Y-44276247D02*
X69297619Y-44228628D01*
X69297619Y-44228628D02*
X69107143Y-44181009D01*
X69107143Y-44181009D02*
X69011905Y-44133390D01*
X69011905Y-44133390D02*
X68964286Y-44085771D01*
X68964286Y-44085771D02*
X68916667Y-43990533D01*
X68916667Y-43990533D02*
X68916667Y-43895295D01*
X68916667Y-43895295D02*
X68964286Y-43800057D01*
X68964286Y-43800057D02*
X69011905Y-43752438D01*
X69011905Y-43752438D02*
X69107143Y-43704819D01*
X69107143Y-43704819D02*
X69345238Y-43704819D01*
X69345238Y-43704819D02*
X69488095Y-43752438D01*
X69821429Y-43704819D02*
X70059524Y-44704819D01*
X70059524Y-44704819D02*
X70250000Y-43990533D01*
X70250000Y-43990533D02*
X70440476Y-44704819D01*
X70440476Y-44704819D02*
X70678572Y-43704819D01*
X71583333Y-44704819D02*
X71011905Y-44704819D01*
X71297619Y-44704819D02*
X71297619Y-43704819D01*
X71297619Y-43704819D02*
X71202381Y-43847676D01*
X71202381Y-43847676D02*
X71107143Y-43942914D01*
X71107143Y-43942914D02*
X71011905Y-43990533D01*
X80666666Y-209454819D02*
X80666666Y-210169104D01*
X80666666Y-210169104D02*
X80619047Y-210311961D01*
X80619047Y-210311961D02*
X80523809Y-210407200D01*
X80523809Y-210407200D02*
X80380952Y-210454819D01*
X80380952Y-210454819D02*
X80285714Y-210454819D01*
X81571428Y-209454819D02*
X81380952Y-209454819D01*
X81380952Y-209454819D02*
X81285714Y-209502438D01*
X81285714Y-209502438D02*
X81238095Y-209550057D01*
X81238095Y-209550057D02*
X81142857Y-209692914D01*
X81142857Y-209692914D02*
X81095238Y-209883390D01*
X81095238Y-209883390D02*
X81095238Y-210264342D01*
X81095238Y-210264342D02*
X81142857Y-210359580D01*
X81142857Y-210359580D02*
X81190476Y-210407200D01*
X81190476Y-210407200D02*
X81285714Y-210454819D01*
X81285714Y-210454819D02*
X81476190Y-210454819D01*
X81476190Y-210454819D02*
X81571428Y-210407200D01*
X81571428Y-210407200D02*
X81619047Y-210359580D01*
X81619047Y-210359580D02*
X81666666Y-210264342D01*
X81666666Y-210264342D02*
X81666666Y-210026247D01*
X81666666Y-210026247D02*
X81619047Y-209931009D01*
X81619047Y-209931009D02*
X81571428Y-209883390D01*
X81571428Y-209883390D02*
X81476190Y-209835771D01*
X81476190Y-209835771D02*
X81285714Y-209835771D01*
X81285714Y-209835771D02*
X81190476Y-209883390D01*
X81190476Y-209883390D02*
X81142857Y-209931009D01*
X81142857Y-209931009D02*
X81095238Y-210026247D01*
X83954819Y-209404761D02*
X82954819Y-209404761D01*
X82954819Y-209404761D02*
X83669104Y-209071428D01*
X83669104Y-209071428D02*
X82954819Y-208738095D01*
X82954819Y-208738095D02*
X83954819Y-208738095D01*
X83954819Y-208119047D02*
X83907200Y-208214285D01*
X83907200Y-208214285D02*
X83859580Y-208261904D01*
X83859580Y-208261904D02*
X83764342Y-208309523D01*
X83764342Y-208309523D02*
X83478628Y-208309523D01*
X83478628Y-208309523D02*
X83383390Y-208261904D01*
X83383390Y-208261904D02*
X83335771Y-208214285D01*
X83335771Y-208214285D02*
X83288152Y-208119047D01*
X83288152Y-208119047D02*
X83288152Y-207976190D01*
X83288152Y-207976190D02*
X83335771Y-207880952D01*
X83335771Y-207880952D02*
X83383390Y-207833333D01*
X83383390Y-207833333D02*
X83478628Y-207785714D01*
X83478628Y-207785714D02*
X83764342Y-207785714D01*
X83764342Y-207785714D02*
X83859580Y-207833333D01*
X83859580Y-207833333D02*
X83907200Y-207880952D01*
X83907200Y-207880952D02*
X83954819Y-207976190D01*
X83954819Y-207976190D02*
X83954819Y-208119047D01*
X83288152Y-207499999D02*
X83288152Y-207119047D01*
X82954819Y-207357142D02*
X83811961Y-207357142D01*
X83811961Y-207357142D02*
X83907200Y-207309523D01*
X83907200Y-207309523D02*
X83954819Y-207214285D01*
X83954819Y-207214285D02*
X83954819Y-207119047D01*
X83954819Y-206642856D02*
X83907200Y-206738094D01*
X83907200Y-206738094D02*
X83859580Y-206785713D01*
X83859580Y-206785713D02*
X83764342Y-206833332D01*
X83764342Y-206833332D02*
X83478628Y-206833332D01*
X83478628Y-206833332D02*
X83383390Y-206785713D01*
X83383390Y-206785713D02*
X83335771Y-206738094D01*
X83335771Y-206738094D02*
X83288152Y-206642856D01*
X83288152Y-206642856D02*
X83288152Y-206499999D01*
X83288152Y-206499999D02*
X83335771Y-206404761D01*
X83335771Y-206404761D02*
X83383390Y-206357142D01*
X83383390Y-206357142D02*
X83478628Y-206309523D01*
X83478628Y-206309523D02*
X83764342Y-206309523D01*
X83764342Y-206309523D02*
X83859580Y-206357142D01*
X83859580Y-206357142D02*
X83907200Y-206404761D01*
X83907200Y-206404761D02*
X83954819Y-206499999D01*
X83954819Y-206499999D02*
X83954819Y-206642856D01*
X83954819Y-205880951D02*
X83288152Y-205880951D01*
X83478628Y-205880951D02*
X83383390Y-205833332D01*
X83383390Y-205833332D02*
X83335771Y-205785713D01*
X83335771Y-205785713D02*
X83288152Y-205690475D01*
X83288152Y-205690475D02*
X83288152Y-205595237D01*
X84050057Y-205499999D02*
X84050057Y-204738094D01*
X83954819Y-204499998D02*
X82954819Y-204499998D01*
X83288152Y-204023808D02*
X83954819Y-204023808D01*
X83383390Y-204023808D02*
X83335771Y-203976189D01*
X83335771Y-203976189D02*
X83288152Y-203880951D01*
X83288152Y-203880951D02*
X83288152Y-203738094D01*
X83288152Y-203738094D02*
X83335771Y-203642856D01*
X83335771Y-203642856D02*
X83431009Y-203595237D01*
X83431009Y-203595237D02*
X83954819Y-203595237D01*
X67083333Y-49584819D02*
X66750000Y-49108628D01*
X66511905Y-49584819D02*
X66511905Y-48584819D01*
X66511905Y-48584819D02*
X66892857Y-48584819D01*
X66892857Y-48584819D02*
X66988095Y-48632438D01*
X66988095Y-48632438D02*
X67035714Y-48680057D01*
X67035714Y-48680057D02*
X67083333Y-48775295D01*
X67083333Y-48775295D02*
X67083333Y-48918152D01*
X67083333Y-48918152D02*
X67035714Y-49013390D01*
X67035714Y-49013390D02*
X66988095Y-49061009D01*
X66988095Y-49061009D02*
X66892857Y-49108628D01*
X66892857Y-49108628D02*
X66511905Y-49108628D01*
X67464286Y-48680057D02*
X67511905Y-48632438D01*
X67511905Y-48632438D02*
X67607143Y-48584819D01*
X67607143Y-48584819D02*
X67845238Y-48584819D01*
X67845238Y-48584819D02*
X67940476Y-48632438D01*
X67940476Y-48632438D02*
X67988095Y-48680057D01*
X67988095Y-48680057D02*
X68035714Y-48775295D01*
X68035714Y-48775295D02*
X68035714Y-48870533D01*
X68035714Y-48870533D02*
X67988095Y-49013390D01*
X67988095Y-49013390D02*
X67416667Y-49584819D01*
X67416667Y-49584819D02*
X68035714Y-49584819D01*
X54834819Y-46836666D02*
X54358628Y-47169999D01*
X54834819Y-47408094D02*
X53834819Y-47408094D01*
X53834819Y-47408094D02*
X53834819Y-47027142D01*
X53834819Y-47027142D02*
X53882438Y-46931904D01*
X53882438Y-46931904D02*
X53930057Y-46884285D01*
X53930057Y-46884285D02*
X54025295Y-46836666D01*
X54025295Y-46836666D02*
X54168152Y-46836666D01*
X54168152Y-46836666D02*
X54263390Y-46884285D01*
X54263390Y-46884285D02*
X54311009Y-46931904D01*
X54311009Y-46931904D02*
X54358628Y-47027142D01*
X54358628Y-47027142D02*
X54358628Y-47408094D01*
X54834819Y-45884285D02*
X54834819Y-46455713D01*
X54834819Y-46169999D02*
X53834819Y-46169999D01*
X53834819Y-46169999D02*
X53977676Y-46265237D01*
X53977676Y-46265237D02*
X54072914Y-46360475D01*
X54072914Y-46360475D02*
X54120533Y-46455713D01*
%TO.C,F1*%
D10*
X59000000Y-105100000D02*
X75000000Y-105100000D01*
X75000000Y-232400000D01*
X59000000Y-232400000D01*
X59000000Y-105100000D01*
X75500000Y-244900000D02*
G75*
G02*
X58500000Y-244900000I-8500000J0D01*
G01*
X58500000Y-244900000D02*
G75*
G02*
X75500000Y-244900000I8500000J0D01*
G01*
D12*
%TO.C,R3*%
X78250000Y-42960000D02*
X78250000Y-43730000D01*
X78250000Y-51040000D02*
X78250000Y-50270000D01*
X76880000Y-50270000D02*
X79620000Y-50270000D01*
X79620000Y-43730000D01*
X76880000Y-43730000D01*
X76880000Y-50270000D01*
%TO.C,U1*%
D13*
X51075000Y-53250000D02*
X83075000Y-53250000D01*
X83075000Y-96950000D01*
X51075000Y-96950000D01*
X51075000Y-53250000D01*
D10*
X51075000Y-58250000D02*
X83075000Y-58250000D01*
X83075000Y-91950000D01*
X51075000Y-91950000D01*
X51075000Y-58250000D01*
D12*
%TO.C,J4*%
X79940000Y-218500000D02*
X79940000Y-220560000D01*
X79940000Y-218500000D02*
X82060000Y-218500000D01*
X79940000Y-220560000D02*
X82060000Y-220560000D01*
X81000000Y-216440000D02*
X82060000Y-216440000D01*
X82060000Y-216440000D02*
X82060000Y-217500000D01*
X82060000Y-218500000D02*
X82060000Y-220560000D01*
%TO.C,SW1*%
X60900000Y-34500000D02*
X65000000Y-34500000D01*
X60900000Y-36900000D02*
X60900000Y-34500000D01*
X60900000Y-41700000D02*
X60900000Y-39100000D01*
X60900000Y-46300000D02*
X60900000Y-43900000D01*
X65000000Y-46300000D02*
X60900000Y-46300000D01*
X67000000Y-40900000D02*
X67000000Y-39900000D01*
X67500000Y-40400000D02*
X66500000Y-40400000D01*
X69000000Y-34500000D02*
X73100000Y-34500000D01*
X69000000Y-46300000D02*
X73100000Y-46300000D01*
X73100000Y-46300000D02*
X73100000Y-34500000D01*
X74200000Y-44500000D02*
X74500000Y-44200000D01*
X74500000Y-44200000D02*
X74800000Y-44500000D01*
X74800000Y-44500000D02*
X74200000Y-44500000D01*
X70000000Y-40400000D02*
G75*
G02*
X64000000Y-40400000I-3000000J0D01*
G01*
X64000000Y-40400000D02*
G75*
G02*
X70000000Y-40400000I3000000J0D01*
G01*
%TO.C,J6*%
X79940000Y-206500000D02*
X79940000Y-204440000D01*
X79940000Y-208560000D02*
X79940000Y-207500000D01*
X81000000Y-208560000D02*
X79940000Y-208560000D01*
X82060000Y-204440000D02*
X79940000Y-204440000D01*
X82060000Y-206500000D02*
X79940000Y-206500000D01*
X82060000Y-206500000D02*
X82060000Y-204440000D01*
%TO.C,R2*%
X63210000Y-51500000D02*
X63980000Y-51500000D01*
X71290000Y-51500000D02*
X70520000Y-51500000D01*
X63980000Y-50130000D02*
X70520000Y-50130000D01*
X70520000Y-52870000D01*
X63980000Y-52870000D01*
X63980000Y-50130000D01*
%TO.C,R1*%
X56750000Y-42630000D02*
X56750000Y-43400000D01*
X56750000Y-50710000D02*
X56750000Y-49940000D01*
X55380000Y-49940000D02*
X58120000Y-49940000D01*
X58120000Y-43400000D01*
X55380000Y-43400000D01*
X55380000Y-49940000D01*
%TD*%
M02*
