%TF.GenerationSoftware,KiCad,Pcbnew,9.0.3*%
%TF.CreationDate,2026-02-21T11:18:13+01:00*%
%TF.ProjectId,Channel,4368616e-6e65-46c2-9e6b-696361645f70,rev?*%
%TF.SameCoordinates,Original*%
%TF.FileFunction,Legend,Bot*%
%TF.FilePolarity,Positive*%
%FSLAX46Y46*%
G04 Gerber Fmt 4.6, Leading zero omitted, Abs format (unit mm)*
G04 Created by KiCad (PCBNEW 9.0.3) date 2026-02-21 11:18:13*
%MOMM*%
%LPD*%
G01*
G04 APERTURE LIST*
%ADD10C,0.150000*%
%ADD11C,0.120000*%
G04 APERTURE END LIST*
D10*
X82833333Y-40454819D02*
X82833333Y-41169104D01*
X82833333Y-41169104D02*
X82880952Y-41311961D01*
X82880952Y-41311961D02*
X82976190Y-41407200D01*
X82976190Y-41407200D02*
X83119047Y-41454819D01*
X83119047Y-41454819D02*
X83214285Y-41454819D01*
X82404761Y-40550057D02*
X82357142Y-40502438D01*
X82357142Y-40502438D02*
X82261904Y-40454819D01*
X82261904Y-40454819D02*
X82023809Y-40454819D01*
X82023809Y-40454819D02*
X81928571Y-40502438D01*
X81928571Y-40502438D02*
X81880952Y-40550057D01*
X81880952Y-40550057D02*
X81833333Y-40645295D01*
X81833333Y-40645295D02*
X81833333Y-40740533D01*
X81833333Y-40740533D02*
X81880952Y-40883390D01*
X81880952Y-40883390D02*
X82452380Y-41454819D01*
X82452380Y-41454819D02*
X81833333Y-41454819D01*
X80907200Y-42738096D02*
X80954819Y-42880953D01*
X80954819Y-42880953D02*
X80954819Y-43119048D01*
X80954819Y-43119048D02*
X80907200Y-43214286D01*
X80907200Y-43214286D02*
X80859580Y-43261905D01*
X80859580Y-43261905D02*
X80764342Y-43309524D01*
X80764342Y-43309524D02*
X80669104Y-43309524D01*
X80669104Y-43309524D02*
X80573866Y-43261905D01*
X80573866Y-43261905D02*
X80526247Y-43214286D01*
X80526247Y-43214286D02*
X80478628Y-43119048D01*
X80478628Y-43119048D02*
X80431009Y-42928572D01*
X80431009Y-42928572D02*
X80383390Y-42833334D01*
X80383390Y-42833334D02*
X80335771Y-42785715D01*
X80335771Y-42785715D02*
X80240533Y-42738096D01*
X80240533Y-42738096D02*
X80145295Y-42738096D01*
X80145295Y-42738096D02*
X80050057Y-42785715D01*
X80050057Y-42785715D02*
X80002438Y-42833334D01*
X80002438Y-42833334D02*
X79954819Y-42928572D01*
X79954819Y-42928572D02*
X79954819Y-43166667D01*
X79954819Y-43166667D02*
X80002438Y-43309524D01*
X80954819Y-43738096D02*
X79954819Y-43738096D01*
X79954819Y-43738096D02*
X79954819Y-44119048D01*
X79954819Y-44119048D02*
X80002438Y-44214286D01*
X80002438Y-44214286D02*
X80050057Y-44261905D01*
X80050057Y-44261905D02*
X80145295Y-44309524D01*
X80145295Y-44309524D02*
X80288152Y-44309524D01*
X80288152Y-44309524D02*
X80383390Y-44261905D01*
X80383390Y-44261905D02*
X80431009Y-44214286D01*
X80431009Y-44214286D02*
X80478628Y-44119048D01*
X80478628Y-44119048D02*
X80478628Y-43738096D01*
X80954819Y-44738096D02*
X79954819Y-44738096D01*
X81050057Y-44976191D02*
X81050057Y-45738095D01*
X80859580Y-46547619D02*
X80907200Y-46500000D01*
X80907200Y-46500000D02*
X80954819Y-46357143D01*
X80954819Y-46357143D02*
X80954819Y-46261905D01*
X80954819Y-46261905D02*
X80907200Y-46119048D01*
X80907200Y-46119048D02*
X80811961Y-46023810D01*
X80811961Y-46023810D02*
X80716723Y-45976191D01*
X80716723Y-45976191D02*
X80526247Y-45928572D01*
X80526247Y-45928572D02*
X80383390Y-45928572D01*
X80383390Y-45928572D02*
X80192914Y-45976191D01*
X80192914Y-45976191D02*
X80097676Y-46023810D01*
X80097676Y-46023810D02*
X80002438Y-46119048D01*
X80002438Y-46119048D02*
X79954819Y-46261905D01*
X79954819Y-46261905D02*
X79954819Y-46357143D01*
X79954819Y-46357143D02*
X80002438Y-46500000D01*
X80002438Y-46500000D02*
X80050057Y-46547619D01*
X80954819Y-46976191D02*
X79954819Y-46976191D01*
X80431009Y-46976191D02*
X80431009Y-47547619D01*
X80954819Y-47547619D02*
X79954819Y-47547619D01*
X80669104Y-47976191D02*
X80669104Y-48452381D01*
X80954819Y-47880953D02*
X79954819Y-48214286D01*
X79954819Y-48214286D02*
X80954819Y-48547619D01*
X80954819Y-48880953D02*
X79954819Y-48880953D01*
X80954819Y-49357143D02*
X79954819Y-49357143D01*
X79954819Y-49357143D02*
X80954819Y-49928571D01*
X80954819Y-49928571D02*
X79954819Y-49928571D01*
X81050057Y-50166667D02*
X81050057Y-50928571D01*
X80954819Y-51166667D02*
X79954819Y-51166667D01*
X80954819Y-51642857D02*
X79954819Y-51642857D01*
X79954819Y-51642857D02*
X80954819Y-52214285D01*
X80954819Y-52214285D02*
X79954819Y-52214285D01*
X76083333Y-63954819D02*
X76083333Y-64669104D01*
X76083333Y-64669104D02*
X76130952Y-64811961D01*
X76130952Y-64811961D02*
X76226190Y-64907200D01*
X76226190Y-64907200D02*
X76369047Y-64954819D01*
X76369047Y-64954819D02*
X76464285Y-64954819D01*
X75083333Y-64954819D02*
X75654761Y-64954819D01*
X75369047Y-64954819D02*
X75369047Y-63954819D01*
X75369047Y-63954819D02*
X75464285Y-64097676D01*
X75464285Y-64097676D02*
X75559523Y-64192914D01*
X75559523Y-64192914D02*
X75654761Y-64240533D01*
X72845237Y-64954819D02*
X72845237Y-63954819D01*
X72845237Y-63954819D02*
X72511904Y-64669104D01*
X72511904Y-64669104D02*
X72178571Y-63954819D01*
X72178571Y-63954819D02*
X72178571Y-64954819D01*
X71273809Y-64954819D02*
X71273809Y-64431009D01*
X71273809Y-64431009D02*
X71321428Y-64335771D01*
X71321428Y-64335771D02*
X71416666Y-64288152D01*
X71416666Y-64288152D02*
X71607142Y-64288152D01*
X71607142Y-64288152D02*
X71702380Y-64335771D01*
X71273809Y-64907200D02*
X71369047Y-64954819D01*
X71369047Y-64954819D02*
X71607142Y-64954819D01*
X71607142Y-64954819D02*
X71702380Y-64907200D01*
X71702380Y-64907200D02*
X71749999Y-64811961D01*
X71749999Y-64811961D02*
X71749999Y-64716723D01*
X71749999Y-64716723D02*
X71702380Y-64621485D01*
X71702380Y-64621485D02*
X71607142Y-64573866D01*
X71607142Y-64573866D02*
X71369047Y-64573866D01*
X71369047Y-64573866D02*
X71273809Y-64526247D01*
X70797618Y-64954819D02*
X70797618Y-64288152D01*
X70797618Y-63954819D02*
X70845237Y-64002438D01*
X70845237Y-64002438D02*
X70797618Y-64050057D01*
X70797618Y-64050057D02*
X70749999Y-64002438D01*
X70749999Y-64002438D02*
X70797618Y-63954819D01*
X70797618Y-63954819D02*
X70797618Y-64050057D01*
X70321428Y-64288152D02*
X70321428Y-64954819D01*
X70321428Y-64383390D02*
X70273809Y-64335771D01*
X70273809Y-64335771D02*
X70178571Y-64288152D01*
X70178571Y-64288152D02*
X70035714Y-64288152D01*
X70035714Y-64288152D02*
X69940476Y-64335771D01*
X69940476Y-64335771D02*
X69892857Y-64431009D01*
X69892857Y-64431009D02*
X69892857Y-64954819D01*
X69416666Y-64954819D02*
X69416666Y-63954819D01*
X69416666Y-64335771D02*
X69321428Y-64288152D01*
X69321428Y-64288152D02*
X69130952Y-64288152D01*
X69130952Y-64288152D02*
X69035714Y-64335771D01*
X69035714Y-64335771D02*
X68988095Y-64383390D01*
X68988095Y-64383390D02*
X68940476Y-64478628D01*
X68940476Y-64478628D02*
X68940476Y-64764342D01*
X68940476Y-64764342D02*
X68988095Y-64859580D01*
X68988095Y-64859580D02*
X69035714Y-64907200D01*
X69035714Y-64907200D02*
X69130952Y-64954819D01*
X69130952Y-64954819D02*
X69321428Y-64954819D01*
X69321428Y-64954819D02*
X69416666Y-64907200D01*
X68369047Y-64954819D02*
X68464285Y-64907200D01*
X68464285Y-64907200D02*
X68511904Y-64859580D01*
X68511904Y-64859580D02*
X68559523Y-64764342D01*
X68559523Y-64764342D02*
X68559523Y-64478628D01*
X68559523Y-64478628D02*
X68511904Y-64383390D01*
X68511904Y-64383390D02*
X68464285Y-64335771D01*
X68464285Y-64335771D02*
X68369047Y-64288152D01*
X68369047Y-64288152D02*
X68226190Y-64288152D01*
X68226190Y-64288152D02*
X68130952Y-64335771D01*
X68130952Y-64335771D02*
X68083333Y-64383390D01*
X68083333Y-64383390D02*
X68035714Y-64478628D01*
X68035714Y-64478628D02*
X68035714Y-64764342D01*
X68035714Y-64764342D02*
X68083333Y-64859580D01*
X68083333Y-64859580D02*
X68130952Y-64907200D01*
X68130952Y-64907200D02*
X68226190Y-64954819D01*
X68226190Y-64954819D02*
X68369047Y-64954819D01*
X67178571Y-64954819D02*
X67178571Y-64431009D01*
X67178571Y-64431009D02*
X67226190Y-64335771D01*
X67226190Y-64335771D02*
X67321428Y-64288152D01*
X67321428Y-64288152D02*
X67511904Y-64288152D01*
X67511904Y-64288152D02*
X67607142Y-64335771D01*
X67178571Y-64907200D02*
X67273809Y-64954819D01*
X67273809Y-64954819D02*
X67511904Y-64954819D01*
X67511904Y-64954819D02*
X67607142Y-64907200D01*
X67607142Y-64907200D02*
X67654761Y-64811961D01*
X67654761Y-64811961D02*
X67654761Y-64716723D01*
X67654761Y-64716723D02*
X67607142Y-64621485D01*
X67607142Y-64621485D02*
X67511904Y-64573866D01*
X67511904Y-64573866D02*
X67273809Y-64573866D01*
X67273809Y-64573866D02*
X67178571Y-64526247D01*
X66702380Y-64954819D02*
X66702380Y-64288152D01*
X66702380Y-64478628D02*
X66654761Y-64383390D01*
X66654761Y-64383390D02*
X66607142Y-64335771D01*
X66607142Y-64335771D02*
X66511904Y-64288152D01*
X66511904Y-64288152D02*
X66416666Y-64288152D01*
X65654761Y-64954819D02*
X65654761Y-63954819D01*
X65654761Y-64907200D02*
X65749999Y-64954819D01*
X65749999Y-64954819D02*
X65940475Y-64954819D01*
X65940475Y-64954819D02*
X66035713Y-64907200D01*
X66035713Y-64907200D02*
X66083332Y-64859580D01*
X66083332Y-64859580D02*
X66130951Y-64764342D01*
X66130951Y-64764342D02*
X66130951Y-64478628D01*
X66130951Y-64478628D02*
X66083332Y-64383390D01*
X66083332Y-64383390D02*
X66035713Y-64335771D01*
X66035713Y-64335771D02*
X65940475Y-64288152D01*
X65940475Y-64288152D02*
X65749999Y-64288152D01*
X65749999Y-64288152D02*
X65654761Y-64335771D01*
X58416666Y-64859580D02*
X58464285Y-64907200D01*
X58464285Y-64907200D02*
X58607142Y-64954819D01*
X58607142Y-64954819D02*
X58702380Y-64954819D01*
X58702380Y-64954819D02*
X58845237Y-64907200D01*
X58845237Y-64907200D02*
X58940475Y-64811961D01*
X58940475Y-64811961D02*
X58988094Y-64716723D01*
X58988094Y-64716723D02*
X59035713Y-64526247D01*
X59035713Y-64526247D02*
X59035713Y-64383390D01*
X59035713Y-64383390D02*
X58988094Y-64192914D01*
X58988094Y-64192914D02*
X58940475Y-64097676D01*
X58940475Y-64097676D02*
X58845237Y-64002438D01*
X58845237Y-64002438D02*
X58702380Y-63954819D01*
X58702380Y-63954819D02*
X58607142Y-63954819D01*
X58607142Y-63954819D02*
X58464285Y-64002438D01*
X58464285Y-64002438D02*
X58416666Y-64050057D01*
X57464285Y-64954819D02*
X58035713Y-64954819D01*
X57749999Y-64954819D02*
X57749999Y-63954819D01*
X57749999Y-63954819D02*
X57845237Y-64097676D01*
X57845237Y-64097676D02*
X57940475Y-64192914D01*
X57940475Y-64192914D02*
X58035713Y-64240533D01*
X52333333Y-40704819D02*
X52333333Y-41419104D01*
X52333333Y-41419104D02*
X52380952Y-41561961D01*
X52380952Y-41561961D02*
X52476190Y-41657200D01*
X52476190Y-41657200D02*
X52619047Y-41704819D01*
X52619047Y-41704819D02*
X52714285Y-41704819D01*
X51952380Y-40704819D02*
X51333333Y-40704819D01*
X51333333Y-40704819D02*
X51666666Y-41085771D01*
X51666666Y-41085771D02*
X51523809Y-41085771D01*
X51523809Y-41085771D02*
X51428571Y-41133390D01*
X51428571Y-41133390D02*
X51380952Y-41181009D01*
X51380952Y-41181009D02*
X51333333Y-41276247D01*
X51333333Y-41276247D02*
X51333333Y-41514342D01*
X51333333Y-41514342D02*
X51380952Y-41609580D01*
X51380952Y-41609580D02*
X51428571Y-41657200D01*
X51428571Y-41657200D02*
X51523809Y-41704819D01*
X51523809Y-41704819D02*
X51809523Y-41704819D01*
X51809523Y-41704819D02*
X51904761Y-41657200D01*
X51904761Y-41657200D02*
X51952380Y-41609580D01*
X54657200Y-42321429D02*
X54704819Y-42464286D01*
X54704819Y-42464286D02*
X54704819Y-42702381D01*
X54704819Y-42702381D02*
X54657200Y-42797619D01*
X54657200Y-42797619D02*
X54609580Y-42845238D01*
X54609580Y-42845238D02*
X54514342Y-42892857D01*
X54514342Y-42892857D02*
X54419104Y-42892857D01*
X54419104Y-42892857D02*
X54323866Y-42845238D01*
X54323866Y-42845238D02*
X54276247Y-42797619D01*
X54276247Y-42797619D02*
X54228628Y-42702381D01*
X54228628Y-42702381D02*
X54181009Y-42511905D01*
X54181009Y-42511905D02*
X54133390Y-42416667D01*
X54133390Y-42416667D02*
X54085771Y-42369048D01*
X54085771Y-42369048D02*
X53990533Y-42321429D01*
X53990533Y-42321429D02*
X53895295Y-42321429D01*
X53895295Y-42321429D02*
X53800057Y-42369048D01*
X53800057Y-42369048D02*
X53752438Y-42416667D01*
X53752438Y-42416667D02*
X53704819Y-42511905D01*
X53704819Y-42511905D02*
X53704819Y-42750000D01*
X53704819Y-42750000D02*
X53752438Y-42892857D01*
X54704819Y-43321429D02*
X53704819Y-43321429D01*
X53704819Y-43321429D02*
X53704819Y-43702381D01*
X53704819Y-43702381D02*
X53752438Y-43797619D01*
X53752438Y-43797619D02*
X53800057Y-43845238D01*
X53800057Y-43845238D02*
X53895295Y-43892857D01*
X53895295Y-43892857D02*
X54038152Y-43892857D01*
X54038152Y-43892857D02*
X54133390Y-43845238D01*
X54133390Y-43845238D02*
X54181009Y-43797619D01*
X54181009Y-43797619D02*
X54228628Y-43702381D01*
X54228628Y-43702381D02*
X54228628Y-43321429D01*
X54704819Y-44321429D02*
X53704819Y-44321429D01*
X54800057Y-44559524D02*
X54800057Y-45321428D01*
X54609580Y-46130952D02*
X54657200Y-46083333D01*
X54657200Y-46083333D02*
X54704819Y-45940476D01*
X54704819Y-45940476D02*
X54704819Y-45845238D01*
X54704819Y-45845238D02*
X54657200Y-45702381D01*
X54657200Y-45702381D02*
X54561961Y-45607143D01*
X54561961Y-45607143D02*
X54466723Y-45559524D01*
X54466723Y-45559524D02*
X54276247Y-45511905D01*
X54276247Y-45511905D02*
X54133390Y-45511905D01*
X54133390Y-45511905D02*
X53942914Y-45559524D01*
X53942914Y-45559524D02*
X53847676Y-45607143D01*
X53847676Y-45607143D02*
X53752438Y-45702381D01*
X53752438Y-45702381D02*
X53704819Y-45845238D01*
X53704819Y-45845238D02*
X53704819Y-45940476D01*
X53704819Y-45940476D02*
X53752438Y-46083333D01*
X53752438Y-46083333D02*
X53800057Y-46130952D01*
X54704819Y-46559524D02*
X53704819Y-46559524D01*
X54181009Y-46559524D02*
X54181009Y-47130952D01*
X54704819Y-47130952D02*
X53704819Y-47130952D01*
X54419104Y-47559524D02*
X54419104Y-48035714D01*
X54704819Y-47464286D02*
X53704819Y-47797619D01*
X53704819Y-47797619D02*
X54704819Y-48130952D01*
X54704819Y-48464286D02*
X53704819Y-48464286D01*
X54704819Y-48940476D02*
X53704819Y-48940476D01*
X53704819Y-48940476D02*
X54704819Y-49511904D01*
X54704819Y-49511904D02*
X53704819Y-49511904D01*
X54800057Y-49750000D02*
X54800057Y-50511904D01*
X53704819Y-50940476D02*
X53704819Y-51130952D01*
X53704819Y-51130952D02*
X53752438Y-51226190D01*
X53752438Y-51226190D02*
X53847676Y-51321428D01*
X53847676Y-51321428D02*
X54038152Y-51369047D01*
X54038152Y-51369047D02*
X54371485Y-51369047D01*
X54371485Y-51369047D02*
X54561961Y-51321428D01*
X54561961Y-51321428D02*
X54657200Y-51226190D01*
X54657200Y-51226190D02*
X54704819Y-51130952D01*
X54704819Y-51130952D02*
X54704819Y-50940476D01*
X54704819Y-50940476D02*
X54657200Y-50845238D01*
X54657200Y-50845238D02*
X54561961Y-50750000D01*
X54561961Y-50750000D02*
X54371485Y-50702381D01*
X54371485Y-50702381D02*
X54038152Y-50702381D01*
X54038152Y-50702381D02*
X53847676Y-50750000D01*
X53847676Y-50750000D02*
X53752438Y-50845238D01*
X53752438Y-50845238D02*
X53704819Y-50940476D01*
X53704819Y-51797619D02*
X54514342Y-51797619D01*
X54514342Y-51797619D02*
X54609580Y-51845238D01*
X54609580Y-51845238D02*
X54657200Y-51892857D01*
X54657200Y-51892857D02*
X54704819Y-51988095D01*
X54704819Y-51988095D02*
X54704819Y-52178571D01*
X54704819Y-52178571D02*
X54657200Y-52273809D01*
X54657200Y-52273809D02*
X54609580Y-52321428D01*
X54609580Y-52321428D02*
X54514342Y-52369047D01*
X54514342Y-52369047D02*
X53704819Y-52369047D01*
X53704819Y-52702381D02*
X53704819Y-53273809D01*
X54704819Y-52988095D02*
X53704819Y-52988095D01*
D11*
%TO.C,J2*%
X83560000Y-44500000D02*
X83560000Y-52560000D01*
X83560000Y-44500000D02*
X81440000Y-44500000D01*
X83560000Y-52560000D02*
X81440000Y-52560000D01*
X82500000Y-42440000D02*
X81440000Y-42440000D01*
X81440000Y-42440000D02*
X81440000Y-43500000D01*
X81440000Y-44500000D02*
X81440000Y-52560000D01*
%TO.C,J1*%
X81060000Y-60940000D02*
X81060000Y-63060000D01*
X65000000Y-60940000D02*
X81060000Y-60940000D01*
X65000000Y-60940000D02*
X65000000Y-63060000D01*
X65000000Y-63060000D02*
X81060000Y-63060000D01*
X62940000Y-62000000D02*
X62940000Y-63060000D01*
X62940000Y-63060000D02*
X64000000Y-63060000D01*
%TO.C,C1*%
X60870000Y-60630000D02*
X55630000Y-60630000D01*
X60870000Y-60967000D02*
X60870000Y-60630000D01*
X60870000Y-63370000D02*
X60870000Y-63033000D01*
X55630000Y-60630000D02*
X55630000Y-60967000D01*
X55630000Y-63033000D02*
X55630000Y-63370000D01*
X55630000Y-63370000D02*
X60870000Y-63370000D01*
%TO.C,J3*%
X53060000Y-44500000D02*
X53060000Y-52560000D01*
X53060000Y-44500000D02*
X50940000Y-44500000D01*
X53060000Y-52560000D02*
X50940000Y-52560000D01*
X52000000Y-42440000D02*
X50940000Y-42440000D01*
X50940000Y-42440000D02*
X50940000Y-43500000D01*
X50940000Y-44500000D02*
X50940000Y-52560000D01*
%TD*%
M02*
