%TF.GenerationSoftware,KiCad,Pcbnew,9.0.3*%
%TF.CreationDate,2026-02-16T14:50:12+01:00*%
%TF.ProjectId,Channel,4368616e-6e65-46c2-9e6b-696361645f70,rev?*%
%TF.SameCoordinates,Original*%
%TF.FileFunction,Legend,Top*%
%TF.FilePolarity,Positive*%
%FSLAX46Y46*%
G04 Gerber Fmt 4.6, Leading zero omitted, Abs format (unit mm)*
G04 Created by KiCad (PCBNEW 9.0.3) date 2026-02-16 14:50:12*
%MOMM*%
%LPD*%
G01*
G04 APERTURE LIST*
%ADD10C,0.300000*%
%ADD11C,0.150000*%
%ADD12C,0.100000*%
%ADD13C,0.000000*%
%ADD14C,0.120000*%
%ADD15C,0.050000*%
G04 APERTURE END LIST*
D10*
X52178572Y-232249757D02*
X52035715Y-232178328D01*
X52035715Y-232178328D02*
X51821429Y-232178328D01*
X51821429Y-232178328D02*
X51607143Y-232249757D01*
X51607143Y-232249757D02*
X51464286Y-232392614D01*
X51464286Y-232392614D02*
X51392857Y-232535471D01*
X51392857Y-232535471D02*
X51321429Y-232821185D01*
X51321429Y-232821185D02*
X51321429Y-233035471D01*
X51321429Y-233035471D02*
X51392857Y-233321185D01*
X51392857Y-233321185D02*
X51464286Y-233464042D01*
X51464286Y-233464042D02*
X51607143Y-233606900D01*
X51607143Y-233606900D02*
X51821429Y-233678328D01*
X51821429Y-233678328D02*
X51964286Y-233678328D01*
X51964286Y-233678328D02*
X52178572Y-233606900D01*
X52178572Y-233606900D02*
X52250000Y-233535471D01*
X52250000Y-233535471D02*
X52250000Y-233035471D01*
X52250000Y-233035471D02*
X51964286Y-233035471D01*
X53107143Y-232178328D02*
X53107143Y-232535471D01*
X52750000Y-232392614D02*
X53107143Y-232535471D01*
X53107143Y-232535471D02*
X53464286Y-232392614D01*
X52892857Y-232821185D02*
X53107143Y-232535471D01*
X53107143Y-232535471D02*
X53321429Y-232821185D01*
X54250000Y-232178328D02*
X54250000Y-232535471D01*
X53892857Y-232392614D02*
X54250000Y-232535471D01*
X54250000Y-232535471D02*
X54607143Y-232392614D01*
X54035714Y-232821185D02*
X54250000Y-232535471D01*
X54250000Y-232535471D02*
X54464286Y-232821185D01*
X55392857Y-232178328D02*
X55392857Y-232535471D01*
X55035714Y-232392614D02*
X55392857Y-232535471D01*
X55392857Y-232535471D02*
X55750000Y-232392614D01*
X55178571Y-232821185D02*
X55392857Y-232535471D01*
X55392857Y-232535471D02*
X55607143Y-232821185D01*
D11*
X86666666Y-45954819D02*
X86666666Y-46669104D01*
X86666666Y-46669104D02*
X86619047Y-46811961D01*
X86619047Y-46811961D02*
X86523809Y-46907200D01*
X86523809Y-46907200D02*
X86380952Y-46954819D01*
X86380952Y-46954819D02*
X86285714Y-46954819D01*
X87095238Y-46050057D02*
X87142857Y-46002438D01*
X87142857Y-46002438D02*
X87238095Y-45954819D01*
X87238095Y-45954819D02*
X87476190Y-45954819D01*
X87476190Y-45954819D02*
X87571428Y-46002438D01*
X87571428Y-46002438D02*
X87619047Y-46050057D01*
X87619047Y-46050057D02*
X87666666Y-46145295D01*
X87666666Y-46145295D02*
X87666666Y-46240533D01*
X87666666Y-46240533D02*
X87619047Y-46383390D01*
X87619047Y-46383390D02*
X87047619Y-46954819D01*
X87047619Y-46954819D02*
X87666666Y-46954819D01*
X84407200Y-57761903D02*
X84454819Y-57619046D01*
X84454819Y-57619046D02*
X84454819Y-57380951D01*
X84454819Y-57380951D02*
X84407200Y-57285713D01*
X84407200Y-57285713D02*
X84359580Y-57238094D01*
X84359580Y-57238094D02*
X84264342Y-57190475D01*
X84264342Y-57190475D02*
X84169104Y-57190475D01*
X84169104Y-57190475D02*
X84073866Y-57238094D01*
X84073866Y-57238094D02*
X84026247Y-57285713D01*
X84026247Y-57285713D02*
X83978628Y-57380951D01*
X83978628Y-57380951D02*
X83931009Y-57571427D01*
X83931009Y-57571427D02*
X83883390Y-57666665D01*
X83883390Y-57666665D02*
X83835771Y-57714284D01*
X83835771Y-57714284D02*
X83740533Y-57761903D01*
X83740533Y-57761903D02*
X83645295Y-57761903D01*
X83645295Y-57761903D02*
X83550057Y-57714284D01*
X83550057Y-57714284D02*
X83502438Y-57666665D01*
X83502438Y-57666665D02*
X83454819Y-57571427D01*
X83454819Y-57571427D02*
X83454819Y-57333332D01*
X83454819Y-57333332D02*
X83502438Y-57190475D01*
X84454819Y-56761903D02*
X83454819Y-56761903D01*
X83454819Y-56761903D02*
X83454819Y-56380951D01*
X83454819Y-56380951D02*
X83502438Y-56285713D01*
X83502438Y-56285713D02*
X83550057Y-56238094D01*
X83550057Y-56238094D02*
X83645295Y-56190475D01*
X83645295Y-56190475D02*
X83788152Y-56190475D01*
X83788152Y-56190475D02*
X83883390Y-56238094D01*
X83883390Y-56238094D02*
X83931009Y-56285713D01*
X83931009Y-56285713D02*
X83978628Y-56380951D01*
X83978628Y-56380951D02*
X83978628Y-56761903D01*
X84454819Y-55761903D02*
X83454819Y-55761903D01*
X84550057Y-55523809D02*
X84550057Y-54761904D01*
X84359580Y-53952380D02*
X84407200Y-53999999D01*
X84407200Y-53999999D02*
X84454819Y-54142856D01*
X84454819Y-54142856D02*
X84454819Y-54238094D01*
X84454819Y-54238094D02*
X84407200Y-54380951D01*
X84407200Y-54380951D02*
X84311961Y-54476189D01*
X84311961Y-54476189D02*
X84216723Y-54523808D01*
X84216723Y-54523808D02*
X84026247Y-54571427D01*
X84026247Y-54571427D02*
X83883390Y-54571427D01*
X83883390Y-54571427D02*
X83692914Y-54523808D01*
X83692914Y-54523808D02*
X83597676Y-54476189D01*
X83597676Y-54476189D02*
X83502438Y-54380951D01*
X83502438Y-54380951D02*
X83454819Y-54238094D01*
X83454819Y-54238094D02*
X83454819Y-54142856D01*
X83454819Y-54142856D02*
X83502438Y-53999999D01*
X83502438Y-53999999D02*
X83550057Y-53952380D01*
X84454819Y-53523808D02*
X83454819Y-53523808D01*
X83931009Y-53523808D02*
X83931009Y-52952380D01*
X84454819Y-52952380D02*
X83454819Y-52952380D01*
X84169104Y-52523808D02*
X84169104Y-52047618D01*
X84454819Y-52619046D02*
X83454819Y-52285713D01*
X83454819Y-52285713D02*
X84454819Y-51952380D01*
X84454819Y-51619046D02*
X83454819Y-51619046D01*
X84454819Y-51142856D02*
X83454819Y-51142856D01*
X83454819Y-51142856D02*
X84454819Y-50571428D01*
X84454819Y-50571428D02*
X83454819Y-50571428D01*
X84550057Y-50333333D02*
X84550057Y-49571428D01*
X84454819Y-49333332D02*
X83454819Y-49333332D01*
X84454819Y-48857142D02*
X83454819Y-48857142D01*
X83454819Y-48857142D02*
X84454819Y-48285714D01*
X84454819Y-48285714D02*
X83454819Y-48285714D01*
X78584819Y-67586666D02*
X78108628Y-67919999D01*
X78584819Y-68158094D02*
X77584819Y-68158094D01*
X77584819Y-68158094D02*
X77584819Y-67777142D01*
X77584819Y-67777142D02*
X77632438Y-67681904D01*
X77632438Y-67681904D02*
X77680057Y-67634285D01*
X77680057Y-67634285D02*
X77775295Y-67586666D01*
X77775295Y-67586666D02*
X77918152Y-67586666D01*
X77918152Y-67586666D02*
X78013390Y-67634285D01*
X78013390Y-67634285D02*
X78061009Y-67681904D01*
X78061009Y-67681904D02*
X78108628Y-67777142D01*
X78108628Y-67777142D02*
X78108628Y-68158094D01*
X77584819Y-67253332D02*
X77584819Y-66634285D01*
X77584819Y-66634285D02*
X77965771Y-66967618D01*
X77965771Y-66967618D02*
X77965771Y-66824761D01*
X77965771Y-66824761D02*
X78013390Y-66729523D01*
X78013390Y-66729523D02*
X78061009Y-66681904D01*
X78061009Y-66681904D02*
X78156247Y-66634285D01*
X78156247Y-66634285D02*
X78394342Y-66634285D01*
X78394342Y-66634285D02*
X78489580Y-66681904D01*
X78489580Y-66681904D02*
X78537200Y-66729523D01*
X78537200Y-66729523D02*
X78584819Y-66824761D01*
X78584819Y-66824761D02*
X78584819Y-67110475D01*
X78584819Y-67110475D02*
X78537200Y-67205713D01*
X78537200Y-67205713D02*
X78489580Y-67253332D01*
D12*
X67063095Y-101707419D02*
X67063095Y-102516942D01*
X67063095Y-102516942D02*
X67110714Y-102612180D01*
X67110714Y-102612180D02*
X67158333Y-102659800D01*
X67158333Y-102659800D02*
X67253571Y-102707419D01*
X67253571Y-102707419D02*
X67444047Y-102707419D01*
X67444047Y-102707419D02*
X67539285Y-102659800D01*
X67539285Y-102659800D02*
X67586904Y-102612180D01*
X67586904Y-102612180D02*
X67634523Y-102516942D01*
X67634523Y-102516942D02*
X67634523Y-101707419D01*
X68634523Y-102707419D02*
X68063095Y-102707419D01*
X68348809Y-102707419D02*
X68348809Y-101707419D01*
X68348809Y-101707419D02*
X68253571Y-101850276D01*
X68253571Y-101850276D02*
X68158333Y-101945514D01*
X68158333Y-101945514D02*
X68063095Y-101993133D01*
X76898333Y-85421704D02*
X76969761Y-85445514D01*
X76969761Y-85445514D02*
X76993571Y-85469323D01*
X76993571Y-85469323D02*
X77017380Y-85516942D01*
X77017380Y-85516942D02*
X77017380Y-85588371D01*
X77017380Y-85588371D02*
X76993571Y-85635990D01*
X76993571Y-85635990D02*
X76969761Y-85659800D01*
X76969761Y-85659800D02*
X76922142Y-85683609D01*
X76922142Y-85683609D02*
X76731666Y-85683609D01*
X76731666Y-85683609D02*
X76731666Y-85183609D01*
X76731666Y-85183609D02*
X76898333Y-85183609D01*
X76898333Y-85183609D02*
X76945952Y-85207419D01*
X76945952Y-85207419D02*
X76969761Y-85231228D01*
X76969761Y-85231228D02*
X76993571Y-85278847D01*
X76993571Y-85278847D02*
X76993571Y-85326466D01*
X76993571Y-85326466D02*
X76969761Y-85374085D01*
X76969761Y-85374085D02*
X76945952Y-85397895D01*
X76945952Y-85397895D02*
X76898333Y-85421704D01*
X76898333Y-85421704D02*
X76731666Y-85421704D01*
X77469761Y-85683609D02*
X77231666Y-85683609D01*
X77231666Y-85683609D02*
X77231666Y-85183609D01*
X58904047Y-85207419D02*
X58856428Y-85183609D01*
X58856428Y-85183609D02*
X58784999Y-85183609D01*
X58784999Y-85183609D02*
X58713571Y-85207419D01*
X58713571Y-85207419D02*
X58665952Y-85255038D01*
X58665952Y-85255038D02*
X58642142Y-85302657D01*
X58642142Y-85302657D02*
X58618333Y-85397895D01*
X58618333Y-85397895D02*
X58618333Y-85469323D01*
X58618333Y-85469323D02*
X58642142Y-85564561D01*
X58642142Y-85564561D02*
X58665952Y-85612180D01*
X58665952Y-85612180D02*
X58713571Y-85659800D01*
X58713571Y-85659800D02*
X58784999Y-85683609D01*
X58784999Y-85683609D02*
X58832618Y-85683609D01*
X58832618Y-85683609D02*
X58904047Y-85659800D01*
X58904047Y-85659800D02*
X58927856Y-85635990D01*
X58927856Y-85635990D02*
X58927856Y-85469323D01*
X58927856Y-85469323D02*
X58832618Y-85469323D01*
X59142142Y-85683609D02*
X59142142Y-85183609D01*
X59142142Y-85183609D02*
X59427856Y-85683609D01*
X59427856Y-85683609D02*
X59427856Y-85183609D01*
X59665952Y-85683609D02*
X59665952Y-85183609D01*
X59665952Y-85183609D02*
X59785000Y-85183609D01*
X59785000Y-85183609D02*
X59856428Y-85207419D01*
X59856428Y-85207419D02*
X59904047Y-85255038D01*
X59904047Y-85255038D02*
X59927857Y-85302657D01*
X59927857Y-85302657D02*
X59951666Y-85397895D01*
X59951666Y-85397895D02*
X59951666Y-85469323D01*
X59951666Y-85469323D02*
X59927857Y-85564561D01*
X59927857Y-85564561D02*
X59904047Y-85612180D01*
X59904047Y-85612180D02*
X59856428Y-85659800D01*
X59856428Y-85659800D02*
X59785000Y-85683609D01*
X59785000Y-85683609D02*
X59665952Y-85683609D01*
X66297858Y-85659800D02*
X66369286Y-85683609D01*
X66369286Y-85683609D02*
X66488334Y-85683609D01*
X66488334Y-85683609D02*
X66535953Y-85659800D01*
X66535953Y-85659800D02*
X66559762Y-85635990D01*
X66559762Y-85635990D02*
X66583572Y-85588371D01*
X66583572Y-85588371D02*
X66583572Y-85540752D01*
X66583572Y-85540752D02*
X66559762Y-85493133D01*
X66559762Y-85493133D02*
X66535953Y-85469323D01*
X66535953Y-85469323D02*
X66488334Y-85445514D01*
X66488334Y-85445514D02*
X66393096Y-85421704D01*
X66393096Y-85421704D02*
X66345477Y-85397895D01*
X66345477Y-85397895D02*
X66321667Y-85374085D01*
X66321667Y-85374085D02*
X66297858Y-85326466D01*
X66297858Y-85326466D02*
X66297858Y-85278847D01*
X66297858Y-85278847D02*
X66321667Y-85231228D01*
X66321667Y-85231228D02*
X66345477Y-85207419D01*
X66345477Y-85207419D02*
X66393096Y-85183609D01*
X66393096Y-85183609D02*
X66512143Y-85183609D01*
X66512143Y-85183609D02*
X66583572Y-85207419D01*
X66797857Y-85683609D02*
X66797857Y-85183609D01*
X66797857Y-85183609D02*
X66916905Y-85183609D01*
X66916905Y-85183609D02*
X66988333Y-85207419D01*
X66988333Y-85207419D02*
X67035952Y-85255038D01*
X67035952Y-85255038D02*
X67059762Y-85302657D01*
X67059762Y-85302657D02*
X67083571Y-85397895D01*
X67083571Y-85397895D02*
X67083571Y-85469323D01*
X67083571Y-85469323D02*
X67059762Y-85564561D01*
X67059762Y-85564561D02*
X67035952Y-85612180D01*
X67035952Y-85612180D02*
X66988333Y-85659800D01*
X66988333Y-85659800D02*
X66916905Y-85683609D01*
X66916905Y-85683609D02*
X66797857Y-85683609D01*
X67274048Y-85540752D02*
X67512143Y-85540752D01*
X67226429Y-85683609D02*
X67393095Y-85183609D01*
X67393095Y-85183609D02*
X67559762Y-85683609D01*
X61158334Y-85183609D02*
X61325000Y-85683609D01*
X61325000Y-85683609D02*
X61491667Y-85183609D01*
X61944047Y-85635990D02*
X61920238Y-85659800D01*
X61920238Y-85659800D02*
X61848809Y-85683609D01*
X61848809Y-85683609D02*
X61801190Y-85683609D01*
X61801190Y-85683609D02*
X61729762Y-85659800D01*
X61729762Y-85659800D02*
X61682143Y-85612180D01*
X61682143Y-85612180D02*
X61658333Y-85564561D01*
X61658333Y-85564561D02*
X61634524Y-85469323D01*
X61634524Y-85469323D02*
X61634524Y-85397895D01*
X61634524Y-85397895D02*
X61658333Y-85302657D01*
X61658333Y-85302657D02*
X61682143Y-85255038D01*
X61682143Y-85255038D02*
X61729762Y-85207419D01*
X61729762Y-85207419D02*
X61801190Y-85183609D01*
X61801190Y-85183609D02*
X61848809Y-85183609D01*
X61848809Y-85183609D02*
X61920238Y-85207419D01*
X61920238Y-85207419D02*
X61944047Y-85231228D01*
X62444047Y-85635990D02*
X62420238Y-85659800D01*
X62420238Y-85659800D02*
X62348809Y-85683609D01*
X62348809Y-85683609D02*
X62301190Y-85683609D01*
X62301190Y-85683609D02*
X62229762Y-85659800D01*
X62229762Y-85659800D02*
X62182143Y-85612180D01*
X62182143Y-85612180D02*
X62158333Y-85564561D01*
X62158333Y-85564561D02*
X62134524Y-85469323D01*
X62134524Y-85469323D02*
X62134524Y-85397895D01*
X62134524Y-85397895D02*
X62158333Y-85302657D01*
X62158333Y-85302657D02*
X62182143Y-85255038D01*
X62182143Y-85255038D02*
X62229762Y-85207419D01*
X62229762Y-85207419D02*
X62301190Y-85183609D01*
X62301190Y-85183609D02*
X62348809Y-85183609D01*
X62348809Y-85183609D02*
X62420238Y-85207419D01*
X62420238Y-85207419D02*
X62444047Y-85231228D01*
X71604047Y-85683609D02*
X71604047Y-85183609D01*
X71604047Y-85183609D02*
X71723095Y-85183609D01*
X71723095Y-85183609D02*
X71794523Y-85207419D01*
X71794523Y-85207419D02*
X71842142Y-85255038D01*
X71842142Y-85255038D02*
X71865952Y-85302657D01*
X71865952Y-85302657D02*
X71889761Y-85397895D01*
X71889761Y-85397895D02*
X71889761Y-85469323D01*
X71889761Y-85469323D02*
X71865952Y-85564561D01*
X71865952Y-85564561D02*
X71842142Y-85612180D01*
X71842142Y-85612180D02*
X71794523Y-85659800D01*
X71794523Y-85659800D02*
X71723095Y-85683609D01*
X71723095Y-85683609D02*
X71604047Y-85683609D01*
X72389761Y-85635990D02*
X72365952Y-85659800D01*
X72365952Y-85659800D02*
X72294523Y-85683609D01*
X72294523Y-85683609D02*
X72246904Y-85683609D01*
X72246904Y-85683609D02*
X72175476Y-85659800D01*
X72175476Y-85659800D02*
X72127857Y-85612180D01*
X72127857Y-85612180D02*
X72104047Y-85564561D01*
X72104047Y-85564561D02*
X72080238Y-85469323D01*
X72080238Y-85469323D02*
X72080238Y-85397895D01*
X72080238Y-85397895D02*
X72104047Y-85302657D01*
X72104047Y-85302657D02*
X72127857Y-85255038D01*
X72127857Y-85255038D02*
X72175476Y-85207419D01*
X72175476Y-85207419D02*
X72246904Y-85183609D01*
X72246904Y-85183609D02*
X72294523Y-85183609D01*
X72294523Y-85183609D02*
X72365952Y-85207419D01*
X72365952Y-85207419D02*
X72389761Y-85231228D01*
X63769762Y-85659800D02*
X63841190Y-85683609D01*
X63841190Y-85683609D02*
X63960238Y-85683609D01*
X63960238Y-85683609D02*
X64007857Y-85659800D01*
X64007857Y-85659800D02*
X64031666Y-85635990D01*
X64031666Y-85635990D02*
X64055476Y-85588371D01*
X64055476Y-85588371D02*
X64055476Y-85540752D01*
X64055476Y-85540752D02*
X64031666Y-85493133D01*
X64031666Y-85493133D02*
X64007857Y-85469323D01*
X64007857Y-85469323D02*
X63960238Y-85445514D01*
X63960238Y-85445514D02*
X63865000Y-85421704D01*
X63865000Y-85421704D02*
X63817381Y-85397895D01*
X63817381Y-85397895D02*
X63793571Y-85374085D01*
X63793571Y-85374085D02*
X63769762Y-85326466D01*
X63769762Y-85326466D02*
X63769762Y-85278847D01*
X63769762Y-85278847D02*
X63793571Y-85231228D01*
X63793571Y-85231228D02*
X63817381Y-85207419D01*
X63817381Y-85207419D02*
X63865000Y-85183609D01*
X63865000Y-85183609D02*
X63984047Y-85183609D01*
X63984047Y-85183609D02*
X64055476Y-85207419D01*
X64555475Y-85635990D02*
X64531666Y-85659800D01*
X64531666Y-85659800D02*
X64460237Y-85683609D01*
X64460237Y-85683609D02*
X64412618Y-85683609D01*
X64412618Y-85683609D02*
X64341190Y-85659800D01*
X64341190Y-85659800D02*
X64293571Y-85612180D01*
X64293571Y-85612180D02*
X64269761Y-85564561D01*
X64269761Y-85564561D02*
X64245952Y-85469323D01*
X64245952Y-85469323D02*
X64245952Y-85397895D01*
X64245952Y-85397895D02*
X64269761Y-85302657D01*
X64269761Y-85302657D02*
X64293571Y-85255038D01*
X64293571Y-85255038D02*
X64341190Y-85207419D01*
X64341190Y-85207419D02*
X64412618Y-85183609D01*
X64412618Y-85183609D02*
X64460237Y-85183609D01*
X64460237Y-85183609D02*
X64531666Y-85207419D01*
X64531666Y-85207419D02*
X64555475Y-85231228D01*
X65007856Y-85683609D02*
X64769761Y-85683609D01*
X64769761Y-85683609D02*
X64769761Y-85183609D01*
X74441666Y-85635990D02*
X74417857Y-85659800D01*
X74417857Y-85659800D02*
X74346428Y-85683609D01*
X74346428Y-85683609D02*
X74298809Y-85683609D01*
X74298809Y-85683609D02*
X74227381Y-85659800D01*
X74227381Y-85659800D02*
X74179762Y-85612180D01*
X74179762Y-85612180D02*
X74155952Y-85564561D01*
X74155952Y-85564561D02*
X74132143Y-85469323D01*
X74132143Y-85469323D02*
X74132143Y-85397895D01*
X74132143Y-85397895D02*
X74155952Y-85302657D01*
X74155952Y-85302657D02*
X74179762Y-85255038D01*
X74179762Y-85255038D02*
X74227381Y-85207419D01*
X74227381Y-85207419D02*
X74298809Y-85183609D01*
X74298809Y-85183609D02*
X74346428Y-85183609D01*
X74346428Y-85183609D02*
X74417857Y-85207419D01*
X74417857Y-85207419D02*
X74441666Y-85231228D01*
X74632143Y-85659800D02*
X74703571Y-85683609D01*
X74703571Y-85683609D02*
X74822619Y-85683609D01*
X74822619Y-85683609D02*
X74870238Y-85659800D01*
X74870238Y-85659800D02*
X74894047Y-85635990D01*
X74894047Y-85635990D02*
X74917857Y-85588371D01*
X74917857Y-85588371D02*
X74917857Y-85540752D01*
X74917857Y-85540752D02*
X74894047Y-85493133D01*
X74894047Y-85493133D02*
X74870238Y-85469323D01*
X74870238Y-85469323D02*
X74822619Y-85445514D01*
X74822619Y-85445514D02*
X74727381Y-85421704D01*
X74727381Y-85421704D02*
X74679762Y-85397895D01*
X74679762Y-85397895D02*
X74655952Y-85374085D01*
X74655952Y-85374085D02*
X74632143Y-85326466D01*
X74632143Y-85326466D02*
X74632143Y-85278847D01*
X74632143Y-85278847D02*
X74655952Y-85231228D01*
X74655952Y-85231228D02*
X74679762Y-85207419D01*
X74679762Y-85207419D02*
X74727381Y-85183609D01*
X74727381Y-85183609D02*
X74846428Y-85183609D01*
X74846428Y-85183609D02*
X74917857Y-85207419D01*
X69171190Y-85683609D02*
X69004524Y-85445514D01*
X68885476Y-85683609D02*
X68885476Y-85183609D01*
X68885476Y-85183609D02*
X69075952Y-85183609D01*
X69075952Y-85183609D02*
X69123571Y-85207419D01*
X69123571Y-85207419D02*
X69147381Y-85231228D01*
X69147381Y-85231228D02*
X69171190Y-85278847D01*
X69171190Y-85278847D02*
X69171190Y-85350276D01*
X69171190Y-85350276D02*
X69147381Y-85397895D01*
X69147381Y-85397895D02*
X69123571Y-85421704D01*
X69123571Y-85421704D02*
X69075952Y-85445514D01*
X69075952Y-85445514D02*
X68885476Y-85445514D01*
X69361667Y-85659800D02*
X69433095Y-85683609D01*
X69433095Y-85683609D02*
X69552143Y-85683609D01*
X69552143Y-85683609D02*
X69599762Y-85659800D01*
X69599762Y-85659800D02*
X69623571Y-85635990D01*
X69623571Y-85635990D02*
X69647381Y-85588371D01*
X69647381Y-85588371D02*
X69647381Y-85540752D01*
X69647381Y-85540752D02*
X69623571Y-85493133D01*
X69623571Y-85493133D02*
X69599762Y-85469323D01*
X69599762Y-85469323D02*
X69552143Y-85445514D01*
X69552143Y-85445514D02*
X69456905Y-85421704D01*
X69456905Y-85421704D02*
X69409286Y-85397895D01*
X69409286Y-85397895D02*
X69385476Y-85374085D01*
X69385476Y-85374085D02*
X69361667Y-85326466D01*
X69361667Y-85326466D02*
X69361667Y-85278847D01*
X69361667Y-85278847D02*
X69385476Y-85231228D01*
X69385476Y-85231228D02*
X69409286Y-85207419D01*
X69409286Y-85207419D02*
X69456905Y-85183609D01*
X69456905Y-85183609D02*
X69575952Y-85183609D01*
X69575952Y-85183609D02*
X69647381Y-85207419D01*
X69790238Y-85183609D02*
X70075952Y-85183609D01*
X69933095Y-85683609D02*
X69933095Y-85183609D01*
D11*
X81954819Y-46833333D02*
X82669104Y-46833333D01*
X82669104Y-46833333D02*
X82811961Y-46880952D01*
X82811961Y-46880952D02*
X82907200Y-46976190D01*
X82907200Y-46976190D02*
X82954819Y-47119047D01*
X82954819Y-47119047D02*
X82954819Y-47214285D01*
X82954819Y-45833333D02*
X82954819Y-46404761D01*
X82954819Y-46119047D02*
X81954819Y-46119047D01*
X81954819Y-46119047D02*
X82097676Y-46214285D01*
X82097676Y-46214285D02*
X82192914Y-46309523D01*
X82192914Y-46309523D02*
X82240533Y-46404761D01*
X68404762Y-50454819D02*
X68404762Y-49454819D01*
X68404762Y-49454819D02*
X68738095Y-50169104D01*
X68738095Y-50169104D02*
X69071428Y-49454819D01*
X69071428Y-49454819D02*
X69071428Y-50454819D01*
X69976190Y-50454819D02*
X69976190Y-49931009D01*
X69976190Y-49931009D02*
X69928571Y-49835771D01*
X69928571Y-49835771D02*
X69833333Y-49788152D01*
X69833333Y-49788152D02*
X69642857Y-49788152D01*
X69642857Y-49788152D02*
X69547619Y-49835771D01*
X69976190Y-50407200D02*
X69880952Y-50454819D01*
X69880952Y-50454819D02*
X69642857Y-50454819D01*
X69642857Y-50454819D02*
X69547619Y-50407200D01*
X69547619Y-50407200D02*
X69500000Y-50311961D01*
X69500000Y-50311961D02*
X69500000Y-50216723D01*
X69500000Y-50216723D02*
X69547619Y-50121485D01*
X69547619Y-50121485D02*
X69642857Y-50073866D01*
X69642857Y-50073866D02*
X69880952Y-50073866D01*
X69880952Y-50073866D02*
X69976190Y-50026247D01*
X70452381Y-50454819D02*
X70452381Y-49788152D01*
X70452381Y-49454819D02*
X70404762Y-49502438D01*
X70404762Y-49502438D02*
X70452381Y-49550057D01*
X70452381Y-49550057D02*
X70500000Y-49502438D01*
X70500000Y-49502438D02*
X70452381Y-49454819D01*
X70452381Y-49454819D02*
X70452381Y-49550057D01*
X70928571Y-49788152D02*
X70928571Y-50454819D01*
X70928571Y-49883390D02*
X70976190Y-49835771D01*
X70976190Y-49835771D02*
X71071428Y-49788152D01*
X71071428Y-49788152D02*
X71214285Y-49788152D01*
X71214285Y-49788152D02*
X71309523Y-49835771D01*
X71309523Y-49835771D02*
X71357142Y-49931009D01*
X71357142Y-49931009D02*
X71357142Y-50454819D01*
X71833333Y-50454819D02*
X71833333Y-49454819D01*
X71833333Y-49835771D02*
X71928571Y-49788152D01*
X71928571Y-49788152D02*
X72119047Y-49788152D01*
X72119047Y-49788152D02*
X72214285Y-49835771D01*
X72214285Y-49835771D02*
X72261904Y-49883390D01*
X72261904Y-49883390D02*
X72309523Y-49978628D01*
X72309523Y-49978628D02*
X72309523Y-50264342D01*
X72309523Y-50264342D02*
X72261904Y-50359580D01*
X72261904Y-50359580D02*
X72214285Y-50407200D01*
X72214285Y-50407200D02*
X72119047Y-50454819D01*
X72119047Y-50454819D02*
X71928571Y-50454819D01*
X71928571Y-50454819D02*
X71833333Y-50407200D01*
X72880952Y-50454819D02*
X72785714Y-50407200D01*
X72785714Y-50407200D02*
X72738095Y-50359580D01*
X72738095Y-50359580D02*
X72690476Y-50264342D01*
X72690476Y-50264342D02*
X72690476Y-49978628D01*
X72690476Y-49978628D02*
X72738095Y-49883390D01*
X72738095Y-49883390D02*
X72785714Y-49835771D01*
X72785714Y-49835771D02*
X72880952Y-49788152D01*
X72880952Y-49788152D02*
X73023809Y-49788152D01*
X73023809Y-49788152D02*
X73119047Y-49835771D01*
X73119047Y-49835771D02*
X73166666Y-49883390D01*
X73166666Y-49883390D02*
X73214285Y-49978628D01*
X73214285Y-49978628D02*
X73214285Y-50264342D01*
X73214285Y-50264342D02*
X73166666Y-50359580D01*
X73166666Y-50359580D02*
X73119047Y-50407200D01*
X73119047Y-50407200D02*
X73023809Y-50454819D01*
X73023809Y-50454819D02*
X72880952Y-50454819D01*
X74071428Y-50454819D02*
X74071428Y-49931009D01*
X74071428Y-49931009D02*
X74023809Y-49835771D01*
X74023809Y-49835771D02*
X73928571Y-49788152D01*
X73928571Y-49788152D02*
X73738095Y-49788152D01*
X73738095Y-49788152D02*
X73642857Y-49835771D01*
X74071428Y-50407200D02*
X73976190Y-50454819D01*
X73976190Y-50454819D02*
X73738095Y-50454819D01*
X73738095Y-50454819D02*
X73642857Y-50407200D01*
X73642857Y-50407200D02*
X73595238Y-50311961D01*
X73595238Y-50311961D02*
X73595238Y-50216723D01*
X73595238Y-50216723D02*
X73642857Y-50121485D01*
X73642857Y-50121485D02*
X73738095Y-50073866D01*
X73738095Y-50073866D02*
X73976190Y-50073866D01*
X73976190Y-50073866D02*
X74071428Y-50026247D01*
X74547619Y-50454819D02*
X74547619Y-49788152D01*
X74547619Y-49978628D02*
X74595238Y-49883390D01*
X74595238Y-49883390D02*
X74642857Y-49835771D01*
X74642857Y-49835771D02*
X74738095Y-49788152D01*
X74738095Y-49788152D02*
X74833333Y-49788152D01*
X75595238Y-50454819D02*
X75595238Y-49454819D01*
X75595238Y-50407200D02*
X75500000Y-50454819D01*
X75500000Y-50454819D02*
X75309524Y-50454819D01*
X75309524Y-50454819D02*
X75214286Y-50407200D01*
X75214286Y-50407200D02*
X75166667Y-50359580D01*
X75166667Y-50359580D02*
X75119048Y-50264342D01*
X75119048Y-50264342D02*
X75119048Y-49978628D01*
X75119048Y-49978628D02*
X75166667Y-49883390D01*
X75166667Y-49883390D02*
X75214286Y-49835771D01*
X75214286Y-49835771D02*
X75309524Y-49788152D01*
X75309524Y-49788152D02*
X75500000Y-49788152D01*
X75500000Y-49788152D02*
X75595238Y-49835771D01*
X82166666Y-229954819D02*
X82166666Y-230669104D01*
X82166666Y-230669104D02*
X82119047Y-230811961D01*
X82119047Y-230811961D02*
X82023809Y-230907200D01*
X82023809Y-230907200D02*
X81880952Y-230954819D01*
X81880952Y-230954819D02*
X81785714Y-230954819D01*
X83071428Y-230288152D02*
X83071428Y-230954819D01*
X82833333Y-229907200D02*
X82595238Y-230621485D01*
X82595238Y-230621485D02*
X83214285Y-230621485D01*
X79023809Y-237954819D02*
X79023809Y-236954819D01*
X79023809Y-236954819D02*
X79357142Y-237669104D01*
X79357142Y-237669104D02*
X79690475Y-236954819D01*
X79690475Y-236954819D02*
X79690475Y-237954819D01*
X80309523Y-237954819D02*
X80214285Y-237907200D01*
X80214285Y-237907200D02*
X80166666Y-237859580D01*
X80166666Y-237859580D02*
X80119047Y-237764342D01*
X80119047Y-237764342D02*
X80119047Y-237478628D01*
X80119047Y-237478628D02*
X80166666Y-237383390D01*
X80166666Y-237383390D02*
X80214285Y-237335771D01*
X80214285Y-237335771D02*
X80309523Y-237288152D01*
X80309523Y-237288152D02*
X80452380Y-237288152D01*
X80452380Y-237288152D02*
X80547618Y-237335771D01*
X80547618Y-237335771D02*
X80595237Y-237383390D01*
X80595237Y-237383390D02*
X80642856Y-237478628D01*
X80642856Y-237478628D02*
X80642856Y-237764342D01*
X80642856Y-237764342D02*
X80595237Y-237859580D01*
X80595237Y-237859580D02*
X80547618Y-237907200D01*
X80547618Y-237907200D02*
X80452380Y-237954819D01*
X80452380Y-237954819D02*
X80309523Y-237954819D01*
X80928571Y-237288152D02*
X81309523Y-237288152D01*
X81071428Y-236954819D02*
X81071428Y-237811961D01*
X81071428Y-237811961D02*
X81119047Y-237907200D01*
X81119047Y-237907200D02*
X81214285Y-237954819D01*
X81214285Y-237954819D02*
X81309523Y-237954819D01*
X81785714Y-237954819D02*
X81690476Y-237907200D01*
X81690476Y-237907200D02*
X81642857Y-237859580D01*
X81642857Y-237859580D02*
X81595238Y-237764342D01*
X81595238Y-237764342D02*
X81595238Y-237478628D01*
X81595238Y-237478628D02*
X81642857Y-237383390D01*
X81642857Y-237383390D02*
X81690476Y-237335771D01*
X81690476Y-237335771D02*
X81785714Y-237288152D01*
X81785714Y-237288152D02*
X81928571Y-237288152D01*
X81928571Y-237288152D02*
X82023809Y-237335771D01*
X82023809Y-237335771D02*
X82071428Y-237383390D01*
X82071428Y-237383390D02*
X82119047Y-237478628D01*
X82119047Y-237478628D02*
X82119047Y-237764342D01*
X82119047Y-237764342D02*
X82071428Y-237859580D01*
X82071428Y-237859580D02*
X82023809Y-237907200D01*
X82023809Y-237907200D02*
X81928571Y-237954819D01*
X81928571Y-237954819D02*
X81785714Y-237954819D01*
X82547619Y-237954819D02*
X82547619Y-237288152D01*
X82547619Y-237478628D02*
X82595238Y-237383390D01*
X82595238Y-237383390D02*
X82642857Y-237335771D01*
X82642857Y-237335771D02*
X82738095Y-237288152D01*
X82738095Y-237288152D02*
X82833333Y-237288152D01*
X82928572Y-238050057D02*
X83690476Y-238050057D01*
X84119048Y-236954819D02*
X84309524Y-236954819D01*
X84309524Y-236954819D02*
X84404762Y-237002438D01*
X84404762Y-237002438D02*
X84500000Y-237097676D01*
X84500000Y-237097676D02*
X84547619Y-237288152D01*
X84547619Y-237288152D02*
X84547619Y-237621485D01*
X84547619Y-237621485D02*
X84500000Y-237811961D01*
X84500000Y-237811961D02*
X84404762Y-237907200D01*
X84404762Y-237907200D02*
X84309524Y-237954819D01*
X84309524Y-237954819D02*
X84119048Y-237954819D01*
X84119048Y-237954819D02*
X84023810Y-237907200D01*
X84023810Y-237907200D02*
X83928572Y-237811961D01*
X83928572Y-237811961D02*
X83880953Y-237621485D01*
X83880953Y-237621485D02*
X83880953Y-237288152D01*
X83880953Y-237288152D02*
X83928572Y-237097676D01*
X83928572Y-237097676D02*
X84023810Y-237002438D01*
X84023810Y-237002438D02*
X84119048Y-236954819D01*
X85404762Y-237288152D02*
X85404762Y-237954819D01*
X84976191Y-237288152D02*
X84976191Y-237811961D01*
X84976191Y-237811961D02*
X85023810Y-237907200D01*
X85023810Y-237907200D02*
X85119048Y-237954819D01*
X85119048Y-237954819D02*
X85261905Y-237954819D01*
X85261905Y-237954819D02*
X85357143Y-237907200D01*
X85357143Y-237907200D02*
X85404762Y-237859580D01*
X85738096Y-237288152D02*
X86119048Y-237288152D01*
X85880953Y-236954819D02*
X85880953Y-237811961D01*
X85880953Y-237811961D02*
X85928572Y-237907200D01*
X85928572Y-237907200D02*
X86023810Y-237954819D01*
X86023810Y-237954819D02*
X86119048Y-237954819D01*
X71366667Y-74607200D02*
X71509524Y-74654819D01*
X71509524Y-74654819D02*
X71747619Y-74654819D01*
X71747619Y-74654819D02*
X71842857Y-74607200D01*
X71842857Y-74607200D02*
X71890476Y-74559580D01*
X71890476Y-74559580D02*
X71938095Y-74464342D01*
X71938095Y-74464342D02*
X71938095Y-74369104D01*
X71938095Y-74369104D02*
X71890476Y-74273866D01*
X71890476Y-74273866D02*
X71842857Y-74226247D01*
X71842857Y-74226247D02*
X71747619Y-74178628D01*
X71747619Y-74178628D02*
X71557143Y-74131009D01*
X71557143Y-74131009D02*
X71461905Y-74083390D01*
X71461905Y-74083390D02*
X71414286Y-74035771D01*
X71414286Y-74035771D02*
X71366667Y-73940533D01*
X71366667Y-73940533D02*
X71366667Y-73845295D01*
X71366667Y-73845295D02*
X71414286Y-73750057D01*
X71414286Y-73750057D02*
X71461905Y-73702438D01*
X71461905Y-73702438D02*
X71557143Y-73654819D01*
X71557143Y-73654819D02*
X71795238Y-73654819D01*
X71795238Y-73654819D02*
X71938095Y-73702438D01*
X72271429Y-73654819D02*
X72509524Y-74654819D01*
X72509524Y-74654819D02*
X72700000Y-73940533D01*
X72700000Y-73940533D02*
X72890476Y-74654819D01*
X72890476Y-74654819D02*
X73128572Y-73654819D01*
X74033333Y-74654819D02*
X73461905Y-74654819D01*
X73747619Y-74654819D02*
X73747619Y-73654819D01*
X73747619Y-73654819D02*
X73652381Y-73797676D01*
X73652381Y-73797676D02*
X73557143Y-73892914D01*
X73557143Y-73892914D02*
X73461905Y-73940533D01*
X52954819Y-52333333D02*
X53669104Y-52333333D01*
X53669104Y-52333333D02*
X53811961Y-52380952D01*
X53811961Y-52380952D02*
X53907200Y-52476190D01*
X53907200Y-52476190D02*
X53954819Y-52619047D01*
X53954819Y-52619047D02*
X53954819Y-52714285D01*
X52954819Y-51428571D02*
X52954819Y-51619047D01*
X52954819Y-51619047D02*
X53002438Y-51714285D01*
X53002438Y-51714285D02*
X53050057Y-51761904D01*
X53050057Y-51761904D02*
X53192914Y-51857142D01*
X53192914Y-51857142D02*
X53383390Y-51904761D01*
X53383390Y-51904761D02*
X53764342Y-51904761D01*
X53764342Y-51904761D02*
X53859580Y-51857142D01*
X53859580Y-51857142D02*
X53907200Y-51809523D01*
X53907200Y-51809523D02*
X53954819Y-51714285D01*
X53954819Y-51714285D02*
X53954819Y-51523809D01*
X53954819Y-51523809D02*
X53907200Y-51428571D01*
X53907200Y-51428571D02*
X53859580Y-51380952D01*
X53859580Y-51380952D02*
X53764342Y-51333333D01*
X53764342Y-51333333D02*
X53526247Y-51333333D01*
X53526247Y-51333333D02*
X53431009Y-51380952D01*
X53431009Y-51380952D02*
X53383390Y-51428571D01*
X53383390Y-51428571D02*
X53335771Y-51523809D01*
X53335771Y-51523809D02*
X53335771Y-51714285D01*
X53335771Y-51714285D02*
X53383390Y-51809523D01*
X53383390Y-51809523D02*
X53431009Y-51857142D01*
X53431009Y-51857142D02*
X53526247Y-51904761D01*
X54095238Y-54954819D02*
X54095238Y-53954819D01*
X54095238Y-53954819D02*
X54428571Y-54669104D01*
X54428571Y-54669104D02*
X54761904Y-53954819D01*
X54761904Y-53954819D02*
X54761904Y-54954819D01*
X55380952Y-54954819D02*
X55285714Y-54907200D01*
X55285714Y-54907200D02*
X55238095Y-54859580D01*
X55238095Y-54859580D02*
X55190476Y-54764342D01*
X55190476Y-54764342D02*
X55190476Y-54478628D01*
X55190476Y-54478628D02*
X55238095Y-54383390D01*
X55238095Y-54383390D02*
X55285714Y-54335771D01*
X55285714Y-54335771D02*
X55380952Y-54288152D01*
X55380952Y-54288152D02*
X55523809Y-54288152D01*
X55523809Y-54288152D02*
X55619047Y-54335771D01*
X55619047Y-54335771D02*
X55666666Y-54383390D01*
X55666666Y-54383390D02*
X55714285Y-54478628D01*
X55714285Y-54478628D02*
X55714285Y-54764342D01*
X55714285Y-54764342D02*
X55666666Y-54859580D01*
X55666666Y-54859580D02*
X55619047Y-54907200D01*
X55619047Y-54907200D02*
X55523809Y-54954819D01*
X55523809Y-54954819D02*
X55380952Y-54954819D01*
X56000000Y-54288152D02*
X56380952Y-54288152D01*
X56142857Y-53954819D02*
X56142857Y-54811961D01*
X56142857Y-54811961D02*
X56190476Y-54907200D01*
X56190476Y-54907200D02*
X56285714Y-54954819D01*
X56285714Y-54954819D02*
X56380952Y-54954819D01*
X56857143Y-54954819D02*
X56761905Y-54907200D01*
X56761905Y-54907200D02*
X56714286Y-54859580D01*
X56714286Y-54859580D02*
X56666667Y-54764342D01*
X56666667Y-54764342D02*
X56666667Y-54478628D01*
X56666667Y-54478628D02*
X56714286Y-54383390D01*
X56714286Y-54383390D02*
X56761905Y-54335771D01*
X56761905Y-54335771D02*
X56857143Y-54288152D01*
X56857143Y-54288152D02*
X57000000Y-54288152D01*
X57000000Y-54288152D02*
X57095238Y-54335771D01*
X57095238Y-54335771D02*
X57142857Y-54383390D01*
X57142857Y-54383390D02*
X57190476Y-54478628D01*
X57190476Y-54478628D02*
X57190476Y-54764342D01*
X57190476Y-54764342D02*
X57142857Y-54859580D01*
X57142857Y-54859580D02*
X57095238Y-54907200D01*
X57095238Y-54907200D02*
X57000000Y-54954819D01*
X57000000Y-54954819D02*
X56857143Y-54954819D01*
X57619048Y-54954819D02*
X57619048Y-54288152D01*
X57619048Y-54478628D02*
X57666667Y-54383390D01*
X57666667Y-54383390D02*
X57714286Y-54335771D01*
X57714286Y-54335771D02*
X57809524Y-54288152D01*
X57809524Y-54288152D02*
X57904762Y-54288152D01*
X58000001Y-55050057D02*
X58761905Y-55050057D01*
X59000001Y-54954819D02*
X59000001Y-53954819D01*
X59476191Y-54288152D02*
X59476191Y-54954819D01*
X59476191Y-54383390D02*
X59523810Y-54335771D01*
X59523810Y-54335771D02*
X59619048Y-54288152D01*
X59619048Y-54288152D02*
X59761905Y-54288152D01*
X59761905Y-54288152D02*
X59857143Y-54335771D01*
X59857143Y-54335771D02*
X59904762Y-54431009D01*
X59904762Y-54431009D02*
X59904762Y-54954819D01*
X57333333Y-49359580D02*
X57285714Y-49407200D01*
X57285714Y-49407200D02*
X57142857Y-49454819D01*
X57142857Y-49454819D02*
X57047619Y-49454819D01*
X57047619Y-49454819D02*
X56904762Y-49407200D01*
X56904762Y-49407200D02*
X56809524Y-49311961D01*
X56809524Y-49311961D02*
X56761905Y-49216723D01*
X56761905Y-49216723D02*
X56714286Y-49026247D01*
X56714286Y-49026247D02*
X56714286Y-48883390D01*
X56714286Y-48883390D02*
X56761905Y-48692914D01*
X56761905Y-48692914D02*
X56809524Y-48597676D01*
X56809524Y-48597676D02*
X56904762Y-48502438D01*
X56904762Y-48502438D02*
X57047619Y-48454819D01*
X57047619Y-48454819D02*
X57142857Y-48454819D01*
X57142857Y-48454819D02*
X57285714Y-48502438D01*
X57285714Y-48502438D02*
X57333333Y-48550057D01*
X58285714Y-49454819D02*
X57714286Y-49454819D01*
X58000000Y-49454819D02*
X58000000Y-48454819D01*
X58000000Y-48454819D02*
X57904762Y-48597676D01*
X57904762Y-48597676D02*
X57809524Y-48692914D01*
X57809524Y-48692914D02*
X57714286Y-48740533D01*
X46666666Y-45954819D02*
X46666666Y-46669104D01*
X46666666Y-46669104D02*
X46619047Y-46811961D01*
X46619047Y-46811961D02*
X46523809Y-46907200D01*
X46523809Y-46907200D02*
X46380952Y-46954819D01*
X46380952Y-46954819D02*
X46285714Y-46954819D01*
X47047619Y-45954819D02*
X47666666Y-45954819D01*
X47666666Y-45954819D02*
X47333333Y-46335771D01*
X47333333Y-46335771D02*
X47476190Y-46335771D01*
X47476190Y-46335771D02*
X47571428Y-46383390D01*
X47571428Y-46383390D02*
X47619047Y-46431009D01*
X47619047Y-46431009D02*
X47666666Y-46526247D01*
X47666666Y-46526247D02*
X47666666Y-46764342D01*
X47666666Y-46764342D02*
X47619047Y-46859580D01*
X47619047Y-46859580D02*
X47571428Y-46907200D01*
X47571428Y-46907200D02*
X47476190Y-46954819D01*
X47476190Y-46954819D02*
X47190476Y-46954819D01*
X47190476Y-46954819D02*
X47095238Y-46907200D01*
X47095238Y-46907200D02*
X47047619Y-46859580D01*
X49907200Y-57928570D02*
X49954819Y-57785713D01*
X49954819Y-57785713D02*
X49954819Y-57547618D01*
X49954819Y-57547618D02*
X49907200Y-57452380D01*
X49907200Y-57452380D02*
X49859580Y-57404761D01*
X49859580Y-57404761D02*
X49764342Y-57357142D01*
X49764342Y-57357142D02*
X49669104Y-57357142D01*
X49669104Y-57357142D02*
X49573866Y-57404761D01*
X49573866Y-57404761D02*
X49526247Y-57452380D01*
X49526247Y-57452380D02*
X49478628Y-57547618D01*
X49478628Y-57547618D02*
X49431009Y-57738094D01*
X49431009Y-57738094D02*
X49383390Y-57833332D01*
X49383390Y-57833332D02*
X49335771Y-57880951D01*
X49335771Y-57880951D02*
X49240533Y-57928570D01*
X49240533Y-57928570D02*
X49145295Y-57928570D01*
X49145295Y-57928570D02*
X49050057Y-57880951D01*
X49050057Y-57880951D02*
X49002438Y-57833332D01*
X49002438Y-57833332D02*
X48954819Y-57738094D01*
X48954819Y-57738094D02*
X48954819Y-57499999D01*
X48954819Y-57499999D02*
X49002438Y-57357142D01*
X49954819Y-56928570D02*
X48954819Y-56928570D01*
X48954819Y-56928570D02*
X48954819Y-56547618D01*
X48954819Y-56547618D02*
X49002438Y-56452380D01*
X49002438Y-56452380D02*
X49050057Y-56404761D01*
X49050057Y-56404761D02*
X49145295Y-56357142D01*
X49145295Y-56357142D02*
X49288152Y-56357142D01*
X49288152Y-56357142D02*
X49383390Y-56404761D01*
X49383390Y-56404761D02*
X49431009Y-56452380D01*
X49431009Y-56452380D02*
X49478628Y-56547618D01*
X49478628Y-56547618D02*
X49478628Y-56928570D01*
X49954819Y-55928570D02*
X48954819Y-55928570D01*
X50050057Y-55690476D02*
X50050057Y-54928571D01*
X49859580Y-54119047D02*
X49907200Y-54166666D01*
X49907200Y-54166666D02*
X49954819Y-54309523D01*
X49954819Y-54309523D02*
X49954819Y-54404761D01*
X49954819Y-54404761D02*
X49907200Y-54547618D01*
X49907200Y-54547618D02*
X49811961Y-54642856D01*
X49811961Y-54642856D02*
X49716723Y-54690475D01*
X49716723Y-54690475D02*
X49526247Y-54738094D01*
X49526247Y-54738094D02*
X49383390Y-54738094D01*
X49383390Y-54738094D02*
X49192914Y-54690475D01*
X49192914Y-54690475D02*
X49097676Y-54642856D01*
X49097676Y-54642856D02*
X49002438Y-54547618D01*
X49002438Y-54547618D02*
X48954819Y-54404761D01*
X48954819Y-54404761D02*
X48954819Y-54309523D01*
X48954819Y-54309523D02*
X49002438Y-54166666D01*
X49002438Y-54166666D02*
X49050057Y-54119047D01*
X49954819Y-53690475D02*
X48954819Y-53690475D01*
X49431009Y-53690475D02*
X49431009Y-53119047D01*
X49954819Y-53119047D02*
X48954819Y-53119047D01*
X49669104Y-52690475D02*
X49669104Y-52214285D01*
X49954819Y-52785713D02*
X48954819Y-52452380D01*
X48954819Y-52452380D02*
X49954819Y-52119047D01*
X49954819Y-51785713D02*
X48954819Y-51785713D01*
X49954819Y-51309523D02*
X48954819Y-51309523D01*
X48954819Y-51309523D02*
X49954819Y-50738095D01*
X49954819Y-50738095D02*
X48954819Y-50738095D01*
X50050057Y-50500000D02*
X50050057Y-49738095D01*
X48954819Y-49309523D02*
X48954819Y-49119047D01*
X48954819Y-49119047D02*
X49002438Y-49023809D01*
X49002438Y-49023809D02*
X49097676Y-48928571D01*
X49097676Y-48928571D02*
X49288152Y-48880952D01*
X49288152Y-48880952D02*
X49621485Y-48880952D01*
X49621485Y-48880952D02*
X49811961Y-48928571D01*
X49811961Y-48928571D02*
X49907200Y-49023809D01*
X49907200Y-49023809D02*
X49954819Y-49119047D01*
X49954819Y-49119047D02*
X49954819Y-49309523D01*
X49954819Y-49309523D02*
X49907200Y-49404761D01*
X49907200Y-49404761D02*
X49811961Y-49499999D01*
X49811961Y-49499999D02*
X49621485Y-49547618D01*
X49621485Y-49547618D02*
X49288152Y-49547618D01*
X49288152Y-49547618D02*
X49097676Y-49499999D01*
X49097676Y-49499999D02*
X49002438Y-49404761D01*
X49002438Y-49404761D02*
X48954819Y-49309523D01*
X48954819Y-48452380D02*
X49764342Y-48452380D01*
X49764342Y-48452380D02*
X49859580Y-48404761D01*
X49859580Y-48404761D02*
X49907200Y-48357142D01*
X49907200Y-48357142D02*
X49954819Y-48261904D01*
X49954819Y-48261904D02*
X49954819Y-48071428D01*
X49954819Y-48071428D02*
X49907200Y-47976190D01*
X49907200Y-47976190D02*
X49859580Y-47928571D01*
X49859580Y-47928571D02*
X49764342Y-47880952D01*
X49764342Y-47880952D02*
X48954819Y-47880952D01*
X48954819Y-47547618D02*
X48954819Y-46976190D01*
X49954819Y-47261904D02*
X48954819Y-47261904D01*
X67413333Y-75584819D02*
X67080000Y-75108628D01*
X66841905Y-75584819D02*
X66841905Y-74584819D01*
X66841905Y-74584819D02*
X67222857Y-74584819D01*
X67222857Y-74584819D02*
X67318095Y-74632438D01*
X67318095Y-74632438D02*
X67365714Y-74680057D01*
X67365714Y-74680057D02*
X67413333Y-74775295D01*
X67413333Y-74775295D02*
X67413333Y-74918152D01*
X67413333Y-74918152D02*
X67365714Y-75013390D01*
X67365714Y-75013390D02*
X67318095Y-75061009D01*
X67318095Y-75061009D02*
X67222857Y-75108628D01*
X67222857Y-75108628D02*
X66841905Y-75108628D01*
X67794286Y-74680057D02*
X67841905Y-74632438D01*
X67841905Y-74632438D02*
X67937143Y-74584819D01*
X67937143Y-74584819D02*
X68175238Y-74584819D01*
X68175238Y-74584819D02*
X68270476Y-74632438D01*
X68270476Y-74632438D02*
X68318095Y-74680057D01*
X68318095Y-74680057D02*
X68365714Y-74775295D01*
X68365714Y-74775295D02*
X68365714Y-74870533D01*
X68365714Y-74870533D02*
X68318095Y-75013390D01*
X68318095Y-75013390D02*
X67746667Y-75584819D01*
X67746667Y-75584819D02*
X68365714Y-75584819D01*
X54084819Y-68086666D02*
X53608628Y-68419999D01*
X54084819Y-68658094D02*
X53084819Y-68658094D01*
X53084819Y-68658094D02*
X53084819Y-68277142D01*
X53084819Y-68277142D02*
X53132438Y-68181904D01*
X53132438Y-68181904D02*
X53180057Y-68134285D01*
X53180057Y-68134285D02*
X53275295Y-68086666D01*
X53275295Y-68086666D02*
X53418152Y-68086666D01*
X53418152Y-68086666D02*
X53513390Y-68134285D01*
X53513390Y-68134285D02*
X53561009Y-68181904D01*
X53561009Y-68181904D02*
X53608628Y-68277142D01*
X53608628Y-68277142D02*
X53608628Y-68658094D01*
X54084819Y-67134285D02*
X54084819Y-67705713D01*
X54084819Y-67419999D02*
X53084819Y-67419999D01*
X53084819Y-67419999D02*
X53227676Y-67515237D01*
X53227676Y-67515237D02*
X53322914Y-67610475D01*
X53322914Y-67610475D02*
X53370533Y-67705713D01*
D13*
%TO.C,G\u002A\u002A\u002A*%
G36*
X53217354Y-234030803D02*
G01*
X53217628Y-234038231D01*
X53217884Y-234057877D01*
X53218121Y-234089251D01*
X53218340Y-234131864D01*
X53218540Y-234185228D01*
X53218721Y-234248854D01*
X53218882Y-234322251D01*
X53219023Y-234404933D01*
X53219143Y-234496408D01*
X53219242Y-234596189D01*
X53219320Y-234703787D01*
X53219376Y-234818712D01*
X53219410Y-234940476D01*
X53219422Y-235068589D01*
X53219410Y-235202563D01*
X53219376Y-235341909D01*
X53219317Y-235486137D01*
X53219235Y-235634759D01*
X53219128Y-235787285D01*
X53218996Y-235943227D01*
X53218938Y-236005052D01*
X53217032Y-237965007D01*
X53200270Y-238019009D01*
X53178113Y-238077384D01*
X53149551Y-238132217D01*
X53116209Y-238181030D01*
X53079714Y-238221342D01*
X53053403Y-238243005D01*
X53036726Y-238255395D01*
X53024066Y-238265860D01*
X53020335Y-238269574D01*
X53010146Y-238277095D01*
X52990858Y-238287484D01*
X52965365Y-238299408D01*
X52936560Y-238311533D01*
X52907338Y-238322527D01*
X52899624Y-238325171D01*
X52875763Y-238330858D01*
X52843092Y-238335592D01*
X52805492Y-238339111D01*
X52766841Y-238341149D01*
X52731018Y-238341444D01*
X52701902Y-238339732D01*
X52696323Y-238338990D01*
X52671804Y-238333463D01*
X52640541Y-238323983D01*
X52607216Y-238312159D01*
X52576511Y-238299596D01*
X52562985Y-238293231D01*
X52507961Y-238258893D01*
X52457194Y-238213953D01*
X52412188Y-238160211D01*
X52374448Y-238099470D01*
X52345480Y-238033531D01*
X52345036Y-238032275D01*
X52328099Y-237984067D01*
X52326262Y-236009022D01*
X52326088Y-235808675D01*
X52325951Y-235620747D01*
X52325852Y-235444948D01*
X52325791Y-235280990D01*
X52325769Y-235128585D01*
X52325787Y-234987445D01*
X52325846Y-234857282D01*
X52325946Y-234737806D01*
X52326089Y-234628731D01*
X52326275Y-234529766D01*
X52326505Y-234440625D01*
X52326780Y-234361018D01*
X52327100Y-234290658D01*
X52327466Y-234229256D01*
X52327880Y-234176524D01*
X52328341Y-234132173D01*
X52328851Y-234095916D01*
X52329411Y-234067463D01*
X52330020Y-234046527D01*
X52330681Y-234032819D01*
X52331394Y-234026051D01*
X52331675Y-234025243D01*
X52334889Y-234023501D01*
X52341985Y-234021998D01*
X52353790Y-234020717D01*
X52371132Y-234019643D01*
X52394839Y-234018758D01*
X52425737Y-234018046D01*
X52464655Y-234017492D01*
X52512419Y-234017079D01*
X52569857Y-234016791D01*
X52637797Y-234016611D01*
X52717066Y-234016523D01*
X52776394Y-234016508D01*
X53213865Y-234016508D01*
X53217354Y-234030803D01*
G37*
G36*
X57202005Y-234015945D02*
G01*
X57265725Y-234016192D01*
X57326908Y-234016605D01*
X57384284Y-234017183D01*
X57436583Y-234017927D01*
X57482534Y-234018835D01*
X57520867Y-234019909D01*
X57550313Y-234021149D01*
X57569600Y-234022553D01*
X57577459Y-234024123D01*
X57577468Y-234024132D01*
X57578296Y-234031220D01*
X57579080Y-234050332D01*
X57579820Y-234080786D01*
X57580518Y-234121898D01*
X57581171Y-234172988D01*
X57581781Y-234233371D01*
X57582346Y-234302366D01*
X57582868Y-234379291D01*
X57583345Y-234463463D01*
X57583778Y-234554199D01*
X57584166Y-234650817D01*
X57584509Y-234752635D01*
X57584807Y-234858971D01*
X57585060Y-234969141D01*
X57585268Y-235082464D01*
X57585430Y-235198257D01*
X57585547Y-235315837D01*
X57585618Y-235434523D01*
X57585643Y-235553632D01*
X57585621Y-235672481D01*
X57585554Y-235790388D01*
X57585440Y-235906671D01*
X57585280Y-236020647D01*
X57585072Y-236131634D01*
X57584818Y-236238949D01*
X57584517Y-236341910D01*
X57584168Y-236439834D01*
X57583773Y-236532040D01*
X57583329Y-236617845D01*
X57582838Y-236696566D01*
X57582299Y-236767520D01*
X57581712Y-236830026D01*
X57581076Y-236883402D01*
X57580393Y-236926964D01*
X57579660Y-236960030D01*
X57578879Y-236981918D01*
X57578171Y-236991265D01*
X57561153Y-237069148D01*
X57534697Y-237140048D01*
X57499235Y-237203145D01*
X57455201Y-237257621D01*
X57421001Y-237288982D01*
X57400097Y-237304326D01*
X57374280Y-237320965D01*
X57346333Y-237337375D01*
X57319035Y-237352030D01*
X57295166Y-237363404D01*
X57277508Y-237369973D01*
X57271513Y-237370985D01*
X57258522Y-237373359D01*
X57241159Y-237379158D01*
X57239090Y-237380003D01*
X57219505Y-237385312D01*
X57191278Y-237389442D01*
X57158438Y-237392142D01*
X57125013Y-237393161D01*
X57095035Y-237392250D01*
X57076838Y-237390076D01*
X57008516Y-237372495D01*
X56943441Y-237346325D01*
X56884082Y-237312868D01*
X56832904Y-237273424D01*
X56807881Y-237248249D01*
X56782747Y-237216424D01*
X56757892Y-237178695D01*
X56736090Y-237139695D01*
X56720116Y-237104056D01*
X56718016Y-237098189D01*
X56710714Y-237072043D01*
X56703675Y-237038849D01*
X56698032Y-237004232D01*
X56696330Y-236990440D01*
X56695497Y-236976505D01*
X56694712Y-236950929D01*
X56693977Y-236914394D01*
X56693291Y-236867584D01*
X56692653Y-236811181D01*
X56692064Y-236745866D01*
X56691524Y-236672323D01*
X56691032Y-236591234D01*
X56690588Y-236503281D01*
X56690193Y-236409147D01*
X56689845Y-236309513D01*
X56689545Y-236205064D01*
X56689293Y-236096480D01*
X56689088Y-235984444D01*
X56688931Y-235869640D01*
X56688821Y-235752748D01*
X56688758Y-235634452D01*
X56688743Y-235515434D01*
X56688774Y-235396376D01*
X56688852Y-235277961D01*
X56688976Y-235160872D01*
X56689147Y-235045790D01*
X56689365Y-234933398D01*
X56689628Y-234824379D01*
X56689938Y-234719414D01*
X56690293Y-234619187D01*
X56690695Y-234524379D01*
X56691142Y-234435674D01*
X56691634Y-234353753D01*
X56692172Y-234279299D01*
X56692755Y-234212994D01*
X56693384Y-234155522D01*
X56694057Y-234107563D01*
X56694775Y-234069801D01*
X56695538Y-234042918D01*
X56696346Y-234027596D01*
X56696918Y-234024132D01*
X56704712Y-234022561D01*
X56723942Y-234021156D01*
X56753336Y-234019915D01*
X56791625Y-234018841D01*
X56837539Y-234017931D01*
X56889807Y-234017187D01*
X56947159Y-234016608D01*
X57008325Y-234016194D01*
X57072035Y-234015946D01*
X57137018Y-234015863D01*
X57202005Y-234015945D01*
G37*
G36*
X49959126Y-234016563D02*
G01*
X50037065Y-234016735D01*
X50103654Y-234017037D01*
X50159570Y-234017479D01*
X50205491Y-234018074D01*
X50242095Y-234018833D01*
X50270059Y-234019769D01*
X50290062Y-234020892D01*
X50302781Y-234022215D01*
X50308893Y-234023749D01*
X50309434Y-234024132D01*
X50310354Y-234027800D01*
X50311204Y-234037161D01*
X50311985Y-234052616D01*
X50312700Y-234074567D01*
X50313351Y-234103416D01*
X50313941Y-234139565D01*
X50314471Y-234183415D01*
X50314945Y-234235369D01*
X50315364Y-234295828D01*
X50315731Y-234365195D01*
X50316047Y-234443870D01*
X50316316Y-234532257D01*
X50316540Y-234630756D01*
X50316720Y-234739769D01*
X50316859Y-234859700D01*
X50316960Y-234990948D01*
X50317024Y-235133917D01*
X50317055Y-235289008D01*
X50317058Y-235363533D01*
X50317057Y-235520846D01*
X50317048Y-235665976D01*
X50317021Y-235799446D01*
X50316965Y-235921779D01*
X50316870Y-236033498D01*
X50316726Y-236135127D01*
X50316522Y-236227189D01*
X50316248Y-236310207D01*
X50315895Y-236384704D01*
X50315452Y-236451203D01*
X50314908Y-236510227D01*
X50314253Y-236562300D01*
X50313477Y-236607945D01*
X50312571Y-236647685D01*
X50311522Y-236682044D01*
X50310323Y-236711543D01*
X50308961Y-236736707D01*
X50307427Y-236758059D01*
X50305711Y-236776122D01*
X50303802Y-236791419D01*
X50301690Y-236804473D01*
X50299365Y-236815808D01*
X50296817Y-236825946D01*
X50294035Y-236835411D01*
X50291009Y-236844726D01*
X50287871Y-236853997D01*
X50280404Y-236873443D01*
X50270168Y-236896841D01*
X50258627Y-236921237D01*
X50247241Y-236943677D01*
X50237471Y-236961207D01*
X50230779Y-236970872D01*
X50229602Y-236971791D01*
X50223276Y-236977522D01*
X50211804Y-236990251D01*
X50200330Y-237003977D01*
X50171604Y-237034087D01*
X50132960Y-237066343D01*
X50104826Y-237086696D01*
X50096261Y-237091334D01*
X50079114Y-237099771D01*
X50056375Y-237110553D01*
X50043871Y-237116355D01*
X50005444Y-237132178D01*
X49969549Y-237142203D01*
X49932691Y-237148088D01*
X49898663Y-237151878D01*
X49872473Y-237153721D01*
X49849391Y-237153538D01*
X49824686Y-237151252D01*
X49793628Y-237146785D01*
X49786568Y-237145675D01*
X49730171Y-237131622D01*
X49681426Y-237112015D01*
X49652804Y-237098067D01*
X49630100Y-237085465D01*
X49610292Y-237071964D01*
X49590355Y-237055322D01*
X49567265Y-237033293D01*
X49544910Y-237010713D01*
X49520618Y-236984114D01*
X49500327Y-236957286D01*
X49481976Y-236926951D01*
X49463504Y-236889830D01*
X49450389Y-236860353D01*
X49447152Y-236852778D01*
X49444165Y-236845314D01*
X49441418Y-236837447D01*
X49438900Y-236828663D01*
X49436602Y-236818448D01*
X49434514Y-236806288D01*
X49432625Y-236791671D01*
X49430926Y-236774081D01*
X49429406Y-236753005D01*
X49428056Y-236727929D01*
X49426865Y-236698340D01*
X49425824Y-236663723D01*
X49424922Y-236623565D01*
X49424149Y-236577352D01*
X49423495Y-236524570D01*
X49422950Y-236464706D01*
X49422505Y-236397244D01*
X49422148Y-236321672D01*
X49421871Y-236237476D01*
X49421662Y-236144142D01*
X49421513Y-236041157D01*
X49421412Y-235928005D01*
X49421350Y-235804174D01*
X49421317Y-235669149D01*
X49421303Y-235522418D01*
X49421298Y-235372594D01*
X49421309Y-235211308D01*
X49421353Y-235062328D01*
X49421432Y-234925253D01*
X49421550Y-234799683D01*
X49421707Y-234685216D01*
X49421906Y-234581453D01*
X49422149Y-234487993D01*
X49422439Y-234404435D01*
X49422778Y-234330379D01*
X49423168Y-234265424D01*
X49423611Y-234209169D01*
X49424110Y-234161214D01*
X49424667Y-234121158D01*
X49425284Y-234088601D01*
X49425964Y-234063143D01*
X49426708Y-234044381D01*
X49427519Y-234031917D01*
X49428399Y-234025349D01*
X49428884Y-234024132D01*
X49433579Y-234022548D01*
X49444725Y-234021177D01*
X49462999Y-234020009D01*
X49489080Y-234019032D01*
X49523646Y-234018233D01*
X49567373Y-234017601D01*
X49620940Y-234017125D01*
X49685024Y-234016792D01*
X49760304Y-234016592D01*
X49847456Y-234016511D01*
X49869159Y-234016508D01*
X49959126Y-234016563D01*
G37*
G36*
X54667421Y-234809644D02*
G01*
X54669034Y-235599603D01*
X54650285Y-235655563D01*
X54639370Y-235685119D01*
X54626906Y-235714283D01*
X54615136Y-235737911D01*
X54612142Y-235743045D01*
X54601662Y-235760871D01*
X54594619Y-235774371D01*
X54592746Y-235779541D01*
X54588358Y-235787526D01*
X54576560Y-235801843D01*
X54559400Y-235820342D01*
X54538925Y-235840869D01*
X54517183Y-235861272D01*
X54503637Y-235873197D01*
X54484039Y-235887173D01*
X54456236Y-235903530D01*
X54423991Y-235920383D01*
X54391068Y-235935846D01*
X54361232Y-235948036D01*
X54341795Y-235954245D01*
X54292096Y-235965286D01*
X54249889Y-235971006D01*
X54211263Y-235971685D01*
X54172305Y-235967603D01*
X54167083Y-235966749D01*
X54093404Y-235948397D01*
X54024817Y-235919585D01*
X53962605Y-235881178D01*
X53908051Y-235834043D01*
X53862440Y-235779047D01*
X53842750Y-235747749D01*
X53828244Y-235719196D01*
X53813415Y-235685210D01*
X53801224Y-235652629D01*
X53800123Y-235649274D01*
X53782716Y-235595272D01*
X53782716Y-234807479D01*
X53782716Y-234019685D01*
X54224262Y-234019685D01*
X54665807Y-234019685D01*
X54667421Y-234809644D01*
G37*
G36*
X48852651Y-234458054D02*
G01*
X48852651Y-234896423D01*
X48837572Y-234944072D01*
X48820401Y-234988399D01*
X48797437Y-235033374D01*
X48770849Y-235075467D01*
X48742805Y-235111143D01*
X48722861Y-235130932D01*
X48695660Y-235153980D01*
X48675009Y-235170482D01*
X48658092Y-235182481D01*
X48642096Y-235192020D01*
X48630290Y-235198155D01*
X48610766Y-235208335D01*
X48594982Y-235217348D01*
X48588994Y-235221302D01*
X48573449Y-235228965D01*
X48548290Y-235236704D01*
X48516599Y-235243988D01*
X48481453Y-235250287D01*
X48445932Y-235255072D01*
X48413116Y-235257810D01*
X48386083Y-235257973D01*
X48379339Y-235257415D01*
X48338961Y-235250377D01*
X48294091Y-235238623D01*
X48250324Y-235223843D01*
X48213255Y-235207728D01*
X48210980Y-235206554D01*
X48146843Y-235166122D01*
X48091679Y-235116897D01*
X48045997Y-235059560D01*
X48010303Y-234994793D01*
X47985106Y-234923279D01*
X47978290Y-234893990D01*
X47975858Y-234881198D01*
X47973786Y-234868145D01*
X47972050Y-234853771D01*
X47970627Y-234837018D01*
X47969493Y-234816826D01*
X47968625Y-234792136D01*
X47967999Y-234761889D01*
X47967592Y-234725026D01*
X47967381Y-234680487D01*
X47967341Y-234627215D01*
X47967449Y-234564149D01*
X47967682Y-234490230D01*
X47967925Y-234427031D01*
X47969559Y-234019685D01*
X48411105Y-234019685D01*
X48852651Y-234019685D01*
X48852651Y-234458054D01*
G37*
G36*
X56120685Y-234458054D02*
G01*
X56120685Y-234896423D01*
X56105606Y-234944072D01*
X56088435Y-234988399D01*
X56065471Y-235033374D01*
X56038883Y-235075467D01*
X56010839Y-235111143D01*
X55990895Y-235130932D01*
X55963694Y-235153980D01*
X55943043Y-235170482D01*
X55926126Y-235182481D01*
X55910130Y-235192020D01*
X55898324Y-235198155D01*
X55878800Y-235208335D01*
X55863017Y-235217348D01*
X55857028Y-235221302D01*
X55841483Y-235228965D01*
X55816324Y-235236704D01*
X55784633Y-235243988D01*
X55749487Y-235250287D01*
X55713966Y-235255072D01*
X55681150Y-235257810D01*
X55654117Y-235257973D01*
X55647373Y-235257415D01*
X55606995Y-235250377D01*
X55562125Y-235238623D01*
X55518358Y-235223843D01*
X55481289Y-235207728D01*
X55479014Y-235206554D01*
X55414877Y-235166122D01*
X55359713Y-235116897D01*
X55314031Y-235059560D01*
X55278337Y-234994793D01*
X55253140Y-234923279D01*
X55246324Y-234893990D01*
X55243892Y-234881198D01*
X55241820Y-234868145D01*
X55240084Y-234853771D01*
X55238661Y-234837018D01*
X55237527Y-234816826D01*
X55236659Y-234792136D01*
X55236033Y-234761889D01*
X55235626Y-234725026D01*
X55235415Y-234680487D01*
X55235375Y-234627215D01*
X55235483Y-234564149D01*
X55235716Y-234490230D01*
X55235959Y-234427031D01*
X55237593Y-234019685D01*
X55679139Y-234019685D01*
X56120685Y-234019685D01*
X56120685Y-234458054D01*
G37*
G36*
X59037178Y-234031663D02*
G01*
X59037904Y-234040988D01*
X59038475Y-234061674D01*
X59038884Y-234092377D01*
X59039126Y-234131752D01*
X59039197Y-234178455D01*
X59039090Y-234231142D01*
X59038800Y-234288468D01*
X59038420Y-234338204D01*
X59037805Y-234406677D01*
X59037224Y-234463744D01*
X59036609Y-234510704D01*
X59035891Y-234548858D01*
X59034999Y-234579505D01*
X59033866Y-234603945D01*
X59032421Y-234623479D01*
X59030596Y-234639404D01*
X59028322Y-234653023D01*
X59025528Y-234665634D01*
X59022147Y-234678537D01*
X59019860Y-234686768D01*
X59010169Y-234716925D01*
X58998492Y-234746745D01*
X58986935Y-234770994D01*
X58983797Y-234776415D01*
X58973107Y-234794454D01*
X58965828Y-234808154D01*
X58963731Y-234813672D01*
X58959400Y-234822209D01*
X58947830Y-234837046D01*
X58931160Y-234855903D01*
X58911527Y-234876503D01*
X58891069Y-234896570D01*
X58871922Y-234913824D01*
X58862748Y-234921273D01*
X58824672Y-234947917D01*
X58786318Y-234968680D01*
X58742483Y-234986219D01*
X58722912Y-234992717D01*
X58682189Y-235002438D01*
X58634356Y-235008828D01*
X58584662Y-235011500D01*
X58538358Y-235010064D01*
X58519009Y-235007821D01*
X58460913Y-234994027D01*
X58402571Y-234971140D01*
X58347308Y-234940933D01*
X58298447Y-234905178D01*
X58265011Y-234872414D01*
X58228755Y-234825129D01*
X58196912Y-234772586D01*
X58172340Y-234719691D01*
X58166199Y-234702651D01*
X58148339Y-234648649D01*
X58145685Y-234341858D01*
X58145115Y-234267111D01*
X58144815Y-234204223D01*
X58144798Y-234152354D01*
X58145078Y-234110658D01*
X58145668Y-234078293D01*
X58146581Y-234054415D01*
X58147832Y-234038182D01*
X58149433Y-234028750D01*
X58150732Y-234025788D01*
X58153645Y-234023953D01*
X58159690Y-234022371D01*
X58169725Y-234021024D01*
X58184608Y-234019893D01*
X58205196Y-234018962D01*
X58232348Y-234018211D01*
X58266921Y-234017624D01*
X58309773Y-234017182D01*
X58361763Y-234016867D01*
X58423746Y-234016662D01*
X58496583Y-234016548D01*
X58581129Y-234016509D01*
X58595904Y-234016508D01*
X59033374Y-234016508D01*
X59037178Y-234031663D01*
G37*
G36*
X51407651Y-234016563D02*
G01*
X51485590Y-234016735D01*
X51552178Y-234017037D01*
X51608094Y-234017479D01*
X51654015Y-234018074D01*
X51690619Y-234018833D01*
X51718584Y-234019769D01*
X51738586Y-234020892D01*
X51751305Y-234022215D01*
X51757417Y-234023749D01*
X51757959Y-234024132D01*
X51760345Y-234032737D01*
X51762302Y-234051983D01*
X51763826Y-234079811D01*
X51764909Y-234114162D01*
X51765547Y-234152978D01*
X51765734Y-234194199D01*
X51765465Y-234235768D01*
X51764733Y-234275625D01*
X51763534Y-234311712D01*
X51761862Y-234341971D01*
X51759710Y-234364341D01*
X51758895Y-234369638D01*
X51751277Y-234411261D01*
X51744739Y-234443188D01*
X51738443Y-234468283D01*
X51731549Y-234489410D01*
X51723220Y-234509433D01*
X51712615Y-234531217D01*
X51710193Y-234535950D01*
X51678865Y-234588808D01*
X51642386Y-234634221D01*
X51598469Y-234674515D01*
X51544830Y-234712017D01*
X51526202Y-234723246D01*
X51474270Y-234747821D01*
X51416053Y-234765540D01*
X51355359Y-234775732D01*
X51295994Y-234777729D01*
X51247798Y-234772162D01*
X51171120Y-234750755D01*
X51101521Y-234719222D01*
X51039606Y-234678065D01*
X50985981Y-234627786D01*
X50941252Y-234568887D01*
X50906025Y-234501870D01*
X50898080Y-234482075D01*
X50889287Y-234453701D01*
X50882283Y-234419416D01*
X50876953Y-234377954D01*
X50873180Y-234328047D01*
X50870850Y-234268428D01*
X50869845Y-234197828D01*
X50869784Y-234172758D01*
X50870023Y-234121572D01*
X50870770Y-234082162D01*
X50872073Y-234053606D01*
X50873979Y-234034982D01*
X50876536Y-234025368D01*
X50877408Y-234024132D01*
X50882103Y-234022548D01*
X50893249Y-234021177D01*
X50911524Y-234020009D01*
X50937605Y-234019032D01*
X50972170Y-234018233D01*
X51015897Y-234017601D01*
X51069464Y-234017125D01*
X51133548Y-234016792D01*
X51208828Y-234016592D01*
X51295981Y-234016511D01*
X51317683Y-234016508D01*
X51407651Y-234016563D01*
G37*
G36*
X47043896Y-234016550D02*
G01*
X47115936Y-234016687D01*
X47176927Y-234016937D01*
X47227697Y-234017316D01*
X47269075Y-234017841D01*
X47301888Y-234018531D01*
X47326967Y-234019401D01*
X47345138Y-234020469D01*
X47357230Y-234021752D01*
X47364073Y-234023268D01*
X47366454Y-234024910D01*
X47364987Y-234034137D01*
X47358139Y-234050739D01*
X47347328Y-234071358D01*
X47345607Y-234074325D01*
X47301179Y-234138490D01*
X47249534Y-234192329D01*
X47191215Y-234235579D01*
X47126764Y-234267975D01*
X47056724Y-234289253D01*
X46981637Y-234299151D01*
X46902045Y-234297404D01*
X46889519Y-234296094D01*
X46863897Y-234292003D01*
X46840700Y-234286356D01*
X46825988Y-234280841D01*
X46808926Y-234273678D01*
X46794383Y-234270536D01*
X46794222Y-234270533D01*
X46780229Y-234266599D01*
X46765632Y-234257929D01*
X46752400Y-234249135D01*
X46742792Y-234245365D01*
X46742755Y-234245364D01*
X46730407Y-234240689D01*
X46711817Y-234228274D01*
X46689027Y-234210012D01*
X46664079Y-234187798D01*
X46639015Y-234163526D01*
X46615876Y-234139090D01*
X46596705Y-234116383D01*
X46583994Y-234098085D01*
X46569814Y-234072005D01*
X46559197Y-234049014D01*
X46553214Y-234031702D01*
X46552846Y-234022788D01*
X46560053Y-234021398D01*
X46579639Y-234020171D01*
X46611279Y-234019112D01*
X46654646Y-234018226D01*
X46709413Y-234017518D01*
X46775256Y-234016993D01*
X46851849Y-234016656D01*
X46938864Y-234016513D01*
X46959979Y-234016508D01*
X47043896Y-234016550D01*
G37*
G36*
X60104015Y-234016964D02*
G01*
X60148767Y-234017821D01*
X60181586Y-234019381D01*
X60202853Y-234021750D01*
X60212951Y-234025036D01*
X60212261Y-234029347D01*
X60201165Y-234034791D01*
X60180044Y-234041473D01*
X60156858Y-234047615D01*
X60112733Y-234056800D01*
X60069061Y-234062426D01*
X60030251Y-234064026D01*
X60012006Y-234062958D01*
X59994807Y-234060210D01*
X59971348Y-234055397D01*
X59945176Y-234049382D01*
X59919834Y-234043025D01*
X59898869Y-234037190D01*
X59885826Y-234032737D01*
X59884075Y-234031855D01*
X59879937Y-234027360D01*
X59884092Y-234023759D01*
X59897290Y-234020981D01*
X59920284Y-234018957D01*
X59953825Y-234017616D01*
X59998664Y-234016890D01*
X60046948Y-234016703D01*
X60104015Y-234016964D01*
G37*
G36*
X56673956Y-231803954D02*
G01*
X56704346Y-231805762D01*
X56730881Y-231809305D01*
X56757975Y-231815124D01*
X56780690Y-231821133D01*
X56810743Y-231829882D01*
X56839353Y-231838924D01*
X56862236Y-231846872D01*
X56870595Y-231850176D01*
X56920028Y-231875963D01*
X56968081Y-231909516D01*
X57012127Y-231948451D01*
X57049537Y-231990382D01*
X57077683Y-232032925D01*
X57082550Y-232042503D01*
X57091703Y-232062524D01*
X57099302Y-232081704D01*
X57105488Y-232101443D01*
X57110405Y-232123140D01*
X57114195Y-232148197D01*
X57117003Y-232178012D01*
X57118971Y-232213987D01*
X57120241Y-232257521D01*
X57120958Y-232310015D01*
X57121264Y-232372868D01*
X57121310Y-232421861D01*
X57121201Y-232492499D01*
X57120777Y-232551833D01*
X57119896Y-232601262D01*
X57118415Y-232642186D01*
X57116190Y-232676006D01*
X57113078Y-232704121D01*
X57108937Y-232727932D01*
X57103624Y-232748839D01*
X57096995Y-232768243D01*
X57088906Y-232787543D01*
X57082550Y-232801219D01*
X57053380Y-232849105D01*
X57012537Y-232895742D01*
X56961056Y-232940116D01*
X56899966Y-232981211D01*
X56898949Y-232981817D01*
X56874779Y-232993480D01*
X56840960Y-233005984D01*
X56800420Y-233018366D01*
X56756088Y-233029660D01*
X56748128Y-233031460D01*
X56679443Y-233041595D01*
X56606842Y-233043224D01*
X56535868Y-233036329D01*
X56513773Y-233032185D01*
X56432247Y-233009709D01*
X56360427Y-232979054D01*
X56298278Y-232940201D01*
X56245765Y-232893130D01*
X56225663Y-232869760D01*
X56198194Y-232832015D01*
X56178321Y-232796287D01*
X56163340Y-232757151D01*
X56155236Y-232728459D01*
X56152139Y-232715435D01*
X56149605Y-232701999D01*
X56147578Y-232686769D01*
X56146003Y-232668362D01*
X56144824Y-232645392D01*
X56143985Y-232616478D01*
X56143431Y-232580235D01*
X56143106Y-232535280D01*
X56142955Y-232480228D01*
X56142921Y-232421861D01*
X56431991Y-232421861D01*
X56431991Y-232660105D01*
X56450887Y-232694223D01*
X56465168Y-232716119D01*
X56481632Y-232735855D01*
X56491612Y-232745048D01*
X56533897Y-232769759D01*
X56581972Y-232784810D01*
X56632905Y-232789781D01*
X56683765Y-232784251D01*
X56710878Y-232776498D01*
X56751954Y-232758012D01*
X56783048Y-232734692D01*
X56806568Y-232704528D01*
X56814433Y-232690015D01*
X56832241Y-232653752D01*
X56832241Y-232421861D01*
X56832241Y-232189970D01*
X56814978Y-232155027D01*
X56789572Y-232117025D01*
X56755573Y-232088319D01*
X56713141Y-232068993D01*
X56662437Y-232059134D01*
X56632116Y-232057775D01*
X56576764Y-232062531D01*
X56529757Y-232076833D01*
X56490995Y-232100731D01*
X56460380Y-232134276D01*
X56450486Y-232150235D01*
X56431991Y-232183617D01*
X56431991Y-232421861D01*
X56142921Y-232421861D01*
X56142965Y-232356701D01*
X56143133Y-232302864D01*
X56143481Y-232258966D01*
X56144064Y-232223623D01*
X56144939Y-232195452D01*
X56145585Y-232183617D01*
X56146161Y-232173069D01*
X56147784Y-232155092D01*
X56149866Y-232140135D01*
X56152461Y-232126815D01*
X56155236Y-232115262D01*
X56177281Y-232051454D01*
X56209113Y-231994955D01*
X56251173Y-231945252D01*
X56303900Y-231901836D01*
X56367734Y-231864195D01*
X56373886Y-231861147D01*
X56437751Y-231833957D01*
X56500870Y-231815852D01*
X56567224Y-231805954D01*
X56635292Y-231803342D01*
X56673956Y-231803954D01*
G37*
G36*
X48948582Y-231825635D02*
G01*
X48998709Y-231825860D01*
X49040886Y-231826195D01*
X49073959Y-231826637D01*
X49096774Y-231827178D01*
X49108176Y-231827814D01*
X49108721Y-231827896D01*
X49125048Y-231831753D01*
X49136964Y-231837715D01*
X49145157Y-231847630D01*
X49150311Y-231863343D01*
X49153115Y-231886701D01*
X49154253Y-231919552D01*
X49154427Y-231950869D01*
X49154283Y-231987950D01*
X49153671Y-232014594D01*
X49152324Y-232033069D01*
X49149972Y-232045641D01*
X49146347Y-232054579D01*
X49141259Y-232062049D01*
X49128092Y-232078789D01*
X48853603Y-232078789D01*
X48786239Y-232078837D01*
X48730444Y-232079008D01*
X48685078Y-232079339D01*
X48649005Y-232079871D01*
X48621086Y-232080642D01*
X48600184Y-232081691D01*
X48585161Y-232083057D01*
X48574879Y-232084779D01*
X48568200Y-232086896D01*
X48564995Y-232088679D01*
X48559201Y-232093468D01*
X48555253Y-232099793D01*
X48552799Y-232109951D01*
X48551486Y-232126239D01*
X48550962Y-232150955D01*
X48550875Y-232180800D01*
X48551058Y-232215097D01*
X48551818Y-232239060D01*
X48553472Y-232255058D01*
X48556337Y-232265460D01*
X48560730Y-232272637D01*
X48563581Y-232275738D01*
X48567319Y-232279027D01*
X48572134Y-232281694D01*
X48579298Y-232283804D01*
X48590084Y-232285422D01*
X48605762Y-232286613D01*
X48627604Y-232287442D01*
X48656881Y-232287974D01*
X48694866Y-232288276D01*
X48742829Y-232288410D01*
X48802042Y-232288444D01*
X48811659Y-232288444D01*
X49047029Y-232288444D01*
X49062609Y-232305255D01*
X49068715Y-232312407D01*
X49072975Y-232319995D01*
X49075719Y-232330325D01*
X49077281Y-232345704D01*
X49077991Y-232368440D01*
X49078183Y-232400842D01*
X49078189Y-232413547D01*
X49078098Y-232449469D01*
X49077603Y-232474963D01*
X49076373Y-232492307D01*
X49074076Y-232503780D01*
X49070380Y-232511660D01*
X49064954Y-232518225D01*
X49062594Y-232520624D01*
X49047000Y-232536218D01*
X48813058Y-232536218D01*
X48751149Y-232536278D01*
X48700706Y-232536493D01*
X48660490Y-232536911D01*
X48629260Y-232537581D01*
X48605777Y-232538554D01*
X48588801Y-232539878D01*
X48577092Y-232541604D01*
X48569410Y-232543780D01*
X48564995Y-232546108D01*
X48550875Y-232555998D01*
X48550875Y-232771934D01*
X48550875Y-232987871D01*
X48535281Y-233003465D01*
X48529273Y-233009083D01*
X48522855Y-233013159D01*
X48514018Y-233015939D01*
X48500755Y-233017672D01*
X48481056Y-233018604D01*
X48452913Y-233018984D01*
X48414318Y-233019059D01*
X48408782Y-233019059D01*
X48297877Y-233019059D01*
X48281430Y-232999512D01*
X48264982Y-232979965D01*
X48264982Y-232421728D01*
X48264982Y-231863490D01*
X48280312Y-231845664D01*
X48295642Y-231827839D01*
X48691680Y-231825954D01*
X48762055Y-231825681D01*
X48829101Y-231825540D01*
X48891661Y-231825527D01*
X48948582Y-231825635D01*
G37*
G36*
X49770768Y-231825097D02*
G01*
X49804627Y-231826792D01*
X49829780Y-231830334D01*
X49848219Y-231836311D01*
X49861936Y-231845308D01*
X49872923Y-231857912D01*
X49880603Y-231870145D01*
X49886615Y-231882709D01*
X49896328Y-231905566D01*
X49909092Y-231937070D01*
X49924256Y-231975576D01*
X49941169Y-232019438D01*
X49959180Y-232067012D01*
X49970686Y-232097849D01*
X49988898Y-232146890D01*
X50010669Y-232205440D01*
X50035107Y-232271107D01*
X50061322Y-232341497D01*
X50088422Y-232414219D01*
X50115516Y-232486880D01*
X50141713Y-232557086D01*
X50156456Y-232596573D01*
X50186420Y-232676884D01*
X50212154Y-232746052D01*
X50233926Y-232804819D01*
X50252005Y-232853925D01*
X50266657Y-232894113D01*
X50278152Y-232926122D01*
X50286756Y-232950696D01*
X50292737Y-232968574D01*
X50296364Y-232980499D01*
X50297903Y-232987210D01*
X50297999Y-232988406D01*
X50293934Y-232996304D01*
X50285292Y-233006353D01*
X50279909Y-233010893D01*
X50272911Y-233014205D01*
X50262376Y-233016481D01*
X50246380Y-233017913D01*
X50223001Y-233018692D01*
X50190314Y-233019009D01*
X50157740Y-233019059D01*
X50042894Y-233019059D01*
X50025579Y-233001588D01*
X50014036Y-232985063D01*
X50000408Y-232957001D01*
X49985128Y-232918322D01*
X49981094Y-232907081D01*
X49968860Y-232873534D01*
X49959226Y-232850212D01*
X49951194Y-232835154D01*
X49943765Y-232826398D01*
X49938243Y-232822902D01*
X49926597Y-232820540D01*
X49902976Y-232818657D01*
X49867222Y-232817247D01*
X49819175Y-232816305D01*
X49758677Y-232815826D01*
X49720264Y-232815758D01*
X49663744Y-232815809D01*
X49618557Y-232816012D01*
X49583333Y-232816437D01*
X49556699Y-232817154D01*
X49537284Y-232818235D01*
X49523715Y-232819750D01*
X49514621Y-232821771D01*
X49508630Y-232824368D01*
X49505187Y-232826876D01*
X49497485Y-232837834D01*
X49487981Y-232857458D01*
X49478324Y-232882184D01*
X49475017Y-232891996D01*
X49459385Y-232937049D01*
X49445054Y-232970713D01*
X49431452Y-232994166D01*
X49419016Y-233007800D01*
X49412497Y-233011822D01*
X49403150Y-233014750D01*
X49389053Y-233016753D01*
X49368285Y-233018001D01*
X49338922Y-233018663D01*
X49299042Y-233018908D01*
X49292608Y-233018918D01*
X49251970Y-233018881D01*
X49222083Y-233018517D01*
X49200995Y-233017625D01*
X49186751Y-233016004D01*
X49177398Y-233013453D01*
X49170983Y-233009770D01*
X49166719Y-233005939D01*
X49157573Y-232992540D01*
X49157245Y-232976185D01*
X49157950Y-232972585D01*
X49161161Y-232962093D01*
X49168486Y-232940819D01*
X49179530Y-232909819D01*
X49193898Y-232870145D01*
X49211193Y-232822851D01*
X49231022Y-232768991D01*
X49252987Y-232709618D01*
X49276693Y-232645786D01*
X49301746Y-232578548D01*
X49315657Y-232541320D01*
X49603772Y-232541320D01*
X49605099Y-232547336D01*
X49607804Y-232552418D01*
X49611838Y-232556126D01*
X49619032Y-232558676D01*
X49631216Y-232560285D01*
X49650219Y-232561169D01*
X49677870Y-232561545D01*
X49716001Y-232561630D01*
X49725853Y-232561631D01*
X49766601Y-232561560D01*
X49796480Y-232561217D01*
X49817330Y-232560402D01*
X49830987Y-232558915D01*
X49839290Y-232556557D01*
X49844077Y-232553130D01*
X49847157Y-232548487D01*
X49848746Y-232542489D01*
X49848270Y-232532885D01*
X49845351Y-232518285D01*
X49839606Y-232497296D01*
X49830656Y-232468526D01*
X49818120Y-232430583D01*
X49801817Y-232382660D01*
X49787023Y-232340263D01*
X49772952Y-232301300D01*
X49760291Y-232267570D01*
X49749730Y-232240873D01*
X49741955Y-232223009D01*
X49738238Y-232216327D01*
X49729327Y-232207261D01*
X49722446Y-232207803D01*
X49716941Y-232212585D01*
X49712172Y-232221104D01*
X49703995Y-232239934D01*
X49693080Y-232267352D01*
X49680096Y-232301632D01*
X49665714Y-232341053D01*
X49652732Y-232377767D01*
X49635778Y-232426833D01*
X49622854Y-232465352D01*
X49613575Y-232494693D01*
X49607558Y-232516222D01*
X49604419Y-232531308D01*
X49603772Y-232541320D01*
X49315657Y-232541320D01*
X49327749Y-232508959D01*
X49354307Y-232438071D01*
X49381024Y-232366939D01*
X49407505Y-232296615D01*
X49433355Y-232228154D01*
X49458178Y-232162609D01*
X49481578Y-232101034D01*
X49503160Y-232044482D01*
X49522528Y-231994007D01*
X49539287Y-231950663D01*
X49553042Y-231915503D01*
X49563396Y-231889581D01*
X49569955Y-231873950D01*
X49571788Y-231870145D01*
X49582053Y-231854434D01*
X49593544Y-231842774D01*
X49608252Y-231834576D01*
X49628170Y-231829255D01*
X49655292Y-231826224D01*
X49691610Y-231824895D01*
X49726213Y-231824662D01*
X49770768Y-231825097D01*
G37*
G36*
X50746945Y-231828090D02*
G01*
X50818742Y-231828285D01*
X50878714Y-231828733D01*
X50927740Y-231829462D01*
X50966698Y-231830497D01*
X50996468Y-231831862D01*
X51017928Y-231833583D01*
X51031958Y-231835686D01*
X51034967Y-231836429D01*
X51060474Y-231843286D01*
X51087189Y-231849958D01*
X51092146Y-231851123D01*
X51109738Y-231856636D01*
X51134947Y-231866375D01*
X51164047Y-231878837D01*
X51186503Y-231889216D01*
X51219093Y-231905597D01*
X51244641Y-231920835D01*
X51267566Y-231938051D01*
X51292289Y-231960363D01*
X51305532Y-231973247D01*
X51333489Y-232002136D01*
X51353751Y-232026572D01*
X51368761Y-232049757D01*
X51378030Y-232068221D01*
X51387338Y-232089376D01*
X51394991Y-232108895D01*
X51401150Y-232128287D01*
X51405976Y-232149059D01*
X51409632Y-232172722D01*
X51412280Y-232200784D01*
X51414082Y-232234752D01*
X51415200Y-232276136D01*
X51415795Y-232326443D01*
X51416030Y-232387184D01*
X51416064Y-232422433D01*
X51416035Y-232484185D01*
X51415849Y-232534721D01*
X51415443Y-232575529D01*
X51414752Y-232608097D01*
X51413710Y-232633916D01*
X51412253Y-232654473D01*
X51410316Y-232671258D01*
X51407835Y-232685760D01*
X51404744Y-232699468D01*
X51403867Y-232702952D01*
X51389017Y-232750834D01*
X51369931Y-232791323D01*
X51344052Y-232829033D01*
X51316381Y-232860676D01*
X51268756Y-232905526D01*
X51218032Y-232941536D01*
X51161715Y-232970060D01*
X51097312Y-232992456D01*
X51053836Y-233003497D01*
X51035923Y-233007447D01*
X51019625Y-233010666D01*
X51003422Y-233013228D01*
X50985793Y-233015207D01*
X50965215Y-233016680D01*
X50940168Y-233017721D01*
X50909130Y-233018404D01*
X50870580Y-233018804D01*
X50822997Y-233018997D01*
X50764860Y-233019056D01*
X50737311Y-233019059D01*
X50489723Y-233019059D01*
X50473276Y-232999512D01*
X50456828Y-232979965D01*
X50456828Y-232421728D01*
X50456828Y-232416999D01*
X50742721Y-232416999D01*
X50742853Y-232502349D01*
X50743252Y-232575083D01*
X50743919Y-232635289D01*
X50744856Y-232683054D01*
X50746064Y-232718465D01*
X50747546Y-232741611D01*
X50749303Y-232752579D01*
X50749510Y-232753040D01*
X50752578Y-232757581D01*
X50757410Y-232760834D01*
X50765855Y-232762965D01*
X50779765Y-232764137D01*
X50800988Y-232764515D01*
X50831377Y-232764264D01*
X50868632Y-232763625D01*
X50910618Y-232762673D01*
X50942298Y-232761435D01*
X50966070Y-232759642D01*
X50984334Y-232757030D01*
X50999490Y-232753331D01*
X51013937Y-232748280D01*
X51016675Y-232747196D01*
X51058487Y-232723833D01*
X51093069Y-232690948D01*
X51112847Y-232661336D01*
X51116703Y-232653767D01*
X51119792Y-232646081D01*
X51122199Y-232636846D01*
X51124009Y-232624630D01*
X51125306Y-232608003D01*
X51126176Y-232585534D01*
X51126704Y-232555792D01*
X51126975Y-232517345D01*
X51127075Y-232468762D01*
X51127088Y-232421861D01*
X51127088Y-232209029D01*
X51109361Y-232177060D01*
X51089019Y-232147279D01*
X51063427Y-232123887D01*
X51029380Y-232104174D01*
X51015908Y-232098086D01*
X51001076Y-232092286D01*
X50986021Y-232088038D01*
X50968196Y-232085013D01*
X50945054Y-232082879D01*
X50914047Y-232081307D01*
X50877284Y-232080097D01*
X50834390Y-232079171D01*
X50802519Y-232079260D01*
X50780024Y-232080435D01*
X50765256Y-232082770D01*
X50758162Y-232085379D01*
X50742721Y-232093643D01*
X50742721Y-232416999D01*
X50456828Y-232416999D01*
X50456828Y-232093643D01*
X50456828Y-231863490D01*
X50472170Y-231845664D01*
X50487513Y-231827839D01*
X50746945Y-231828090D01*
G37*
G36*
X52356579Y-231825447D02*
G01*
X52400449Y-231825983D01*
X52436122Y-231826891D01*
X52464502Y-231828227D01*
X52486489Y-231830045D01*
X52502987Y-231832403D01*
X52514896Y-231835357D01*
X52523119Y-231838961D01*
X52528558Y-231843272D01*
X52532115Y-231848346D01*
X52534604Y-231854006D01*
X52536827Y-231866067D01*
X52538684Y-231887981D01*
X52540010Y-231916896D01*
X52540640Y-231949959D01*
X52540670Y-231958781D01*
X52540572Y-231994115D01*
X52540045Y-232019068D01*
X52538744Y-232035962D01*
X52536320Y-232047122D01*
X52532426Y-232054872D01*
X52526717Y-232061537D01*
X52525076Y-232063195D01*
X52509482Y-232078789D01*
X52234418Y-232078991D01*
X52165130Y-232079116D01*
X52107542Y-232079399D01*
X52060646Y-232079870D01*
X52023438Y-232080561D01*
X51994910Y-232081502D01*
X51974056Y-232082722D01*
X51959871Y-232084253D01*
X51951347Y-232086124D01*
X51948236Y-232087633D01*
X51943592Y-232092728D01*
X51940429Y-232101169D01*
X51938478Y-232115158D01*
X51937468Y-232136894D01*
X51937129Y-232168580D01*
X51937118Y-232178338D01*
X51937740Y-232219706D01*
X51939633Y-232248926D01*
X51942842Y-232266496D01*
X51945060Y-232271215D01*
X51948067Y-232273915D01*
X51953459Y-232276140D01*
X51962422Y-232277948D01*
X51976144Y-232279396D01*
X51995812Y-232280540D01*
X52022615Y-232281438D01*
X52057739Y-232282145D01*
X52102371Y-232282720D01*
X52157700Y-232283218D01*
X52202930Y-232283548D01*
X52452858Y-232285267D01*
X52465437Y-232300807D01*
X52470333Y-232307873D01*
X52473686Y-232316383D01*
X52475712Y-232328585D01*
X52476629Y-232346724D01*
X52476652Y-232373047D01*
X52475998Y-232409798D01*
X52475988Y-232410241D01*
X52475077Y-232446906D01*
X52473957Y-232473088D01*
X52472292Y-232491009D01*
X52469743Y-232502892D01*
X52465971Y-232510959D01*
X52460638Y-232517432D01*
X52459498Y-232518588D01*
X52445034Y-232533041D01*
X52199244Y-232534982D01*
X52126679Y-232535734D01*
X52066065Y-232536745D01*
X52017547Y-232538012D01*
X51981271Y-232539528D01*
X51957380Y-232541289D01*
X51946020Y-232543290D01*
X51945285Y-232543702D01*
X51941943Y-232552695D01*
X51939410Y-232571638D01*
X51937689Y-232597796D01*
X51936782Y-232628438D01*
X51936693Y-232660832D01*
X51937425Y-232692244D01*
X51938981Y-232719944D01*
X51941363Y-232741199D01*
X51944575Y-232753275D01*
X51945060Y-232754037D01*
X51947851Y-232756525D01*
X51952896Y-232758611D01*
X51961280Y-232760339D01*
X51974088Y-232761753D01*
X51992406Y-232762896D01*
X52017320Y-232763812D01*
X52049915Y-232764546D01*
X52091277Y-232765142D01*
X52142492Y-232765643D01*
X52204645Y-232766093D01*
X52249791Y-232766370D01*
X52319197Y-232766804D01*
X52377006Y-232767253D01*
X52424324Y-232767763D01*
X52462259Y-232768381D01*
X52491920Y-232769155D01*
X52514415Y-232770131D01*
X52530851Y-232771356D01*
X52542337Y-232772878D01*
X52549980Y-232774743D01*
X52554888Y-232776998D01*
X52557920Y-232779436D01*
X52562659Y-232785979D01*
X52566051Y-232796057D01*
X52568398Y-232811859D01*
X52570000Y-232835575D01*
X52571160Y-232869397D01*
X52571353Y-232877050D01*
X52572079Y-232917676D01*
X52571795Y-232947747D01*
X52570201Y-232969395D01*
X52567001Y-232984752D01*
X52561894Y-232995950D01*
X52554582Y-233005120D01*
X52553215Y-233006515D01*
X52550439Y-233008981D01*
X52546794Y-233011101D01*
X52541360Y-233012901D01*
X52533217Y-233014407D01*
X52521447Y-233015645D01*
X52505127Y-233016642D01*
X52483340Y-233017423D01*
X52455165Y-233018015D01*
X52419682Y-233018444D01*
X52375972Y-233018736D01*
X52323114Y-233018918D01*
X52260189Y-233019014D01*
X52186277Y-233019053D01*
X52112395Y-233019059D01*
X51684121Y-233019059D01*
X51667673Y-232999512D01*
X51651225Y-232979965D01*
X51651225Y-232421728D01*
X51651225Y-231863490D01*
X51666555Y-231845664D01*
X51681885Y-231827839D01*
X52081100Y-231825900D01*
X52166774Y-231825509D01*
X52240643Y-231825266D01*
X52303611Y-231825226D01*
X52356579Y-231825447D01*
G37*
G36*
X53023047Y-231825202D02*
G01*
X53087038Y-231825674D01*
X53147907Y-231826260D01*
X53216421Y-231826970D01*
X53273527Y-231827628D01*
X53320524Y-231828307D01*
X53358712Y-231829077D01*
X53389388Y-231830009D01*
X53413851Y-231831175D01*
X53433400Y-231832645D01*
X53449333Y-231834490D01*
X53462949Y-231836782D01*
X53475546Y-231839590D01*
X53488423Y-231842988D01*
X53496823Y-231845337D01*
X53544632Y-231860412D01*
X53583384Y-231876809D01*
X53616710Y-231896561D01*
X53648241Y-231921702D01*
X53669770Y-231942173D01*
X53709247Y-231988110D01*
X53739137Y-232038101D01*
X53760216Y-232094005D01*
X53773262Y-232157681D01*
X53777533Y-232200034D01*
X53776140Y-232268780D01*
X53762460Y-232334628D01*
X53736692Y-232397046D01*
X53699031Y-232455507D01*
X53669828Y-232489497D01*
X53646504Y-232512318D01*
X53621641Y-232533855D01*
X53599264Y-232550716D01*
X53591067Y-232555880D01*
X53570941Y-232568879D01*
X53554427Y-232582168D01*
X53546904Y-232590464D01*
X53544118Y-232594392D01*
X53542095Y-232597885D01*
X53541479Y-232602030D01*
X53542914Y-232607913D01*
X53547046Y-232616620D01*
X53554518Y-232629237D01*
X53565974Y-232646850D01*
X53582059Y-232670545D01*
X53603418Y-232701409D01*
X53630694Y-232740526D01*
X53664531Y-232788985D01*
X53665481Y-232790345D01*
X53700382Y-232840466D01*
X53728508Y-232881313D01*
X53750410Y-232913993D01*
X53766641Y-232939615D01*
X53777753Y-232959285D01*
X53784297Y-232974110D01*
X53786827Y-232985198D01*
X53785893Y-232993655D01*
X53782048Y-233000590D01*
X53775843Y-233007109D01*
X53774274Y-233008545D01*
X53768692Y-233012212D01*
X53760023Y-233014933D01*
X53746514Y-233016841D01*
X53726407Y-233018071D01*
X53697947Y-233018756D01*
X53659378Y-233019033D01*
X53636842Y-233019059D01*
X53589377Y-233018929D01*
X53552579Y-233018035D01*
X53524410Y-233015621D01*
X53502829Y-233010930D01*
X53485799Y-233003206D01*
X53471280Y-232991692D01*
X53457234Y-232975633D01*
X53441621Y-232954271D01*
X53434409Y-232943971D01*
X53415527Y-232916741D01*
X53391563Y-232881889D01*
X53364511Y-232842345D01*
X53336368Y-232801039D01*
X53309129Y-232760900D01*
X53284791Y-232724858D01*
X53265349Y-232695842D01*
X53264820Y-232695047D01*
X53250403Y-232670980D01*
X53240007Y-232646912D01*
X53233045Y-232620103D01*
X53228932Y-232587813D01*
X53227081Y-232547300D01*
X53226813Y-232517318D01*
X53227432Y-232472738D01*
X53229929Y-232439265D01*
X53235262Y-232415335D01*
X53244389Y-232399380D01*
X53258269Y-232389837D01*
X53277860Y-232385139D01*
X53304121Y-232383720D01*
X53308610Y-232383693D01*
X53339604Y-232379924D01*
X53374870Y-232370022D01*
X53408868Y-232355928D01*
X53436057Y-232339580D01*
X53437221Y-232338673D01*
X53459560Y-232315472D01*
X53477901Y-232286187D01*
X53489884Y-232255341D01*
X53493305Y-232231265D01*
X53486939Y-232190515D01*
X53468917Y-232154438D01*
X53439595Y-232123573D01*
X53407878Y-232102799D01*
X53369759Y-232082456D01*
X53240344Y-232079958D01*
X53192073Y-232079263D01*
X53155109Y-232079312D01*
X53128070Y-232080161D01*
X53109574Y-232081862D01*
X53098242Y-232084467D01*
X53095809Y-232085551D01*
X53080690Y-232093643D01*
X53080690Y-232530525D01*
X53080606Y-232608384D01*
X53080364Y-232681517D01*
X53079974Y-232748968D01*
X53079451Y-232809783D01*
X53078805Y-232863008D01*
X53078049Y-232907687D01*
X53077196Y-232942866D01*
X53076258Y-232967591D01*
X53075247Y-232980906D01*
X53074869Y-232982717D01*
X53069588Y-232995251D01*
X53063404Y-233004514D01*
X53054457Y-233011000D01*
X53040886Y-233015203D01*
X53020831Y-233017617D01*
X52992430Y-233018734D01*
X52953825Y-233019048D01*
X52937854Y-233019059D01*
X52827692Y-233019059D01*
X52811245Y-232999512D01*
X52794797Y-232979965D01*
X52794797Y-232424849D01*
X52794846Y-232320061D01*
X52794998Y-232227445D01*
X52795259Y-232146468D01*
X52795638Y-232076597D01*
X52796139Y-232017298D01*
X52796771Y-231968038D01*
X52797541Y-231928283D01*
X52798454Y-231897500D01*
X52799519Y-231875156D01*
X52800741Y-231860716D01*
X52802129Y-231853647D01*
X52802197Y-231853492D01*
X52805837Y-231846714D01*
X52810760Y-231841036D01*
X52818021Y-231836374D01*
X52828677Y-231832645D01*
X52843784Y-231829765D01*
X52864398Y-231827652D01*
X52891575Y-231826223D01*
X52926371Y-231825393D01*
X52969843Y-231825081D01*
X53023047Y-231825202D01*
G37*
G36*
X54691854Y-231825635D02*
G01*
X54741980Y-231825860D01*
X54784158Y-231826195D01*
X54817231Y-231826637D01*
X54840046Y-231827178D01*
X54851448Y-231827814D01*
X54851992Y-231827896D01*
X54868319Y-231831753D01*
X54880236Y-231837715D01*
X54888428Y-231847630D01*
X54893583Y-231863343D01*
X54896386Y-231886701D01*
X54897525Y-231919552D01*
X54897698Y-231950869D01*
X54897554Y-231987950D01*
X54896943Y-232014594D01*
X54895595Y-232033069D01*
X54893243Y-232045641D01*
X54889619Y-232054579D01*
X54884531Y-232062049D01*
X54871363Y-232078789D01*
X54596875Y-232078789D01*
X54529511Y-232078837D01*
X54473715Y-232079008D01*
X54428350Y-232079339D01*
X54392277Y-232079871D01*
X54364358Y-232080642D01*
X54343456Y-232081691D01*
X54328433Y-232083057D01*
X54318151Y-232084779D01*
X54311472Y-232086896D01*
X54308267Y-232088679D01*
X54302473Y-232093468D01*
X54298525Y-232099793D01*
X54296070Y-232109951D01*
X54294758Y-232126239D01*
X54294234Y-232150955D01*
X54294147Y-232180800D01*
X54294329Y-232215097D01*
X54295089Y-232239060D01*
X54296743Y-232255058D01*
X54299608Y-232265460D01*
X54304002Y-232272637D01*
X54306853Y-232275738D01*
X54310590Y-232279027D01*
X54315405Y-232281694D01*
X54322570Y-232283804D01*
X54333355Y-232285422D01*
X54349033Y-232286613D01*
X54370875Y-232287442D01*
X54400153Y-232287974D01*
X54438137Y-232288276D01*
X54486100Y-232288410D01*
X54545313Y-232288444D01*
X54554930Y-232288444D01*
X54790301Y-232288444D01*
X54805881Y-232305255D01*
X54811987Y-232312407D01*
X54816246Y-232319995D01*
X54818991Y-232330325D01*
X54820552Y-232345704D01*
X54821263Y-232368440D01*
X54821454Y-232400842D01*
X54821460Y-232413547D01*
X54821369Y-232449469D01*
X54820875Y-232474963D01*
X54819645Y-232492307D01*
X54817348Y-232503780D01*
X54813652Y-232511660D01*
X54808226Y-232518225D01*
X54805866Y-232520624D01*
X54790272Y-232536218D01*
X54556329Y-232536218D01*
X54494420Y-232536278D01*
X54443978Y-232536493D01*
X54403762Y-232536911D01*
X54372532Y-232537581D01*
X54349049Y-232538554D01*
X54332072Y-232539878D01*
X54320363Y-232541604D01*
X54312682Y-232543780D01*
X54308267Y-232546108D01*
X54294147Y-232555998D01*
X54294147Y-232771934D01*
X54294147Y-232987871D01*
X54278552Y-233003465D01*
X54272545Y-233009083D01*
X54266127Y-233013159D01*
X54257290Y-233015939D01*
X54244026Y-233017672D01*
X54224327Y-233018604D01*
X54196184Y-233018984D01*
X54157589Y-233019059D01*
X54152054Y-233019059D01*
X54041149Y-233019059D01*
X54024701Y-232999512D01*
X54008254Y-232979965D01*
X54008254Y-232421728D01*
X54008254Y-231863490D01*
X54023584Y-231845664D01*
X54038913Y-231827839D01*
X54434952Y-231825954D01*
X54505327Y-231825681D01*
X54572372Y-231825540D01*
X54634933Y-231825527D01*
X54691854Y-231825635D01*
G37*
G36*
X55262508Y-231825566D02*
G01*
X55271513Y-231825745D01*
X55368964Y-231827839D01*
X55384282Y-231845664D01*
X55399599Y-231863490D01*
X55399599Y-232303467D01*
X55399648Y-232393267D01*
X55399802Y-232471098D01*
X55400075Y-232537696D01*
X55400480Y-232593799D01*
X55401030Y-232640142D01*
X55401737Y-232677462D01*
X55402615Y-232706497D01*
X55403677Y-232727982D01*
X55404935Y-232742655D01*
X55406403Y-232751252D01*
X55407541Y-232754020D01*
X55410469Y-232756624D01*
X55415749Y-232758787D01*
X55424524Y-232760560D01*
X55437938Y-232761993D01*
X55457135Y-232763138D01*
X55483258Y-232764046D01*
X55517453Y-232764767D01*
X55560861Y-232765354D01*
X55614628Y-232765857D01*
X55679897Y-232766328D01*
X55683683Y-232766353D01*
X55749414Y-232766815D01*
X55803607Y-232767299D01*
X55847433Y-232767857D01*
X55882062Y-232768546D01*
X55908664Y-232769419D01*
X55928407Y-232770531D01*
X55942461Y-232771938D01*
X55951997Y-232773694D01*
X55958183Y-232775854D01*
X55962190Y-232778472D01*
X55963223Y-232779436D01*
X55967962Y-232785980D01*
X55971354Y-232796059D01*
X55973701Y-232811863D01*
X55975303Y-232835583D01*
X55976463Y-232869408D01*
X55976656Y-232877050D01*
X55977382Y-232917676D01*
X55977097Y-232947747D01*
X55975504Y-232969395D01*
X55972303Y-232984752D01*
X55967196Y-232995950D01*
X55959884Y-233005120D01*
X55958517Y-233006515D01*
X55955638Y-233009068D01*
X55951860Y-233011249D01*
X55946227Y-233013087D01*
X55937781Y-233014612D01*
X55925566Y-233015853D01*
X55908625Y-233016838D01*
X55886001Y-233017598D01*
X55856738Y-233018162D01*
X55819878Y-233018558D01*
X55774464Y-233018817D01*
X55719541Y-233018967D01*
X55654151Y-233019038D01*
X55577337Y-233019059D01*
X55548410Y-233019059D01*
X55150848Y-233019059D01*
X55132277Y-233000489D01*
X55113706Y-232981918D01*
X55113706Y-232425825D01*
X55113755Y-232320945D01*
X55113907Y-232228237D01*
X55114168Y-232147170D01*
X55114545Y-232077209D01*
X55115046Y-232017821D01*
X55115676Y-231968474D01*
X55116444Y-231928635D01*
X55117356Y-231897769D01*
X55118418Y-231875345D01*
X55119638Y-231860828D01*
X55121023Y-231853686D01*
X55121106Y-231853492D01*
X55128267Y-231842966D01*
X55139877Y-231835178D01*
X55157521Y-231829837D01*
X55182784Y-231826650D01*
X55217252Y-231825324D01*
X55262508Y-231825566D01*
G37*
G36*
X58081835Y-231825666D02*
G01*
X58110777Y-231829116D01*
X58131555Y-231835672D01*
X58146377Y-231845993D01*
X58156165Y-231858578D01*
X58161547Y-231870568D01*
X58169590Y-231892683D01*
X58179595Y-231922795D01*
X58190862Y-231958777D01*
X58202692Y-231998498D01*
X58206605Y-232012081D01*
X58231108Y-232097749D01*
X58252408Y-232171929D01*
X58270729Y-232235366D01*
X58286297Y-232288809D01*
X58299336Y-232333004D01*
X58310070Y-232368697D01*
X58318725Y-232396636D01*
X58325524Y-232417566D01*
X58330694Y-232432235D01*
X58334458Y-232441390D01*
X58337041Y-232445777D01*
X58337142Y-232445883D01*
X58344985Y-232450288D01*
X58353606Y-232444588D01*
X58355353Y-232442706D01*
X58359235Y-232434391D01*
X58366225Y-232415166D01*
X58375911Y-232386329D01*
X58387877Y-232349178D01*
X58401710Y-232305013D01*
X58416997Y-232255131D01*
X58433324Y-232200831D01*
X58445005Y-232161380D01*
X58461740Y-232104612D01*
X58477552Y-232051187D01*
X58492043Y-232002430D01*
X58504818Y-231959666D01*
X58515480Y-231924219D01*
X58523632Y-231897414D01*
X58528878Y-231880575D01*
X58530585Y-231875488D01*
X58539563Y-231860108D01*
X58552953Y-231844499D01*
X58553776Y-231843722D01*
X58560385Y-231837987D01*
X58567404Y-231833785D01*
X58576866Y-231830830D01*
X58590807Y-231828836D01*
X58611260Y-231827516D01*
X58640262Y-231826586D01*
X58679845Y-231825759D01*
X58681820Y-231825721D01*
X58728108Y-231825160D01*
X58763219Y-231825749D01*
X58788661Y-231827896D01*
X58805941Y-231832011D01*
X58816568Y-231838504D01*
X58822049Y-231847781D01*
X58823892Y-231860254D01*
X58823962Y-231864280D01*
X58822140Y-231873622D01*
X58816874Y-231894077D01*
X58808465Y-231924617D01*
X58797210Y-231964213D01*
X58783412Y-232011837D01*
X58767367Y-232066460D01*
X58749378Y-232127054D01*
X58729743Y-232192589D01*
X58708761Y-232262037D01*
X58693069Y-232313621D01*
X58662138Y-232415009D01*
X58634688Y-232504968D01*
X58610496Y-232584224D01*
X58589337Y-232653501D01*
X58570989Y-232713525D01*
X58555228Y-232765022D01*
X58541830Y-232808716D01*
X58530572Y-232845334D01*
X58521230Y-232875600D01*
X58513581Y-232900240D01*
X58507401Y-232919980D01*
X58502466Y-232935544D01*
X58498554Y-232947657D01*
X58495439Y-232957046D01*
X58492900Y-232964436D01*
X58490712Y-232970551D01*
X58490003Y-232972483D01*
X58482824Y-232989306D01*
X58474226Y-233001535D01*
X58462191Y-233009890D01*
X58444702Y-233015095D01*
X58419740Y-233017870D01*
X58385288Y-233018938D01*
X58359796Y-233019059D01*
X58323541Y-233018887D01*
X58297600Y-233018176D01*
X58279583Y-233016638D01*
X58267098Y-233013984D01*
X58257755Y-233009923D01*
X58251629Y-233005963D01*
X58247892Y-233003315D01*
X58244512Y-233000506D01*
X58241175Y-232996655D01*
X58237573Y-232990885D01*
X58233394Y-232982315D01*
X58228328Y-232970065D01*
X58222063Y-232953258D01*
X58214289Y-232931012D01*
X58204696Y-232902450D01*
X58192972Y-232866690D01*
X58178807Y-232822855D01*
X58161890Y-232770064D01*
X58141910Y-232707438D01*
X58118557Y-232634098D01*
X58103326Y-232586247D01*
X58087671Y-232537921D01*
X58074903Y-232500775D01*
X58064487Y-232473752D01*
X58055891Y-232455793D01*
X58048581Y-232445842D01*
X58042023Y-232442841D01*
X58035686Y-232445732D01*
X58033533Y-232447819D01*
X58029913Y-232455628D01*
X58022979Y-232474280D01*
X58013163Y-232502475D01*
X58000899Y-232538917D01*
X57986622Y-232582305D01*
X57970765Y-232631343D01*
X57953761Y-232684731D01*
X57943512Y-232717283D01*
X57923349Y-232781399D01*
X57906481Y-232834499D01*
X57892496Y-232877724D01*
X57880981Y-232912210D01*
X57871523Y-232939097D01*
X57863711Y-232959523D01*
X57857131Y-232974627D01*
X57851371Y-232985546D01*
X57846018Y-232993421D01*
X57841636Y-232998412D01*
X57821430Y-233019059D01*
X57723509Y-233019059D01*
X57625588Y-233019059D01*
X57609258Y-233001588D01*
X57605699Y-232996383D01*
X57601079Y-232986954D01*
X57595176Y-232972621D01*
X57587769Y-232952707D01*
X57578635Y-232926533D01*
X57567555Y-232893419D01*
X57554305Y-232852689D01*
X57538665Y-232803662D01*
X57520413Y-232745662D01*
X57499328Y-232678008D01*
X57475188Y-232600023D01*
X57447771Y-232511028D01*
X57426237Y-232440920D01*
X57401527Y-232360259D01*
X57377860Y-232282726D01*
X57355507Y-232209228D01*
X57334741Y-232140672D01*
X57315832Y-232077963D01*
X57299054Y-232022011D01*
X57284678Y-231973719D01*
X57272976Y-231933997D01*
X57264219Y-231903750D01*
X57258681Y-231883885D01*
X57256652Y-231875488D01*
X57257688Y-231852910D01*
X57263252Y-231840545D01*
X57267682Y-231835840D01*
X57274183Y-231832386D01*
X57284701Y-231829933D01*
X57301184Y-231828234D01*
X57325579Y-231827038D01*
X57359832Y-231826097D01*
X57379543Y-231825679D01*
X57422378Y-231825276D01*
X57459118Y-231825845D01*
X57487736Y-231827315D01*
X57506205Y-231829613D01*
X57509011Y-231830312D01*
X57517706Y-231833053D01*
X57525395Y-231836311D01*
X57532438Y-231841009D01*
X57539194Y-231848072D01*
X57546022Y-231858424D01*
X57553283Y-231872989D01*
X57561335Y-231892691D01*
X57570538Y-231918455D01*
X57581252Y-231951206D01*
X57593837Y-231991866D01*
X57608650Y-232041361D01*
X57626053Y-232100615D01*
X57646405Y-232170553D01*
X57661257Y-232221736D01*
X57678753Y-232281720D01*
X57693251Y-232330528D01*
X57705140Y-232369231D01*
X57714809Y-232398901D01*
X57722647Y-232420607D01*
X57729044Y-232435422D01*
X57734387Y-232444415D01*
X57739067Y-232448658D01*
X57743473Y-232449221D01*
X57743875Y-232449126D01*
X57746737Y-232448585D01*
X57749195Y-232447976D01*
X57751561Y-232446338D01*
X57754142Y-232442712D01*
X57757251Y-232436135D01*
X57761196Y-232425647D01*
X57766289Y-232410287D01*
X57772839Y-232389093D01*
X57781156Y-232361106D01*
X57791550Y-232325365D01*
X57804332Y-232280907D01*
X57819811Y-232226773D01*
X57838298Y-232162001D01*
X57851779Y-232114776D01*
X57867419Y-232060470D01*
X57882333Y-232009568D01*
X57896095Y-231963465D01*
X57908277Y-231923555D01*
X57918451Y-231891235D01*
X57926189Y-231867899D01*
X57931063Y-231854942D01*
X57931970Y-231853182D01*
X57943564Y-231840915D01*
X57960856Y-231832455D01*
X57985793Y-231827299D01*
X58020319Y-231824945D01*
X58042521Y-231824662D01*
X58081835Y-231825666D01*
G37*
G36*
X46996515Y-230382903D02*
G01*
X47024226Y-230384539D01*
X47047381Y-230387893D01*
X47070047Y-230393485D01*
X47086773Y-230398674D01*
X47158640Y-230427858D01*
X47221463Y-230465744D01*
X47275936Y-230512871D01*
X47322751Y-230569777D01*
X47339015Y-230594628D01*
X47368742Y-230650988D01*
X47387557Y-230706872D01*
X47396538Y-230766022D01*
X47397679Y-230798624D01*
X47397773Y-230862156D01*
X46957633Y-230863788D01*
X46871674Y-230864086D01*
X46797547Y-230864285D01*
X46734382Y-230864368D01*
X46681304Y-230864319D01*
X46637442Y-230864122D01*
X46601922Y-230863759D01*
X46573872Y-230863214D01*
X46552419Y-230862470D01*
X46536691Y-230861510D01*
X46525814Y-230860318D01*
X46518917Y-230858878D01*
X46515125Y-230857171D01*
X46513613Y-230855307D01*
X46511695Y-230841130D01*
X46512252Y-230817921D01*
X46514913Y-230789033D01*
X46519308Y-230757816D01*
X46525066Y-230727624D01*
X46529850Y-230708396D01*
X46555822Y-230636217D01*
X46590565Y-230573033D01*
X46634483Y-230518276D01*
X46687983Y-230471375D01*
X46709111Y-230456668D01*
X46727907Y-230444814D01*
X46742616Y-230436409D01*
X46749907Y-230433316D01*
X46758513Y-230429608D01*
X46765132Y-230424738D01*
X46775548Y-230419022D01*
X46794701Y-230411158D01*
X46819121Y-230402525D01*
X46829164Y-230399297D01*
X46855758Y-230391615D01*
X46879329Y-230386644D01*
X46904155Y-230383834D01*
X46934515Y-230382637D01*
X46960182Y-230382463D01*
X46996515Y-230382903D01*
G37*
G36*
X48448768Y-229671326D02*
G01*
X48476808Y-229672806D01*
X48499743Y-229675836D01*
X48521366Y-229680877D01*
X48539682Y-229686476D01*
X48612057Y-229715791D01*
X48675338Y-229753709D01*
X48729979Y-229800663D01*
X48776438Y-229857091D01*
X48815170Y-229923427D01*
X48835063Y-229968603D01*
X48851730Y-230010830D01*
X48854189Y-230432688D01*
X48854650Y-230518722D01*
X48854952Y-230592866D01*
X48855082Y-230655934D01*
X48855030Y-230708743D01*
X48854784Y-230752106D01*
X48854334Y-230786839D01*
X48853667Y-230813757D01*
X48852773Y-230833675D01*
X48851640Y-230847409D01*
X48850257Y-230855772D01*
X48848613Y-230859582D01*
X48848296Y-230859842D01*
X48840834Y-230860647D01*
X48821936Y-230861384D01*
X48792872Y-230862053D01*
X48754912Y-230862651D01*
X48709327Y-230863177D01*
X48657387Y-230863628D01*
X48600362Y-230864002D01*
X48539522Y-230864299D01*
X48476137Y-230864516D01*
X48411478Y-230864650D01*
X48346815Y-230864701D01*
X48283417Y-230864666D01*
X48222556Y-230864544D01*
X48165501Y-230864332D01*
X48113522Y-230864029D01*
X48067891Y-230863634D01*
X48029876Y-230863143D01*
X48000748Y-230862555D01*
X47981777Y-230861868D01*
X47974324Y-230861125D01*
X47972621Y-230857902D01*
X47971164Y-230849189D01*
X47969937Y-230834202D01*
X47968924Y-230812159D01*
X47968111Y-230782275D01*
X47967481Y-230743766D01*
X47967018Y-230695850D01*
X47966708Y-230637743D01*
X47966533Y-230568661D01*
X47966480Y-230487820D01*
X47966482Y-230469318D01*
X47966527Y-230388502D01*
X47966636Y-230319308D01*
X47966838Y-230260651D01*
X47967165Y-230211444D01*
X47967645Y-230170604D01*
X47968308Y-230137046D01*
X47969184Y-230109684D01*
X47970302Y-230087433D01*
X47971693Y-230069209D01*
X47973386Y-230053926D01*
X47975411Y-230040500D01*
X47977797Y-230027845D01*
X47978694Y-230023537D01*
X47985262Y-229995588D01*
X47992352Y-229970277D01*
X47998766Y-229951736D01*
X48000791Y-229947298D01*
X48007633Y-229932757D01*
X48010792Y-229923121D01*
X48010816Y-229922717D01*
X48014688Y-229911480D01*
X48024966Y-229893276D01*
X48039790Y-229870788D01*
X48057297Y-229846699D01*
X48075628Y-229823690D01*
X48092765Y-229804602D01*
X48128016Y-229771491D01*
X48163863Y-229744504D01*
X48203707Y-229721555D01*
X48250951Y-229700558D01*
X48280813Y-229689269D01*
X48303790Y-229681406D01*
X48323433Y-229676164D01*
X48343457Y-229673021D01*
X48367577Y-229671459D01*
X48399508Y-229670957D01*
X48411830Y-229670935D01*
X48448768Y-229671326D01*
G37*
G36*
X49876602Y-227519511D02*
G01*
X49899770Y-227521952D01*
X49930718Y-227526772D01*
X49930845Y-227526793D01*
X50007735Y-227545178D01*
X50076949Y-227573556D01*
X50138267Y-227611771D01*
X50191472Y-227659663D01*
X50236344Y-227717077D01*
X50264800Y-227767107D01*
X50275602Y-227789955D01*
X50284037Y-227810624D01*
X50290967Y-227832131D01*
X50297259Y-227857496D01*
X50303776Y-227889739D01*
X50310430Y-227926460D01*
X50311280Y-227937351D01*
X50312071Y-227960086D01*
X50312802Y-227994725D01*
X50313474Y-228041328D01*
X50314088Y-228099956D01*
X50314643Y-228170670D01*
X50315140Y-228253530D01*
X50315579Y-228348597D01*
X50315961Y-228455931D01*
X50316285Y-228575593D01*
X50316553Y-228707643D01*
X50316763Y-228852142D01*
X50316917Y-229009151D01*
X50317015Y-229178729D01*
X50317056Y-229360939D01*
X50317058Y-229408115D01*
X50317057Y-229567772D01*
X50317049Y-229715211D01*
X50317031Y-229850921D01*
X50317000Y-229975391D01*
X50316950Y-230089110D01*
X50316877Y-230192565D01*
X50316778Y-230286246D01*
X50316648Y-230370641D01*
X50316484Y-230446239D01*
X50316280Y-230513529D01*
X50316033Y-230572999D01*
X50315739Y-230625138D01*
X50315393Y-230670435D01*
X50314992Y-230709378D01*
X50314531Y-230742456D01*
X50314006Y-230770158D01*
X50313413Y-230792972D01*
X50312748Y-230811387D01*
X50312007Y-230825892D01*
X50311185Y-230836974D01*
X50310279Y-230845124D01*
X50309284Y-230850830D01*
X50308196Y-230854580D01*
X50307011Y-230856862D01*
X50305725Y-230858167D01*
X50304769Y-230858756D01*
X50295863Y-230860187D01*
X50275655Y-230861453D01*
X50245416Y-230862553D01*
X50206418Y-230863490D01*
X50159932Y-230864266D01*
X50107230Y-230864881D01*
X50049584Y-230865338D01*
X49988265Y-230865638D01*
X49924545Y-230865781D01*
X49859695Y-230865771D01*
X49794986Y-230865608D01*
X49731691Y-230865294D01*
X49671081Y-230864831D01*
X49614427Y-230864219D01*
X49563001Y-230863461D01*
X49518074Y-230862558D01*
X49480918Y-230861512D01*
X49452805Y-230860323D01*
X49435007Y-230858994D01*
X49428884Y-230857709D01*
X49428066Y-230850631D01*
X49427290Y-230831533D01*
X49426557Y-230801100D01*
X49425866Y-230760020D01*
X49425218Y-230708978D01*
X49424613Y-230648659D01*
X49424051Y-230579751D01*
X49423533Y-230502938D01*
X49423058Y-230418908D01*
X49422627Y-230328346D01*
X49422241Y-230231938D01*
X49421899Y-230130370D01*
X49421601Y-230024329D01*
X49421349Y-229914500D01*
X49421141Y-229801569D01*
X49420978Y-229686223D01*
X49420861Y-229569148D01*
X49420790Y-229451029D01*
X49420764Y-229332552D01*
X49420785Y-229214404D01*
X49420852Y-229097271D01*
X49420966Y-228981839D01*
X49421126Y-228868794D01*
X49421333Y-228758821D01*
X49421588Y-228652608D01*
X49421890Y-228550839D01*
X49422240Y-228454201D01*
X49422637Y-228363381D01*
X49423083Y-228279063D01*
X49423577Y-228201935D01*
X49424119Y-228132682D01*
X49424710Y-228071990D01*
X49425351Y-228020546D01*
X49426040Y-227979035D01*
X49426779Y-227948143D01*
X49427567Y-227928557D01*
X49427944Y-227923554D01*
X49436729Y-227864414D01*
X49450784Y-227812900D01*
X49471501Y-227764535D01*
X49485119Y-227739570D01*
X49503463Y-227711504D01*
X49526276Y-227681685D01*
X49550802Y-227653307D01*
X49574287Y-227629560D01*
X49593530Y-227613930D01*
X49609551Y-227603395D01*
X49629156Y-227590537D01*
X49634825Y-227586825D01*
X49669683Y-227568017D01*
X49713488Y-227550606D01*
X49762481Y-227535914D01*
X49806958Y-227526274D01*
X49834877Y-227521692D01*
X49856531Y-227519431D01*
X49876602Y-227519511D01*
G37*
G36*
X51359946Y-229905093D02*
G01*
X51438726Y-229921357D01*
X51509697Y-229947610D01*
X51572796Y-229983807D01*
X51627958Y-230029905D01*
X51675120Y-230085858D01*
X51714210Y-230151606D01*
X51724608Y-230173451D01*
X51732756Y-230193361D01*
X51739491Y-230214283D01*
X51745652Y-230239163D01*
X51752076Y-230270947D01*
X51758955Y-230308901D01*
X51760570Y-230324616D01*
X51762015Y-230351668D01*
X51763257Y-230388688D01*
X51764266Y-230434308D01*
X51765010Y-230487158D01*
X51765458Y-230545870D01*
X51765582Y-230599335D01*
X51765561Y-230662688D01*
X51765458Y-230714526D01*
X51765217Y-230756043D01*
X51764782Y-230788430D01*
X51764097Y-230812879D01*
X51763104Y-230830583D01*
X51761748Y-230842733D01*
X51759972Y-230850523D01*
X51757719Y-230855143D01*
X51754933Y-230857787D01*
X51753294Y-230858756D01*
X51744387Y-230860187D01*
X51724179Y-230861453D01*
X51693940Y-230862553D01*
X51654942Y-230863490D01*
X51608456Y-230864266D01*
X51555755Y-230864881D01*
X51498109Y-230865338D01*
X51436790Y-230865638D01*
X51373069Y-230865781D01*
X51308219Y-230865771D01*
X51243511Y-230865608D01*
X51180215Y-230865294D01*
X51119605Y-230864831D01*
X51062951Y-230864219D01*
X51011525Y-230863461D01*
X50966598Y-230862558D01*
X50929443Y-230861512D01*
X50901330Y-230860323D01*
X50883531Y-230858994D01*
X50877408Y-230857709D01*
X50875500Y-230849584D01*
X50873851Y-230830348D01*
X50872467Y-230801590D01*
X50871350Y-230764902D01*
X50870503Y-230721877D01*
X50869931Y-230674105D01*
X50869636Y-230623177D01*
X50869622Y-230570685D01*
X50869893Y-230518221D01*
X50870451Y-230467376D01*
X50871301Y-230419740D01*
X50872446Y-230376906D01*
X50873888Y-230340466D01*
X50875632Y-230312009D01*
X50876219Y-230305219D01*
X50884240Y-230248703D01*
X50897732Y-230199105D01*
X50918333Y-230151848D01*
X50947681Y-230102354D01*
X50950208Y-230098533D01*
X50988947Y-230047223D01*
X51030927Y-230006063D01*
X51079041Y-229972503D01*
X51114382Y-229953840D01*
X51181854Y-229925852D01*
X51244790Y-229908688D01*
X51304769Y-229902034D01*
X51359946Y-229905093D01*
G37*
G36*
X52775737Y-226339247D02*
G01*
X52814180Y-226339617D01*
X52842733Y-226340463D01*
X52864216Y-226342135D01*
X52881445Y-226344984D01*
X52897238Y-226349357D01*
X52914413Y-226355607D01*
X52917653Y-226356873D01*
X52947598Y-226369198D01*
X52975172Y-226381545D01*
X52997765Y-226392655D01*
X53012765Y-226401269D01*
X53017158Y-226404870D01*
X53023734Y-226410643D01*
X53037215Y-226421055D01*
X53048235Y-226429171D01*
X53093148Y-226468788D01*
X53133460Y-226518591D01*
X53167768Y-226576466D01*
X53194667Y-226640303D01*
X53200430Y-226658131D01*
X53217213Y-226713532D01*
X53218931Y-228780726D01*
X53219090Y-228986097D01*
X53219214Y-229179040D01*
X53219302Y-229359833D01*
X53219355Y-229528755D01*
X53219370Y-229686084D01*
X53219348Y-229832099D01*
X53219287Y-229967077D01*
X53219188Y-230091297D01*
X53219048Y-230205038D01*
X53218868Y-230308577D01*
X53218646Y-230402194D01*
X53218382Y-230486166D01*
X53218076Y-230560772D01*
X53217725Y-230626289D01*
X53217331Y-230682997D01*
X53216891Y-230731174D01*
X53216406Y-230771098D01*
X53215874Y-230803048D01*
X53215295Y-230827301D01*
X53214668Y-230844136D01*
X53213992Y-230853832D01*
X53213423Y-230856626D01*
X53205670Y-230858472D01*
X53186480Y-230860124D01*
X53157123Y-230861581D01*
X53118867Y-230862845D01*
X53072980Y-230863914D01*
X53020732Y-230864789D01*
X52963391Y-230865470D01*
X52902226Y-230865957D01*
X52838505Y-230866250D01*
X52773498Y-230866350D01*
X52708472Y-230866255D01*
X52644696Y-230865966D01*
X52583439Y-230865483D01*
X52525970Y-230864806D01*
X52473557Y-230863935D01*
X52427470Y-230862870D01*
X52388976Y-230861611D01*
X52359344Y-230860159D01*
X52339843Y-230858512D01*
X52331741Y-230856672D01*
X52331690Y-230856616D01*
X52330976Y-230852377D01*
X52330311Y-230841256D01*
X52329694Y-230822972D01*
X52329125Y-230797248D01*
X52328603Y-230763804D01*
X52328127Y-230722361D01*
X52327696Y-230672640D01*
X52327310Y-230614362D01*
X52326967Y-230547248D01*
X52326668Y-230471019D01*
X52326411Y-230385396D01*
X52326196Y-230290100D01*
X52326022Y-230184851D01*
X52325887Y-230069372D01*
X52325792Y-229943383D01*
X52325736Y-229806604D01*
X52325718Y-229658757D01*
X52325737Y-229499563D01*
X52325792Y-229328743D01*
X52325883Y-229146017D01*
X52326009Y-228951108D01*
X52326147Y-228771185D01*
X52327838Y-226694472D01*
X52344742Y-226646778D01*
X52375974Y-226575636D01*
X52416374Y-226511547D01*
X52464955Y-226455729D01*
X52520731Y-226409403D01*
X52553376Y-226388830D01*
X52570024Y-226380608D01*
X52594046Y-226370193D01*
X52620818Y-226359570D01*
X52626438Y-226357468D01*
X52646554Y-226350278D01*
X52663507Y-226345220D01*
X52680223Y-226341937D01*
X52699626Y-226340071D01*
X52724643Y-226339266D01*
X52758197Y-226339164D01*
X52775737Y-226339247D01*
G37*
G36*
X54253148Y-228714958D02*
G01*
X54278815Y-228719182D01*
X54297913Y-228722711D01*
X54374777Y-228742686D01*
X54443372Y-228772309D01*
X54503664Y-228811547D01*
X54555616Y-228860371D01*
X54599192Y-228918749D01*
X54634358Y-228986650D01*
X54650752Y-229029980D01*
X54669028Y-229084698D01*
X54667418Y-229973427D01*
X54665807Y-230862156D01*
X54225667Y-230863788D01*
X54137418Y-230864075D01*
X54061097Y-230864228D01*
X53995927Y-230864236D01*
X53941131Y-230864087D01*
X53895930Y-230863769D01*
X53859547Y-230863271D01*
X53831206Y-230862582D01*
X53810128Y-230861690D01*
X53795536Y-230860583D01*
X53786653Y-230859250D01*
X53782701Y-230857680D01*
X53782382Y-230857223D01*
X53782021Y-230850003D01*
X53781698Y-230830808D01*
X53781415Y-230800367D01*
X53781171Y-230759411D01*
X53780968Y-230708671D01*
X53780808Y-230648877D01*
X53780690Y-230580759D01*
X53780617Y-230505049D01*
X53780590Y-230422476D01*
X53780608Y-230333772D01*
X53780674Y-230239665D01*
X53780789Y-230140888D01*
X53780953Y-230038170D01*
X53781094Y-229966147D01*
X53782951Y-229083266D01*
X53797820Y-229035618D01*
X53815298Y-228986823D01*
X53836070Y-228944299D01*
X53862622Y-228903673D01*
X53897073Y-228860993D01*
X53913567Y-228842652D01*
X53928846Y-228827724D01*
X53945992Y-228813664D01*
X53968087Y-228797929D01*
X53995547Y-228779713D01*
X54033693Y-228759382D01*
X54081261Y-228741372D01*
X54135023Y-228726805D01*
X54164479Y-228720942D01*
X54193138Y-228716128D01*
X54214605Y-228713488D01*
X54233177Y-228713079D01*
X54253148Y-228714958D01*
G37*
G36*
X55716802Y-229671326D02*
G01*
X55744842Y-229672806D01*
X55767777Y-229675836D01*
X55789400Y-229680877D01*
X55807716Y-229686476D01*
X55880091Y-229715791D01*
X55943372Y-229753709D01*
X55998013Y-229800663D01*
X56044472Y-229857091D01*
X56083204Y-229923427D01*
X56103097Y-229968603D01*
X56119764Y-230010830D01*
X56122223Y-230432688D01*
X56122684Y-230518722D01*
X56122986Y-230592866D01*
X56123116Y-230655934D01*
X56123064Y-230708743D01*
X56122818Y-230752106D01*
X56122368Y-230786839D01*
X56121701Y-230813757D01*
X56120807Y-230833675D01*
X56119674Y-230847409D01*
X56118291Y-230855772D01*
X56116647Y-230859582D01*
X56116330Y-230859842D01*
X56108868Y-230860647D01*
X56089970Y-230861384D01*
X56060906Y-230862053D01*
X56022946Y-230862651D01*
X55977361Y-230863177D01*
X55925421Y-230863628D01*
X55868396Y-230864002D01*
X55807556Y-230864299D01*
X55744171Y-230864516D01*
X55679512Y-230864650D01*
X55614849Y-230864701D01*
X55551451Y-230864666D01*
X55490590Y-230864544D01*
X55433535Y-230864332D01*
X55381556Y-230864029D01*
X55335925Y-230863634D01*
X55297910Y-230863143D01*
X55268782Y-230862555D01*
X55249811Y-230861868D01*
X55242358Y-230861125D01*
X55240655Y-230857902D01*
X55239198Y-230849189D01*
X55237971Y-230834202D01*
X55236958Y-230812159D01*
X55236145Y-230782275D01*
X55235515Y-230743766D01*
X55235052Y-230695850D01*
X55234742Y-230637743D01*
X55234567Y-230568661D01*
X55234514Y-230487820D01*
X55234516Y-230469318D01*
X55234561Y-230388502D01*
X55234670Y-230319308D01*
X55234872Y-230260651D01*
X55235199Y-230211444D01*
X55235679Y-230170604D01*
X55236342Y-230137046D01*
X55237218Y-230109684D01*
X55238336Y-230087433D01*
X55239727Y-230069209D01*
X55241420Y-230053926D01*
X55243445Y-230040500D01*
X55245831Y-230027845D01*
X55246728Y-230023537D01*
X55253296Y-229995588D01*
X55260386Y-229970277D01*
X55266800Y-229951736D01*
X55268825Y-229947298D01*
X55275667Y-229932757D01*
X55278826Y-229923121D01*
X55278850Y-229922717D01*
X55282722Y-229911480D01*
X55293000Y-229893276D01*
X55307824Y-229870788D01*
X55325331Y-229846699D01*
X55343662Y-229823690D01*
X55360799Y-229804602D01*
X55396050Y-229771491D01*
X55431897Y-229744504D01*
X55471741Y-229721555D01*
X55518985Y-229700558D01*
X55548847Y-229689269D01*
X55571824Y-229681406D01*
X55591467Y-229676164D01*
X55611491Y-229673021D01*
X55635611Y-229671459D01*
X55667542Y-229670957D01*
X55679864Y-229670935D01*
X55716802Y-229671326D01*
G37*
G36*
X57144636Y-227519511D02*
G01*
X57167804Y-227521952D01*
X57198752Y-227526772D01*
X57198879Y-227526793D01*
X57275769Y-227545178D01*
X57344983Y-227573556D01*
X57406301Y-227611771D01*
X57459506Y-227659663D01*
X57504378Y-227717077D01*
X57532834Y-227767107D01*
X57543636Y-227789955D01*
X57552071Y-227810624D01*
X57559001Y-227832131D01*
X57565293Y-227857496D01*
X57571810Y-227889739D01*
X57578464Y-227926460D01*
X57579314Y-227937351D01*
X57580105Y-227960086D01*
X57580836Y-227994725D01*
X57581508Y-228041328D01*
X57582122Y-228099956D01*
X57582677Y-228170670D01*
X57583174Y-228253530D01*
X57583614Y-228348597D01*
X57583995Y-228455931D01*
X57584319Y-228575593D01*
X57584587Y-228707643D01*
X57584797Y-228852142D01*
X57584951Y-229009151D01*
X57585049Y-229178729D01*
X57585090Y-229360939D01*
X57585092Y-229408115D01*
X57585091Y-229567772D01*
X57585083Y-229715211D01*
X57585066Y-229850921D01*
X57585034Y-229975391D01*
X57584984Y-230089110D01*
X57584911Y-230192565D01*
X57584812Y-230286246D01*
X57584682Y-230370641D01*
X57584518Y-230446239D01*
X57584314Y-230513529D01*
X57584067Y-230572999D01*
X57583773Y-230625138D01*
X57583427Y-230670435D01*
X57583026Y-230709378D01*
X57582565Y-230742456D01*
X57582040Y-230770158D01*
X57581447Y-230792972D01*
X57580782Y-230811387D01*
X57580041Y-230825892D01*
X57579219Y-230836974D01*
X57578313Y-230845124D01*
X57577318Y-230850830D01*
X57576230Y-230854580D01*
X57575045Y-230856862D01*
X57573759Y-230858167D01*
X57572803Y-230858756D01*
X57563897Y-230860187D01*
X57543689Y-230861453D01*
X57513450Y-230862553D01*
X57474452Y-230863490D01*
X57427966Y-230864266D01*
X57375264Y-230864881D01*
X57317618Y-230865338D01*
X57256299Y-230865638D01*
X57192579Y-230865781D01*
X57127729Y-230865771D01*
X57063020Y-230865608D01*
X56999725Y-230865294D01*
X56939115Y-230864831D01*
X56882461Y-230864219D01*
X56831035Y-230863461D01*
X56786108Y-230862558D01*
X56748953Y-230861512D01*
X56720840Y-230860323D01*
X56703041Y-230858994D01*
X56696918Y-230857709D01*
X56696100Y-230850631D01*
X56695324Y-230831533D01*
X56694591Y-230801100D01*
X56693900Y-230760020D01*
X56693252Y-230708978D01*
X56692647Y-230648659D01*
X56692085Y-230579751D01*
X56691567Y-230502938D01*
X56691092Y-230418908D01*
X56690661Y-230328346D01*
X56690275Y-230231938D01*
X56689933Y-230130370D01*
X56689635Y-230024329D01*
X56689383Y-229914500D01*
X56689175Y-229801569D01*
X56689012Y-229686223D01*
X56688895Y-229569148D01*
X56688824Y-229451029D01*
X56688798Y-229332552D01*
X56688819Y-229214404D01*
X56688886Y-229097271D01*
X56689000Y-228981839D01*
X56689160Y-228868794D01*
X56689367Y-228758821D01*
X56689622Y-228652608D01*
X56689924Y-228550839D01*
X56690274Y-228454201D01*
X56690671Y-228363381D01*
X56691117Y-228279063D01*
X56691611Y-228201935D01*
X56692153Y-228132682D01*
X56692744Y-228071990D01*
X56693385Y-228020546D01*
X56694074Y-227979035D01*
X56694813Y-227948143D01*
X56695601Y-227928557D01*
X56695978Y-227923554D01*
X56704763Y-227864414D01*
X56718818Y-227812900D01*
X56739535Y-227764535D01*
X56753153Y-227739570D01*
X56771497Y-227711504D01*
X56794310Y-227681685D01*
X56818836Y-227653307D01*
X56842321Y-227629560D01*
X56861564Y-227613930D01*
X56877585Y-227603395D01*
X56897190Y-227590537D01*
X56902860Y-227586825D01*
X56937717Y-227568017D01*
X56981522Y-227550606D01*
X57030515Y-227535914D01*
X57074992Y-227526274D01*
X57102911Y-227521692D01*
X57124565Y-227519431D01*
X57144636Y-227519511D01*
G37*
G36*
X58658140Y-229908420D02*
G01*
X58718788Y-229922985D01*
X58777711Y-229945229D01*
X58832456Y-229974623D01*
X58863147Y-229996149D01*
X58915104Y-230043330D01*
X58957923Y-230097316D01*
X58992503Y-230159470D01*
X59019739Y-230231156D01*
X59021334Y-230236368D01*
X59024781Y-230248241D01*
X59027645Y-230259810D01*
X59029996Y-230272377D01*
X59031899Y-230287239D01*
X59033423Y-230305698D01*
X59034633Y-230329052D01*
X59035599Y-230358601D01*
X59036386Y-230395645D01*
X59037063Y-230441484D01*
X59037696Y-230497416D01*
X59038352Y-230564743D01*
X59038359Y-230565459D01*
X59038945Y-230637122D01*
X59039232Y-230696943D01*
X59039203Y-230745783D01*
X59038844Y-230784504D01*
X59038140Y-230813967D01*
X59037076Y-230835033D01*
X59035638Y-230848563D01*
X59033811Y-230855419D01*
X59033356Y-230856117D01*
X59025456Y-230858129D01*
X59006121Y-230859924D01*
X58976622Y-230861504D01*
X58938228Y-230862869D01*
X58892209Y-230864019D01*
X58839836Y-230864955D01*
X58782378Y-230865677D01*
X58721105Y-230866186D01*
X58657287Y-230866482D01*
X58592195Y-230866565D01*
X58527097Y-230866436D01*
X58463264Y-230866096D01*
X58401966Y-230865545D01*
X58344473Y-230864783D01*
X58292055Y-230863811D01*
X58245982Y-230862629D01*
X58207523Y-230861238D01*
X58177949Y-230859639D01*
X58158530Y-230857830D01*
X58150535Y-230855815D01*
X58150521Y-230855798D01*
X58148595Y-230850743D01*
X58147059Y-230840088D01*
X58145900Y-230822910D01*
X58145102Y-230798286D01*
X58144652Y-230765292D01*
X58144533Y-230723006D01*
X58144733Y-230670504D01*
X58145235Y-230606863D01*
X58145754Y-230555611D01*
X58146506Y-230487279D01*
X58147196Y-230430388D01*
X58147895Y-230383674D01*
X58148674Y-230345872D01*
X58149603Y-230315718D01*
X58150754Y-230291948D01*
X58152197Y-230273296D01*
X58154003Y-230258498D01*
X58156243Y-230246291D01*
X58158989Y-230235408D01*
X58162309Y-230224587D01*
X58164703Y-230217308D01*
X58194323Y-230146388D01*
X58233333Y-230083096D01*
X58281038Y-230028257D01*
X58336746Y-229982698D01*
X58386127Y-229953725D01*
X58411546Y-229941568D01*
X58433544Y-229931950D01*
X58449139Y-229926126D01*
X58454364Y-229924970D01*
X58466919Y-229922900D01*
X58485037Y-229917860D01*
X58490420Y-229916070D01*
X58541500Y-229904434D01*
X58598226Y-229902060D01*
X58658140Y-229908420D01*
G37*
G36*
X60121909Y-230621221D02*
G01*
X60183752Y-230637585D01*
X60243623Y-230662019D01*
X60298562Y-230693658D01*
X60318219Y-230707924D01*
X60342755Y-230728770D01*
X60368028Y-230753218D01*
X60391064Y-230778121D01*
X60408888Y-230800333D01*
X60416029Y-230811394D01*
X60425012Y-230827049D01*
X60431912Y-230838525D01*
X60437472Y-230849880D01*
X60434973Y-230856421D01*
X60431315Y-230859076D01*
X60423011Y-230860340D01*
X60402737Y-230861485D01*
X60371232Y-230862501D01*
X60329230Y-230863374D01*
X60277470Y-230864094D01*
X60216687Y-230864649D01*
X60147620Y-230865027D01*
X60071003Y-230865216D01*
X60042961Y-230865235D01*
X59961750Y-230865211D01*
X59892374Y-230865082D01*
X59833959Y-230864828D01*
X59785636Y-230864431D01*
X59746531Y-230863871D01*
X59715773Y-230863130D01*
X59692489Y-230862187D01*
X59675809Y-230861025D01*
X59664861Y-230859624D01*
X59658772Y-230857965D01*
X59657050Y-230856793D01*
X59654926Y-230849471D01*
X59658980Y-230837821D01*
X59670136Y-230819591D01*
X59675642Y-230811595D01*
X59724193Y-230752220D01*
X59779377Y-230703460D01*
X59841592Y-230665079D01*
X59911230Y-230636844D01*
X59988689Y-230618518D01*
X60004150Y-230616161D01*
X60061055Y-230613791D01*
X60121909Y-230621221D01*
G37*
D14*
%TO.C,J2*%
X85940000Y-50000000D02*
X85940000Y-58060000D01*
X85940000Y-50000000D02*
X88060000Y-50000000D01*
X85940000Y-58060000D02*
X88060000Y-58060000D01*
X87000000Y-47940000D02*
X88060000Y-47940000D01*
X88060000Y-47940000D02*
X88060000Y-49000000D01*
X88060000Y-50000000D02*
X88060000Y-58060000D01*
%TO.C,R3*%
X80500000Y-63380000D02*
X80500000Y-64150000D01*
X80500000Y-71460000D02*
X80500000Y-70690000D01*
X79130000Y-70690000D02*
X81870000Y-70690000D01*
X81870000Y-64150000D01*
X79130000Y-64150000D01*
X79130000Y-70690000D01*
%TO.C,U1*%
D15*
X51825000Y-81750000D02*
X83825000Y-81750000D01*
X83825000Y-125450000D01*
X51825000Y-125450000D01*
X51825000Y-81750000D01*
D12*
X51825000Y-86750000D02*
X83825000Y-86750000D01*
X83825000Y-120450000D01*
X51825000Y-120450000D01*
X51825000Y-86750000D01*
D14*
%TO.C,J1*%
X62940000Y-45440000D02*
X62940000Y-47560000D01*
X79000000Y-45440000D02*
X62940000Y-45440000D01*
X79000000Y-45440000D02*
X79000000Y-47560000D01*
X79000000Y-47560000D02*
X62940000Y-47560000D01*
X81060000Y-46500000D02*
X81060000Y-47560000D01*
X81060000Y-47560000D02*
X80000000Y-47560000D01*
%TO.C,J4*%
X81440000Y-234000000D02*
X81440000Y-236060000D01*
X81440000Y-234000000D02*
X83560000Y-234000000D01*
X81440000Y-236060000D02*
X83560000Y-236060000D01*
X82500000Y-231940000D02*
X83560000Y-231940000D01*
X83560000Y-231940000D02*
X83560000Y-233000000D01*
X83560000Y-234000000D02*
X83560000Y-236060000D01*
%TO.C,SW1*%
X61900000Y-61100000D02*
X66000000Y-61100000D01*
X61900000Y-63500000D02*
X61900000Y-61100000D01*
X61900000Y-68300000D02*
X61900000Y-65700000D01*
X61900000Y-72900000D02*
X61900000Y-70500000D01*
X66000000Y-72900000D02*
X61900000Y-72900000D01*
X68000000Y-67500000D02*
X68000000Y-66500000D01*
X68500000Y-67000000D02*
X67500000Y-67000000D01*
X70000000Y-61100000D02*
X74100000Y-61100000D01*
X70000000Y-72900000D02*
X74100000Y-72900000D01*
X74100000Y-72900000D02*
X74100000Y-61100000D01*
X75200000Y-71100000D02*
X75500000Y-70800000D01*
X75500000Y-70800000D02*
X75800000Y-71100000D01*
X75800000Y-71100000D02*
X75200000Y-71100000D01*
X71000000Y-67000000D02*
G75*
G02*
X65000000Y-67000000I-3000000J0D01*
G01*
X65000000Y-67000000D02*
G75*
G02*
X71000000Y-67000000I3000000J0D01*
G01*
%TO.C,J6*%
X54940000Y-50940000D02*
X56000000Y-50940000D01*
X54940000Y-52000000D02*
X54940000Y-50940000D01*
X57000000Y-50940000D02*
X59060000Y-50940000D01*
X57000000Y-53060000D02*
X57000000Y-50940000D01*
X57000000Y-53060000D02*
X59060000Y-53060000D01*
X59060000Y-53060000D02*
X59060000Y-50940000D01*
%TO.C,C1*%
X54880000Y-45130000D02*
X60120000Y-45130000D01*
X54880000Y-45467000D02*
X54880000Y-45130000D01*
X54880000Y-47870000D02*
X54880000Y-47533000D01*
X60120000Y-45130000D02*
X60120000Y-45467000D01*
X60120000Y-47533000D02*
X60120000Y-47870000D01*
X60120000Y-47870000D02*
X54880000Y-47870000D01*
%TO.C,J3*%
X45940000Y-50000000D02*
X45940000Y-58060000D01*
X45940000Y-50000000D02*
X48060000Y-50000000D01*
X45940000Y-58060000D02*
X48060000Y-58060000D01*
X47000000Y-47940000D02*
X48060000Y-47940000D01*
X48060000Y-47940000D02*
X48060000Y-49000000D01*
X48060000Y-50000000D02*
X48060000Y-58060000D01*
%TO.C,R2*%
X63540000Y-77500000D02*
X64310000Y-77500000D01*
X71620000Y-77500000D02*
X70850000Y-77500000D01*
X64310000Y-76130000D02*
X70850000Y-76130000D01*
X70850000Y-78870000D01*
X64310000Y-78870000D01*
X64310000Y-76130000D01*
%TO.C,R1*%
X56000000Y-63880000D02*
X56000000Y-64650000D01*
X56000000Y-71960000D02*
X56000000Y-71190000D01*
X54630000Y-71190000D02*
X57370000Y-71190000D01*
X57370000Y-64650000D01*
X54630000Y-64650000D01*
X54630000Y-71190000D01*
%TD*%
M02*
