M48
; DRILL file {KiCad 9.0.3} date 2026-02-21T11:27:49+0100
; FORMAT={-:-/ absolute / metric / decimal}
; #@! TF.CreationDate,2026-02-21T11:27:49+01:00
; #@! TF.GenerationSoftware,Kicad,Pcbnew,9.0.3
; #@! TF.FileFunction,Plated,1,2,PTH
FMAT,2
METRIC
; #@! TA.AperFunction,Plated,PTH,ViaDrill
T1C0.300
; #@! TA.AperFunction,Plated,PTH,ComponentDrill
T2C0.800
; #@! TA.AperFunction,Plated,PTH,ComponentDrill
T3C1.000
; #@! TA.AperFunction,Plated,PTH,ComponentDrill
T4C1.500
%
G90
G05
T1
X64.208Y-47.498
X75.25Y-50.206
X75.656Y-47.719
X75.719Y-102.85
T2
X52.0Y-43.5
X52.0Y-45.5
X52.0Y-47.5
X52.0Y-49.5
X52.0Y-51.5
X55.75Y-62.0
X56.75Y-41.59
X56.75Y-51.75
X60.75Y-62.0
X62.17Y-51.5
X64.0Y-62.0
X66.0Y-62.0
X68.0Y-62.0
X70.0Y-62.0
X72.0Y-62.0
X72.33Y-51.5
X74.0Y-62.0
X76.0Y-62.0
X78.0Y-62.0
X78.25Y-41.92
X78.25Y-52.08
X80.0Y-62.0
X81.0Y-205.5
X81.0Y-207.5
X81.0Y-217.5
X81.0Y-219.5
X82.5Y-43.5
X82.5Y-45.5
X82.5Y-47.5
X82.5Y-49.5
X82.5Y-51.5
T3
X58.15Y-54.5
X60.0Y-37.9
X60.0Y-42.9
X60.7Y-54.5
X63.25Y-54.5
X65.8Y-54.5
X68.35Y-54.5
X70.9Y-54.5
X73.45Y-54.5
X74.5Y-37.9
X74.5Y-40.4
X74.5Y-42.9
X76.0Y-54.5
T4
X61.4Y-105.1
X61.4Y-232.4
X65.15Y-105.1
X65.15Y-232.4
T4
G00X67.65Y-34.8
M15
G01X66.35Y-34.8
M16
G05
G00X67.65Y-46.0
M15
G01X66.35Y-46.0
M16
G05
M30
