M48
; DRILL file {KiCad 9.0.3} date 2026-02-16T14:50:14+0100
; FORMAT={-:-/ absolute / metric / decimal}
; #@! TF.CreationDate,2026-02-16T14:50:14+01:00
; #@! TF.GenerationSoftware,Kicad,Pcbnew,9.0.3
; #@! TF.FileFunction,Plated,1,2,PTH
FMAT,2
METRIC
; #@! TA.AperFunction,Plated,PTH,ComponentDrill
T1C0.800
; #@! TA.AperFunction,Plated,PTH,ComponentDrill
T2C1.000
; #@! TA.AperFunction,Plated,PTH,ComponentDrill
T3C1.500
%
G90
G05
T1
X47.0Y-49.0
X47.0Y-51.0
X47.0Y-53.0
X47.0Y-55.0
X47.0Y-57.0
X55.0Y-46.5
X56.0Y-52.0
X56.0Y-62.84
X56.0Y-73.0
X58.0Y-52.0
X60.0Y-46.5
X62.5Y-77.5
X64.0Y-46.5
X66.0Y-46.5
X68.0Y-46.5
X70.0Y-46.5
X72.0Y-46.5
X72.66Y-77.5
X74.0Y-46.5
X76.0Y-46.5
X78.0Y-46.5
X80.0Y-46.5
X80.5Y-62.34
X80.5Y-72.5
X82.5Y-233.0
X82.5Y-235.0
X87.0Y-49.0
X87.0Y-51.0
X87.0Y-53.0
X87.0Y-55.0
X87.0Y-57.0
T2
X58.9Y-83.0
X61.0Y-64.5
X61.0Y-69.5
X61.45Y-83.0
X64.0Y-83.0
X66.55Y-83.0
X69.1Y-83.0
X71.65Y-83.0
X74.2Y-83.0
X75.5Y-64.5
X75.5Y-67.0
X75.5Y-69.5
X76.75Y-83.0
T3
G00X68.65Y-61.4
M15
G01X67.35Y-61.4
M16
G05
G00X68.65Y-72.6
M15
G01X67.35Y-72.6
M16
G05
M30
