%TF.GenerationSoftware,KiCad,Pcbnew,9.0.3*%
%TF.CreationDate,2026-02-21T11:18:13+01:00*%
%TF.ProjectId,Channel,4368616e-6e65-46c2-9e6b-696361645f70,rev?*%
%TF.SameCoordinates,Original*%
%TF.FileFunction,Copper,L1,Top*%
%TF.FilePolarity,Positive*%
%FSLAX46Y46*%
G04 Gerber Fmt 4.6, Leading zero omitted, Abs format (unit mm)*
G04 Created by KiCad (PCBNEW 9.0.3) date 2026-02-21 11:18:13*
%MOMM*%
%LPD*%
G01*
G04 APERTURE LIST*
G04 Aperture macros list*
%AMRoundRect*
0 Rectangle with rounded corners*
0 $1 Rounding radius*
0 $2 $3 $4 $5 $6 $7 $8 $9 X,Y pos of 4 corners*
0 Add a 4 corners polygon primitive as box body*
4,1,4,$2,$3,$4,$5,$6,$7,$8,$9,$2,$3,0*
0 Add four circle primitives for the rounded corners*
1,1,$1+$1,$2,$3*
1,1,$1+$1,$4,$5*
1,1,$1+$1,$6,$7*
1,1,$1+$1,$8,$9*
0 Add four rect primitives between the rounded corners*
20,1,$1+$1,$2,$3,$4,$5,0*
20,1,$1+$1,$4,$5,$6,$7,0*
20,1,$1+$1,$6,$7,$8,$9,0*
20,1,$1+$1,$8,$9,$2,$3,0*%
G04 Aperture macros list end*
%TA.AperFunction,ComponentPad*%
%ADD10R,1.350000X1.350000*%
%TD*%
%TA.AperFunction,ComponentPad*%
%ADD11C,1.350000*%
%TD*%
%TA.AperFunction,WasherPad*%
%ADD12C,2.000000*%
%TD*%
%TA.AperFunction,ComponentPad*%
%ADD13C,2.000000*%
%TD*%
%TA.AperFunction,ComponentPad*%
%ADD14C,1.600000*%
%TD*%
%TA.AperFunction,ComponentPad*%
%ADD15RoundRect,0.255000X-0.595000X-0.595000X0.595000X-0.595000X0.595000X0.595000X-0.595000X0.595000X0*%
%TD*%
%TA.AperFunction,ComponentPad*%
%ADD16C,1.700000*%
%TD*%
%TA.AperFunction,ComponentPad*%
%ADD17R,2.000000X2.000000*%
%TD*%
%TA.AperFunction,ComponentPad*%
%ADD18R,3.200000X2.000000*%
%TD*%
%TA.AperFunction,ViaPad*%
%ADD19C,0.600000*%
%TD*%
%TA.AperFunction,Conductor*%
%ADD20C,0.200000*%
%TD*%
G04 APERTURE END LIST*
D10*
%TO.P,J2,1,Pin_1*%
%TO.N,GND*%
X82500000Y-43500000D03*
D11*
%TO.P,J2,2,Pin_2*%
%TO.N,E_VCC*%
X82500000Y-45500000D03*
%TO.P,J2,3,Pin_3*%
%TO.N,SPI_SCK*%
X82500000Y-47500000D03*
%TO.P,J2,4,Pin_4*%
%TO.N,SPI_MOSI*%
X82500000Y-49500000D03*
%TO.P,J2,5,Pin_5*%
%TO.N,SCR_BL_PWM*%
X82500000Y-51500000D03*
%TD*%
D12*
%TO.P,F1,*%
%TO.N,*%
X68900000Y-105100000D03*
X68900000Y-232400000D03*
X72650000Y-105100000D03*
X72650000Y-232400000D03*
D13*
%TO.P,F1,1,T1*%
%TO.N,GND*%
X65150000Y-105100000D03*
%TO.P,F1,2,W*%
%TO.N,FADER_OUT*%
X61400000Y-105100000D03*
%TO.P,F1,3,T2*%
%TO.N,E_VCC*%
X65150000Y-232400000D03*
%TO.P,F1,4*%
%TO.N,N/C*%
X61400000Y-232400000D03*
%TD*%
D14*
%TO.P,R3,1*%
%TO.N,E_VCC*%
X78250000Y-52080000D03*
%TO.P,R3,2*%
%TO.N,ENC_SW*%
X78250000Y-41920000D03*
%TD*%
D15*
%TO.P,U1,1,GND*%
%TO.N,GND*%
X58150000Y-54500000D03*
D16*
%TO.P,U1,2,VCC*%
%TO.N,E_VCC*%
X60700000Y-54500000D03*
%TO.P,U1,3,SCL*%
%TO.N,SPI_SCK*%
X63250000Y-54500000D03*
%TO.P,U1,4,SDA*%
%TO.N,SPI_MOSI*%
X65800000Y-54500000D03*
%TO.P,U1,5,RST*%
%TO.N,SCREEN_RST*%
X68350000Y-54500000D03*
%TO.P,U1,6,DC*%
%TO.N,SCREEN_DC*%
X70900000Y-54500000D03*
%TO.P,U1,7,CS*%
%TO.N,SCREEN_CS*%
X73450000Y-54500000D03*
%TO.P,U1,8,BL*%
%TO.N,SCR_BL_PWM*%
X76000000Y-54500000D03*
%TD*%
D10*
%TO.P,J1,1,Pin_1*%
%TO.N,GND*%
X64000000Y-62000000D03*
D11*
%TO.P,J1,2,Pin_2*%
%TO.N,E_VCC*%
X66000000Y-62000000D03*
%TO.P,J1,3,Pin_3*%
%TO.N,SCREEN_CS*%
X68000000Y-62000000D03*
%TO.P,J1,4,Pin_4*%
%TO.N,SCREEN_DC*%
X70000000Y-62000000D03*
%TO.P,J1,5,Pin_5*%
%TO.N,ENC_CLK*%
X72000000Y-62000000D03*
%TO.P,J1,6,Pin_6*%
%TO.N,ENC_DT*%
X74000000Y-62000000D03*
%TO.P,J1,7,Pin_7*%
%TO.N,ENC_SW*%
X76000000Y-62000000D03*
%TO.P,J1,8,Pin_8*%
%TO.N,FADER_OUT*%
X78000000Y-62000000D03*
%TO.P,J1,9,Pin_9*%
%TO.N,SCREEN_RST*%
X80000000Y-62000000D03*
%TD*%
D10*
%TO.P,J4,1,Pin_1*%
%TO.N,MOTOR+*%
X81000000Y-217500000D03*
D11*
%TO.P,J4,2,Pin_2*%
%TO.N,MOTOR-*%
X81000000Y-219500000D03*
%TD*%
D17*
%TO.P,SW1,A,A*%
%TO.N,ENC_CLK*%
X74500000Y-42900000D03*
D13*
%TO.P,SW1,B,B*%
%TO.N,ENC_DT*%
X74500000Y-37900000D03*
%TO.P,SW1,C,C*%
%TO.N,GND*%
X74500000Y-40400000D03*
D18*
%TO.P,SW1,MP*%
%TO.N,N/C*%
X67000000Y-46000000D03*
X67000000Y-34800000D03*
D13*
%TO.P,SW1,S1,S1*%
%TO.N,ENC_SW*%
X60000000Y-37900000D03*
%TO.P,SW1,S2,S2*%
%TO.N,GND*%
X60000000Y-42900000D03*
%TD*%
D10*
%TO.P,J6,1,Pin_1*%
%TO.N,MOTOR+*%
X81000000Y-207500000D03*
D11*
%TO.P,J6,2,Pin_2*%
%TO.N,MOTOR-*%
X81000000Y-205500000D03*
%TD*%
D14*
%TO.P,C1,1*%
%TO.N,GND*%
X55750000Y-62000000D03*
%TO.P,C1,2*%
%TO.N,E_VCC*%
X60750000Y-62000000D03*
%TD*%
D10*
%TO.P,J3,1,Pin_1*%
%TO.N,GND*%
X52000000Y-43500000D03*
D11*
%TO.P,J3,2,Pin_2*%
%TO.N,E_VCC*%
X52000000Y-45500000D03*
%TO.P,J3,3,Pin_3*%
%TO.N,SPI_SCK*%
X52000000Y-47500000D03*
%TO.P,J3,4,Pin_4*%
%TO.N,SPI_MOSI*%
X52000000Y-49500000D03*
%TO.P,J3,5,Pin_5*%
%TO.N,SCR_BL_PWM*%
X52000000Y-51500000D03*
%TD*%
D14*
%TO.P,R2,1*%
%TO.N,E_VCC*%
X62170000Y-51500000D03*
%TO.P,R2,2*%
%TO.N,ENC_DT*%
X72330000Y-51500000D03*
%TD*%
%TO.P,R1,1*%
%TO.N,E_VCC*%
X56750000Y-51750000D03*
%TO.P,R1,2*%
%TO.N,ENC_CLK*%
X56750000Y-41590000D03*
%TD*%
D19*
%TO.N,SCR_BL_PWM*%
X75656000Y-47719100D03*
%TO.N,SPI_SCK*%
X64207800Y-47498500D03*
%TO.N,FADER_OUT*%
X75719500Y-102849800D03*
%TO.N,ENC_DT*%
X75250000Y-50205900D03*
%TD*%
D20*
%TO.N,SCR_BL_PWM*%
X76000000Y-48063100D02*
X75656000Y-47719100D01*
X76000000Y-54500000D02*
X76000000Y-48063100D01*
X75656000Y-47719100D02*
X75656000Y-48500000D01*
X75656000Y-48500000D02*
X75656000Y-47719100D01*
%TO.N,MOTOR+*%
X81000000Y-207500000D02*
X81000000Y-217500000D01*
%TO.N,MOTOR-*%
X81976700Y-218523300D02*
X81000000Y-219500000D01*
X81976700Y-206476700D02*
X81976700Y-218523300D01*
X81000000Y-205500000D02*
X81976700Y-206476700D01*
%TO.N,SPI_SCK*%
X64207800Y-53542200D02*
X63250000Y-54500000D01*
X64207800Y-46351400D02*
X64207800Y-53542200D01*
X64207800Y-46351400D02*
X64207800Y-47498500D01*
%TO.N,FADER_OUT*%
X78000000Y-100569300D02*
X75719500Y-102849800D01*
X78000000Y-62000000D02*
X78000000Y-100569300D01*
X75719500Y-102849800D02*
X78000000Y-100569300D01*
X78000000Y-100569300D02*
X75719500Y-102849800D01*
%TO.N,SCREEN_DC*%
X70000000Y-55400000D02*
X70900000Y-54500000D01*
X70000000Y-62000000D02*
X70000000Y-55400000D01*
%TO.N,ENC_CLK*%
X72111000Y-61889000D02*
X72000000Y-62000000D01*
X72111000Y-53394700D02*
X72111000Y-61889000D01*
X74323300Y-51182400D02*
X72111000Y-53394700D01*
X74323300Y-44378400D02*
X74323300Y-51182400D01*
X74500000Y-44201700D02*
X74323300Y-44378400D01*
X74500000Y-42900000D02*
X74500000Y-44201700D01*
%TO.N,ENC_DT*%
X72330000Y-40070000D02*
X72330000Y-51500000D01*
X74500000Y-37900000D02*
X72330000Y-40070000D01*
X74725000Y-61275000D02*
X74000000Y-62000000D01*
X74725000Y-50730900D02*
X74725000Y-61275000D01*
X75250000Y-50205900D02*
X74725000Y-50730900D01*
X75250000Y-50205900D02*
X74954700Y-50501200D01*
X74954700Y-50501200D02*
X75250000Y-50205900D01*
%TO.N,ENC_SW*%
X77104000Y-43066000D02*
X78250000Y-41920000D01*
X77104000Y-53303800D02*
X77104000Y-43066000D01*
X77158500Y-53358300D02*
X77104000Y-53303800D01*
X77158500Y-60841500D02*
X77158500Y-53358300D01*
X76000000Y-62000000D02*
X77158500Y-60841500D01*
%TO.N,E_VCC*%
X66512400Y-62512400D02*
X66000000Y-62000000D01*
X66512400Y-231037600D02*
X66512400Y-62512400D01*
X65150000Y-232400000D02*
X66512400Y-231037600D01*
X60700000Y-61950000D02*
X60700000Y-54500000D01*
X60750000Y-62000000D02*
X60700000Y-61950000D01*
%TO.N,GND*%
X65150000Y-64126700D02*
X64000000Y-62976700D01*
X65150000Y-105100000D02*
X65150000Y-64126700D01*
X64000000Y-62000000D02*
X64000000Y-62976700D01*
X60000000Y-52650000D02*
X58150000Y-54500000D01*
X60000000Y-42900000D02*
X60000000Y-52650000D01*
%TD*%
M02*
