%TF.GenerationSoftware,KiCad,Pcbnew,9.0.3*%
%TF.CreationDate,2026-02-21T11:27:50+01:00*%
%TF.ProjectId,Channel,4368616e-6e65-46c2-9e6b-696361645f70,rev?*%
%TF.SameCoordinates,Original*%
%TF.FileFunction,Soldermask,Top*%
%TF.FilePolarity,Negative*%
%FSLAX46Y46*%
G04 Gerber Fmt 4.6, Leading zero omitted, Abs format (unit mm)*
G04 Created by KiCad (PCBNEW 9.0.3) date 2026-02-21 11:27:50*
%MOMM*%
%LPD*%
G01*
G04 APERTURE LIST*
G04 Aperture macros list*
%AMRoundRect*
0 Rectangle with rounded corners*
0 $1 Rounding radius*
0 $2 $3 $4 $5 $6 $7 $8 $9 X,Y pos of 4 corners*
0 Add a 4 corners polygon primitive as box body*
4,1,4,$2,$3,$4,$5,$6,$7,$8,$9,$2,$3,0*
0 Add four circle primitives for the rounded corners*
1,1,$1+$1,$2,$3*
1,1,$1+$1,$4,$5*
1,1,$1+$1,$6,$7*
1,1,$1+$1,$8,$9*
0 Add four rect primitives between the rounded corners*
20,1,$1+$1,$2,$3,$4,$5,0*
20,1,$1+$1,$4,$5,$6,$7,0*
20,1,$1+$1,$6,$7,$8,$9,0*
20,1,$1+$1,$8,$9,$2,$3,0*%
G04 Aperture macros list end*
%ADD10R,1.350000X1.350000*%
%ADD11C,1.350000*%
%ADD12C,3.200000*%
%ADD13C,2.000000*%
%ADD14C,1.600000*%
%ADD15C,3.540000*%
%ADD16RoundRect,0.255000X-0.595000X-0.595000X0.595000X-0.595000X0.595000X0.595000X-0.595000X0.595000X0*%
%ADD17C,1.700000*%
%ADD18R,2.000000X2.000000*%
%ADD19R,3.200000X2.000000*%
G04 APERTURE END LIST*
D10*
%TO.C,J2*%
X82500000Y-43500000D03*
D11*
X82500000Y-45500000D03*
X82500000Y-47500000D03*
X82500000Y-49500000D03*
X82500000Y-51500000D03*
%TD*%
D12*
%TO.C,Mount_4*%
X81500000Y-170000000D03*
%TD*%
D13*
%TO.C,F1*%
X68900000Y-105100000D03*
X68900000Y-232400000D03*
X72650000Y-105100000D03*
X72650000Y-232400000D03*
X65150000Y-105100000D03*
X61400000Y-105100000D03*
X65150000Y-232400000D03*
X61400000Y-232400000D03*
%TD*%
D12*
%TO.C,Mount_2*%
X81500000Y-36750000D03*
%TD*%
D14*
%TO.C,R3*%
X78250000Y-52080000D03*
X78250000Y-41920000D03*
%TD*%
D15*
%TO.C,U1*%
X53600000Y-55775000D03*
X53600000Y-94425000D03*
X80550000Y-55775000D03*
X80550000Y-94425000D03*
D16*
X58150000Y-54500000D03*
D17*
X60700000Y-54500000D03*
X63250000Y-54500000D03*
X65800000Y-54500000D03*
X68350000Y-54500000D03*
X70900000Y-54500000D03*
X73450000Y-54500000D03*
X76000000Y-54500000D03*
%TD*%
D10*
%TO.C,J1*%
X64000000Y-62000000D03*
D11*
X66000000Y-62000000D03*
X68000000Y-62000000D03*
X70000000Y-62000000D03*
X72000000Y-62000000D03*
X74000000Y-62000000D03*
X76000000Y-62000000D03*
X78000000Y-62000000D03*
X80000000Y-62000000D03*
%TD*%
D12*
%TO.C,Mount_3*%
X53000000Y-170000000D03*
%TD*%
D10*
%TO.C,J4*%
X81000000Y-217500000D03*
D11*
X81000000Y-219500000D03*
%TD*%
D18*
%TO.C,SW1*%
X74500000Y-42900000D03*
D13*
X74500000Y-37900000D03*
X74500000Y-40400000D03*
D19*
X67000000Y-46000000D03*
X67000000Y-34800000D03*
D13*
X60000000Y-37900000D03*
X60000000Y-42900000D03*
%TD*%
D12*
%TO.C,Mount_6*%
X53000000Y-229183000D03*
%TD*%
D10*
%TO.C,J6*%
X81000000Y-207500000D03*
D11*
X81000000Y-205500000D03*
%TD*%
D14*
%TO.C,C1*%
X55750000Y-62000000D03*
X60750000Y-62000000D03*
%TD*%
D10*
%TO.C,J3*%
X52000000Y-43500000D03*
D11*
X52000000Y-45500000D03*
X52000000Y-47500000D03*
X52000000Y-49500000D03*
X52000000Y-51500000D03*
%TD*%
D12*
%TO.C,Mount_7*%
X81500000Y-229012500D03*
%TD*%
%TO.C,Mount_1*%
X53000000Y-36750000D03*
%TD*%
D14*
%TO.C,R2*%
X62170000Y-51500000D03*
X72330000Y-51500000D03*
%TD*%
%TO.C,R1*%
X56750000Y-51750000D03*
X56750000Y-41590000D03*
%TD*%
M02*
