%TF.GenerationSoftware,KiCad,Pcbnew,9.0.3*%
%TF.CreationDate,2026-03-05T16:14:14+01:00*%
%TF.ProjectId,Channel,4368616e-6e65-46c2-9e6b-696361645f70,rev?*%
%TF.SameCoordinates,Original*%
%TF.FileFunction,Copper,L2,Bot*%
%TF.FilePolarity,Positive*%
%FSLAX46Y46*%
G04 Gerber Fmt 4.6, Leading zero omitted, Abs format (unit mm)*
G04 Created by KiCad (PCBNEW 9.0.3) date 2026-03-05 16:14:14*
%MOMM*%
%LPD*%
G01*
G04 APERTURE LIST*
G04 Aperture macros list*
%AMRoundRect*
0 Rectangle with rounded corners*
0 $1 Rounding radius*
0 $2 $3 $4 $5 $6 $7 $8 $9 X,Y pos of 4 corners*
0 Add a 4 corners polygon primitive as box body*
4,1,4,$2,$3,$4,$5,$6,$7,$8,$9,$2,$3,0*
0 Add four circle primitives for the rounded corners*
1,1,$1+$1,$2,$3*
1,1,$1+$1,$4,$5*
1,1,$1+$1,$6,$7*
1,1,$1+$1,$8,$9*
0 Add four rect primitives between the rounded corners*
20,1,$1+$1,$2,$3,$4,$5,0*
20,1,$1+$1,$4,$5,$6,$7,0*
20,1,$1+$1,$6,$7,$8,$9,0*
20,1,$1+$1,$8,$9,$2,$3,0*%
G04 Aperture macros list end*
%TA.AperFunction,ComponentPad*%
%ADD10C,2.000000*%
%TD*%
%TA.AperFunction,ComponentPad*%
%ADD11C,1.700000*%
%TD*%
%TA.AperFunction,ComponentPad*%
%ADD12RoundRect,0.255000X-0.595000X-0.595000X0.595000X-0.595000X0.595000X0.595000X-0.595000X0.595000X0*%
%TD*%
%TA.AperFunction,ComponentPad*%
%ADD13R,3.200000X2.000000*%
%TD*%
%TA.AperFunction,ComponentPad*%
%ADD14R,2.000000X2.000000*%
%TD*%
%TA.AperFunction,ComponentPad*%
%ADD15C,1.600000*%
%TD*%
%TA.AperFunction,ComponentPad*%
%ADD16R,1.350000X1.350000*%
%TD*%
%TA.AperFunction,ComponentPad*%
%ADD17C,1.350000*%
%TD*%
%TA.AperFunction,ViaPad*%
%ADD18C,0.600000*%
%TD*%
%TA.AperFunction,Conductor*%
%ADD19C,0.200000*%
%TD*%
G04 APERTURE END LIST*
D10*
%TO.P,F1,*%
%TO.N,*%
X61400000Y-105100000D03*
X61400000Y-232400000D03*
X65150000Y-105100000D03*
X65150000Y-232400000D03*
%TO.P,F1,1,T1*%
%TO.N,GND*%
X68900000Y-105100000D03*
%TO.P,F1,2,W*%
%TO.N,FADER_OUT*%
X72650000Y-105100000D03*
%TO.P,F1,3,T2*%
%TO.N,E_VCC*%
X68900000Y-232400000D03*
%TO.P,F1,4*%
%TO.N,N/C*%
X72650000Y-232400000D03*
%TD*%
D11*
%TO.P,U1,8,BL*%
%TO.N,SCR_BL_PWM*%
X76000000Y-54500000D03*
%TO.P,U1,7,CS*%
%TO.N,SCREEN_CS*%
X73450000Y-54500000D03*
%TO.P,U1,6,DC*%
%TO.N,SCREEN_DC*%
X70900000Y-54500000D03*
%TO.P,U1,5,RST*%
%TO.N,SCREEN_RST*%
X68350000Y-54500000D03*
%TO.P,U1,4,SDA*%
%TO.N,SPI_MOSI*%
X65800000Y-54500000D03*
%TO.P,U1,3,SCL*%
%TO.N,SPI_SCK*%
X63250000Y-54500000D03*
%TO.P,U1,2,VCC*%
%TO.N,E_VCC*%
X60700000Y-54500000D03*
D12*
%TO.P,U1,1,GND*%
%TO.N,GND*%
X58150000Y-54500000D03*
%TD*%
D10*
%TO.P,SW1,S2,S2*%
%TO.N,GND*%
X60000000Y-42900000D03*
%TO.P,SW1,S1,S1*%
%TO.N,ENC_SW*%
X60000000Y-37900000D03*
D13*
%TO.P,SW1,MP*%
%TO.N,N/C*%
X67000000Y-34800000D03*
X67000000Y-46000000D03*
D10*
%TO.P,SW1,C,C*%
%TO.N,GND*%
X74500000Y-40400000D03*
%TO.P,SW1,B,B*%
%TO.N,ENC_DT*%
X74500000Y-37900000D03*
D14*
%TO.P,SW1,A,A*%
%TO.N,ENC_CLK*%
X74500000Y-42900000D03*
%TD*%
D15*
%TO.P,R3,1*%
%TO.N,E_VCC*%
X78250000Y-52080000D03*
%TO.P,R3,2*%
%TO.N,ENC_SW*%
X78250000Y-41920000D03*
%TD*%
D16*
%TO.P,J4,1,Pin_1*%
%TO.N,MOTOR+*%
X81000000Y-217500000D03*
D17*
%TO.P,J4,2,Pin_2*%
%TO.N,MOTOR-*%
X81000000Y-219500000D03*
%TD*%
D16*
%TO.P,J6,1,Pin_1*%
%TO.N,MOTOR+*%
X81000000Y-207500000D03*
D17*
%TO.P,J6,2,Pin_2*%
%TO.N,MOTOR-*%
X81000000Y-205500000D03*
%TD*%
D15*
%TO.P,R2,1*%
%TO.N,E_VCC*%
X62170000Y-51500000D03*
%TO.P,R2,2*%
%TO.N,ENC_DT*%
X72330000Y-51500000D03*
%TD*%
%TO.P,R1,1*%
%TO.N,E_VCC*%
X56750000Y-51750000D03*
%TO.P,R1,2*%
%TO.N,ENC_CLK*%
X56750000Y-41590000D03*
%TD*%
D16*
%TO.P,J2,1,Pin_1*%
%TO.N,GND*%
X82500000Y-43500000D03*
D17*
%TO.P,J2,2,Pin_2*%
%TO.N,E_VCC*%
X82500000Y-45500000D03*
%TO.P,J2,3,Pin_3*%
%TO.N,SPI_SCK*%
X82500000Y-47500000D03*
%TO.P,J2,4,Pin_4*%
%TO.N,SPI_MOSI*%
X82500000Y-49500000D03*
%TO.P,J2,5,Pin_5*%
%TO.N,SCR_BL_PWM*%
X82500000Y-51500000D03*
%TD*%
D16*
%TO.P,J1,1,Pin_1*%
%TO.N,GND*%
X64000000Y-62000000D03*
D17*
%TO.P,J1,2,Pin_2*%
%TO.N,E_VCC*%
X66000000Y-62000000D03*
%TO.P,J1,3,Pin_3*%
%TO.N,SCREEN_CS*%
X68000000Y-62000000D03*
%TO.P,J1,4,Pin_4*%
%TO.N,SCREEN_DC*%
X70000000Y-62000000D03*
%TO.P,J1,5,Pin_5*%
%TO.N,ENC_CLK*%
X72000000Y-62000000D03*
%TO.P,J1,6,Pin_6*%
%TO.N,ENC_DT*%
X74000000Y-62000000D03*
%TO.P,J1,7,Pin_7*%
%TO.N,ENC_SW*%
X76000000Y-62000000D03*
%TO.P,J1,8,Pin_8*%
%TO.N,FADER_OUT*%
X78000000Y-62000000D03*
%TO.P,J1,9,Pin_9*%
%TO.N,SCREEN_RST*%
X80000000Y-62000000D03*
%TD*%
D15*
%TO.P,C1,1*%
%TO.N,GND*%
X55750000Y-62000000D03*
%TO.P,C1,2*%
%TO.N,E_VCC*%
X60750000Y-62000000D03*
%TD*%
D16*
%TO.P,J3,1,Pin_1*%
%TO.N,GND*%
X52000000Y-43500000D03*
D17*
%TO.P,J3,2,Pin_2*%
%TO.N,E_VCC*%
X52000000Y-45500000D03*
%TO.P,J3,3,Pin_3*%
%TO.N,SPI_SCK*%
X52000000Y-47500000D03*
%TO.P,J3,4,Pin_4*%
%TO.N,SPI_MOSI*%
X52000000Y-49500000D03*
%TO.P,J3,5,Pin_5*%
%TO.N,SCR_BL_PWM*%
X52000000Y-51500000D03*
%TD*%
D18*
%TO.N,SCREEN_RST*%
X69322100Y-59154600D03*
%TO.N,SPI_SCK*%
X63314300Y-48744100D03*
%TD*%
D19*
%TO.N,SCREEN_RST*%
X77154600Y-59154600D02*
X80000000Y-62000000D01*
X69322100Y-59154600D02*
X77154600Y-59154600D01*
%TO.N,SPI_MOSI*%
X58583400Y-49500000D02*
X52000000Y-49500000D01*
X61816900Y-52733500D02*
X58583400Y-49500000D01*
X64033500Y-52733500D02*
X61816900Y-52733500D01*
X65800000Y-54500000D02*
X64033500Y-52733500D01*
X78809000Y-53191000D02*
X82500000Y-49500000D01*
X76317600Y-53191000D02*
X78809000Y-53191000D01*
X76017500Y-52890900D02*
X76317600Y-53191000D01*
X67409100Y-52890900D02*
X76017500Y-52890900D01*
X65800000Y-54500000D02*
X67409100Y-52890900D01*
%TO.N,SCR_BL_PWM*%
X78685400Y-54500000D02*
X76000000Y-54500000D01*
X81685400Y-51500000D02*
X78685400Y-54500000D01*
X82500000Y-51500000D02*
X81685400Y-51500000D01*
X53773900Y-53273900D02*
X52000000Y-51500000D01*
X58904200Y-53273900D02*
X53773900Y-53273900D01*
X59510800Y-53880500D02*
X58904200Y-53273900D01*
X59510800Y-54965600D02*
X59510800Y-53880500D01*
X60202500Y-55657300D02*
X59510800Y-54965600D01*
X71428200Y-55657300D02*
X60202500Y-55657300D01*
X72051700Y-55033800D02*
X71428200Y-55657300D01*
X72051700Y-54194500D02*
X72051700Y-55033800D01*
X72947000Y-53299200D02*
X72051700Y-54194500D01*
X74799200Y-53299200D02*
X72947000Y-53299200D01*
X76000000Y-54500000D02*
X74799200Y-53299200D01*
%TO.N,SPI_SCK*%
X50975200Y-48524800D02*
X52000000Y-47500000D01*
X50975200Y-49913900D02*
X50975200Y-48524800D01*
X51561300Y-50500000D02*
X50975200Y-49913900D01*
X57733400Y-50500000D02*
X51561300Y-50500000D01*
X59783400Y-52550000D02*
X57733400Y-50500000D01*
X61065400Y-52550000D02*
X59783400Y-52550000D01*
X63015400Y-54500000D02*
X61065400Y-52550000D01*
X63250000Y-54500000D02*
X63015400Y-54500000D01*
X83499400Y-46500600D02*
X82500000Y-47500000D01*
X83499400Y-45116600D02*
X83499400Y-46500600D01*
X82906100Y-44523300D02*
X83499400Y-45116600D01*
X81926700Y-44523300D02*
X82906100Y-44523300D01*
X77705900Y-48744100D02*
X81926700Y-44523300D01*
X63314300Y-48744100D02*
X77705900Y-48744100D01*
%TO.N,SCREEN_CS*%
X68000000Y-59625900D02*
X68000000Y-62000000D01*
X69073000Y-58552900D02*
X68000000Y-59625900D01*
X69397100Y-58552900D02*
X69073000Y-58552900D01*
X73450000Y-54500000D02*
X69397100Y-58552900D01*
%TO.N,ENC_CLK*%
X71888300Y-41590000D02*
X73198300Y-42900000D01*
X56750000Y-41590000D02*
X71888300Y-41590000D01*
X74500000Y-42900000D02*
X73198300Y-42900000D01*
%TO.N,ENC_SW*%
X78250000Y-39802300D02*
X78250000Y-41920000D01*
X75025800Y-36578100D02*
X78250000Y-39802300D01*
X61321900Y-36578100D02*
X75025800Y-36578100D01*
X60000000Y-37900000D02*
X61321900Y-36578100D01*
%TO.N,E_VCC*%
X65023300Y-62976700D02*
X66000000Y-62000000D01*
X61726700Y-62976700D02*
X65023300Y-62976700D01*
X60750000Y-62000000D02*
X61726700Y-62976700D01*
X78250000Y-52080000D02*
X78250000Y-49750000D01*
X57950000Y-51750000D02*
X56750000Y-51750000D01*
X60700000Y-54500000D02*
X57950000Y-51750000D01*
X78250000Y-49750000D02*
X82500000Y-45500000D01*
X62170000Y-49750000D02*
X78250000Y-49750000D01*
X57920000Y-45500000D02*
X62170000Y-49750000D01*
X52000000Y-45500000D02*
X57920000Y-45500000D01*
X62170000Y-49750000D02*
X62170000Y-51500000D01*
%TO.N,GND*%
X64000000Y-62000000D02*
X63023300Y-62000000D01*
X61889300Y-60866000D02*
X63023300Y-62000000D01*
X58150000Y-60866000D02*
X61889300Y-60866000D01*
X58150000Y-54500000D02*
X58150000Y-60866000D01*
X56884000Y-60866000D02*
X58150000Y-60866000D01*
X55750000Y-62000000D02*
X56884000Y-60866000D01*
X59400000Y-43500000D02*
X52000000Y-43500000D01*
X60000000Y-42900000D02*
X59400000Y-43500000D01*
X77600000Y-43500000D02*
X76970500Y-42870500D01*
X82500000Y-43500000D02*
X77600000Y-43500000D01*
X75639300Y-44201700D02*
X76970500Y-42870500D01*
X61301700Y-44201700D02*
X75639300Y-44201700D01*
X60000000Y-42900000D02*
X61301700Y-44201700D01*
X76970500Y-42870500D02*
X74500000Y-40400000D01*
%TD*%
M02*
