%TF.GenerationSoftware,KiCad,Pcbnew,9.0.3*%
%TF.CreationDate,2026-02-12T15:23:42+01:00*%
%TF.ProjectId,Arduino Shield,41726475-696e-46f2-9053-6869656c642e,rev?*%
%TF.SameCoordinates,Original*%
%TF.FileFunction,Copper,L1,Top*%
%TF.FilePolarity,Positive*%
%FSLAX46Y46*%
G04 Gerber Fmt 4.6, Leading zero omitted, Abs format (unit mm)*
G04 Created by KiCad (PCBNEW 9.0.3) date 2026-02-12 15:23:42*
%MOMM*%
%LPD*%
G01*
G04 APERTURE LIST*
G04 Aperture macros list*
%AMRoundRect*
0 Rectangle with rounded corners*
0 $1 Rounding radius*
0 $2 $3 $4 $5 $6 $7 $8 $9 X,Y pos of 4 corners*
0 Add a 4 corners polygon primitive as box body*
4,1,4,$2,$3,$4,$5,$6,$7,$8,$9,$2,$3,0*
0 Add four circle primitives for the rounded corners*
1,1,$1+$1,$2,$3*
1,1,$1+$1,$4,$5*
1,1,$1+$1,$6,$7*
1,1,$1+$1,$8,$9*
0 Add four rect primitives between the rounded corners*
20,1,$1+$1,$2,$3,$4,$5,0*
20,1,$1+$1,$4,$5,$6,$7,0*
20,1,$1+$1,$6,$7,$8,$9,0*
20,1,$1+$1,$8,$9,$2,$3,0*%
G04 Aperture macros list end*
%TA.AperFunction,ComponentPad*%
%ADD10R,1.700000X1.700000*%
%TD*%
%TA.AperFunction,ComponentPad*%
%ADD11O,1.700000X1.700000*%
%TD*%
%TA.AperFunction,ComponentPad*%
%ADD12RoundRect,0.675000X0.675000X-0.675000X0.675000X0.675000X-0.675000X0.675000X-0.675000X-0.675000X0*%
%TD*%
%TA.AperFunction,ComponentPad*%
%ADD13C,2.700000*%
%TD*%
%TA.AperFunction,ComponentPad*%
%ADD14C,1.600000*%
%TD*%
%TA.AperFunction,ComponentPad*%
%ADD15R,1.350000X1.350000*%
%TD*%
%TA.AperFunction,ComponentPad*%
%ADD16C,1.350000*%
%TD*%
%TA.AperFunction,ComponentPad*%
%ADD17RoundRect,0.250000X0.550000X-0.550000X0.550000X0.550000X-0.550000X0.550000X-0.550000X-0.550000X0*%
%TD*%
%TA.AperFunction,ComponentPad*%
%ADD18RoundRect,0.250000X-1.350000X-1.350000X1.350000X-1.350000X1.350000X1.350000X-1.350000X1.350000X0*%
%TD*%
%TA.AperFunction,ComponentPad*%
%ADD19C,3.200000*%
%TD*%
%TA.AperFunction,ViaPad*%
%ADD20C,0.600000*%
%TD*%
%TA.AperFunction,Conductor*%
%ADD21C,0.250000*%
%TD*%
G04 APERTURE END LIST*
D10*
%TO.P,J7,1,Pin_1*%
%TO.N,GND*%
X193980000Y-92380000D03*
D11*
%TO.P,J7,2,Pin_2*%
X196520000Y-92380000D03*
%TO.P,J7,3,Pin_3*%
%TO.N,SPI_SCK*%
X193980000Y-89840000D03*
%TO.P,J7,4,Pin_4*%
%TO.N,SD_CS*%
X196520000Y-89840000D03*
%TO.P,J7,5,Pin_5*%
%TO.N,SPI_MISO*%
X193980000Y-87300000D03*
%TO.P,J7,6,Pin_6*%
%TO.N,SPI_MOSI*%
X196520000Y-87300000D03*
%TO.P,J7,7,Pin_7*%
%TO.N,SHARED_RST*%
X193980000Y-84760000D03*
%TO.P,J7,8,Pin_8*%
%TO.N,CH_MAIN_SCR_DC*%
X196520000Y-84760000D03*
%TO.P,J7,9,Pin_9*%
%TO.N,CH5_ENC_SW*%
X193980000Y-82220000D03*
%TO.P,J7,10,Pin_10*%
%TO.N,/47*%
X196520000Y-82220000D03*
%TO.P,J7,11,Pin_11*%
%TO.N,CH5_ENC_CLK*%
X193980000Y-79680000D03*
%TO.P,J7,12,Pin_12*%
%TO.N,CH5_ENC_DT*%
X196520000Y-79680000D03*
%TO.P,J7,13,Pin_13*%
%TO.N,CH5_SCR_CS*%
X193980000Y-77140000D03*
%TO.P,J7,14,Pin_14*%
%TO.N,CH5_SCR_DC*%
X196520000Y-77140000D03*
%TO.P,J7,15,Pin_15*%
%TO.N,CH4_ENC_DT*%
X193980000Y-74600000D03*
%TO.P,J7,16,Pin_16*%
%TO.N,CH4_ENC_SW*%
X196520000Y-74600000D03*
%TO.P,J7,17,Pin_17*%
%TO.N,CH4_SCR_DC*%
X193980000Y-72060000D03*
%TO.P,J7,18,Pin_18*%
%TO.N,CH4_ENC_CLK*%
X196520000Y-72060000D03*
%TO.P,J7,19,Pin_19*%
%TO.N,CH3_ENC_SW*%
X193980000Y-69520000D03*
%TO.P,J7,20,Pin_20*%
%TO.N,CH4_SCR_CS*%
X196520000Y-69520000D03*
%TO.P,J7,21,Pin_21*%
%TO.N,CH3_ENC_CLK*%
X193980000Y-66980000D03*
%TO.P,J7,22,Pin_22*%
%TO.N,CH3_ENC_DT*%
X196520000Y-66980000D03*
%TO.P,J7,23,Pin_23*%
%TO.N,CH3_SCR_CS*%
X193980000Y-64440000D03*
%TO.P,J7,24,Pin_24*%
%TO.N,CH3_SCR_DC*%
X196520000Y-64440000D03*
%TO.P,J7,25,Pin_25*%
%TO.N,CH2_ENC_DT*%
X193980000Y-61900000D03*
%TO.P,J7,26,Pin_26*%
%TO.N,CH2_ENC_SW*%
X196520000Y-61900000D03*
%TO.P,J7,27,Pin_27*%
%TO.N,CH2_SCR_DC*%
X193980000Y-59360000D03*
%TO.P,J7,28,Pin_28*%
%TO.N,CH2_ENC_CLK*%
X196520000Y-59360000D03*
%TO.P,J7,29,Pin_29*%
%TO.N,CH1_ENC_SW*%
X193980000Y-56820000D03*
%TO.P,J7,30,Pin_30*%
%TO.N,CH2_SCR_CS*%
X196520000Y-56820000D03*
%TO.P,J7,31,Pin_31*%
%TO.N,CH1_ENC_CLK*%
X193980000Y-54280000D03*
%TO.P,J7,32,Pin_32*%
%TO.N,CH1_ENC_DT*%
X196520000Y-54280000D03*
%TO.P,J7,33,Pin_33*%
%TO.N,CH1_SCR_CS*%
X193980000Y-51740000D03*
%TO.P,J7,34,Pin_34*%
%TO.N,CH1_SCR_DC*%
X196520000Y-51740000D03*
%TO.P,J7,35,Pin_35*%
%TO.N,+5V*%
X193980000Y-49200000D03*
%TO.P,J7,36,Pin_36*%
X196520000Y-49200000D03*
%TD*%
D10*
%TO.P,J1,1,Pin_1*%
%TO.N,unconnected-(J1-Pin_1-Pad1)*%
X127940000Y-97460000D03*
D11*
%TO.P,J1,2,Pin_2*%
%TO.N,/IOREF*%
X130480000Y-97460000D03*
%TO.P,J1,3,Pin_3*%
%TO.N,/~{RESET}*%
X133020000Y-97460000D03*
%TO.P,J1,4,Pin_4*%
%TO.N,+3V3*%
X135560000Y-97460000D03*
%TO.P,J1,5,Pin_5*%
%TO.N,+5V*%
X138100000Y-97460000D03*
%TO.P,J1,6,Pin_6*%
%TO.N,GND*%
X140640000Y-97460000D03*
%TO.P,J1,7,Pin_7*%
X143180000Y-97460000D03*
%TO.P,J1,8,Pin_8*%
%TO.N,VCC*%
X145720000Y-97460000D03*
%TD*%
D10*
%TO.P,J3,1,Pin_1*%
%TO.N,CH1_FADER_OUT*%
X150800000Y-97460000D03*
D11*
%TO.P,J3,2,Pin_2*%
%TO.N,CH2_FADER_OUT*%
X153340000Y-97460000D03*
%TO.P,J3,3,Pin_3*%
%TO.N,CH3_FADER_OUT*%
X155880000Y-97460000D03*
%TO.P,J3,4,Pin_4*%
%TO.N,CH4_FADER_OUT*%
X158420000Y-97460000D03*
%TO.P,J3,5,Pin_5*%
%TO.N,CH5_FADER_OUT*%
X160960000Y-97460000D03*
%TO.P,J3,6,Pin_6*%
%TO.N,CH_MAIN_SCR_CS*%
X163500000Y-97460000D03*
%TO.P,J3,7,Pin_7*%
%TO.N,CH_MAIN_ENC_CLK*%
X166040000Y-97460000D03*
%TO.P,J3,8,Pin_8*%
%TO.N,CH_MAIN_ENC_DT*%
X168580000Y-97460000D03*
%TD*%
D10*
%TO.P,J5,1,Pin_1*%
%TO.N,CH_MAIN_ENC_SW*%
X173660000Y-97460000D03*
D11*
%TO.P,J5,2,Pin_2*%
%TO.N,/A9*%
X176200000Y-97460000D03*
%TO.P,J5,3,Pin_3*%
%TO.N,/A10*%
X178740000Y-97460000D03*
%TO.P,J5,4,Pin_4*%
%TO.N,/A11*%
X181280000Y-97460000D03*
%TO.P,J5,5,Pin_5*%
%TO.N,/A12*%
X183820000Y-97460000D03*
%TO.P,J5,6,Pin_6*%
%TO.N,/A13*%
X186360000Y-97460000D03*
%TO.P,J5,7,Pin_7*%
%TO.N,/A14*%
X188900000Y-97460000D03*
%TO.P,J5,8,Pin_8*%
%TO.N,/A15*%
X191440000Y-97460000D03*
%TD*%
D10*
%TO.P,J2,1,Pin_1*%
%TO.N,/SCL{slash}21*%
X118796000Y-49200000D03*
D11*
%TO.P,J2,2,Pin_2*%
%TO.N,/SDA{slash}20*%
X121336000Y-49200000D03*
%TO.P,J2,3,Pin_3*%
%TO.N,/AREF*%
X123876000Y-49200000D03*
%TO.P,J2,4,Pin_4*%
%TO.N,GND*%
X126416000Y-49200000D03*
%TO.P,J2,5,Pin_5*%
X128956000Y-49200000D03*
%TO.P,J2,6,Pin_6*%
%TO.N,SCR_BL_PWM*%
X131496000Y-49200000D03*
%TO.P,J2,7,Pin_7*%
%TO.N,CH5_MOTOR_B*%
X134036000Y-49200000D03*
%TO.P,J2,8,Pin_8*%
%TO.N,CH5_MOTOR_A*%
X136576000Y-49200000D03*
%TO.P,J2,9,Pin_9*%
%TO.N,CH4_MOTOR_B*%
X139116000Y-49200000D03*
%TO.P,J2,10,Pin_10*%
%TO.N,CH4_MOTOR_A*%
X141656000Y-49200000D03*
%TD*%
D10*
%TO.P,J4,1,Pin_1*%
%TO.N,CH3_MOTOR_B*%
X145720000Y-49200000D03*
D11*
%TO.P,J4,2,Pin_2*%
%TO.N,CH3_MOTOR_A*%
X148260000Y-49200000D03*
%TO.P,J4,3,Pin_3*%
%TO.N,CH2_MOTOR_B*%
X150800000Y-49200000D03*
%TO.P,J4,4,Pin_4*%
%TO.N,CH2_MOTOR_A*%
X153340000Y-49200000D03*
%TO.P,J4,5,Pin_5*%
%TO.N,CH1_MOTOR_B*%
X155880000Y-49200000D03*
%TO.P,J4,6,Pin_6*%
%TO.N,CH1_MOTOR_A*%
X158420000Y-49200000D03*
%TO.P,J4,7,Pin_7*%
%TO.N,/TX0{slash}1*%
X160960000Y-49200000D03*
%TO.P,J4,8,Pin_8*%
%TO.N,/RX0{slash}0*%
X163500000Y-49200000D03*
%TD*%
D10*
%TO.P,J6,1,Pin_1*%
%TO.N,/TX3{slash}14*%
X168580000Y-49200000D03*
D11*
%TO.P,J6,2,Pin_2*%
%TO.N,/RX3{slash}15*%
X171120000Y-49200000D03*
%TO.P,J6,3,Pin_3*%
%TO.N,/TX2{slash}16*%
X173660000Y-49200000D03*
%TO.P,J6,4,Pin_4*%
%TO.N,/RX2{slash}17*%
X176200000Y-49200000D03*
%TO.P,J6,5,Pin_5*%
%TO.N,/TX1{slash}18*%
X178740000Y-49200000D03*
%TO.P,J6,6,Pin_6*%
%TO.N,/RX1{slash}19*%
X181280000Y-49200000D03*
%TO.P,J6,7,Pin_7*%
%TO.N,/SDA{slash}20*%
X183820000Y-49200000D03*
%TO.P,J6,8,Pin_8*%
%TO.N,/SCL{slash}21*%
X186360000Y-49200000D03*
%TD*%
D12*
%TO.P,F1,1*%
%TO.N,Net-(D1-A)*%
X184000000Y-82800000D03*
X184000000Y-76040000D03*
D13*
%TO.P,F1,2*%
%TO.N,Net-(J18-Pin_1)*%
X184000000Y-68760000D03*
X184000000Y-62000000D03*
%TD*%
D14*
%TO.P,C7,1*%
%TO.N,E_VCC*%
X147000000Y-65500000D03*
%TO.P,C7,2*%
%TO.N,GND*%
X147000000Y-60500000D03*
%TD*%
%TO.P,C14,1*%
%TO.N,GND*%
X114000000Y-68500000D03*
%TO.P,C14,2*%
%TO.N,E_VCC*%
X109000000Y-68500000D03*
%TD*%
D15*
%TO.P,J8,1,Pin_1*%
%TO.N,GND*%
X133000000Y-82500000D03*
D16*
%TO.P,J8,2,Pin_2*%
%TO.N,E_VCC*%
X131000000Y-82500000D03*
%TO.P,J8,3,Pin_3*%
%TO.N,SPI_SCK*%
X129000000Y-82500000D03*
%TO.P,J8,4,Pin_4*%
%TO.N,SPI_MOSI*%
X127000000Y-82500000D03*
%TO.P,J8,5,Pin_5*%
%TO.N,SHARED_RST*%
X125000000Y-82500000D03*
%TO.P,J8,6,Pin_6*%
%TO.N,SCR_BL_PWM*%
X123000000Y-82500000D03*
%TD*%
D15*
%TO.P,J15,1,Pin_1*%
%TO.N,CH5_MOTOR_A*%
X152500000Y-77000000D03*
D16*
%TO.P,J15,2,Pin_2*%
%TO.N,CH5_MOTOR_B*%
X152500000Y-79000000D03*
%TO.P,J15,3,Pin_3*%
%TO.N,unconnected-(J15-Pin_3-Pad3)*%
X152500000Y-81000000D03*
%TO.P,J15,4,Pin_4*%
%TO.N,unconnected-(J15-Pin_4-Pad4)*%
X152500000Y-83000000D03*
%TD*%
D17*
%TO.P,C2,1*%
%TO.N,E_VCC*%
X172500000Y-70000000D03*
D14*
%TO.P,C2,2*%
%TO.N,GND*%
X172500000Y-66500000D03*
%TD*%
D15*
%TO.P,J21,1,Pin_1*%
%TO.N,GND*%
X147000000Y-70000000D03*
D16*
%TO.P,J21,2,Pin_2*%
%TO.N,E_VCC*%
X147000000Y-72000000D03*
%TD*%
D15*
%TO.P,J12,1,Pin_1*%
%TO.N,GND*%
X133000000Y-68000000D03*
D16*
%TO.P,J12,2,Pin_2*%
%TO.N,E_VCC*%
X131000000Y-68000000D03*
%TO.P,J12,3,Pin_3*%
%TO.N,CH4_SCR_CS*%
X129000000Y-68000000D03*
%TO.P,J12,4,Pin_4*%
%TO.N,CH4_SCR_DC*%
X127000000Y-68000000D03*
%TO.P,J12,5,Pin_5*%
%TO.N,CH4_ENC_CLK*%
X125000000Y-68000000D03*
%TO.P,J12,6,Pin_6*%
%TO.N,CH4_ENC_DT*%
X123000000Y-68000000D03*
%TO.P,J12,7,Pin_7*%
%TO.N,CH4_ENC_SW*%
X121000000Y-68000000D03*
%TO.P,J12,8,Pin_8*%
%TO.N,CH4_FADER_OUT*%
X119000000Y-68000000D03*
%TD*%
D15*
%TO.P,J11,1,Pin_1*%
%TO.N,GND*%
X133000000Y-63000000D03*
D16*
%TO.P,J11,2,Pin_2*%
%TO.N,E_VCC*%
X131000000Y-63000000D03*
%TO.P,J11,3,Pin_3*%
%TO.N,CH3_SCR_CS*%
X129000000Y-63000000D03*
%TO.P,J11,4,Pin_4*%
%TO.N,CH3_SCR_DC*%
X127000000Y-63000000D03*
%TO.P,J11,5,Pin_5*%
%TO.N,CH3_ENC_CLK*%
X125000000Y-63000000D03*
%TO.P,J11,6,Pin_6*%
%TO.N,CH3_ENC_DT*%
X123000000Y-63000000D03*
%TO.P,J11,7,Pin_7*%
%TO.N,CH3_ENC_SW*%
X121000000Y-63000000D03*
%TO.P,J11,8,Pin_8*%
%TO.N,CH3_FADER_OUT*%
X119000000Y-63000000D03*
%TD*%
D14*
%TO.P,C6,1*%
%TO.N,GND*%
X140500000Y-65500000D03*
%TO.P,C6,2*%
%TO.N,E_VCC*%
X140500000Y-60500000D03*
%TD*%
D17*
%TO.P,C3,1*%
%TO.N,E_VCC*%
X172500000Y-79500000D03*
D14*
%TO.P,C3,2*%
%TO.N,GND*%
X172500000Y-76000000D03*
%TD*%
D15*
%TO.P,J19,1,Pin_1*%
%TO.N,GND*%
X152500000Y-70000000D03*
D16*
%TO.P,J19,2,Pin_2*%
%TO.N,E_VCC*%
X152500000Y-72000000D03*
%TD*%
D15*
%TO.P,J9,1,Pin_1*%
%TO.N,GND*%
X133000000Y-53500000D03*
D16*
%TO.P,J9,2,Pin_2*%
%TO.N,E_VCC*%
X131000000Y-53500000D03*
%TO.P,J9,3,Pin_3*%
%TO.N,CH1_SCR_CS*%
X129000000Y-53500000D03*
%TO.P,J9,4,Pin_4*%
%TO.N,CH1_SCR_DC*%
X127000000Y-53500000D03*
%TO.P,J9,5,Pin_5*%
%TO.N,CH1_ENC_CLK*%
X125000000Y-53500000D03*
%TO.P,J9,6,Pin_6*%
%TO.N,CH1_ENC_DT*%
X123000000Y-53500000D03*
%TO.P,J9,7,Pin_7*%
%TO.N,CH1_ENC_SW*%
X121000000Y-53500000D03*
%TO.P,J9,8,Pin_8*%
%TO.N,CH1_FADER_OUT*%
X119000000Y-53500000D03*
%TD*%
D15*
%TO.P,J20,1,Pin_1*%
%TO.N,GND*%
X133000000Y-87000000D03*
D16*
%TO.P,J20,2,Pin_2*%
%TO.N,E_VCC*%
X131000000Y-87000000D03*
%TO.P,J20,3,Pin_3*%
%TO.N,SPI_MOSI*%
X129000000Y-87000000D03*
%TO.P,J20,4,Pin_4*%
%TO.N,SPI_MISO*%
X127000000Y-87000000D03*
%TO.P,J20,5,Pin_5*%
%TO.N,SPI_SCK*%
X125000000Y-87000000D03*
%TO.P,J20,6,Pin_6*%
%TO.N,SD_CS*%
X123000000Y-87000000D03*
%TD*%
D14*
%TO.P,C11,1*%
%TO.N,GND*%
X114000000Y-58500000D03*
%TO.P,C11,2*%
%TO.N,E_VCC*%
X109000000Y-58500000D03*
%TD*%
D15*
%TO.P,J16,1,Pin_1*%
%TO.N,CH3_MOTOR_A*%
X147000000Y-77000000D03*
D16*
%TO.P,J16,2,Pin_2*%
%TO.N,CH3_MOTOR_B*%
X147000000Y-79000000D03*
%TO.P,J16,3,Pin_3*%
%TO.N,CH4_MOTOR_A*%
X147000000Y-81000000D03*
%TO.P,J16,4,Pin_4*%
%TO.N,CH4_MOTOR_B*%
X147000000Y-83000000D03*
%TD*%
D14*
%TO.P,R1,1*%
%TO.N,Net-(J23-Pin_2)*%
X159000000Y-66920000D03*
%TO.P,R1,2*%
%TO.N,GND*%
X159000000Y-77080000D03*
%TD*%
%TO.P,C9,1*%
%TO.N,GND*%
X114000000Y-83000000D03*
%TO.P,C9,2*%
%TO.N,E_VCC*%
X109000000Y-83000000D03*
%TD*%
%TO.P,C12,1*%
%TO.N,GND*%
X114000000Y-63500000D03*
%TO.P,C12,2*%
%TO.N,E_VCC*%
X109000000Y-63500000D03*
%TD*%
D17*
%TO.P,C1,1*%
%TO.N,E_VCC*%
X172500000Y-59500000D03*
D14*
%TO.P,C1,2*%
%TO.N,GND*%
X172500000Y-56000000D03*
%TD*%
%TO.P,C10,1*%
%TO.N,GND*%
X114000000Y-53500000D03*
%TO.P,C10,2*%
%TO.N,E_VCC*%
X109000000Y-53500000D03*
%TD*%
D15*
%TO.P,J13,1,Pin_1*%
%TO.N,GND*%
X133000000Y-73000000D03*
D16*
%TO.P,J13,2,Pin_2*%
%TO.N,E_VCC*%
X131000000Y-73000000D03*
%TO.P,J13,3,Pin_3*%
%TO.N,CH5_SCR_CS*%
X129000000Y-73000000D03*
%TO.P,J13,4,Pin_4*%
%TO.N,CH5_SCR_DC*%
X127000000Y-73000000D03*
%TO.P,J13,5,Pin_5*%
%TO.N,CH5_ENC_CLK*%
X125000000Y-73000000D03*
%TO.P,J13,6,Pin_6*%
%TO.N,CH5_ENC_DT*%
X123000000Y-73000000D03*
%TO.P,J13,7,Pin_7*%
%TO.N,CH5_ENC_SW*%
X121000000Y-73000000D03*
%TO.P,J13,8,Pin_8*%
%TO.N,CH5_FADER_OUT*%
X119000000Y-73000000D03*
%TD*%
D15*
%TO.P,J22,1,Pin_1*%
%TO.N,GND*%
X140500000Y-70000000D03*
D16*
%TO.P,J22,2,Pin_2*%
%TO.N,E_VCC*%
X140500000Y-72000000D03*
%TD*%
D14*
%TO.P,C4,1*%
%TO.N,GND*%
X114000000Y-88000000D03*
%TO.P,C4,2*%
%TO.N,E_VCC*%
X109000000Y-88000000D03*
%TD*%
%TO.P,C13,1*%
%TO.N,GND*%
X114000000Y-73500000D03*
%TO.P,C13,2*%
%TO.N,E_VCC*%
X109000000Y-73500000D03*
%TD*%
D15*
%TO.P,J10,1,Pin_1*%
%TO.N,GND*%
X133000000Y-58500000D03*
D16*
%TO.P,J10,2,Pin_2*%
%TO.N,E_VCC*%
X131000000Y-58500000D03*
%TO.P,J10,3,Pin_3*%
%TO.N,CH2_SCR_CS*%
X129000000Y-58500000D03*
%TO.P,J10,4,Pin_4*%
%TO.N,CH2_SCR_DC*%
X127000000Y-58500000D03*
%TO.P,J10,5,Pin_5*%
%TO.N,CH2_ENC_CLK*%
X125000000Y-58500000D03*
%TO.P,J10,6,Pin_6*%
%TO.N,CH2_ENC_DT*%
X123000000Y-58500000D03*
%TO.P,J10,7,Pin_7*%
%TO.N,CH2_ENC_SW*%
X121000000Y-58500000D03*
%TO.P,J10,8,Pin_8*%
%TO.N,CH2_FADER_OUT*%
X119000000Y-58500000D03*
%TD*%
D18*
%TO.P,D1,1,K*%
%TO.N,E_VCC*%
X171880000Y-89500000D03*
D19*
%TO.P,D1,2,A*%
%TO.N,Net-(D1-A)*%
X187120000Y-89500000D03*
%TD*%
D14*
%TO.P,C8,1*%
%TO.N,E_VCC*%
X152500000Y-65500000D03*
%TO.P,C8,2*%
%TO.N,GND*%
X152500000Y-60500000D03*
%TD*%
D15*
%TO.P,J18,1,Pin_1*%
%TO.N,Net-(J18-Pin_1)*%
X162000000Y-58500000D03*
D16*
%TO.P,J18,2,Pin_2*%
%TO.N,GND*%
X162000000Y-56500000D03*
%TD*%
D14*
%TO.P,C15,1*%
%TO.N,GND*%
X114000000Y-78000000D03*
%TO.P,C15,2*%
%TO.N,E_VCC*%
X109000000Y-78000000D03*
%TD*%
D15*
%TO.P,J23,1,Pin_1*%
%TO.N,E_VCC*%
X162000000Y-84500000D03*
D16*
%TO.P,J23,2,Pin_2*%
%TO.N,Net-(J23-Pin_2)*%
X162000000Y-82500000D03*
%TD*%
D15*
%TO.P,J14,1,Pin_1*%
%TO.N,GND*%
X133000000Y-78000000D03*
D16*
%TO.P,J14,2,Pin_2*%
%TO.N,E_VCC*%
X131000000Y-78000000D03*
%TO.P,J14,3,Pin_3*%
%TO.N,CH_MAIN_SCR_CS*%
X129000000Y-78000000D03*
%TO.P,J14,4,Pin_4*%
%TO.N,CH_MAIN_SCR_DC*%
X127000000Y-78000000D03*
%TO.P,J14,5,Pin_5*%
%TO.N,CH_MAIN_ENC_CLK*%
X125000000Y-78000000D03*
%TO.P,J14,6,Pin_6*%
%TO.N,CH_MAIN_ENC_DT*%
X123000000Y-78000000D03*
%TO.P,J14,7,Pin_7*%
%TO.N,CH_MAIN_ENC_SW*%
X121000000Y-78000000D03*
%TO.P,J14,8,Pin_8*%
%TO.N,unconnected-(J14-Pin_8-Pad8)*%
X119000000Y-78000000D03*
%TD*%
D15*
%TO.P,J17,1,Pin_1*%
%TO.N,CH1_MOTOR_A*%
X140500000Y-77000000D03*
D16*
%TO.P,J17,2,Pin_2*%
%TO.N,CH1_MOTOR_B*%
X140500000Y-79000000D03*
%TO.P,J17,3,Pin_3*%
%TO.N,CH2_MOTOR_A*%
X140500000Y-81000000D03*
%TO.P,J17,4,Pin_4*%
%TO.N,CH2_MOTOR_B*%
X140500000Y-83000000D03*
%TD*%
D20*
%TO.N,CH1_MOTOR_B*%
X137378200Y-78116700D03*
X137659300Y-50283500D03*
%TO.N,CH1_MOTOR_A*%
X140910400Y-50376700D03*
%TO.N,CH4_MOTOR_B*%
X142268000Y-83365800D03*
%TO.N,CH5_MOTOR_B*%
X143315800Y-84800300D03*
%TO.N,CH5_MOTOR_A*%
X138401000Y-82676800D03*
%TO.N,CH_MAIN_SCR_CS*%
X160554500Y-84837800D03*
%TO.N,CH_MAIN_ENC_SW*%
X125350700Y-92663700D03*
%TO.N,CH_MAIN_ENC_CLK*%
X164188900Y-80677000D03*
%TO.N,CH_MAIN_ENC_DT*%
X170710200Y-95278000D03*
X126274500Y-90366900D03*
%TO.N,CH5_SCR_CS*%
X190586500Y-80815200D03*
X133676200Y-76203200D03*
%TO.N,CH5_SCR_DC*%
X135209700Y-88754800D03*
X190237300Y-87842100D03*
%TO.N,CH5_FADER_OUT*%
X123533700Y-94873800D03*
%TO.N,CH4_FADER_OUT*%
X126923700Y-99150000D03*
%TO.N,CH4_ENC_CLK*%
X192840400Y-70567200D03*
%TO.N,CH3_FADER_OUT*%
X120659100Y-95653400D03*
%TO.N,CH3_SCR_DC*%
X127362300Y-60180900D03*
X191223100Y-61046600D03*
%TO.N,CH2_ENC_DT*%
X159637000Y-56873800D03*
X164275300Y-61508800D03*
%TO.N,CH2_FADER_OUT*%
X119234200Y-96339500D03*
%TO.N,CH1_FADER_OUT*%
X117449100Y-95923700D03*
%TO.N,SPI_SCK*%
X127821400Y-84241300D03*
%TO.N,SCR_BL_PWM*%
X135582500Y-81843200D03*
%TO.N,Net-(J18-Pin_1)*%
X161507500Y-61057100D03*
%TO.N,+5V*%
X153246400Y-51497500D03*
%TO.N,E_VCC*%
X130095500Y-76488400D03*
X132332200Y-75704900D03*
%TO.N,GND*%
X140499600Y-62984200D03*
%TD*%
D21*
%TO.N,SD_CS*%
X196520000Y-89840000D02*
X195343300Y-89840000D01*
X125432400Y-89432400D02*
X123000000Y-87000000D01*
X166570500Y-89432400D02*
X125432400Y-89432400D01*
X168433800Y-87569100D02*
X166570500Y-89432400D01*
X187914000Y-87569100D02*
X168433800Y-87569100D01*
X191361600Y-91016700D02*
X187914000Y-87569100D01*
X194534400Y-91016700D02*
X191361600Y-91016700D01*
X195343300Y-90207800D02*
X194534400Y-91016700D01*
X195343300Y-89840000D02*
X195343300Y-90207800D01*
%TO.N,SPI_MISO*%
X193980000Y-87300000D02*
X192803300Y-87300000D01*
X128058200Y-88058200D02*
X127000000Y-87000000D01*
X134381300Y-88058200D02*
X128058200Y-88058200D01*
X134763100Y-87676400D02*
X134381300Y-88058200D01*
X165515200Y-87676400D02*
X134763100Y-87676400D01*
X165897000Y-88058200D02*
X165515200Y-87676400D01*
X165913600Y-88041600D02*
X165897000Y-88058200D01*
X165913600Y-88041600D02*
X165897000Y-88058200D01*
X167290500Y-86664800D02*
X167555100Y-86400200D01*
X167290400Y-86664800D02*
X167290500Y-86664800D01*
X165913600Y-88041600D02*
X167290400Y-86664800D01*
X192169000Y-86665700D02*
X192803300Y-87300000D01*
X189597400Y-86665700D02*
X192169000Y-86665700D01*
X189145700Y-86214000D02*
X189597400Y-86665700D01*
X167741300Y-86214000D02*
X189145700Y-86214000D01*
X167555100Y-86400200D02*
X167741300Y-86214000D01*
X167555100Y-86400200D02*
X167741300Y-86214000D01*
%TO.N,CH1_MOTOR_B*%
X139616700Y-78116700D02*
X137378200Y-78116700D01*
X140500000Y-79000000D02*
X139616700Y-78116700D01*
X154703300Y-48832200D02*
X154703300Y-49200000D01*
X153894400Y-48023300D02*
X154703300Y-48832200D01*
X138624500Y-48023300D02*
X153894400Y-48023300D01*
X137846000Y-48801800D02*
X138624500Y-48023300D01*
X137846000Y-50096800D02*
X137846000Y-48801800D01*
X137659300Y-50283500D02*
X137846000Y-50096800D01*
X155880000Y-49200000D02*
X154703300Y-49200000D01*
X137659300Y-50283500D02*
X137846000Y-50096800D01*
X137846000Y-50096800D02*
X137659300Y-50283500D01*
%TO.N,CH1_MOTOR_A*%
X157243300Y-49503700D02*
X157243300Y-49200000D01*
X156370300Y-50376700D02*
X157243300Y-49503700D01*
X140910400Y-50376700D02*
X156370300Y-50376700D01*
X158420000Y-49200000D02*
X157243300Y-49200000D01*
%TO.N,CH4_MOTOR_B*%
X146634200Y-83365800D02*
X147000000Y-83000000D01*
X142268000Y-83365800D02*
X146634200Y-83365800D01*
%TO.N,CH5_MOTOR_B*%
X143541500Y-84574600D02*
X143315800Y-84800300D01*
X147560300Y-84574600D02*
X143541500Y-84574600D01*
X148788900Y-83346000D02*
X147560300Y-84574600D01*
X148788900Y-82711100D02*
X148788900Y-83346000D01*
X152500000Y-79000000D02*
X148788900Y-82711100D01*
%TO.N,CH5_MOTOR_A*%
X139785800Y-84061600D02*
X138401000Y-82676800D01*
X147355100Y-84061600D02*
X139785800Y-84061600D01*
X148001700Y-83415000D02*
X147355100Y-84061600D01*
X148001700Y-81498300D02*
X148001700Y-83415000D01*
X152500000Y-77000000D02*
X148001700Y-81498300D01*
%TO.N,CH_MAIN_SCR_CS*%
X160366000Y-85026300D02*
X160554500Y-84837800D01*
X143976200Y-85026300D02*
X160366000Y-85026300D01*
X143575400Y-85427100D02*
X143976200Y-85026300D01*
X143056400Y-85427100D02*
X143575400Y-85427100D01*
X142880600Y-85251300D02*
X143056400Y-85427100D01*
X142614500Y-85251300D02*
X142880600Y-85251300D01*
X142389500Y-85026300D02*
X142614500Y-85251300D01*
X139811800Y-85026300D02*
X142389500Y-85026300D01*
X137322400Y-82536900D02*
X139811800Y-85026300D01*
X137322400Y-82057800D02*
X137322400Y-82536900D01*
X135526300Y-80261700D02*
X137322400Y-82057800D01*
X131261600Y-80261700D02*
X135526300Y-80261700D01*
X131261600Y-80261600D02*
X131261600Y-80261700D01*
X129000000Y-78000000D02*
X131261600Y-80261600D01*
%TO.N,CH_MAIN_ENC_SW*%
X173660000Y-97460000D02*
X172483300Y-97460000D01*
X161935800Y-92663700D02*
X125350700Y-92663700D01*
X165206200Y-95934100D02*
X161935800Y-92663700D01*
X170957400Y-95934100D02*
X165206200Y-95934100D01*
X172483300Y-97460000D02*
X170957400Y-95934100D01*
%TO.N,CH_MAIN_SCR_DC*%
X196520000Y-84760000D02*
X195343300Y-84760000D01*
X195343300Y-84392200D02*
X195343300Y-84760000D01*
X194534400Y-83583300D02*
X195343300Y-84392200D01*
X186622300Y-83583300D02*
X194534400Y-83583300D01*
X185445600Y-84760000D02*
X186622300Y-83583300D01*
X163658200Y-84760000D02*
X185445600Y-84760000D01*
X162883300Y-85534900D02*
X163658200Y-84760000D01*
X148911900Y-85534900D02*
X162883300Y-85534900D01*
X148855000Y-85478000D02*
X148911900Y-85534900D01*
X144163400Y-85478000D02*
X148855000Y-85478000D01*
X143762600Y-85878800D02*
X144163400Y-85478000D01*
X142869300Y-85878800D02*
X143762600Y-85878800D01*
X142693500Y-85703000D02*
X142869300Y-85878800D01*
X142427400Y-85703000D02*
X142693500Y-85703000D01*
X142202400Y-85478000D02*
X142427400Y-85703000D01*
X139544800Y-85478000D02*
X142202400Y-85478000D01*
X136277700Y-82210900D02*
X139544800Y-85478000D01*
X136277700Y-81651900D02*
X136277700Y-82210900D01*
X135575400Y-80949600D02*
X136277700Y-81651900D01*
X129949600Y-80949600D02*
X135575400Y-80949600D01*
X127000000Y-78000000D02*
X129949600Y-80949600D01*
%TO.N,CH_MAIN_ENC_CLK*%
X157989100Y-80677000D02*
X164188900Y-80677000D01*
X153256200Y-75944100D02*
X157989100Y-80677000D01*
X138717500Y-75944100D02*
X153256200Y-75944100D01*
X137831700Y-76829900D02*
X138717500Y-75944100D01*
X130743700Y-76829900D02*
X137831700Y-76829900D01*
X130458300Y-77115300D02*
X130743700Y-76829900D01*
X129835800Y-77115300D02*
X130458300Y-77115300D01*
X129652200Y-76931700D02*
X129835800Y-77115300D01*
X126068300Y-76931700D02*
X129652200Y-76931700D01*
X125000000Y-78000000D02*
X126068300Y-76931700D01*
%TO.N,CH_MAIN_ENC_DT*%
X160503000Y-90366900D02*
X126274500Y-90366900D01*
X165414100Y-95278000D02*
X160503000Y-90366900D01*
X170710200Y-95278000D02*
X165414100Y-95278000D01*
%TO.N,CH5_ENC_SW*%
X135619800Y-75154700D02*
X135760300Y-75014200D01*
X135619800Y-75154700D02*
X135760300Y-75014200D01*
X193980000Y-82220000D02*
X192803300Y-82220000D01*
X123078200Y-75078200D02*
X121000000Y-73000000D01*
X132591800Y-75078200D02*
X123078200Y-75078200D01*
X132932900Y-75419300D02*
X132591800Y-75078200D01*
X135355200Y-75419300D02*
X132932900Y-75419300D01*
X135619800Y-75154700D02*
X135355200Y-75419300D01*
X153914600Y-75014200D02*
X135760300Y-75014200D01*
X154087800Y-74841000D02*
X153914600Y-75014200D01*
X179398800Y-74841000D02*
X154087800Y-74841000D01*
X184273000Y-79715200D02*
X179398800Y-74841000D01*
X190372800Y-79715200D02*
X184273000Y-79715200D01*
X192803300Y-82145700D02*
X190372800Y-79715200D01*
X192803300Y-82220000D02*
X192803300Y-82145700D01*
%TO.N,CH5_SCR_CS*%
X135315700Y-76097600D02*
X133781800Y-76097600D01*
X135920900Y-75492400D02*
X135315700Y-76097600D01*
X153890300Y-75492400D02*
X135920900Y-75492400D01*
X156635000Y-78237100D02*
X153890300Y-75492400D01*
X176960900Y-78237100D02*
X156635000Y-78237100D01*
X179539000Y-80815200D02*
X176960900Y-78237100D01*
X190586500Y-80815200D02*
X179539000Y-80815200D01*
X133781800Y-76097600D02*
X133676200Y-76203200D01*
%TO.N,CH5_ENC_DT*%
X196520000Y-79680000D02*
X195343300Y-79680000D01*
X153914000Y-73737200D02*
X154084100Y-73567100D01*
X153914000Y-73737200D02*
X154084100Y-73567100D01*
X195343300Y-79312200D02*
X195343300Y-79680000D01*
X194534400Y-78503300D02*
X195343300Y-79312200D01*
X192546800Y-78503300D02*
X194534400Y-78503300D01*
X187610600Y-73567100D02*
X192546800Y-78503300D01*
X154084100Y-73567100D02*
X187610600Y-73567100D01*
X153649400Y-74001800D02*
X153914000Y-73737200D01*
X137332700Y-74001800D02*
X153649400Y-74001800D01*
X135303700Y-71972800D02*
X137332700Y-74001800D01*
X124027200Y-71972800D02*
X135303700Y-71972800D01*
X123000000Y-73000000D02*
X124027200Y-71972800D01*
%TO.N,CH5_SCR_DC*%
X189271000Y-87842100D02*
X190237300Y-87842100D01*
X188546300Y-87117400D02*
X189271000Y-87842100D01*
X168181200Y-87117400D02*
X188546300Y-87117400D01*
X166317900Y-88980700D02*
X168181200Y-87117400D01*
X135435600Y-88980700D02*
X166317900Y-88980700D01*
X135209700Y-88754800D02*
X135435600Y-88980700D01*
%TO.N,CH5_ENC_CLK*%
X193980000Y-79680000D02*
X192803300Y-79680000D01*
X126453500Y-74453500D02*
X125000000Y-73000000D01*
X153836500Y-74453500D02*
X126453500Y-74453500D01*
X153945500Y-74344500D02*
X153836500Y-74453500D01*
X179669100Y-74344500D02*
X153945500Y-74344500D01*
X181237700Y-75913100D02*
X179669100Y-74344500D01*
X181237700Y-76041100D02*
X181237700Y-75913100D01*
X182915900Y-77719300D02*
X181237700Y-76041100D01*
X190842600Y-77719300D02*
X182915900Y-77719300D01*
X192803300Y-79680000D02*
X190842600Y-77719300D01*
%TO.N,CH5_FADER_OUT*%
X160960000Y-97460000D02*
X159783300Y-97460000D01*
X157564900Y-94873800D02*
X123533700Y-94873800D01*
X159783300Y-97092200D02*
X157564900Y-94873800D01*
X159783300Y-97460000D02*
X159783300Y-97092200D01*
%TO.N,CH4_ENC_DT*%
X193980000Y-74600000D02*
X192803300Y-74600000D01*
X190851500Y-72648200D02*
X192803300Y-74600000D01*
X153500200Y-72648200D02*
X190851500Y-72648200D01*
X153105000Y-73043400D02*
X153500200Y-72648200D01*
X139806100Y-73043400D02*
X153105000Y-73043400D01*
X137824700Y-71062000D02*
X139806100Y-73043400D01*
X126062000Y-71062000D02*
X137824700Y-71062000D01*
X123000000Y-68000000D02*
X126062000Y-71062000D01*
%TO.N,CH4_ENC_SW*%
X196520000Y-74600000D02*
X195343300Y-74600000D01*
X153726900Y-73285500D02*
X153912500Y-73099900D01*
X153726900Y-73285500D02*
X153912500Y-73099900D01*
X195343300Y-74967700D02*
X195343300Y-74600000D01*
X194530900Y-75780100D02*
X195343300Y-74967700D01*
X190804800Y-75780100D02*
X194530900Y-75780100D01*
X188124600Y-73099900D02*
X190804800Y-75780100D01*
X153912500Y-73099900D02*
X188124600Y-73099900D01*
X153462300Y-73550100D02*
X153726900Y-73285500D01*
X139035300Y-73550100D02*
X153462300Y-73550100D01*
X136998900Y-71513700D02*
X139035300Y-73550100D01*
X124513700Y-71513700D02*
X136998900Y-71513700D01*
X121000000Y-68000000D02*
X124513700Y-71513700D01*
%TO.N,CH4_SCR_DC*%
X128043100Y-69043100D02*
X127000000Y-68000000D01*
X134638900Y-69043100D02*
X128043100Y-69043100D01*
X134702500Y-68979500D02*
X134638900Y-69043100D01*
X153662100Y-68979500D02*
X134702500Y-68979500D01*
X156742600Y-72060000D02*
X153662100Y-68979500D01*
X193980000Y-72060000D02*
X156742600Y-72060000D01*
%TO.N,CH4_FADER_OUT*%
X158420000Y-97460000D02*
X157243300Y-97460000D01*
X155921000Y-99150000D02*
X126923700Y-99150000D01*
X157243300Y-97827700D02*
X155921000Y-99150000D01*
X157243300Y-97460000D02*
X157243300Y-97827700D01*
%TO.N,CH4_SCR_CS*%
X196520000Y-69520000D02*
X195343300Y-69520000D01*
X195343300Y-69887800D02*
X195343300Y-69520000D01*
X194534400Y-70696700D02*
X195343300Y-69887800D01*
X193597100Y-70696700D02*
X194534400Y-70696700D01*
X193597100Y-70696800D02*
X193597100Y-70696700D01*
X192691700Y-71602200D02*
X193597100Y-70696800D01*
X158770200Y-71602200D02*
X192691700Y-71602200D01*
X155157200Y-67989200D02*
X158770200Y-71602200D01*
X154375100Y-67989200D02*
X155157200Y-67989200D01*
X154188000Y-68176300D02*
X154375100Y-67989200D01*
X154188000Y-68176300D02*
X154375100Y-67989200D01*
X153923400Y-68440900D02*
X154188000Y-68176300D01*
X138856400Y-68440900D02*
X153923400Y-68440900D01*
X137401500Y-66986000D02*
X138856400Y-68440900D01*
X130014000Y-66986000D02*
X137401500Y-66986000D01*
X129000000Y-68000000D02*
X130014000Y-66986000D01*
%TO.N,CH4_ENC_CLK*%
X192257100Y-71150500D02*
X192840400Y-70567200D01*
X159060700Y-71150500D02*
X192257100Y-71150500D01*
X155447700Y-67537500D02*
X159060700Y-71150500D01*
X154188000Y-67537500D02*
X155447700Y-67537500D01*
X154000900Y-67724600D02*
X154188000Y-67537500D01*
X154000900Y-67724600D02*
X154188000Y-67537500D01*
X153736300Y-67989200D02*
X154000900Y-67724600D01*
X139268700Y-67989200D02*
X153736300Y-67989200D01*
X137791800Y-66512300D02*
X139268700Y-67989200D01*
X126487700Y-66512300D02*
X137791800Y-66512300D01*
X125000000Y-68000000D02*
X126487700Y-66512300D01*
%TO.N,CH3_ENC_SW*%
X193980000Y-69520000D02*
X192803300Y-69520000D01*
X191841100Y-70482200D02*
X192803300Y-69520000D01*
X178590600Y-70482200D02*
X191841100Y-70482200D01*
X176606800Y-68498400D02*
X178590600Y-70482200D01*
X158346200Y-68498400D02*
X176606800Y-68498400D01*
X156887500Y-67039700D02*
X158346200Y-68498400D01*
X154047000Y-67039700D02*
X156887500Y-67039700D01*
X153549200Y-67537500D02*
X154047000Y-67039700D01*
X139470100Y-67537500D02*
X153549200Y-67537500D01*
X137699500Y-65766900D02*
X139470100Y-67537500D01*
X123766900Y-65766900D02*
X137699500Y-65766900D01*
X121000000Y-63000000D02*
X123766900Y-65766900D01*
%TO.N,CH3_FADER_OUT*%
X155880000Y-97460000D02*
X154703300Y-97460000D01*
X126580400Y-95379900D02*
X126315800Y-95644500D01*
X152990900Y-95379900D02*
X126580400Y-95379900D01*
X154703300Y-97092300D02*
X152990900Y-95379900D01*
X154703300Y-97460000D02*
X154703300Y-97092300D01*
X120673200Y-95667500D02*
X120659100Y-95653400D01*
X126292800Y-95667500D02*
X120673200Y-95667500D01*
X126315800Y-95644500D02*
X126292800Y-95667500D01*
X126315800Y-95644500D02*
X126292800Y-95667500D01*
%TO.N,CH3_SCR_CS*%
X193980000Y-64440000D02*
X192803300Y-64440000D01*
X186083900Y-64440000D02*
X192803300Y-64440000D01*
X185993600Y-64530300D02*
X186083900Y-64440000D01*
X185993600Y-64530300D02*
X186083900Y-64440000D01*
X185795200Y-64728700D02*
X185993600Y-64530300D01*
X169723000Y-64728700D02*
X185795200Y-64728700D01*
X167293400Y-62299100D02*
X169723000Y-64728700D01*
X165010100Y-62299100D02*
X167293400Y-62299100D01*
X164722000Y-62587200D02*
X165010100Y-62299100D01*
X161512600Y-62587200D02*
X164722000Y-62587200D01*
X160573700Y-61648300D02*
X161512600Y-62587200D01*
X141584000Y-61648300D02*
X160573700Y-61648300D01*
X141153900Y-62078400D02*
X141584000Y-61648300D01*
X139846200Y-62078400D02*
X141153900Y-62078400D01*
X139416100Y-61648300D02*
X139846200Y-62078400D01*
X130351700Y-61648300D02*
X139416100Y-61648300D01*
X129000000Y-63000000D02*
X130351700Y-61648300D01*
%TO.N,CH3_ENC_DT*%
X196520000Y-66980000D02*
X195343300Y-66980000D01*
X195343300Y-67280900D02*
X195343300Y-66980000D01*
X194467500Y-68156700D02*
X195343300Y-67280900D01*
X193492500Y-68156700D02*
X194467500Y-68156700D01*
X192410000Y-67074200D02*
X193492500Y-68156700D01*
X174264900Y-67074200D02*
X192410000Y-67074200D01*
X173292400Y-68046700D02*
X174264900Y-67074200D01*
X158533300Y-68046700D02*
X173292400Y-68046700D01*
X157873300Y-67386700D02*
X158533300Y-68046700D01*
X157873300Y-67256100D02*
X157873300Y-67386700D01*
X157205200Y-66588000D02*
X157873300Y-67256100D01*
X153859900Y-66588000D02*
X157205200Y-66588000D01*
X153362100Y-67085800D02*
X153859900Y-66588000D01*
X139657200Y-67085800D02*
X153362100Y-67085800D01*
X137526200Y-64954800D02*
X139657200Y-67085800D01*
X124954800Y-64954800D02*
X137526200Y-64954800D01*
X123000000Y-63000000D02*
X124954800Y-64954800D01*
%TO.N,CH3_SCR_DC*%
X190460200Y-60283700D02*
X191223100Y-61046600D01*
X182863600Y-60283700D02*
X190460200Y-60283700D01*
X181808600Y-61338700D02*
X182863600Y-60283700D01*
X170520500Y-61338700D02*
X181808600Y-61338700D01*
X169612100Y-60430300D02*
X170520500Y-61338700D01*
X157092200Y-60430300D02*
X169612100Y-60430300D01*
X155525000Y-58863100D02*
X157092200Y-60430300D01*
X140249100Y-58863100D02*
X155525000Y-58863100D01*
X138703700Y-60408500D02*
X140249100Y-58863100D01*
X127589900Y-60408500D02*
X138703700Y-60408500D01*
X127362300Y-60180900D02*
X127589900Y-60408500D01*
%TO.N,CH3_ENC_CLK*%
X126503100Y-64503100D02*
X125000000Y-63000000D01*
X137713300Y-64503100D02*
X126503100Y-64503100D01*
X139844300Y-66634100D02*
X137713300Y-64503100D01*
X153175000Y-66634100D02*
X139844300Y-66634100D01*
X154066700Y-65742400D02*
X153175000Y-66634100D01*
X160553100Y-65742400D02*
X154066700Y-65742400D01*
X161182800Y-66372100D02*
X160553100Y-65742400D01*
X168431000Y-66372100D02*
X161182800Y-66372100D01*
X169478500Y-65324600D02*
X168431000Y-66372100D01*
X192324600Y-65324600D02*
X169478500Y-65324600D01*
X193980000Y-66980000D02*
X192324600Y-65324600D01*
%TO.N,CH2_SCR_CS*%
X196520000Y-56820000D02*
X195343300Y-56820000D01*
X130031600Y-57468400D02*
X129000000Y-58500000D01*
X159345400Y-57468400D02*
X130031600Y-57468400D01*
X159377500Y-57500500D02*
X159345400Y-57468400D01*
X159896600Y-57500500D02*
X159377500Y-57500500D01*
X160263700Y-57133400D02*
X159896600Y-57500500D01*
X160263700Y-56819700D02*
X160263700Y-57133400D01*
X161585100Y-55498300D02*
X160263700Y-56819700D01*
X162415000Y-55498300D02*
X161585100Y-55498300D01*
X163001700Y-56085000D02*
X162415000Y-55498300D01*
X163001700Y-56159800D02*
X163001700Y-56085000D01*
X164762500Y-57920600D02*
X163001700Y-56159800D01*
X173476300Y-57920600D02*
X164762500Y-57920600D01*
X173552400Y-57996700D02*
X173476300Y-57920600D01*
X194534400Y-57996700D02*
X173552400Y-57996700D01*
X195343300Y-57187800D02*
X194534400Y-57996700D01*
X195343300Y-56820000D02*
X195343300Y-57187800D01*
%TO.N,CH2_ENC_CLK*%
X196520000Y-59360000D02*
X195343300Y-59360000D01*
X135158000Y-59688800D02*
X135345100Y-59501700D01*
X135158000Y-59688800D02*
X135345100Y-59501700D01*
X173852900Y-60847200D02*
X174038500Y-60661600D01*
X173852900Y-60847200D02*
X174038500Y-60661600D01*
X126054200Y-59554200D02*
X125000000Y-58500000D01*
X127621900Y-59554200D02*
X126054200Y-59554200D01*
X127989000Y-59921300D02*
X127621900Y-59554200D01*
X127989000Y-59921400D02*
X127989000Y-59921300D01*
X128021000Y-59953400D02*
X127989000Y-59921400D01*
X134893400Y-59953400D02*
X128021000Y-59953400D01*
X135158000Y-59688800D02*
X134893400Y-59953400D01*
X138759700Y-59501700D02*
X135345100Y-59501700D01*
X139850000Y-58411400D02*
X138759700Y-59501700D01*
X155712100Y-58411400D02*
X139850000Y-58411400D01*
X157279300Y-59978600D02*
X155712100Y-58411400D01*
X170471500Y-59978600D02*
X157279300Y-59978600D01*
X171340100Y-60847200D02*
X170471500Y-59978600D01*
X173852900Y-60847200D02*
X171340100Y-60847200D01*
X182265900Y-60124400D02*
X182141400Y-60248900D01*
X182265900Y-60124400D02*
X182141400Y-60248900D01*
X174451200Y-60248900D02*
X174038500Y-60661600D01*
X182141400Y-60248900D02*
X174451200Y-60248900D01*
X182604700Y-59785600D02*
X182265900Y-60124400D01*
X190848400Y-59785600D02*
X182604700Y-59785600D01*
X191599500Y-60536700D02*
X190848400Y-59785600D01*
X194534400Y-60536700D02*
X191599500Y-60536700D01*
X195343300Y-59727800D02*
X194534400Y-60536700D01*
X195343300Y-59360000D02*
X195343300Y-59727800D01*
%TO.N,CH2_SCR_DC*%
X127206500Y-58500000D02*
X127000000Y-58500000D01*
X128208200Y-59501700D02*
X127206500Y-58500000D01*
X134292700Y-59501700D02*
X128208200Y-59501700D01*
X135425600Y-58368800D02*
X134292700Y-59501700D01*
X139253700Y-58368800D02*
X135425600Y-58368800D01*
X139398200Y-58224300D02*
X139253700Y-58368800D01*
X139398200Y-58224300D02*
X139253700Y-58368800D01*
X139662800Y-57959700D02*
X139398200Y-58224300D01*
X155899200Y-57959700D02*
X139662800Y-57959700D01*
X157466400Y-59526900D02*
X155899200Y-57959700D01*
X170556300Y-59526900D02*
X157466400Y-59526900D01*
X170556300Y-59526800D02*
X170556300Y-59526900D01*
X171710800Y-58372300D02*
X170556300Y-59526800D01*
X173289200Y-58372300D02*
X171710800Y-58372300D01*
X174137800Y-59220900D02*
X173289200Y-58372300D01*
X192664200Y-59220900D02*
X174137800Y-59220900D01*
X192803300Y-59360000D02*
X192664200Y-59220900D01*
X193980000Y-59360000D02*
X192803300Y-59360000D01*
%TO.N,CH2_ENC_DT*%
X124626200Y-56873800D02*
X159637000Y-56873800D01*
X123000000Y-58500000D02*
X124626200Y-56873800D01*
X164450400Y-61333700D02*
X164275300Y-61508800D01*
X167923800Y-61333700D02*
X164450400Y-61333700D01*
X170312800Y-63722700D02*
X167923800Y-61333700D01*
X185273700Y-63722700D02*
X170312800Y-63722700D01*
X187096400Y-61900000D02*
X185273700Y-63722700D01*
X193980000Y-61900000D02*
X187096400Y-61900000D01*
%TO.N,CH2_FADER_OUT*%
X153340000Y-97460000D02*
X152163300Y-97460000D01*
X126767500Y-95831600D02*
X126502900Y-96096200D01*
X151423200Y-95831600D02*
X126767500Y-95831600D01*
X152163300Y-96571700D02*
X151423200Y-95831600D01*
X152163300Y-97460000D02*
X152163300Y-96571700D01*
X119290400Y-96283300D02*
X119234200Y-96339500D01*
X126315800Y-96283300D02*
X119290400Y-96283300D01*
X126502900Y-96096200D02*
X126315800Y-96283300D01*
X126502900Y-96096200D02*
X126315800Y-96283300D01*
%TO.N,CH2_ENC_SW*%
X196520000Y-61900000D02*
X195343300Y-61900000D01*
X195343300Y-62267800D02*
X195343300Y-61900000D01*
X194534400Y-63076700D02*
X195343300Y-62267800D01*
X186800500Y-63076700D02*
X194534400Y-63076700D01*
X185646900Y-64230300D02*
X186800500Y-63076700D01*
X169917000Y-64230300D02*
X185646900Y-64230300D01*
X167532600Y-61845900D02*
X169917000Y-64230300D01*
X164824500Y-61845900D02*
X167532600Y-61845900D01*
X164534900Y-62135500D02*
X164824500Y-61845900D01*
X164015800Y-62135500D02*
X164534900Y-62135500D01*
X163564100Y-61683800D02*
X164015800Y-62135500D01*
X161248000Y-61683800D02*
X163564100Y-61683800D01*
X160880800Y-61316600D02*
X161248000Y-61683800D01*
X160880800Y-61316500D02*
X160880800Y-61316600D01*
X160706100Y-61141800D02*
X160880800Y-61316500D01*
X155002000Y-61141800D02*
X160706100Y-61141800D01*
X153233500Y-59373300D02*
X155002000Y-61141800D01*
X143220200Y-59373300D02*
X153233500Y-59373300D01*
X140966800Y-61626700D02*
X143220200Y-59373300D01*
X140033300Y-61626700D02*
X140966800Y-61626700D01*
X139266800Y-60860200D02*
X140033300Y-61626700D01*
X123360200Y-60860200D02*
X139266800Y-60860200D01*
X121000000Y-58500000D02*
X123360200Y-60860200D01*
%TO.N,CH1_SCR_CS*%
X193980000Y-51740000D02*
X192803300Y-51740000D01*
X191965900Y-52577400D02*
X192803300Y-51740000D01*
X152773400Y-52577400D02*
X191965900Y-52577400D01*
X152471900Y-52275900D02*
X152773400Y-52577400D01*
X130224100Y-52275900D02*
X152471900Y-52275900D01*
X129000000Y-53500000D02*
X130224100Y-52275900D01*
%TO.N,CH1_SCR_DC*%
X196520000Y-51740000D02*
X195343300Y-51740000D01*
X195343300Y-51372300D02*
X195343300Y-51740000D01*
X194496000Y-50525000D02*
X195343300Y-51372300D01*
X192396200Y-50525000D02*
X194496000Y-50525000D01*
X190795500Y-52125700D02*
X192396200Y-50525000D01*
X152988400Y-52125700D02*
X190795500Y-52125700D01*
X152944600Y-52081900D02*
X152988400Y-52125700D01*
X152916700Y-52081900D02*
X152944600Y-52081900D01*
X152659000Y-51824200D02*
X152916700Y-52081900D01*
X128675800Y-51824200D02*
X152659000Y-51824200D01*
X127000000Y-53500000D02*
X128675800Y-51824200D01*
%TO.N,CH1_FADER_OUT*%
X118492600Y-96967200D02*
X117449100Y-95923700D01*
X126270800Y-96967200D02*
X118492600Y-96967200D01*
X126763300Y-96474700D02*
X126270800Y-96967200D01*
X126763300Y-96474600D02*
X126763300Y-96474700D01*
X126954600Y-96283300D02*
X126763300Y-96474600D01*
X148446600Y-96283300D02*
X126954600Y-96283300D01*
X149623300Y-97460000D02*
X148446600Y-96283300D01*
X150800000Y-97460000D02*
X149623300Y-97460000D01*
%TO.N,CH1_ENC_DT*%
X196520000Y-54280000D02*
X195343300Y-54280000D01*
X133962300Y-55001700D02*
X134226900Y-54737100D01*
X124501700Y-55001700D02*
X133962300Y-55001700D01*
X123000000Y-53500000D02*
X124501700Y-55001700D01*
X134226900Y-54737100D02*
X134241400Y-54722600D01*
X134226900Y-54737100D02*
X134241400Y-54722600D01*
X195343300Y-54647800D02*
X195343300Y-54280000D01*
X194534400Y-55456700D02*
X195343300Y-54647800D01*
X183445100Y-55456700D02*
X194534400Y-55456700D01*
X182539900Y-54551500D02*
X183445100Y-55456700D01*
X134412500Y-54551500D02*
X182539900Y-54551500D01*
X134241400Y-54722600D02*
X134412500Y-54551500D01*
%TO.N,CH1_ENC_SW*%
X193980000Y-56820000D02*
X192803300Y-56820000D01*
X134149400Y-55453400D02*
X134414000Y-55188800D01*
X122953400Y-55453400D02*
X134149400Y-55453400D01*
X121000000Y-53500000D02*
X122953400Y-55453400D01*
X134414000Y-55188800D02*
X134428500Y-55174300D01*
X134414000Y-55188800D02*
X134428500Y-55174300D01*
X192419200Y-57204100D02*
X192803300Y-56820000D01*
X164759600Y-57204100D02*
X192419200Y-57204100D01*
X162602100Y-55046600D02*
X164759600Y-57204100D01*
X135356200Y-55046600D02*
X162602100Y-55046600D01*
X135228500Y-55174300D02*
X135356200Y-55046600D01*
X134428500Y-55174300D02*
X135228500Y-55174300D01*
%TO.N,CH1_ENC_CLK*%
X193980000Y-54280000D02*
X192803300Y-54280000D01*
X192612900Y-54089600D02*
X192803300Y-54280000D01*
X134222500Y-54089600D02*
X192612900Y-54089600D01*
X133762100Y-54550000D02*
X134222500Y-54089600D01*
X126050000Y-54550000D02*
X133762100Y-54550000D01*
X125000000Y-53500000D02*
X126050000Y-54550000D01*
%TO.N,SPI_SCK*%
X193980000Y-89840000D02*
X192803300Y-89840000D01*
X126529000Y-88529000D02*
X125000000Y-87000000D01*
X134549400Y-88529000D02*
X126529000Y-88529000D01*
X134583000Y-88495400D02*
X134549400Y-88529000D01*
X134583000Y-88495300D02*
X134583000Y-88495400D01*
X134950200Y-88128100D02*
X134583000Y-88495300D01*
X136003000Y-88128100D02*
X134950200Y-88128100D01*
X136403900Y-88529000D02*
X136003000Y-88128100D01*
X166065100Y-88529000D02*
X136403900Y-88529000D01*
X167928400Y-86665700D02*
X166065100Y-88529000D01*
X188958600Y-86665700D02*
X167928400Y-86665700D01*
X189410300Y-87117400D02*
X188958600Y-86665700D01*
X190398900Y-87117400D02*
X189410300Y-87117400D01*
X192803300Y-89521800D02*
X190398900Y-87117400D01*
X192803300Y-89840000D02*
X192803300Y-89521800D01*
X129000000Y-83062700D02*
X127821400Y-84241300D01*
X129000000Y-82500000D02*
X129000000Y-83062700D01*
%TO.N,SHARED_RST*%
X193980000Y-84760000D02*
X192803300Y-84760000D01*
X186122500Y-84947100D02*
X186308100Y-84761500D01*
X186122500Y-84947100D02*
X186308100Y-84761500D01*
X192801800Y-84761500D02*
X192803300Y-84760000D01*
X186308100Y-84761500D02*
X192801800Y-84761500D01*
X143949700Y-86330500D02*
X144214300Y-86065900D01*
X142416100Y-86330500D02*
X143949700Y-86330500D01*
X142015300Y-85929700D02*
X142416100Y-86330500D01*
X139277900Y-85929700D02*
X142015300Y-85929700D01*
X138883100Y-85534900D02*
X139277900Y-85929700D01*
X128034900Y-85534900D02*
X138883100Y-85534900D01*
X125000000Y-82500000D02*
X128034900Y-85534900D01*
X185857900Y-85211700D02*
X186122500Y-84947100D01*
X164568800Y-85211700D02*
X185857900Y-85211700D01*
X163793900Y-85986600D02*
X164568800Y-85211700D01*
X148653400Y-85986600D02*
X163793900Y-85986600D01*
X148596500Y-85929700D02*
X148653400Y-85986600D01*
X144350500Y-85929700D02*
X148596500Y-85929700D01*
X144214300Y-86065900D02*
X144350500Y-85929700D01*
X144214300Y-86065900D02*
X144350500Y-85929700D01*
%TO.N,SPI_MOSI*%
X196520000Y-87300000D02*
X195343300Y-87300000D01*
X195343300Y-86932300D02*
X195343300Y-87300000D01*
X194403400Y-85992400D02*
X195343300Y-86932300D01*
X189562900Y-85992400D02*
X194403400Y-85992400D01*
X189332800Y-85762300D02*
X189562900Y-85992400D01*
X167554200Y-85762300D02*
X189332800Y-85762300D01*
X167368000Y-85948500D02*
X167554200Y-85762300D01*
X167368000Y-85948500D02*
X167554200Y-85762300D01*
X167103400Y-86213100D02*
X167368000Y-85948500D01*
X164393300Y-86213100D02*
X167103400Y-86213100D01*
X164206200Y-86400200D02*
X164393300Y-86213100D01*
X164206200Y-86400200D02*
X164393300Y-86213100D01*
X144136800Y-86782200D02*
X144401400Y-86517600D01*
X139491600Y-86782200D02*
X144136800Y-86782200D01*
X138701800Y-85992400D02*
X139491600Y-86782200D01*
X130007600Y-85992400D02*
X138701800Y-85992400D01*
X129000000Y-87000000D02*
X130007600Y-85992400D01*
X164168100Y-86438300D02*
X164206200Y-86400200D01*
X144480700Y-86438300D02*
X164168100Y-86438300D01*
X144401400Y-86517600D02*
X144480700Y-86438300D01*
X144401400Y-86517600D02*
X144480700Y-86438300D01*
%TO.N,SCR_BL_PWM*%
X135189900Y-81450600D02*
X135582500Y-81843200D01*
X124049400Y-81450600D02*
X135189900Y-81450600D01*
X123000000Y-82500000D02*
X124049400Y-81450600D01*
%TO.N,Net-(J18-Pin_1)*%
X170455000Y-62000000D02*
X184000000Y-62000000D01*
X169337000Y-60882000D02*
X170455000Y-62000000D01*
X161682600Y-60882000D02*
X169337000Y-60882000D01*
X161507500Y-61057100D02*
X161682600Y-60882000D01*
%TO.N,/SCL{slash}21*%
X186360000Y-49200000D02*
X185183300Y-49200000D01*
X118796000Y-49200000D02*
X119972700Y-49200000D01*
X119972700Y-48832000D02*
X119972700Y-49200000D01*
X121233300Y-47571400D02*
X119972700Y-48832000D01*
X183922400Y-47571400D02*
X121233300Y-47571400D01*
X185183300Y-48832300D02*
X183922400Y-47571400D01*
X185183300Y-49200000D02*
X185183300Y-48832300D01*
%TO.N,/SDA{slash}20*%
X121336000Y-49200000D02*
X122512700Y-49200000D01*
X183820000Y-49200000D02*
X182643300Y-49200000D01*
X124027300Y-51015500D02*
X152841900Y-51015500D01*
X122512700Y-49500900D02*
X124027300Y-51015500D01*
X122512700Y-49200000D02*
X122512700Y-49500900D01*
X152841900Y-51015500D02*
X153026000Y-50831400D01*
X152841900Y-51015500D02*
X153026000Y-50831400D01*
X157014300Y-50831400D02*
X157281900Y-50563800D01*
X153026000Y-50831400D02*
X157014300Y-50831400D01*
X157281900Y-50563800D02*
X157466000Y-50379700D01*
X157281900Y-50563800D02*
X157466000Y-50379700D01*
X182643300Y-49567800D02*
X182643300Y-49200000D01*
X181831400Y-50379700D02*
X182643300Y-49567800D01*
X157466000Y-50379700D02*
X181831400Y-50379700D01*
%TO.N,+5V*%
X196520000Y-49200000D02*
X193980000Y-49200000D01*
X193980000Y-49200000D02*
X192803300Y-49200000D01*
X153246400Y-51497400D02*
X153246400Y-51497500D01*
X190653000Y-51497400D02*
X153246400Y-51497400D01*
X192803300Y-49347100D02*
X190653000Y-51497400D01*
X192803300Y-49200000D02*
X192803300Y-49347100D01*
%TO.N,E_VCC*%
X152500000Y-72000000D02*
X147000000Y-72000000D01*
X168001700Y-79500000D02*
X172500000Y-79500000D01*
X163001700Y-84500000D02*
X168001700Y-79500000D01*
X162000000Y-84500000D02*
X163001700Y-84500000D01*
X152500000Y-65500000D02*
X147000000Y-65500000D01*
X132051400Y-64051400D02*
X131000000Y-63000000D01*
X145551400Y-64051400D02*
X132051400Y-64051400D01*
X147000000Y-65500000D02*
X145551400Y-64051400D01*
X110565000Y-76435000D02*
X109000000Y-78000000D01*
X130041700Y-76435000D02*
X110565000Y-76435000D01*
X130095300Y-76488600D02*
X130041700Y-76435000D01*
X130879000Y-75704900D02*
X130095300Y-76488600D01*
X132332200Y-75704900D02*
X130879000Y-75704900D01*
X130095300Y-76488600D02*
X130095500Y-76488400D01*
%TO.N,GND*%
X193980000Y-92380000D02*
X196520000Y-92380000D01*
X143180000Y-97460000D02*
X140640000Y-97460000D01*
X152500000Y-60500000D02*
X147000000Y-60500000D01*
X128956000Y-49200000D02*
X126416000Y-49200000D01*
X152500000Y-70000000D02*
X147000000Y-70000000D01*
X140500000Y-70000000D02*
X147000000Y-70000000D01*
X134017500Y-62984200D02*
X134001700Y-63000000D01*
X140499600Y-62984200D02*
X134017500Y-62984200D01*
X133000000Y-63000000D02*
X134001700Y-63000000D01*
X160080000Y-76000000D02*
X159000000Y-77080000D01*
X172500000Y-76000000D02*
X160080000Y-76000000D01*
%TD*%
M02*
