M48
; DRILL file {KiCad 9.0.3} date 2026-02-23T11:54:39+0100
; FORMAT={-:-/ absolute / metric / decimal}
; #@! TF.CreationDate,2026-02-23T11:54:39+01:00
; #@! TF.GenerationSoftware,Kicad,Pcbnew,9.0.3
; #@! TF.FileFunction,Plated,1,2,PTH
FMAT,2
METRIC
; #@! TA.AperFunction,Plated,PTH,ViaDrill
T1C0.400
; #@! TA.AperFunction,Plated,PTH,ComponentDrill
T2C0.800
; #@! TA.AperFunction,Plated,PTH,ComponentDrill
T3C1.000
; #@! TA.AperFunction,Plated,PTH,ComponentDrill
T4C1.600
; #@! TA.AperFunction,Plated,PTH,ComponentDrill
T5C1.700
%
G90
G05
T1
X117.282Y-91.84
X117.353Y-93.149
X119.092Y-51.195
X120.198Y-92.299
X121.749Y-99.304
X121.806Y-97.673
X122.24Y-98.637
X122.672Y-93.713
X125.351Y-93.399
X129.186Y-51.251
X133.49Y-70.907
X137.975Y-50.373
X138.462Y-60.465
X139.877Y-62.672
X140.125Y-89.002
X140.493Y-53.751
X143.532Y-65.772
X143.704Y-75.536
X144.482Y-82.584
X145.204Y-75.797
X145.596Y-90.773
X150.383Y-77.227
X150.813Y-57.965
X154.61Y-49.851
X158.481Y-58.002
X161.581Y-92.607
X163.262Y-86.098
X172.5Y-83.74
X173.746Y-55.316
X178.382Y-57.901
X182.406Y-50.755
X185.811Y-87.533
X190.081Y-51.721
X190.249Y-58.713
X191.223Y-54.889
X192.267Y-70.077
T2
X109.0Y-53.5
X109.0Y-58.5
X109.0Y-63.5
X109.0Y-68.5
X109.0Y-73.5
X109.0Y-78.0
X109.0Y-83.0
X109.0Y-88.0
X114.0Y-53.5
X114.0Y-58.5
X114.0Y-63.5
X114.0Y-68.5
X114.0Y-73.5
X114.0Y-78.0
X114.0Y-83.0
X114.0Y-88.0
X117.0Y-53.5
X117.0Y-58.5
X117.0Y-63.0
X117.0Y-68.0
X117.0Y-73.0
X119.0Y-53.5
X119.0Y-58.5
X119.0Y-63.0
X119.0Y-68.0
X119.0Y-73.0
X119.0Y-78.0
X121.0Y-53.5
X121.0Y-58.5
X121.0Y-63.0
X121.0Y-68.0
X121.0Y-73.0
X121.0Y-78.0
X123.0Y-53.5
X123.0Y-58.5
X123.0Y-63.0
X123.0Y-68.0
X123.0Y-73.0
X123.0Y-78.0
X123.0Y-83.5
X125.0Y-53.5
X125.0Y-58.5
X125.0Y-63.0
X125.0Y-68.0
X125.0Y-73.0
X125.0Y-78.0
X125.0Y-83.5
X125.0Y-89.5
X127.0Y-53.5
X127.0Y-58.5
X127.0Y-63.0
X127.0Y-68.0
X127.0Y-73.0
X127.0Y-78.0
X127.0Y-83.5
X127.0Y-89.5
X129.0Y-53.5
X129.0Y-58.5
X129.0Y-63.0
X129.0Y-68.0
X129.0Y-73.0
X129.0Y-78.0
X129.0Y-83.5
X129.0Y-89.5
X131.0Y-53.5
X131.0Y-58.5
X131.0Y-63.0
X131.0Y-68.0
X131.0Y-73.0
X131.0Y-78.0
X131.0Y-83.5
X131.0Y-89.5
X133.0Y-53.5
X133.0Y-58.5
X133.0Y-63.0
X133.0Y-68.0
X133.0Y-73.0
X133.0Y-78.0
X133.0Y-83.5
X133.0Y-89.5
X140.5Y-60.5
X140.5Y-65.5
X140.5Y-70.0
X140.5Y-72.0
X140.5Y-77.0
X140.5Y-79.0
X140.5Y-81.0
X140.5Y-83.0
X147.0Y-60.5
X147.0Y-65.5
X147.0Y-70.0
X147.0Y-72.0
X147.0Y-77.0
X147.0Y-79.0
X147.0Y-81.0
X147.0Y-83.0
X152.5Y-60.5
X152.5Y-65.5
X152.5Y-70.0
X152.5Y-72.0
X152.5Y-77.0
X152.5Y-79.0
X152.5Y-81.0
X152.5Y-83.0
X159.0Y-66.92
X159.0Y-77.08
X162.0Y-56.5
X162.0Y-58.5
X162.0Y-82.5
X162.0Y-84.5
X172.5Y-56.0
X172.5Y-59.5
X172.5Y-66.5
X172.5Y-70.0
X172.5Y-76.0
X172.5Y-79.5
T3
X118.796Y-49.2
X121.336Y-49.2
X123.876Y-49.2
X126.416Y-49.2
X127.94Y-97.46
X128.956Y-49.2
X130.48Y-97.46
X131.496Y-49.2
X133.02Y-97.46
X134.036Y-49.2
X135.56Y-97.46
X136.576Y-49.2
X138.1Y-97.46
X139.116Y-49.2
X140.64Y-97.46
X141.656Y-49.2
X143.18Y-97.46
X145.72Y-49.2
X145.72Y-97.46
X148.26Y-49.2
X150.8Y-49.2
X150.8Y-97.46
X153.34Y-49.2
X153.34Y-97.46
X155.88Y-49.2
X155.88Y-97.46
X158.42Y-49.2
X158.42Y-97.46
X160.96Y-49.2
X160.96Y-97.46
X163.5Y-49.2
X163.5Y-97.46
X166.04Y-97.46
X168.58Y-49.2
X168.58Y-97.46
X171.12Y-49.2
X173.66Y-49.2
X173.66Y-97.46
X176.2Y-49.2
X176.2Y-97.46
X178.74Y-49.2
X178.74Y-97.46
X181.28Y-49.2
X181.28Y-97.46
X183.82Y-49.2
X183.82Y-97.46
X186.36Y-49.2
X186.36Y-97.46
X188.9Y-97.46
X191.44Y-97.46
X193.98Y-49.2
X193.98Y-51.74
X193.98Y-54.28
X193.98Y-56.82
X193.98Y-59.36
X193.98Y-61.9
X193.98Y-64.44
X193.98Y-66.98
X193.98Y-69.52
X193.98Y-72.06
X193.98Y-74.6
X193.98Y-77.14
X193.98Y-79.68
X193.98Y-82.22
X193.98Y-84.76
X193.98Y-87.3
X193.98Y-89.84
X193.98Y-92.38
X196.52Y-49.2
X196.52Y-51.74
X196.52Y-54.28
X196.52Y-56.82
X196.52Y-59.36
X196.52Y-61.9
X196.52Y-64.44
X196.52Y-66.98
X196.52Y-69.52
X196.52Y-72.06
X196.52Y-74.6
X196.52Y-77.14
X196.52Y-79.68
X196.52Y-82.22
X196.52Y-84.76
X196.52Y-87.3
X196.52Y-89.84
X196.52Y-92.38
T4
X171.88Y-89.5
X187.12Y-89.5
T5
X184.0Y-62.0
X184.0Y-68.76
X184.0Y-76.04
X184.0Y-82.8
M30
