%TF.GenerationSoftware,KiCad,Pcbnew,9.0.3*%
%TF.CreationDate,2026-02-23T11:54:41+01:00*%
%TF.ProjectId,Arduino Shield,41726475-696e-46f2-9053-6869656c642e,rev?*%
%TF.SameCoordinates,Original*%
%TF.FileFunction,Legend,Bot*%
%TF.FilePolarity,Positive*%
%FSLAX46Y46*%
G04 Gerber Fmt 4.6, Leading zero omitted, Abs format (unit mm)*
G04 Created by KiCad (PCBNEW 9.0.3) date 2026-02-23 11:54:41*
%MOMM*%
%LPD*%
G01*
G04 APERTURE LIST*
%ADD10C,0.150000*%
G04 APERTURE END LIST*
D10*
X184520246Y-73047974D02*
X181829557Y-71430229D01*
X145571890Y-78871739D02*
X150061647Y-82808046D01*
X196105786Y-47660000D02*
X101176213Y-47660000D01*
X139253721Y-79278976D02*
X138683484Y-77657355D01*
X160401269Y-80483991D02*
X162163372Y-79718563D01*
X189436152Y-72908192D02*
X189146735Y-67605566D01*
X130673380Y-65639303D02*
X130530988Y-68232028D01*
X184292437Y-88065474D02*
X184090591Y-87563529D01*
X189146735Y-67605566D02*
X188598390Y-65472646D01*
X123066202Y-85198061D02*
X123026899Y-76050404D01*
X145566006Y-92470211D02*
X158628210Y-91691869D01*
X183941196Y-47660000D02*
X183450169Y-52313542D01*
X131969672Y-56728380D02*
X138672064Y-47660000D01*
X115860021Y-56210250D02*
X111694480Y-56927973D01*
X110964821Y-72473492D02*
X116416754Y-69922699D01*
X133083122Y-62457799D02*
X130673380Y-65639303D01*
X160401269Y-80483991D02*
X158967656Y-82521422D01*
X153830678Y-71242305D02*
X145184018Y-63634935D01*
X134181198Y-89711748D02*
X124210519Y-85677183D01*
X181150503Y-54214083D02*
X182273397Y-63398197D01*
X123026899Y-76050404D02*
X128849195Y-69597449D01*
X191791263Y-76270350D02*
X189436152Y-72908192D01*
X119388436Y-63752217D02*
X116416754Y-69922699D01*
X150061647Y-82808046D02*
X145566006Y-92470211D01*
X101176213Y-47660000D02*
X101000000Y-47836213D01*
X180720977Y-78596622D02*
X178896798Y-72070015D01*
X200600000Y-84879623D02*
X196641110Y-85148979D01*
X150061647Y-82808046D02*
X158967656Y-82521422D01*
X169219558Y-85883540D02*
X175423698Y-79835766D01*
X101000000Y-80355696D02*
X110816177Y-78234487D01*
X132472546Y-71873917D02*
X130530988Y-68232028D01*
X162163372Y-79718563D02*
X169219558Y-85883540D01*
X169192475Y-68437602D02*
X170071736Y-68397147D01*
X163103818Y-99000000D02*
X158628210Y-91691869D01*
X124210519Y-85677183D02*
X132472546Y-71873917D01*
X189436152Y-72908192D02*
X184520246Y-73047974D01*
X110816177Y-78234487D02*
X110964821Y-72473492D01*
X113645262Y-82833070D02*
X123066202Y-85198061D01*
X105805546Y-67896472D02*
X101000000Y-67613049D01*
X191492092Y-78571261D02*
X196641110Y-85148979D01*
X157947031Y-61412117D02*
X154874298Y-57923223D01*
X196205261Y-57663658D02*
X188598390Y-65472646D01*
X101000000Y-98823786D02*
X101176213Y-99000000D01*
X101176213Y-99000000D02*
X197883786Y-99000000D01*
X148599098Y-74624449D02*
X154274108Y-73847233D01*
X137487915Y-95923063D02*
X145346509Y-92596311D01*
X180704831Y-78721372D02*
X189094390Y-79799592D01*
X123026899Y-76050404D02*
X117798505Y-70845110D01*
X171231695Y-99000000D02*
X172209542Y-91112529D01*
X163359506Y-64950453D02*
X157947031Y-61412117D01*
X145184018Y-63634935D02*
X144622117Y-64032618D01*
X191492092Y-78571261D02*
X189094390Y-79799592D01*
X169192475Y-68437602D02*
X168239952Y-72862524D01*
X168239952Y-72862524D02*
X175423698Y-79835766D01*
X131969672Y-56728380D02*
X120133680Y-50510521D01*
X110589158Y-56334522D02*
X101000000Y-61182346D01*
X183450169Y-52313542D02*
X181150503Y-54214083D01*
X116416754Y-69922699D02*
X117798505Y-70845110D01*
X167136928Y-47660000D02*
X172391375Y-54314479D01*
X111694480Y-56927973D02*
X110589158Y-56334522D01*
X178896798Y-72070015D02*
X181829557Y-71430229D01*
X137487915Y-95923063D02*
X137274457Y-99000000D01*
X117798505Y-70845110D02*
X128849195Y-69597449D01*
X149534757Y-58813176D02*
X154874298Y-57923223D01*
X196641110Y-85148979D02*
X194549619Y-88762182D01*
X180704831Y-78721372D02*
X180720977Y-78596622D01*
X183600710Y-64287249D02*
X182273397Y-63398197D01*
X199799659Y-57997318D02*
X196205261Y-57663658D01*
X160401269Y-80483991D02*
X154274108Y-73847233D01*
X145571890Y-78871739D02*
X139253721Y-79278976D01*
X145184018Y-63634935D02*
X149534757Y-58813176D01*
X182826003Y-99000000D02*
X184292437Y-88065474D01*
X145346509Y-92596311D02*
X145566006Y-92470211D01*
X172209542Y-91112529D02*
X178474552Y-84198758D01*
X145346509Y-92596311D02*
X153820889Y-99000000D01*
X193890397Y-99000000D02*
X194549619Y-88762182D01*
X138683484Y-77657355D02*
X132472546Y-71873917D01*
X111694480Y-56927973D02*
X105805546Y-67896472D01*
X172209542Y-91112529D02*
X169219558Y-85883540D01*
X119388436Y-63752217D02*
X130673380Y-65639303D01*
X137487915Y-95923063D02*
X134181198Y-89711748D01*
X198320818Y-98562968D02*
X200600000Y-95827950D01*
X193340885Y-47660000D02*
X195512367Y-57088934D01*
X200600000Y-61999019D02*
X198138798Y-49693012D01*
X180704831Y-78721372D02*
X177893342Y-81205148D01*
X191791263Y-76270350D02*
X191492092Y-78571261D01*
X178474552Y-84198758D02*
X184090591Y-87563529D01*
X134181198Y-89711748D02*
X139253721Y-79278976D01*
X120133680Y-50510521D02*
X115860021Y-56210250D01*
X144622117Y-64032618D02*
X133083122Y-62457799D01*
X168569775Y-67336610D02*
X172391375Y-54314479D01*
X184292437Y-88065474D02*
X194549619Y-88762182D01*
X144622117Y-64032618D02*
X144581290Y-64940788D01*
X110816177Y-78234487D02*
X113645262Y-82833070D01*
X200600000Y-95827950D02*
X200600000Y-61999019D01*
X120133680Y-50510521D02*
X120082249Y-47660000D01*
X169192475Y-68437602D02*
X168569775Y-67336610D01*
X110964821Y-72473492D02*
X105805546Y-67896472D01*
X148599098Y-74624449D02*
X145571890Y-78871739D01*
X197883786Y-99000000D02*
X198320818Y-98562968D01*
X177893342Y-81205148D02*
X175423698Y-79835766D01*
X113645262Y-82833070D02*
X101000000Y-98309359D01*
X188598390Y-65472646D02*
X183600710Y-64287249D01*
X110589158Y-56334522D02*
X101000000Y-50097837D01*
X141112612Y-47660000D02*
X149534757Y-58813176D01*
X163359506Y-64950453D02*
X168569775Y-67336610D01*
X200600000Y-69076934D02*
X189146735Y-67605566D01*
X183450169Y-52313542D02*
X195512367Y-57088934D01*
X154282341Y-73710791D02*
X163359506Y-64950453D01*
X115860021Y-56210250D02*
X119388436Y-63752217D01*
X101000000Y-47836213D02*
X101000000Y-98823786D01*
X177893342Y-81205148D02*
X178474552Y-84198758D01*
X130530988Y-68232028D02*
X128849195Y-69597449D01*
X195512367Y-57088934D02*
X196205261Y-57663658D01*
X180720977Y-78596622D02*
X184520246Y-73047974D01*
X148599098Y-74624449D02*
X144581290Y-64940788D01*
X131969672Y-56728380D02*
X133083122Y-62457799D01*
X123439901Y-85524710D02*
X124210519Y-85677183D01*
X170071736Y-68397147D02*
X182273397Y-63398197D01*
X154282341Y-73710791D02*
X153830678Y-71242305D01*
X123439901Y-85524710D02*
X123066202Y-85198061D01*
X138683484Y-77657355D02*
X144581290Y-64940788D01*
X158967656Y-82521422D02*
X158628210Y-91691869D01*
X162163372Y-79718563D02*
X168239952Y-72862524D01*
X160293924Y-47660000D02*
X154874298Y-57923223D01*
X184090591Y-87563529D02*
X189094390Y-79799592D01*
X198138798Y-49693012D02*
X196105786Y-47660000D01*
X181150503Y-54214083D02*
X172391375Y-54314479D01*
X170071736Y-68397147D02*
X178896798Y-72070015D01*
X153830678Y-71242305D02*
X157947031Y-61412117D01*
X181829557Y-71430229D02*
X183600710Y-64287249D01*
X200600000Y-71600734D02*
X191791263Y-76270350D01*
X154282341Y-73710791D02*
X154274108Y-73847233D01*
X116240856Y-99000000D02*
X123439901Y-85524710D01*
M02*
