%TF.GenerationSoftware,KiCad,Pcbnew,9.0.3*%
%TF.CreationDate,2026-02-23T11:54:41+01:00*%
%TF.ProjectId,Arduino Shield,41726475-696e-46f2-9053-6869656c642e,rev?*%
%TF.SameCoordinates,Original*%
%TF.FileFunction,Other,User*%
%FSLAX46Y46*%
G04 Gerber Fmt 4.6, Leading zero omitted, Abs format (unit mm)*
G04 Created by KiCad (PCBNEW 9.0.3) date 2026-02-23 11:54:41*
%MOMM*%
%LPD*%
G01*
G04 APERTURE LIST*
%ADD10C,0.050000*%
G04 APERTURE END LIST*
D10*
%TO.C,J7*%
X192220000Y-47430000D02*
X198320000Y-47430000D01*
X192220000Y-94180000D02*
X192220000Y-47430000D01*
X198320000Y-47430000D02*
X198320000Y-94180000D01*
X198320000Y-94180000D02*
X192220000Y-94180000D01*
%TO.C,J1*%
X126140000Y-95710000D02*
X147490000Y-95710000D01*
X126140000Y-99260000D02*
X126140000Y-95710000D01*
X147490000Y-95710000D02*
X147490000Y-99260000D01*
X147490000Y-99260000D02*
X126140000Y-99260000D01*
%TO.C,J3*%
X149000000Y-95710000D02*
X170350000Y-95710000D01*
X149000000Y-99260000D02*
X149000000Y-95710000D01*
X170350000Y-95710000D02*
X170350000Y-99260000D01*
X170350000Y-99260000D02*
X149000000Y-99260000D01*
%TO.C,J5*%
X171860000Y-95710000D02*
X193210000Y-95710000D01*
X171860000Y-99260000D02*
X171860000Y-95710000D01*
X193210000Y-95710000D02*
X193210000Y-99260000D01*
X193210000Y-99260000D02*
X171860000Y-99260000D01*
%TO.C,J2*%
X116996000Y-47450000D02*
X143396000Y-47450000D01*
X116996000Y-51000000D02*
X116996000Y-47450000D01*
X143396000Y-47450000D02*
X143396000Y-51000000D01*
X143396000Y-51000000D02*
X116996000Y-51000000D01*
%TO.C,J4*%
X143920000Y-47450000D02*
X165270000Y-47450000D01*
X143920000Y-51000000D02*
X143920000Y-47450000D01*
X165270000Y-47450000D02*
X165270000Y-51000000D01*
X165270000Y-51000000D02*
X143920000Y-51000000D01*
%TO.C,J6*%
X166780000Y-47450000D02*
X188130000Y-47450000D01*
X166780000Y-51000000D02*
X166780000Y-47450000D01*
X188130000Y-47450000D02*
X188130000Y-51000000D01*
X188130000Y-51000000D02*
X166780000Y-51000000D01*
%TO.C,F1*%
X180530000Y-84400000D02*
X180530000Y-60400000D01*
X180530000Y-84400000D02*
X187470000Y-84400000D01*
X187470000Y-60400000D02*
X180530000Y-60400000D01*
X187470000Y-60400000D02*
X187470000Y-84400000D01*
%TO.C,C15*%
X115050000Y-79500000D02*
X107950000Y-79500000D01*
X107950000Y-76500000D01*
X115050000Y-76500000D01*
X115050000Y-79500000D01*
%TO.C,C8*%
X151000000Y-66550000D02*
X154000000Y-66550000D01*
X154000000Y-59450000D01*
X151000000Y-59450000D01*
X151000000Y-66550000D01*
%TO.C,J22*%
X139000000Y-68500000D02*
X142000000Y-68500000D01*
X139000000Y-73500000D02*
X139000000Y-68500000D01*
X142000000Y-68500000D02*
X142000000Y-73500000D01*
X142000000Y-73500000D02*
X139000000Y-73500000D01*
%TO.C,C9*%
X115050000Y-84500000D02*
X107950000Y-84500000D01*
X107950000Y-81500000D01*
X115050000Y-81500000D01*
X115050000Y-84500000D01*
%TO.C,MH6*%
X198220000Y-97460000D02*
G75*
G02*
X194820000Y-97460000I-1700000J0D01*
G01*
X194820000Y-97460000D02*
G75*
G02*
X198220000Y-97460000I1700000J0D01*
G01*
%TO.C,J9*%
X115500000Y-52000000D02*
X134500000Y-52000000D01*
X115500000Y-55000000D02*
X115500000Y-52000000D01*
X134500000Y-52000000D02*
X134500000Y-55000000D01*
X134500000Y-55000000D02*
X115500000Y-55000000D01*
%TO.C,J19*%
X151000000Y-68500000D02*
X154000000Y-68500000D01*
X151000000Y-73500000D02*
X151000000Y-68500000D01*
X154000000Y-68500000D02*
X154000000Y-73500000D01*
X154000000Y-73500000D02*
X151000000Y-73500000D01*
%TO.C,C7*%
X145500000Y-66550000D02*
X148500000Y-66550000D01*
X148500000Y-59450000D01*
X145500000Y-59450000D01*
X145500000Y-66550000D01*
%TO.C,C13*%
X115050000Y-75000000D02*
X107950000Y-75000000D01*
X107950000Y-72000000D01*
X115050000Y-72000000D01*
X115050000Y-75000000D01*
%TO.C,J14*%
X117500000Y-76500000D02*
X134500000Y-76500000D01*
X117500000Y-79500000D02*
X117500000Y-76500000D01*
X134500000Y-76500000D02*
X134500000Y-79500000D01*
X134500000Y-79500000D02*
X117500000Y-79500000D01*
%TO.C,J12*%
X115500000Y-66500000D02*
X134500000Y-66500000D01*
X115500000Y-69500000D02*
X115500000Y-66500000D01*
X134500000Y-66500000D02*
X134500000Y-69500000D01*
X134500000Y-69500000D02*
X115500000Y-69500000D01*
%TO.C,J21*%
X145500000Y-68500000D02*
X148500000Y-68500000D01*
X145500000Y-73500000D02*
X145500000Y-68500000D01*
X148500000Y-68500000D02*
X148500000Y-73500000D01*
X148500000Y-73500000D02*
X145500000Y-73500000D01*
%TO.C,D1*%
X170030000Y-86650000D02*
X188970000Y-86650000D01*
X188970000Y-92350000D01*
X170030000Y-92350000D01*
X170030000Y-86650000D01*
%TO.C,C2*%
X176750000Y-68250000D02*
G75*
G02*
X168250000Y-68250000I-4250000J0D01*
G01*
X168250000Y-68250000D02*
G75*
G02*
X176750000Y-68250000I4250000J0D01*
G01*
%TO.C,C14*%
X115050000Y-70000000D02*
X107950000Y-70000000D01*
X107950000Y-67000000D01*
X115050000Y-67000000D01*
X115050000Y-70000000D01*
%TO.C,J23*%
X160500000Y-81000000D02*
X163500000Y-81000000D01*
X160500000Y-86000000D02*
X160500000Y-81000000D01*
X163500000Y-81000000D02*
X163500000Y-86000000D01*
X163500000Y-86000000D02*
X160500000Y-86000000D01*
%TO.C,J18*%
X160500000Y-55000000D02*
X163500000Y-55000000D01*
X160500000Y-60000000D02*
X160500000Y-55000000D01*
X163500000Y-55000000D02*
X163500000Y-60000000D01*
X163500000Y-60000000D02*
X160500000Y-60000000D01*
%TO.C,MH1*%
X116940000Y-49200000D02*
G75*
G02*
X113540000Y-49200000I-1700000J0D01*
G01*
X113540000Y-49200000D02*
G75*
G02*
X116940000Y-49200000I1700000J0D01*
G01*
%TO.C,J15*%
X151000000Y-75500000D02*
X154000000Y-75500000D01*
X151000000Y-84500000D02*
X151000000Y-75500000D01*
X154000000Y-75500000D02*
X154000000Y-84500000D01*
X154000000Y-84500000D02*
X151000000Y-84500000D01*
%TO.C,J8*%
X123500000Y-88000000D02*
X134500000Y-88000000D01*
X123500000Y-91000000D02*
X123500000Y-88000000D01*
X134500000Y-88000000D02*
X134500000Y-91000000D01*
X134500000Y-91000000D02*
X123500000Y-91000000D01*
%TO.C,C1*%
X176750000Y-57750000D02*
G75*
G02*
X168250000Y-57750000I-4250000J0D01*
G01*
X168250000Y-57750000D02*
G75*
G02*
X176750000Y-57750000I4250000J0D01*
G01*
%TO.C,C6*%
X139000000Y-66550000D02*
X142000000Y-66550000D01*
X142000000Y-59450000D01*
X139000000Y-59450000D01*
X139000000Y-66550000D01*
%TO.C,C10*%
X115050000Y-55000000D02*
X107950000Y-55000000D01*
X107950000Y-52000000D01*
X115050000Y-52000000D01*
X115050000Y-55000000D01*
%TO.C,C3*%
X176750000Y-77750000D02*
G75*
G02*
X168250000Y-77750000I-4250000J0D01*
G01*
X168250000Y-77750000D02*
G75*
G02*
X176750000Y-77750000I4250000J0D01*
G01*
%TO.C,J10*%
X115500000Y-57000000D02*
X134500000Y-57000000D01*
X115500000Y-60000000D02*
X115500000Y-57000000D01*
X134500000Y-57000000D02*
X134500000Y-60000000D01*
X134500000Y-60000000D02*
X115500000Y-60000000D01*
%TO.C,J11*%
X115500000Y-61500000D02*
X134500000Y-61500000D01*
X115500000Y-64500000D02*
X115500000Y-61500000D01*
X134500000Y-61500000D02*
X134500000Y-64500000D01*
X134500000Y-64500000D02*
X115500000Y-64500000D01*
%TO.C,J17*%
X139000000Y-75500000D02*
X142000000Y-75500000D01*
X139000000Y-84500000D02*
X139000000Y-75500000D01*
X142000000Y-75500000D02*
X142000000Y-84500000D01*
X142000000Y-84500000D02*
X139000000Y-84500000D01*
%TO.C,C11*%
X115050000Y-60000000D02*
X107950000Y-60000000D01*
X107950000Y-57000000D01*
X115050000Y-57000000D01*
X115050000Y-60000000D01*
%TO.C,MH2*%
X115670000Y-97460000D02*
G75*
G02*
X112270000Y-97460000I-1700000J0D01*
G01*
X112270000Y-97460000D02*
G75*
G02*
X115670000Y-97460000I1700000J0D01*
G01*
%TO.C,R1*%
X160500000Y-65870000D02*
X157500000Y-65870000D01*
X157500000Y-78130000D01*
X160500000Y-78130000D01*
X160500000Y-65870000D01*
%TO.C,C4*%
X115050000Y-89500000D02*
X107950000Y-89500000D01*
X107950000Y-86500000D01*
X115050000Y-86500000D01*
X115050000Y-89500000D01*
%TO.C,MH3*%
X167740000Y-64440000D02*
G75*
G02*
X164340000Y-64440000I-1700000J0D01*
G01*
X164340000Y-64440000D02*
G75*
G02*
X167740000Y-64440000I1700000J0D01*
G01*
%TO.C,MH4*%
X167740000Y-92380000D02*
G75*
G02*
X164340000Y-92380000I-1700000J0D01*
G01*
X164340000Y-92380000D02*
G75*
G02*
X167740000Y-92380000I1700000J0D01*
G01*
%TO.C,C12*%
X115050000Y-65000000D02*
X107950000Y-65000000D01*
X107950000Y-62000000D01*
X115050000Y-62000000D01*
X115050000Y-65000000D01*
%TO.C,J16*%
X145500000Y-75500000D02*
X148500000Y-75500000D01*
X145500000Y-84500000D02*
X145500000Y-75500000D01*
X148500000Y-75500000D02*
X148500000Y-84500000D01*
X148500000Y-84500000D02*
X145500000Y-84500000D01*
%TO.C,J13*%
X115500000Y-71500000D02*
X134500000Y-71500000D01*
X115500000Y-74500000D02*
X115500000Y-71500000D01*
X134500000Y-71500000D02*
X134500000Y-74500000D01*
X134500000Y-74500000D02*
X115500000Y-74500000D01*
%TO.C,MH5*%
X191870000Y-49200000D02*
G75*
G02*
X188470000Y-49200000I-1700000J0D01*
G01*
X188470000Y-49200000D02*
G75*
G02*
X191870000Y-49200000I1700000J0D01*
G01*
%TO.C,J20*%
X121500000Y-82000000D02*
X134500000Y-82000000D01*
X121500000Y-85000000D02*
X121500000Y-82000000D01*
X134500000Y-82000000D02*
X134500000Y-85000000D01*
X134500000Y-85000000D02*
X121500000Y-85000000D01*
%TD*%
M02*
