%TF.GenerationSoftware,KiCad,Pcbnew,9.0.3*%
%TF.CreationDate,2026-02-16T14:47:52+01:00*%
%TF.ProjectId,Arduino Shield,41726475-696e-46f2-9053-6869656c642e,rev?*%
%TF.SameCoordinates,Original*%
%TF.FileFunction,Copper,L2,Bot*%
%TF.FilePolarity,Positive*%
%FSLAX46Y46*%
G04 Gerber Fmt 4.6, Leading zero omitted, Abs format (unit mm)*
G04 Created by KiCad (PCBNEW 9.0.3) date 2026-02-16 14:47:52*
%MOMM*%
%LPD*%
G01*
G04 APERTURE LIST*
G04 Aperture macros list*
%AMRoundRect*
0 Rectangle with rounded corners*
0 $1 Rounding radius*
0 $2 $3 $4 $5 $6 $7 $8 $9 X,Y pos of 4 corners*
0 Add a 4 corners polygon primitive as box body*
4,1,4,$2,$3,$4,$5,$6,$7,$8,$9,$2,$3,0*
0 Add four circle primitives for the rounded corners*
1,1,$1+$1,$2,$3*
1,1,$1+$1,$4,$5*
1,1,$1+$1,$6,$7*
1,1,$1+$1,$8,$9*
0 Add four rect primitives between the rounded corners*
20,1,$1+$1,$2,$3,$4,$5,0*
20,1,$1+$1,$4,$5,$6,$7,0*
20,1,$1+$1,$6,$7,$8,$9,0*
20,1,$1+$1,$8,$9,$2,$3,0*%
G04 Aperture macros list end*
%TA.AperFunction,Conductor*%
%ADD10C,0.150000*%
%TD*%
%TA.AperFunction,ComponentPad*%
%ADD11O,1.700000X1.700000*%
%TD*%
%TA.AperFunction,ComponentPad*%
%ADD12R,1.700000X1.700000*%
%TD*%
%TA.AperFunction,ComponentPad*%
%ADD13C,2.700000*%
%TD*%
%TA.AperFunction,ComponentPad*%
%ADD14RoundRect,0.675000X0.675000X-0.675000X0.675000X0.675000X-0.675000X0.675000X-0.675000X-0.675000X0*%
%TD*%
%TA.AperFunction,ComponentPad*%
%ADD15C,1.600000*%
%TD*%
%TA.AperFunction,ComponentPad*%
%ADD16C,1.350000*%
%TD*%
%TA.AperFunction,ComponentPad*%
%ADD17R,1.350000X1.350000*%
%TD*%
%TA.AperFunction,ComponentPad*%
%ADD18C,3.200000*%
%TD*%
%TA.AperFunction,ComponentPad*%
%ADD19RoundRect,0.250000X-1.350000X-1.350000X1.350000X-1.350000X1.350000X1.350000X-1.350000X1.350000X0*%
%TD*%
%TA.AperFunction,ComponentPad*%
%ADD20RoundRect,0.250000X0.550000X-0.550000X0.550000X0.550000X-0.550000X0.550000X-0.550000X-0.550000X0*%
%TD*%
%TA.AperFunction,ViaPad*%
%ADD21C,0.600000*%
%TD*%
%TA.AperFunction,Conductor*%
%ADD22C,0.250000*%
%TD*%
G04 APERTURE END LIST*
D10*
%TO.N,GND*%
X114000000Y-78500000D02*
X114000000Y-82500000D01*
%TD*%
D11*
%TO.P,J7,36,Pin_36*%
%TO.N,+5V*%
X196520000Y-49200000D03*
%TO.P,J7,35,Pin_35*%
X193980000Y-49200000D03*
%TO.P,J7,34,Pin_34*%
%TO.N,CH1_SCR_DC*%
X196520000Y-51740000D03*
%TO.P,J7,33,Pin_33*%
%TO.N,CH1_SCR_CS*%
X193980000Y-51740000D03*
%TO.P,J7,32,Pin_32*%
%TO.N,CH1_ENC_DT*%
X196520000Y-54280000D03*
%TO.P,J7,31,Pin_31*%
%TO.N,CH1_ENC_CLK*%
X193980000Y-54280000D03*
%TO.P,J7,30,Pin_30*%
%TO.N,CH2_SCR_CS*%
X196520000Y-56820000D03*
%TO.P,J7,29,Pin_29*%
%TO.N,CH1_ENC_SW*%
X193980000Y-56820000D03*
%TO.P,J7,28,Pin_28*%
%TO.N,CH2_ENC_CLK*%
X196520000Y-59360000D03*
%TO.P,J7,27,Pin_27*%
%TO.N,CH2_SCR_DC*%
X193980000Y-59360000D03*
%TO.P,J7,26,Pin_26*%
%TO.N,CH2_ENC_SW*%
X196520000Y-61900000D03*
%TO.P,J7,25,Pin_25*%
%TO.N,CH2_ENC_DT*%
X193980000Y-61900000D03*
%TO.P,J7,24,Pin_24*%
%TO.N,CH3_SCR_DC*%
X196520000Y-64440000D03*
%TO.P,J7,23,Pin_23*%
%TO.N,CH3_SCR_CS*%
X193980000Y-64440000D03*
%TO.P,J7,22,Pin_22*%
%TO.N,CH3_ENC_DT*%
X196520000Y-66980000D03*
%TO.P,J7,21,Pin_21*%
%TO.N,CH3_ENC_CLK*%
X193980000Y-66980000D03*
%TO.P,J7,20,Pin_20*%
%TO.N,CH4_SCR_CS*%
X196520000Y-69520000D03*
%TO.P,J7,19,Pin_19*%
%TO.N,CH3_ENC_SW*%
X193980000Y-69520000D03*
%TO.P,J7,18,Pin_18*%
%TO.N,CH4_ENC_CLK*%
X196520000Y-72060000D03*
%TO.P,J7,17,Pin_17*%
%TO.N,CH4_SCR_DC*%
X193980000Y-72060000D03*
%TO.P,J7,16,Pin_16*%
%TO.N,CH4_ENC_SW*%
X196520000Y-74600000D03*
%TO.P,J7,15,Pin_15*%
%TO.N,CH4_ENC_DT*%
X193980000Y-74600000D03*
%TO.P,J7,14,Pin_14*%
%TO.N,CH5_SCR_DC*%
X196520000Y-77140000D03*
%TO.P,J7,13,Pin_13*%
%TO.N,CH5_SCR_CS*%
X193980000Y-77140000D03*
%TO.P,J7,12,Pin_12*%
%TO.N,CH5_ENC_DT*%
X196520000Y-79680000D03*
%TO.P,J7,11,Pin_11*%
%TO.N,CH5_ENC_CLK*%
X193980000Y-79680000D03*
%TO.P,J7,10,Pin_10*%
%TO.N,/47*%
X196520000Y-82220000D03*
%TO.P,J7,9,Pin_9*%
%TO.N,CH5_ENC_SW*%
X193980000Y-82220000D03*
%TO.P,J7,8,Pin_8*%
%TO.N,CH_MAIN_SCR_DC*%
X196520000Y-84760000D03*
%TO.P,J7,7,Pin_7*%
%TO.N,SHARED_RST*%
X193980000Y-84760000D03*
%TO.P,J7,6,Pin_6*%
%TO.N,SPI_MOSI*%
X196520000Y-87300000D03*
%TO.P,J7,5,Pin_5*%
%TO.N,SPI_MISO*%
X193980000Y-87300000D03*
%TO.P,J7,4,Pin_4*%
%TO.N,SD_CS*%
X196520000Y-89840000D03*
%TO.P,J7,3,Pin_3*%
%TO.N,SPI_SCK*%
X193980000Y-89840000D03*
%TO.P,J7,2,Pin_2*%
%TO.N,GND*%
X196520000Y-92380000D03*
D12*
%TO.P,J7,1,Pin_1*%
X193980000Y-92380000D03*
%TD*%
D11*
%TO.P,J1,8,Pin_8*%
%TO.N,VCC*%
X145720000Y-97460000D03*
%TO.P,J1,7,Pin_7*%
%TO.N,GND*%
X143180000Y-97460000D03*
%TO.P,J1,6,Pin_6*%
X140640000Y-97460000D03*
%TO.P,J1,5,Pin_5*%
%TO.N,+5V*%
X138100000Y-97460000D03*
%TO.P,J1,4,Pin_4*%
%TO.N,+3V3*%
X135560000Y-97460000D03*
%TO.P,J1,3,Pin_3*%
%TO.N,/~{RESET}*%
X133020000Y-97460000D03*
%TO.P,J1,2,Pin_2*%
%TO.N,/IOREF*%
X130480000Y-97460000D03*
D12*
%TO.P,J1,1,Pin_1*%
%TO.N,unconnected-(J1-Pin_1-Pad1)*%
X127940000Y-97460000D03*
%TD*%
D11*
%TO.P,J3,8,Pin_8*%
%TO.N,CH_MAIN_ENC_DT*%
X168580000Y-97460000D03*
%TO.P,J3,7,Pin_7*%
%TO.N,CH_MAIN_ENC_CLK*%
X166040000Y-97460000D03*
%TO.P,J3,6,Pin_6*%
%TO.N,CH_MAIN_SCR_CS*%
X163500000Y-97460000D03*
%TO.P,J3,5,Pin_5*%
%TO.N,CH5_FADER_OUT*%
X160960000Y-97460000D03*
%TO.P,J3,4,Pin_4*%
%TO.N,CH4_FADER_OUT*%
X158420000Y-97460000D03*
%TO.P,J3,3,Pin_3*%
%TO.N,CH3_FADER_OUT*%
X155880000Y-97460000D03*
%TO.P,J3,2,Pin_2*%
%TO.N,CH2_FADER_OUT*%
X153340000Y-97460000D03*
D12*
%TO.P,J3,1,Pin_1*%
%TO.N,CH1_FADER_OUT*%
X150800000Y-97460000D03*
%TD*%
D11*
%TO.P,J5,8,Pin_8*%
%TO.N,/A15*%
X191440000Y-97460000D03*
%TO.P,J5,7,Pin_7*%
%TO.N,MAIN_SCR_RST*%
X188900000Y-97460000D03*
%TO.P,J5,6,Pin_6*%
%TO.N,CH5_SCR_RST*%
X186360000Y-97460000D03*
%TO.P,J5,5,Pin_5*%
%TO.N,CH4_SCR_RST*%
X183820000Y-97460000D03*
%TO.P,J5,4,Pin_4*%
%TO.N,CH3_SCR_RST*%
X181280000Y-97460000D03*
%TO.P,J5,3,Pin_3*%
%TO.N,CH2_SCR_RST*%
X178740000Y-97460000D03*
%TO.P,J5,2,Pin_2*%
%TO.N,CH1_SCR_RST*%
X176200000Y-97460000D03*
D12*
%TO.P,J5,1,Pin_1*%
%TO.N,CH_MAIN_ENC_SW*%
X173660000Y-97460000D03*
%TD*%
D11*
%TO.P,J2,10,Pin_10*%
%TO.N,CH4_MOTOR_A*%
X141656000Y-49200000D03*
%TO.P,J2,9,Pin_9*%
%TO.N,CH4_MOTOR_B*%
X139116000Y-49200000D03*
%TO.P,J2,8,Pin_8*%
%TO.N,CH5_MOTOR_A*%
X136576000Y-49200000D03*
%TO.P,J2,7,Pin_7*%
%TO.N,CH5_MOTOR_B*%
X134036000Y-49200000D03*
%TO.P,J2,6,Pin_6*%
%TO.N,SCR_BL_PWM*%
X131496000Y-49200000D03*
%TO.P,J2,5,Pin_5*%
%TO.N,GND*%
X128956000Y-49200000D03*
%TO.P,J2,4,Pin_4*%
X126416000Y-49200000D03*
%TO.P,J2,3,Pin_3*%
%TO.N,/AREF*%
X123876000Y-49200000D03*
%TO.P,J2,2,Pin_2*%
%TO.N,/SDA{slash}20*%
X121336000Y-49200000D03*
D12*
%TO.P,J2,1,Pin_1*%
%TO.N,/SCL{slash}21*%
X118796000Y-49200000D03*
%TD*%
D11*
%TO.P,J4,8,Pin_8*%
%TO.N,/RX0{slash}0*%
X163500000Y-49200000D03*
%TO.P,J4,7,Pin_7*%
%TO.N,/TX0{slash}1*%
X160960000Y-49200000D03*
%TO.P,J4,6,Pin_6*%
%TO.N,CH1_MOTOR_A*%
X158420000Y-49200000D03*
%TO.P,J4,5,Pin_5*%
%TO.N,CH1_MOTOR_B*%
X155880000Y-49200000D03*
%TO.P,J4,4,Pin_4*%
%TO.N,CH2_MOTOR_A*%
X153340000Y-49200000D03*
%TO.P,J4,3,Pin_3*%
%TO.N,CH2_MOTOR_B*%
X150800000Y-49200000D03*
%TO.P,J4,2,Pin_2*%
%TO.N,CH3_MOTOR_A*%
X148260000Y-49200000D03*
D12*
%TO.P,J4,1,Pin_1*%
%TO.N,CH3_MOTOR_B*%
X145720000Y-49200000D03*
%TD*%
D11*
%TO.P,J6,8,Pin_8*%
%TO.N,/SCL{slash}21*%
X186360000Y-49200000D03*
%TO.P,J6,7,Pin_7*%
%TO.N,/SDA{slash}20*%
X183820000Y-49200000D03*
%TO.P,J6,6,Pin_6*%
%TO.N,/RX1{slash}19*%
X181280000Y-49200000D03*
%TO.P,J6,5,Pin_5*%
%TO.N,/TX1{slash}18*%
X178740000Y-49200000D03*
%TO.P,J6,4,Pin_4*%
%TO.N,/RX2{slash}17*%
X176200000Y-49200000D03*
%TO.P,J6,3,Pin_3*%
%TO.N,/TX2{slash}16*%
X173660000Y-49200000D03*
%TO.P,J6,2,Pin_2*%
%TO.N,/RX3{slash}15*%
X171120000Y-49200000D03*
D12*
%TO.P,J6,1,Pin_1*%
%TO.N,/TX3{slash}14*%
X168580000Y-49200000D03*
%TD*%
D13*
%TO.P,F1,2*%
%TO.N,Net-(J18-Pin_1)*%
X184000000Y-62000000D03*
X184000000Y-68760000D03*
D14*
%TO.P,F1,1*%
%TO.N,Net-(D1-A)*%
X184000000Y-76040000D03*
X184000000Y-82800000D03*
%TD*%
D15*
%TO.P,C15,2*%
%TO.N,E_VCC*%
X109000000Y-78000000D03*
%TO.P,C15,1*%
%TO.N,GND*%
X114000000Y-78000000D03*
%TD*%
%TO.P,C8,2*%
%TO.N,GND*%
X152500000Y-60500000D03*
%TO.P,C8,1*%
%TO.N,E_VCC*%
X152500000Y-65500000D03*
%TD*%
D16*
%TO.P,J22,2,Pin_2*%
%TO.N,E_VCC*%
X140500000Y-72000000D03*
D17*
%TO.P,J22,1,Pin_1*%
%TO.N,GND*%
X140500000Y-70000000D03*
%TD*%
D15*
%TO.P,C9,2*%
%TO.N,E_VCC*%
X109000000Y-83000000D03*
%TO.P,C9,1*%
%TO.N,GND*%
X114000000Y-83000000D03*
%TD*%
D16*
%TO.P,J9,9,Pin_9*%
%TO.N,CH1_SCR_RST*%
X117000000Y-53500000D03*
%TO.P,J9,8,Pin_8*%
%TO.N,CH1_FADER_OUT*%
X119000000Y-53500000D03*
%TO.P,J9,7,Pin_7*%
%TO.N,CH1_ENC_SW*%
X121000000Y-53500000D03*
%TO.P,J9,6,Pin_6*%
%TO.N,CH1_ENC_DT*%
X123000000Y-53500000D03*
%TO.P,J9,5,Pin_5*%
%TO.N,CH1_ENC_CLK*%
X125000000Y-53500000D03*
%TO.P,J9,4,Pin_4*%
%TO.N,CH1_SCR_DC*%
X127000000Y-53500000D03*
%TO.P,J9,3,Pin_3*%
%TO.N,CH1_SCR_CS*%
X129000000Y-53500000D03*
%TO.P,J9,2,Pin_2*%
%TO.N,E_VCC*%
X131000000Y-53500000D03*
D17*
%TO.P,J9,1,Pin_1*%
%TO.N,GND*%
X133000000Y-53500000D03*
%TD*%
D16*
%TO.P,J19,2,Pin_2*%
%TO.N,E_VCC*%
X152500000Y-72000000D03*
D17*
%TO.P,J19,1,Pin_1*%
%TO.N,GND*%
X152500000Y-70000000D03*
%TD*%
D15*
%TO.P,C7,2*%
%TO.N,GND*%
X147000000Y-60500000D03*
%TO.P,C7,1*%
%TO.N,E_VCC*%
X147000000Y-65500000D03*
%TD*%
%TO.P,C13,2*%
%TO.N,E_VCC*%
X109000000Y-73500000D03*
%TO.P,C13,1*%
%TO.N,GND*%
X114000000Y-73500000D03*
%TD*%
D16*
%TO.P,J14,8,Pin_8*%
%TO.N,MAIN_SCR_RST*%
X119000000Y-78000000D03*
%TO.P,J14,7,Pin_7*%
%TO.N,CH_MAIN_ENC_SW*%
X121000000Y-78000000D03*
%TO.P,J14,6,Pin_6*%
%TO.N,CH_MAIN_ENC_DT*%
X123000000Y-78000000D03*
%TO.P,J14,5,Pin_5*%
%TO.N,CH_MAIN_ENC_CLK*%
X125000000Y-78000000D03*
%TO.P,J14,4,Pin_4*%
%TO.N,CH_MAIN_SCR_DC*%
X127000000Y-78000000D03*
%TO.P,J14,3,Pin_3*%
%TO.N,CH_MAIN_SCR_CS*%
X129000000Y-78000000D03*
%TO.P,J14,2,Pin_2*%
%TO.N,E_VCC*%
X131000000Y-78000000D03*
D17*
%TO.P,J14,1,Pin_1*%
%TO.N,GND*%
X133000000Y-78000000D03*
%TD*%
D16*
%TO.P,J12,9,Pin_9*%
%TO.N,CH4_SCR_RST*%
X117000000Y-68000000D03*
%TO.P,J12,8,Pin_8*%
%TO.N,CH4_FADER_OUT*%
X119000000Y-68000000D03*
%TO.P,J12,7,Pin_7*%
%TO.N,CH4_ENC_SW*%
X121000000Y-68000000D03*
%TO.P,J12,6,Pin_6*%
%TO.N,CH4_ENC_DT*%
X123000000Y-68000000D03*
%TO.P,J12,5,Pin_5*%
%TO.N,CH4_ENC_CLK*%
X125000000Y-68000000D03*
%TO.P,J12,4,Pin_4*%
%TO.N,CH4_SCR_DC*%
X127000000Y-68000000D03*
%TO.P,J12,3,Pin_3*%
%TO.N,CH4_SCR_CS*%
X129000000Y-68000000D03*
%TO.P,J12,2,Pin_2*%
%TO.N,E_VCC*%
X131000000Y-68000000D03*
D17*
%TO.P,J12,1,Pin_1*%
%TO.N,GND*%
X133000000Y-68000000D03*
%TD*%
D16*
%TO.P,J21,2,Pin_2*%
%TO.N,E_VCC*%
X147000000Y-72000000D03*
D17*
%TO.P,J21,1,Pin_1*%
%TO.N,GND*%
X147000000Y-70000000D03*
%TD*%
D18*
%TO.P,D1,2,A*%
%TO.N,Net-(D1-A)*%
X187120000Y-89500000D03*
D19*
%TO.P,D1,1,K*%
%TO.N,E_VCC*%
X171880000Y-89500000D03*
%TD*%
D15*
%TO.P,C2,2*%
%TO.N,GND*%
X172500000Y-66500000D03*
D20*
%TO.P,C2,1*%
%TO.N,E_VCC*%
X172500000Y-70000000D03*
%TD*%
D15*
%TO.P,C14,2*%
%TO.N,E_VCC*%
X109000000Y-68500000D03*
%TO.P,C14,1*%
%TO.N,GND*%
X114000000Y-68500000D03*
%TD*%
D16*
%TO.P,J23,2,Pin_2*%
%TO.N,Net-(J23-Pin_2)*%
X162000000Y-82500000D03*
D17*
%TO.P,J23,1,Pin_1*%
%TO.N,E_VCC*%
X162000000Y-84500000D03*
%TD*%
D16*
%TO.P,J18,2,Pin_2*%
%TO.N,GND*%
X162000000Y-56500000D03*
D17*
%TO.P,J18,1,Pin_1*%
%TO.N,Net-(J18-Pin_1)*%
X162000000Y-58500000D03*
%TD*%
D16*
%TO.P,J15,4,Pin_4*%
%TO.N,unconnected-(J15-Pin_4-Pad4)*%
X152500000Y-83000000D03*
%TO.P,J15,3,Pin_3*%
%TO.N,unconnected-(J15-Pin_3-Pad3)*%
X152500000Y-81000000D03*
%TO.P,J15,2,Pin_2*%
%TO.N,CH5_MOTOR_B*%
X152500000Y-79000000D03*
D17*
%TO.P,J15,1,Pin_1*%
%TO.N,CH5_MOTOR_A*%
X152500000Y-77000000D03*
%TD*%
D16*
%TO.P,J8,5,Pin_5*%
%TO.N,SCR_BL_PWM*%
X125000000Y-89500000D03*
%TO.P,J8,4,Pin_4*%
%TO.N,SPI_MOSI*%
X127000000Y-89500000D03*
%TO.P,J8,3,Pin_3*%
%TO.N,SPI_SCK*%
X129000000Y-89500000D03*
%TO.P,J8,2,Pin_2*%
%TO.N,E_VCC*%
X131000000Y-89500000D03*
D17*
%TO.P,J8,1,Pin_1*%
%TO.N,GND*%
X133000000Y-89500000D03*
%TD*%
D15*
%TO.P,C1,2*%
%TO.N,GND*%
X172500000Y-56000000D03*
D20*
%TO.P,C1,1*%
%TO.N,E_VCC*%
X172500000Y-59500000D03*
%TD*%
D15*
%TO.P,C6,2*%
%TO.N,E_VCC*%
X140500000Y-60500000D03*
%TO.P,C6,1*%
%TO.N,GND*%
X140500000Y-65500000D03*
%TD*%
%TO.P,C10,2*%
%TO.N,E_VCC*%
X109000000Y-53500000D03*
%TO.P,C10,1*%
%TO.N,GND*%
X114000000Y-53500000D03*
%TD*%
%TO.P,C3,2*%
%TO.N,GND*%
X172500000Y-76000000D03*
D20*
%TO.P,C3,1*%
%TO.N,E_VCC*%
X172500000Y-79500000D03*
%TD*%
D16*
%TO.P,J10,9,Pin_9*%
%TO.N,CH2_SCR_RST*%
X117000000Y-58500000D03*
%TO.P,J10,8,Pin_8*%
%TO.N,CH2_FADER_OUT*%
X119000000Y-58500000D03*
%TO.P,J10,7,Pin_7*%
%TO.N,CH2_ENC_SW*%
X121000000Y-58500000D03*
%TO.P,J10,6,Pin_6*%
%TO.N,CH2_ENC_DT*%
X123000000Y-58500000D03*
%TO.P,J10,5,Pin_5*%
%TO.N,CH2_ENC_CLK*%
X125000000Y-58500000D03*
%TO.P,J10,4,Pin_4*%
%TO.N,CH2_SCR_DC*%
X127000000Y-58500000D03*
%TO.P,J10,3,Pin_3*%
%TO.N,CH2_SCR_CS*%
X129000000Y-58500000D03*
%TO.P,J10,2,Pin_2*%
%TO.N,E_VCC*%
X131000000Y-58500000D03*
D17*
%TO.P,J10,1,Pin_1*%
%TO.N,GND*%
X133000000Y-58500000D03*
%TD*%
D16*
%TO.P,J11,9,Pin_9*%
%TO.N,CH3_SCR_RST*%
X117000000Y-63000000D03*
%TO.P,J11,8,Pin_8*%
%TO.N,CH3_FADER_OUT*%
X119000000Y-63000000D03*
%TO.P,J11,7,Pin_7*%
%TO.N,CH3_ENC_SW*%
X121000000Y-63000000D03*
%TO.P,J11,6,Pin_6*%
%TO.N,CH3_ENC_DT*%
X123000000Y-63000000D03*
%TO.P,J11,5,Pin_5*%
%TO.N,CH3_ENC_CLK*%
X125000000Y-63000000D03*
%TO.P,J11,4,Pin_4*%
%TO.N,CH3_SCR_DC*%
X127000000Y-63000000D03*
%TO.P,J11,3,Pin_3*%
%TO.N,CH3_SCR_CS*%
X129000000Y-63000000D03*
%TO.P,J11,2,Pin_2*%
%TO.N,E_VCC*%
X131000000Y-63000000D03*
D17*
%TO.P,J11,1,Pin_1*%
%TO.N,GND*%
X133000000Y-63000000D03*
%TD*%
D16*
%TO.P,J17,4,Pin_4*%
%TO.N,CH2_MOTOR_B*%
X140500000Y-83000000D03*
%TO.P,J17,3,Pin_3*%
%TO.N,CH2_MOTOR_A*%
X140500000Y-81000000D03*
%TO.P,J17,2,Pin_2*%
%TO.N,CH1_MOTOR_B*%
X140500000Y-79000000D03*
D17*
%TO.P,J17,1,Pin_1*%
%TO.N,CH1_MOTOR_A*%
X140500000Y-77000000D03*
%TD*%
D15*
%TO.P,C11,2*%
%TO.N,E_VCC*%
X109000000Y-58500000D03*
%TO.P,C11,1*%
%TO.N,GND*%
X114000000Y-58500000D03*
%TD*%
%TO.P,R1,2*%
%TO.N,GND*%
X159000000Y-77080000D03*
%TO.P,R1,1*%
%TO.N,Net-(J23-Pin_2)*%
X159000000Y-66920000D03*
%TD*%
%TO.P,C4,2*%
%TO.N,E_VCC*%
X109000000Y-88000000D03*
%TO.P,C4,1*%
%TO.N,GND*%
X114000000Y-88000000D03*
%TD*%
%TO.P,C12,2*%
%TO.N,E_VCC*%
X109000000Y-63500000D03*
%TO.P,C12,1*%
%TO.N,GND*%
X114000000Y-63500000D03*
%TD*%
D16*
%TO.P,J16,4,Pin_4*%
%TO.N,CH4_MOTOR_B*%
X147000000Y-83000000D03*
%TO.P,J16,3,Pin_3*%
%TO.N,CH4_MOTOR_A*%
X147000000Y-81000000D03*
%TO.P,J16,2,Pin_2*%
%TO.N,CH3_MOTOR_B*%
X147000000Y-79000000D03*
D17*
%TO.P,J16,1,Pin_1*%
%TO.N,CH3_MOTOR_A*%
X147000000Y-77000000D03*
%TD*%
D16*
%TO.P,J13,9,Pin_9*%
%TO.N,CH5_SCR_RST*%
X117000000Y-73000000D03*
%TO.P,J13,8,Pin_8*%
%TO.N,CH5_FADER_OUT*%
X119000000Y-73000000D03*
%TO.P,J13,7,Pin_7*%
%TO.N,CH5_ENC_SW*%
X121000000Y-73000000D03*
%TO.P,J13,6,Pin_6*%
%TO.N,CH5_ENC_DT*%
X123000000Y-73000000D03*
%TO.P,J13,5,Pin_5*%
%TO.N,CH5_ENC_CLK*%
X125000000Y-73000000D03*
%TO.P,J13,4,Pin_4*%
%TO.N,CH5_SCR_DC*%
X127000000Y-73000000D03*
%TO.P,J13,3,Pin_3*%
%TO.N,CH5_SCR_CS*%
X129000000Y-73000000D03*
%TO.P,J13,2,Pin_2*%
%TO.N,E_VCC*%
X131000000Y-73000000D03*
D17*
%TO.P,J13,1,Pin_1*%
%TO.N,GND*%
X133000000Y-73000000D03*
%TD*%
D16*
%TO.P,J20,6,Pin_6*%
%TO.N,SD_CS*%
X123000000Y-83500000D03*
%TO.P,J20,5,Pin_5*%
%TO.N,SPI_SCK*%
X125000000Y-83500000D03*
%TO.P,J20,4,Pin_4*%
%TO.N,SPI_MISO*%
X127000000Y-83500000D03*
%TO.P,J20,3,Pin_3*%
%TO.N,SPI_MOSI*%
X129000000Y-83500000D03*
%TO.P,J20,2,Pin_2*%
%TO.N,E_VCC*%
X131000000Y-83500000D03*
D17*
%TO.P,J20,1,Pin_1*%
%TO.N,GND*%
X133000000Y-83500000D03*
%TD*%
D21*
%TO.N,GND*%
X139876600Y-62671800D03*
%TO.N,E_VCC*%
X172500000Y-83740200D03*
%TO.N,+5V*%
X185811400Y-87532800D03*
X140125000Y-89002000D03*
%TO.N,CH5_SCR_RST*%
X117282000Y-91840500D03*
%TO.N,MAIN_SCR_RST*%
X121748900Y-99304000D03*
%TO.N,CH3_SCR_RST*%
X122240000Y-98636700D03*
%TO.N,CH4_SCR_RST*%
X117352800Y-93149300D03*
%TO.N,CH1_SCR_RST*%
X173745900Y-55316200D03*
%TO.N,CH2_SCR_RST*%
X158480900Y-58001500D03*
%TO.N,Net-(J18-Pin_1)*%
X178382100Y-57900700D03*
%TO.N,SCR_BL_PWM*%
X145596000Y-90773400D03*
%TO.N,CH1_ENC_CLK*%
X182406500Y-50754800D03*
X129185900Y-51251200D03*
%TO.N,CH2_ENC_SW*%
X119091800Y-51195100D03*
X190081200Y-51721200D03*
%TO.N,CH2_FADER_OUT*%
X150813300Y-57964600D03*
%TO.N,CH2_ENC_DT*%
X191223100Y-54889500D03*
X140493100Y-53750600D03*
X138462100Y-60464900D03*
%TO.N,CH3_ENC_DT*%
X190249400Y-58713300D03*
%TO.N,CH3_FADER_OUT*%
X150383200Y-77227300D03*
X143531900Y-65772400D03*
X143704100Y-75536100D03*
%TO.N,CH4_FADER_OUT*%
X133489900Y-70906600D03*
%TO.N,CH4_SCR_DC*%
X192266800Y-70077000D03*
%TO.N,CH5_FADER_OUT*%
X121806300Y-97672700D03*
%TO.N,CH_MAIN_ENC_DT*%
X125350700Y-93399200D03*
%TO.N,CH_MAIN_ENC_CLK*%
X122672500Y-93712600D03*
%TO.N,CH_MAIN_ENC_SW*%
X120198500Y-92299400D03*
X161580600Y-92607200D03*
%TO.N,CH_MAIN_SCR_CS*%
X163262100Y-86098200D03*
%TO.N,CH5_MOTOR_A*%
X154610000Y-49851200D03*
%TO.N,CH5_MOTOR_B*%
X145204000Y-75797400D03*
%TO.N,CH2_MOTOR_B*%
X144481800Y-82584200D03*
%TO.N,CH1_MOTOR_A*%
X137974500Y-50373100D03*
%TD*%
D22*
%TO.N,GND*%
X133000000Y-63000000D02*
X133000000Y-68000000D01*
X114000000Y-73500000D02*
X114000000Y-78000000D01*
X162000000Y-56500000D02*
X156500000Y-56500000D01*
X133000000Y-83500000D02*
X133000000Y-89500000D01*
X173633800Y-65366200D02*
X172500000Y-66500000D01*
X128956000Y-49200000D02*
X128956000Y-50376700D01*
X173633800Y-57133800D02*
X173633800Y-65366200D01*
X133000000Y-69001700D02*
X132863200Y-69138500D01*
X133000000Y-83500000D02*
X133000000Y-78000000D01*
X114000000Y-68500000D02*
X114000000Y-73500000D01*
X133000000Y-53500000D02*
X133000000Y-58500000D01*
X147000000Y-60500000D02*
X148181200Y-61681200D01*
X133000000Y-89500000D02*
X133000000Y-90501700D01*
X136914200Y-98013900D02*
X136914200Y-94415900D01*
X114000000Y-53500000D02*
X114000000Y-58500000D01*
X114000000Y-63500000D02*
X114000000Y-58500000D01*
X133000000Y-53500000D02*
X129876700Y-50376700D01*
X132863200Y-69138500D02*
X132863200Y-71861500D01*
X159000000Y-77080000D02*
X152500000Y-70580000D01*
X140500000Y-70000000D02*
X140500000Y-65500000D01*
X137552600Y-98652300D02*
X136914200Y-98013900D01*
X172500000Y-76000000D02*
X171328400Y-74828400D01*
X139463300Y-97460000D02*
X139463300Y-97827700D01*
X114000000Y-83000000D02*
X114000000Y-88000000D01*
X148181200Y-61681200D02*
X148181200Y-66230000D01*
X138638700Y-98652300D02*
X137552600Y-98652300D01*
X148181200Y-66230000D02*
X147000000Y-67411200D01*
X139463300Y-97827700D02*
X138638700Y-98652300D01*
X129876700Y-50376700D02*
X128956000Y-50376700D01*
X140500000Y-65500000D02*
X139876600Y-64876600D01*
X132863200Y-71861500D02*
X133000000Y-71998300D01*
X133000000Y-73000000D02*
X133000000Y-71998300D01*
X133000000Y-78000000D02*
X133000000Y-73000000D01*
X171328400Y-74828400D02*
X171328400Y-67671600D01*
X172500000Y-56000000D02*
X173633800Y-57133800D01*
X139876600Y-64876600D02*
X139876600Y-62671800D01*
X133000000Y-63000000D02*
X133000000Y-58500000D01*
X171328400Y-67671600D02*
X172500000Y-66500000D01*
X114000000Y-63500000D02*
X114000000Y-68500000D01*
X156500000Y-56500000D02*
X152500000Y-60500000D01*
X147000000Y-67411200D02*
X147000000Y-68998300D01*
X136914200Y-94415900D02*
X133000000Y-90501700D01*
X147000000Y-70000000D02*
X147000000Y-68998300D01*
X152500000Y-70580000D02*
X152500000Y-70000000D01*
X140640000Y-97460000D02*
X139463300Y-97460000D01*
X133000000Y-68000000D02*
X133000000Y-69001700D01*
%TO.N,Net-(J23-Pin_2)*%
X162000000Y-69920000D02*
X162000000Y-82500000D01*
X159000000Y-66920000D02*
X162000000Y-69920000D01*
%TO.N,E_VCC*%
X172500000Y-79500000D02*
X172500000Y-83740200D01*
X152500000Y-72000000D02*
X151478400Y-70978400D01*
X172500000Y-88880000D02*
X171880000Y-89500000D01*
X109000000Y-73500000D02*
X109000000Y-78000000D01*
X152500000Y-66402900D02*
X152500000Y-65500000D01*
X173642300Y-71142300D02*
X172500000Y-70000000D01*
X109000000Y-53500000D02*
X109000000Y-58500000D01*
X172500000Y-83740200D02*
X172500000Y-88880000D01*
X162000000Y-84500000D02*
X152500000Y-75000000D01*
X152500000Y-75000000D02*
X152500000Y-72000000D01*
X172500000Y-79500000D02*
X173642300Y-78357700D01*
X131000000Y-83500000D02*
X131000000Y-78000000D01*
X109000000Y-88000000D02*
X109000000Y-83000000D01*
X131000000Y-89500000D02*
X131000000Y-83500000D01*
X109000000Y-63500000D02*
X109000000Y-58500000D01*
X131000000Y-53500000D02*
X131000000Y-58500000D01*
X140500000Y-60500000D02*
X139249900Y-61750100D01*
X151478400Y-70978400D02*
X151478400Y-67424500D01*
X139249900Y-61750100D02*
X139249900Y-70749900D01*
X131000000Y-78000000D02*
X131000000Y-73000000D01*
X131000000Y-63000000D02*
X131000000Y-58500000D01*
X172500000Y-59500000D02*
X170876700Y-61123300D01*
X131000000Y-68000000D02*
X131000000Y-63000000D01*
X131000000Y-73000000D02*
X131000000Y-68000000D01*
X139249900Y-70749900D02*
X140500000Y-72000000D01*
X109000000Y-73500000D02*
X109000000Y-68500000D01*
X109000000Y-78000000D02*
X109000000Y-83000000D01*
X170876700Y-77876700D02*
X172500000Y-79500000D01*
X109000000Y-68500000D02*
X109000000Y-63500000D01*
X173642300Y-78357700D02*
X173642300Y-71142300D01*
X151478400Y-67424500D02*
X152500000Y-66402900D01*
X170876700Y-61123300D02*
X170876700Y-77876700D01*
%TO.N,+5V*%
X138100000Y-97460000D02*
X138100000Y-96759100D01*
X196887700Y-50376700D02*
X198233600Y-51722600D01*
X196520000Y-50376700D02*
X196887700Y-50376700D01*
X198233600Y-66950500D02*
X196934100Y-68250000D01*
X193207600Y-68250000D02*
X185811400Y-75646200D01*
X140125000Y-94734100D02*
X140125000Y-89002000D01*
X185811400Y-75646200D02*
X185811400Y-87532800D01*
X196934100Y-68250000D02*
X193207600Y-68250000D01*
X198233600Y-51722600D02*
X198233600Y-66950500D01*
X196520000Y-49200000D02*
X196520000Y-50376700D01*
X138100000Y-96759100D02*
X140125000Y-94734100D01*
%TO.N,CH5_SCR_RST*%
X117000000Y-91558500D02*
X117282000Y-91840500D01*
X117000000Y-73000000D02*
X117000000Y-91558500D01*
%TO.N,MAIN_SCR_RST*%
X122540200Y-99304000D02*
X121748900Y-99304000D01*
X122902700Y-96175300D02*
X122902700Y-98941500D01*
X119000000Y-78000000D02*
X119000000Y-92272600D01*
X122902700Y-98941500D02*
X122540200Y-99304000D01*
X119000000Y-92272600D02*
X122902700Y-96175300D01*
%TO.N,CH3_SCR_RST*%
X115509900Y-73962300D02*
X115774500Y-74226900D01*
X115961600Y-92718000D02*
X115961600Y-74414000D01*
X115359500Y-73223900D02*
X115509900Y-73374300D01*
X115774500Y-74226900D02*
X115961600Y-74414000D01*
X115359500Y-73223900D02*
X115509900Y-73374300D01*
X115774500Y-74226900D02*
X115961600Y-74414000D01*
X122240000Y-98636700D02*
X121880300Y-98636700D01*
X121880300Y-98636700D02*
X115961600Y-92718000D01*
X115359500Y-73223900D02*
X115359500Y-64640500D01*
X115509900Y-73374300D02*
X115509900Y-73962300D01*
X115359500Y-64640500D02*
X117000000Y-63000000D01*
%TO.N,CH4_SCR_RST*%
X117352800Y-93149300D02*
X116480800Y-92277300D01*
X115998300Y-69001700D02*
X117000000Y-68000000D01*
X116480800Y-73897400D02*
X115998300Y-73414900D01*
X115998300Y-73414900D02*
X115998300Y-69001700D01*
X116480800Y-92277300D02*
X116480800Y-73897400D01*
%TO.N,CH1_SCR_RST*%
X179279400Y-98636700D02*
X179916700Y-97999400D01*
X179916700Y-97999400D02*
X179916700Y-61487000D01*
X179916700Y-61487000D02*
X173745900Y-55316200D01*
X176200000Y-97460000D02*
X177376700Y-98636700D01*
X177376700Y-98636700D02*
X179279400Y-98636700D01*
%TO.N,CH2_SCR_RST*%
X158480900Y-63275900D02*
X158480900Y-58001500D01*
X177563300Y-97460000D02*
X177563300Y-97092200D01*
X165168900Y-69963900D02*
X158480900Y-63275900D01*
X176754400Y-96283300D02*
X175129600Y-96283300D01*
X165168900Y-86322600D02*
X165168900Y-69963900D01*
X178740000Y-97460000D02*
X177563300Y-97460000D01*
X175129600Y-96283300D02*
X165168900Y-86322600D01*
X177563300Y-97092200D02*
X176754400Y-96283300D01*
%TO.N,Net-(D1-A)*%
X186892400Y-89500000D02*
X187120000Y-89500000D01*
X184000000Y-86607600D02*
X186892400Y-89500000D01*
X184000000Y-82800000D02*
X184000000Y-86607600D01*
X184000000Y-76040000D02*
X184000000Y-82800000D01*
%TO.N,Net-(J18-Pin_1)*%
X182481400Y-62000000D02*
X178382100Y-57900700D01*
X184000000Y-68760000D02*
X184000000Y-62000000D01*
X184000000Y-62000000D02*
X182481400Y-62000000D01*
%TO.N,SCR_BL_PWM*%
X131496000Y-49200000D02*
X137383700Y-55087700D01*
X137383700Y-55087700D02*
X137383700Y-82561100D01*
X137383700Y-82561100D02*
X145596000Y-90773400D01*
%TO.N,SPI_MOSI*%
X129000000Y-83500000D02*
X129000000Y-87500000D01*
X129000000Y-87500000D02*
X127000000Y-89500000D01*
%TO.N,SPI_SCK*%
X123972300Y-82472300D02*
X122574300Y-82472300D01*
X122574300Y-82472300D02*
X121996200Y-83050400D01*
X124561300Y-90534800D02*
X127965200Y-90534800D01*
X125000000Y-83500000D02*
X123972300Y-82472300D01*
X123602400Y-85555800D02*
X123602400Y-89575900D01*
X121996200Y-83050400D02*
X121996200Y-83949600D01*
X127965200Y-90534800D02*
X129000000Y-89500000D01*
X121996200Y-83949600D02*
X123602400Y-85555800D01*
X123602400Y-89575900D02*
X124561300Y-90534800D01*
%TO.N,CH1_ENC_CLK*%
X127248800Y-51251200D02*
X129185900Y-51251200D01*
X193980000Y-54280000D02*
X192803300Y-54280000D01*
X125000000Y-53500000D02*
X127248800Y-51251200D01*
X192803300Y-54280000D02*
X192786100Y-54262800D01*
X185914500Y-54262800D02*
X182406500Y-50754800D01*
X192786100Y-54262800D02*
X185914500Y-54262800D01*
%TO.N,CH1_FADER_OUT*%
X125930100Y-47995300D02*
X129447700Y-47995300D01*
X130226000Y-49650000D02*
X132358000Y-51782000D01*
X129447700Y-47995300D02*
X130226000Y-48773600D01*
X130226000Y-48773600D02*
X130226000Y-49650000D01*
X134475300Y-53102200D02*
X134475300Y-54746300D01*
X134475300Y-54746300D02*
X134657900Y-54928900D01*
X134475300Y-54746300D02*
X134657900Y-54928900D01*
X125146000Y-49631900D02*
X125146000Y-48779400D01*
X125146000Y-48779400D02*
X125930100Y-47995300D01*
X124401200Y-50376700D02*
X125146000Y-49631900D01*
X150219700Y-96283300D02*
X150800000Y-96283300D01*
X150800000Y-97460000D02*
X150800000Y-96283300D01*
X134657900Y-54928900D02*
X134657900Y-80721500D01*
X119000000Y-53500000D02*
X122123300Y-50376700D01*
X133155100Y-51782000D02*
X134475300Y-53102200D01*
X134657900Y-80721500D02*
X150219700Y-96283300D01*
X132358000Y-51782000D02*
X133155100Y-51782000D01*
X122123300Y-50376700D02*
X124401200Y-50376700D01*
%TO.N,CH2_ENC_SW*%
X115998300Y-53085100D02*
X115998300Y-53914900D01*
X194430500Y-52979100D02*
X191339100Y-52979100D01*
X196520000Y-61900000D02*
X196520000Y-60723300D01*
X120583400Y-58500000D02*
X121000000Y-58500000D01*
X119091800Y-51195100D02*
X117888300Y-51195100D01*
X196520000Y-60723300D02*
X196887700Y-60723300D01*
X196858600Y-55468200D02*
X196035000Y-55468200D01*
X197725400Y-56335000D02*
X196858600Y-55468200D01*
X195244200Y-53792800D02*
X194430500Y-52979100D01*
X191339100Y-52979100D02*
X190081200Y-51721200D01*
X195244200Y-54677400D02*
X195244200Y-53792800D01*
X196887700Y-60723300D02*
X197725400Y-59885600D01*
X196035000Y-55468200D02*
X195244200Y-54677400D01*
X115998300Y-53914900D02*
X120583400Y-58500000D01*
X197725400Y-59885600D02*
X197725400Y-56335000D01*
X117888300Y-51195100D02*
X115998300Y-53085100D01*
%TO.N,CH2_FADER_OUT*%
X150638200Y-58139700D02*
X150638200Y-66987100D01*
X150007300Y-67618000D02*
X150007300Y-76717000D01*
X150007300Y-76717000D02*
X149756500Y-76967800D01*
X150007300Y-92950600D02*
X153340000Y-96283300D01*
X149756500Y-76967800D02*
X149756500Y-77486800D01*
X150007300Y-77737600D02*
X150007300Y-92950600D01*
X149756500Y-77486800D02*
X150007300Y-77737600D01*
X153340000Y-97460000D02*
X153340000Y-96283300D01*
X150813300Y-57964600D02*
X150638200Y-58139700D01*
X150638200Y-66987100D02*
X150007300Y-67618000D01*
%TO.N,CH2_ENC_DT*%
X193980000Y-60723300D02*
X194347800Y-60723300D01*
X195156700Y-59914400D02*
X195156700Y-56280000D01*
X193980000Y-61900000D02*
X193980000Y-60723300D01*
X191976900Y-55643300D02*
X191223100Y-54889500D01*
X140493100Y-58433900D02*
X138462100Y-60464900D01*
X194520000Y-55643300D02*
X191976900Y-55643300D01*
X194347800Y-60723300D02*
X195156700Y-59914400D01*
X195156700Y-56280000D02*
X194520000Y-55643300D01*
X140493100Y-53750600D02*
X140493100Y-58433900D01*
%TO.N,CH3_ENC_DT*%
X193652300Y-65803300D02*
X194534400Y-65803300D01*
X195343300Y-66612200D02*
X195343300Y-66980000D01*
X196520000Y-66980000D02*
X195343300Y-66980000D01*
X190249400Y-62400400D02*
X193652300Y-65803300D01*
X190249400Y-58713300D02*
X190249400Y-62400400D01*
X194534400Y-65803300D02*
X195343300Y-66612200D01*
%TO.N,CH3_FADER_OUT*%
X150490100Y-77334200D02*
X150383200Y-77227300D01*
X155880000Y-97460000D02*
X155880000Y-96283300D01*
X143704100Y-75536100D02*
X143704100Y-65944600D01*
X150490100Y-90893400D02*
X150490100Y-77334200D01*
X143704100Y-65944600D02*
X143531900Y-65772400D01*
X155880000Y-96283300D02*
X150490100Y-90893400D01*
%TO.N,CH4_FADER_OUT*%
X134105500Y-81629600D02*
X134105500Y-71522200D01*
X157243300Y-97460000D02*
X157243300Y-97827800D01*
X158420000Y-97460000D02*
X157243300Y-97460000D01*
X144025500Y-91549600D02*
X134105500Y-81629600D01*
X144025500Y-92909100D02*
X144025500Y-91549600D01*
X149753100Y-98636700D02*
X144025500Y-92909100D01*
X156434400Y-98636700D02*
X149753100Y-98636700D01*
X157243300Y-97827800D02*
X156434400Y-98636700D01*
X134105500Y-71522200D02*
X133489900Y-70906600D01*
%TO.N,CH4_SCR_DC*%
X193980000Y-70883300D02*
X193073100Y-70883300D01*
X193073100Y-70883300D02*
X192266800Y-70077000D01*
X193980000Y-72060000D02*
X193980000Y-70883300D01*
%TO.N,CH5_FADER_OUT*%
X117995700Y-93862100D02*
X121806300Y-97672700D01*
X119000000Y-73000000D02*
X117995700Y-74004300D01*
X117995700Y-74004300D02*
X117995700Y-93862100D01*
%TO.N,CH_MAIN_ENC_DT*%
X121449600Y-85282600D02*
X121449600Y-93444700D01*
X124404500Y-94345400D02*
X125350700Y-93399200D01*
X122350300Y-94345400D02*
X124404500Y-94345400D01*
X120643200Y-84476200D02*
X121449600Y-85282600D01*
X121449600Y-93444700D02*
X122350300Y-94345400D01*
X123000000Y-78000000D02*
X120643200Y-80356800D01*
X120643200Y-80356800D02*
X120643200Y-84476200D01*
%TO.N,CH_MAIN_ENC_CLK*%
X121094900Y-81905100D02*
X121094900Y-84289100D01*
X125000000Y-78000000D02*
X121094900Y-81905100D01*
X121094900Y-84289100D02*
X122672500Y-85866700D01*
X122672500Y-85866700D02*
X122672500Y-93712600D01*
%TO.N,CH_MAIN_ENC_SW*%
X120191500Y-92292400D02*
X120198500Y-92299400D01*
X121000000Y-78000000D02*
X120191500Y-78808500D01*
X171292700Y-98650600D02*
X163001200Y-98650600D01*
X163001200Y-98650600D02*
X162323300Y-97972700D01*
X172483300Y-97460000D02*
X171292700Y-98650600D01*
X120191500Y-78808500D02*
X120191500Y-92292400D01*
X162323300Y-93349900D02*
X161580600Y-92607200D01*
X162323300Y-97972700D02*
X162323300Y-93349900D01*
X173660000Y-97460000D02*
X172483300Y-97460000D01*
%TO.N,CH_MAIN_SCR_CS*%
X163262100Y-86098200D02*
X163262100Y-96045400D01*
X163262100Y-96045400D02*
X163500000Y-96283300D01*
X163500000Y-97460000D02*
X163500000Y-96283300D01*
%TO.N,CH5_MOTOR_A*%
X151023200Y-74521500D02*
X151023200Y-67240900D01*
X151023200Y-67240900D02*
X151089900Y-67174200D01*
X152500000Y-75998300D02*
X151023200Y-74521500D01*
X151089900Y-58574300D02*
X154610000Y-55054200D01*
X152500000Y-77000000D02*
X152500000Y-75998300D01*
X154610000Y-55054200D02*
X154610000Y-49851200D01*
X151089900Y-67174200D02*
X151089900Y-58574300D01*
%TO.N,CH5_MOTOR_B*%
X145204000Y-51019400D02*
X145204000Y-75797400D01*
X135212700Y-49200000D02*
X135212700Y-48832300D01*
X136039100Y-48005900D02*
X142190500Y-48005900D01*
X135212700Y-48832300D02*
X136039100Y-48005900D01*
X142190500Y-48005900D02*
X145204000Y-51019400D01*
X134036000Y-49200000D02*
X135212700Y-49200000D01*
%TO.N,CH4_MOTOR_B*%
X139116000Y-49200000D02*
X139116000Y-50376700D01*
X141417500Y-68842400D02*
X141417500Y-66176000D01*
X141417500Y-66176000D02*
X141626700Y-65966800D01*
X141626700Y-65966800D02*
X141626700Y-52887400D01*
X141831300Y-77831300D02*
X141831300Y-69256200D01*
X141831300Y-69256200D02*
X141417500Y-68842400D01*
X141626700Y-52887400D02*
X139116000Y-50376700D01*
X147000000Y-83000000D02*
X141831300Y-77831300D01*
%TO.N,CH3_MOTOR_A*%
X148200500Y-66869600D02*
X148200500Y-74797800D01*
X148200500Y-74797800D02*
X147000000Y-75998300D01*
X148260000Y-50376700D02*
X148468100Y-50584800D01*
X148653700Y-57234000D02*
X148653700Y-66396300D01*
X148653700Y-66396300D02*
X148441500Y-66608500D01*
X148441500Y-66608500D02*
X148441500Y-66628600D01*
X148441500Y-66628600D02*
X148200500Y-66869600D01*
X148468100Y-57048400D02*
X148653700Y-57234000D01*
X148468100Y-57048400D02*
X148653700Y-57234000D01*
X148468100Y-50584800D02*
X148468100Y-57048400D01*
X147000000Y-77000000D02*
X147000000Y-75998300D01*
X148260000Y-49200000D02*
X148260000Y-50376700D01*
%TO.N,CH4_MOTOR_A*%
X142125700Y-67543200D02*
X142125700Y-50846400D01*
X142470200Y-68400700D02*
X142056300Y-67986800D01*
X142470200Y-76470200D02*
X142470200Y-68400700D01*
X141869200Y-67799700D02*
X142125700Y-67543200D01*
X142056300Y-67986800D02*
X141869200Y-67799700D01*
X142125700Y-50846400D02*
X141656000Y-50376700D01*
X147000000Y-81000000D02*
X142470200Y-76470200D01*
X142056300Y-67986800D02*
X141869200Y-67799700D01*
X141656000Y-49200000D02*
X141656000Y-50376700D01*
%TO.N,CH3_MOTOR_B*%
X147000000Y-79000000D02*
X145830700Y-77830700D01*
X145830700Y-50487400D02*
X145720000Y-50376700D01*
X145720000Y-49200000D02*
X145720000Y-50376700D01*
X145830700Y-77830700D02*
X145830700Y-50487400D01*
%TO.N,CH2_MOTOR_B*%
X148652200Y-76155700D02*
X148401400Y-76406500D01*
X148652200Y-67056700D02*
X148652200Y-76155700D01*
X149283100Y-66405700D02*
X148893200Y-66795600D01*
X150800000Y-49200000D02*
X150800000Y-50376700D01*
X149283100Y-51893600D02*
X149283100Y-66405700D01*
X148401400Y-83051600D02*
X147401800Y-84051200D01*
X148401400Y-76406500D02*
X148401400Y-83051600D01*
X150800000Y-50376700D02*
X149283100Y-51893600D01*
X148893200Y-66815700D02*
X148652200Y-67056700D01*
X147401800Y-84051200D02*
X145948800Y-84051200D01*
X148893200Y-66795600D02*
X148893200Y-66815700D01*
X145948800Y-84051200D02*
X144481800Y-82584200D01*
%TO.N,CH1_MOTOR_A*%
X137974500Y-50373100D02*
X137835400Y-50512200D01*
X140500000Y-77000000D02*
X140500000Y-75998300D01*
X137835400Y-50512200D02*
X137835400Y-73333700D01*
X137835400Y-73333700D02*
X140500000Y-75998300D01*
%TO.N,CH1_MOTOR_B*%
X145538800Y-84539600D02*
X140500000Y-79500800D01*
X153894400Y-48023300D02*
X152826200Y-48023300D01*
X154703300Y-49200000D02*
X154703300Y-48832200D01*
X152070000Y-48779500D02*
X152070000Y-50526200D01*
X154703300Y-48832200D02*
X153894400Y-48023300D01*
X148853100Y-77861000D02*
X149103900Y-78111800D01*
X148853100Y-76593600D02*
X148853100Y-77861000D01*
X149103900Y-67243800D02*
X149103900Y-76342800D01*
X140500000Y-79500800D02*
X140500000Y-79000000D01*
X152826200Y-48023300D02*
X152070000Y-48779500D01*
X149103900Y-76342800D02*
X148853100Y-76593600D01*
X149103900Y-82994300D02*
X147558600Y-84539600D01*
X149734800Y-66612900D02*
X149103900Y-67243800D01*
X152070000Y-50526200D02*
X149734800Y-52861400D01*
X149734800Y-52861400D02*
X149734800Y-66612900D01*
X155880000Y-49200000D02*
X154703300Y-49200000D01*
X147558600Y-84539600D02*
X145538800Y-84539600D01*
X149103900Y-78111800D02*
X149103900Y-82994300D01*
%TO.N,CH2_MOTOR_A*%
X149555600Y-83181400D02*
X147745700Y-84991300D01*
X149555600Y-76529900D02*
X149304800Y-76780700D01*
X149304800Y-76780700D02*
X149304800Y-77673900D01*
X153340000Y-49200000D02*
X153340000Y-50376700D01*
X150186500Y-53530200D02*
X150186500Y-66800000D01*
X153340000Y-50376700D02*
X150186500Y-53530200D01*
X144491300Y-84991300D02*
X140500000Y-81000000D01*
X149304800Y-77673900D02*
X149555600Y-77924700D01*
X147745700Y-84991300D02*
X144491300Y-84991300D01*
X149555600Y-67430900D02*
X149555600Y-76529900D01*
X149555600Y-77924700D02*
X149555600Y-83181400D01*
X150186500Y-66800000D02*
X149555600Y-67430900D01*
%TD*%
M02*
