%TF.GenerationSoftware,KiCad,Pcbnew,9.0.3*%
%TF.CreationDate,2026-02-23T11:54:41+01:00*%
%TF.ProjectId,Arduino Shield,41726475-696e-46f2-9053-6869656c642e,rev?*%
%TF.SameCoordinates,Original*%
%TF.FileFunction,Soldermask,Top*%
%TF.FilePolarity,Negative*%
%FSLAX46Y46*%
G04 Gerber Fmt 4.6, Leading zero omitted, Abs format (unit mm)*
G04 Created by KiCad (PCBNEW 9.0.3) date 2026-02-23 11:54:41*
%MOMM*%
%LPD*%
G01*
G04 APERTURE LIST*
G04 Aperture macros list*
%AMRoundRect*
0 Rectangle with rounded corners*
0 $1 Rounding radius*
0 $2 $3 $4 $5 $6 $7 $8 $9 X,Y pos of 4 corners*
0 Add a 4 corners polygon primitive as box body*
4,1,4,$2,$3,$4,$5,$6,$7,$8,$9,$2,$3,0*
0 Add four circle primitives for the rounded corners*
1,1,$1+$1,$2,$3*
1,1,$1+$1,$4,$5*
1,1,$1+$1,$6,$7*
1,1,$1+$1,$8,$9*
0 Add four rect primitives between the rounded corners*
20,1,$1+$1,$2,$3,$4,$5,0*
20,1,$1+$1,$4,$5,$6,$7,0*
20,1,$1+$1,$6,$7,$8,$9,0*
20,1,$1+$1,$8,$9,$2,$3,0*%
G04 Aperture macros list end*
%ADD10R,1.700000X1.700000*%
%ADD11O,1.700000X1.700000*%
%ADD12RoundRect,0.675000X0.675000X-0.675000X0.675000X0.675000X-0.675000X0.675000X-0.675000X-0.675000X0*%
%ADD13C,2.700000*%
%ADD14C,1.600000*%
%ADD15R,1.350000X1.350000*%
%ADD16C,1.350000*%
%ADD17C,3.200000*%
%ADD18RoundRect,0.250000X-1.350000X-1.350000X1.350000X-1.350000X1.350000X1.350000X-1.350000X1.350000X0*%
%ADD19RoundRect,0.250000X0.550000X-0.550000X0.550000X0.550000X-0.550000X0.550000X-0.550000X-0.550000X0*%
G04 APERTURE END LIST*
D10*
%TO.C,J7*%
X193980000Y-92380000D03*
D11*
X196520000Y-92380000D03*
X193980000Y-89840000D03*
X196520000Y-89840000D03*
X193980000Y-87300000D03*
X196520000Y-87300000D03*
X193980000Y-84760000D03*
X196520000Y-84760000D03*
X193980000Y-82220000D03*
X196520000Y-82220000D03*
X193980000Y-79680000D03*
X196520000Y-79680000D03*
X193980000Y-77140000D03*
X196520000Y-77140000D03*
X193980000Y-74600000D03*
X196520000Y-74600000D03*
X193980000Y-72060000D03*
X196520000Y-72060000D03*
X193980000Y-69520000D03*
X196520000Y-69520000D03*
X193980000Y-66980000D03*
X196520000Y-66980000D03*
X193980000Y-64440000D03*
X196520000Y-64440000D03*
X193980000Y-61900000D03*
X196520000Y-61900000D03*
X193980000Y-59360000D03*
X196520000Y-59360000D03*
X193980000Y-56820000D03*
X196520000Y-56820000D03*
X193980000Y-54280000D03*
X196520000Y-54280000D03*
X193980000Y-51740000D03*
X196520000Y-51740000D03*
X193980000Y-49200000D03*
X196520000Y-49200000D03*
%TD*%
D10*
%TO.C,J1*%
X127940000Y-97460000D03*
D11*
X130480000Y-97460000D03*
X133020000Y-97460000D03*
X135560000Y-97460000D03*
X138100000Y-97460000D03*
X140640000Y-97460000D03*
X143180000Y-97460000D03*
X145720000Y-97460000D03*
%TD*%
D10*
%TO.C,J3*%
X150800000Y-97460000D03*
D11*
X153340000Y-97460000D03*
X155880000Y-97460000D03*
X158420000Y-97460000D03*
X160960000Y-97460000D03*
X163500000Y-97460000D03*
X166040000Y-97460000D03*
X168580000Y-97460000D03*
%TD*%
D10*
%TO.C,J5*%
X173660000Y-97460000D03*
D11*
X176200000Y-97460000D03*
X178740000Y-97460000D03*
X181280000Y-97460000D03*
X183820000Y-97460000D03*
X186360000Y-97460000D03*
X188900000Y-97460000D03*
X191440000Y-97460000D03*
%TD*%
D10*
%TO.C,J2*%
X118796000Y-49200000D03*
D11*
X121336000Y-49200000D03*
X123876000Y-49200000D03*
X126416000Y-49200000D03*
X128956000Y-49200000D03*
X131496000Y-49200000D03*
X134036000Y-49200000D03*
X136576000Y-49200000D03*
X139116000Y-49200000D03*
X141656000Y-49200000D03*
%TD*%
D10*
%TO.C,J4*%
X145720000Y-49200000D03*
D11*
X148260000Y-49200000D03*
X150800000Y-49200000D03*
X153340000Y-49200000D03*
X155880000Y-49200000D03*
X158420000Y-49200000D03*
X160960000Y-49200000D03*
X163500000Y-49200000D03*
%TD*%
D10*
%TO.C,J6*%
X168580000Y-49200000D03*
D11*
X171120000Y-49200000D03*
X173660000Y-49200000D03*
X176200000Y-49200000D03*
X178740000Y-49200000D03*
X181280000Y-49200000D03*
X183820000Y-49200000D03*
X186360000Y-49200000D03*
%TD*%
D12*
%TO.C,F1*%
X184000000Y-82800000D03*
X184000000Y-76040000D03*
D13*
X184000000Y-68760000D03*
X184000000Y-62000000D03*
%TD*%
D14*
%TO.C,C15*%
X114000000Y-78000000D03*
X109000000Y-78000000D03*
%TD*%
%TO.C,C8*%
X152500000Y-65500000D03*
X152500000Y-60500000D03*
%TD*%
D15*
%TO.C,J22*%
X140500000Y-70000000D03*
D16*
X140500000Y-72000000D03*
%TD*%
D14*
%TO.C,C9*%
X114000000Y-83000000D03*
X109000000Y-83000000D03*
%TD*%
D17*
%TO.C,MH6*%
X196520000Y-97460000D03*
%TD*%
D15*
%TO.C,J9*%
X133000000Y-53500000D03*
D16*
X131000000Y-53500000D03*
X129000000Y-53500000D03*
X127000000Y-53500000D03*
X125000000Y-53500000D03*
X123000000Y-53500000D03*
X121000000Y-53500000D03*
X119000000Y-53500000D03*
X117000000Y-53500000D03*
%TD*%
D15*
%TO.C,J19*%
X152500000Y-70000000D03*
D16*
X152500000Y-72000000D03*
%TD*%
D14*
%TO.C,C7*%
X147000000Y-65500000D03*
X147000000Y-60500000D03*
%TD*%
%TO.C,C13*%
X114000000Y-73500000D03*
X109000000Y-73500000D03*
%TD*%
D15*
%TO.C,J14*%
X133000000Y-78000000D03*
D16*
X131000000Y-78000000D03*
X129000000Y-78000000D03*
X127000000Y-78000000D03*
X125000000Y-78000000D03*
X123000000Y-78000000D03*
X121000000Y-78000000D03*
X119000000Y-78000000D03*
%TD*%
D15*
%TO.C,J12*%
X133000000Y-68000000D03*
D16*
X131000000Y-68000000D03*
X129000000Y-68000000D03*
X127000000Y-68000000D03*
X125000000Y-68000000D03*
X123000000Y-68000000D03*
X121000000Y-68000000D03*
X119000000Y-68000000D03*
X117000000Y-68000000D03*
%TD*%
D15*
%TO.C,J21*%
X147000000Y-70000000D03*
D16*
X147000000Y-72000000D03*
%TD*%
D18*
%TO.C,D1*%
X171880000Y-89500000D03*
D17*
X187120000Y-89500000D03*
%TD*%
D19*
%TO.C,C2*%
X172500000Y-70000000D03*
D14*
X172500000Y-66500000D03*
%TD*%
%TO.C,C14*%
X114000000Y-68500000D03*
X109000000Y-68500000D03*
%TD*%
D15*
%TO.C,J23*%
X162000000Y-84500000D03*
D16*
X162000000Y-82500000D03*
%TD*%
D15*
%TO.C,J18*%
X162000000Y-58500000D03*
D16*
X162000000Y-56500000D03*
%TD*%
D17*
%TO.C,MH1*%
X115240000Y-49200000D03*
%TD*%
D15*
%TO.C,J15*%
X152500000Y-77000000D03*
D16*
X152500000Y-79000000D03*
X152500000Y-81000000D03*
X152500000Y-83000000D03*
%TD*%
D15*
%TO.C,J8*%
X133000000Y-89500000D03*
D16*
X131000000Y-89500000D03*
X129000000Y-89500000D03*
X127000000Y-89500000D03*
X125000000Y-89500000D03*
%TD*%
D19*
%TO.C,C1*%
X172500000Y-59500000D03*
D14*
X172500000Y-56000000D03*
%TD*%
%TO.C,C6*%
X140500000Y-65500000D03*
X140500000Y-60500000D03*
%TD*%
%TO.C,C10*%
X114000000Y-53500000D03*
X109000000Y-53500000D03*
%TD*%
D19*
%TO.C,C3*%
X172500000Y-79500000D03*
D14*
X172500000Y-76000000D03*
%TD*%
D15*
%TO.C,J10*%
X133000000Y-58500000D03*
D16*
X131000000Y-58500000D03*
X129000000Y-58500000D03*
X127000000Y-58500000D03*
X125000000Y-58500000D03*
X123000000Y-58500000D03*
X121000000Y-58500000D03*
X119000000Y-58500000D03*
X117000000Y-58500000D03*
%TD*%
D15*
%TO.C,J11*%
X133000000Y-63000000D03*
D16*
X131000000Y-63000000D03*
X129000000Y-63000000D03*
X127000000Y-63000000D03*
X125000000Y-63000000D03*
X123000000Y-63000000D03*
X121000000Y-63000000D03*
X119000000Y-63000000D03*
X117000000Y-63000000D03*
%TD*%
D15*
%TO.C,J17*%
X140500000Y-77000000D03*
D16*
X140500000Y-79000000D03*
X140500000Y-81000000D03*
X140500000Y-83000000D03*
%TD*%
D14*
%TO.C,C11*%
X114000000Y-58500000D03*
X109000000Y-58500000D03*
%TD*%
D17*
%TO.C,MH2*%
X113970000Y-97460000D03*
%TD*%
D14*
%TO.C,R1*%
X159000000Y-66920000D03*
X159000000Y-77080000D03*
%TD*%
%TO.C,C4*%
X114000000Y-88000000D03*
X109000000Y-88000000D03*
%TD*%
D17*
%TO.C,MH3*%
X166040000Y-64440000D03*
%TD*%
%TO.C,MH4*%
X166040000Y-92380000D03*
%TD*%
D14*
%TO.C,C12*%
X114000000Y-63500000D03*
X109000000Y-63500000D03*
%TD*%
D15*
%TO.C,J16*%
X147000000Y-77000000D03*
D16*
X147000000Y-79000000D03*
X147000000Y-81000000D03*
X147000000Y-83000000D03*
%TD*%
D15*
%TO.C,J13*%
X133000000Y-73000000D03*
D16*
X131000000Y-73000000D03*
X129000000Y-73000000D03*
X127000000Y-73000000D03*
X125000000Y-73000000D03*
X123000000Y-73000000D03*
X121000000Y-73000000D03*
X119000000Y-73000000D03*
X117000000Y-73000000D03*
%TD*%
D17*
%TO.C,MH5*%
X190170000Y-49200000D03*
%TD*%
D15*
%TO.C,J20*%
X133000000Y-83500000D03*
D16*
X131000000Y-83500000D03*
X129000000Y-83500000D03*
X127000000Y-83500000D03*
X125000000Y-83500000D03*
X123000000Y-83500000D03*
%TD*%
M02*
